<?xml version="1.0" encoding="UTF-8"?>
<svg id="_图层_1" data-name="图层_1" xmlns="http://www.w3.org/2000/svg" version="1.1" viewBox="0 0 900 503">
  <!-- Generator: Adobe Illustrator 29.6.0, SVG Export Plug-In . SVG Version: 2.1.1 Build 207)  -->
  <defs>
    <style>
      .st0 {
        fill: #5091e6;
      }

      .st1 {
        font-size: 13px;
      }

      .st1, .st2, .st3, .st4, .st5 {
        isolation: isolate;
      }

      .st6 {
        fill: #f7c63b;
      }

      .st7 {
        fill: #bfc3c5;
      }

      .st8 {
        fill: #6baa7e;
      }

      .st9 {
        fill: #eaeef2;
      }

      .st10 {
        fill: #fb953a;
      }

      .st11 {
        fill: #9976e8;
      }

      .st2 {
        font-size: 19px;
      }

      .st2, .st4, .st5, .st12 {
        font-family: TimesNewRomanPS-BoldMT, 'Times New Roman';
        font-weight: 700;
      }

      .st13 {
        fill: #facf39;
      }

      .st14 {
        fill: #bec2c2;
      }

      .st15 {
        fill: #f4f8f9;
      }

      .st16 {
        fill: #3f9fab;
      }

      .st17 {
        fill: #5293e8;
      }

      .st18 {
        fill: #c9ccd0;
      }

      .st19 {
        fill: #f6c33c;
      }

      .st20 {
        fill: #48cedc;
      }

      .st21 {
        fill: #333e33;
      }

      .st22 {
        fill: #c5c8cc;
      }

      .st23 {
        fill: #3fb9c8;
      }

      .st24 {
        fill: #9472e6;
      }

      .st25 {
        fill: #babfbd;
      }

      .st26 {
        fill: #f8c852;
      }

      .st27 {
        fill: #deb731;
      }

      .st28 {
        fill: #474a32;
      }

      .st29 {
        fill: #59cdda;
      }

      .st30 {
        fill: #f4f9f9;
      }

      .st31 {
        fill: #f1f4f6;
      }

      .st32 {
        fill: #71c686;
      }

      .st33 {
        fill: #d3d5d8;
      }

      .st34 {
        fill: #609e71;
      }

      .st35 {
        fill: #384a3e;
      }

      .st36 {
        fill: #eabd37;
      }

      .st4 {
        fill: #fff;
        font-size: 15px;
      }

      .st37 {
        fill: #b6babb;
      }

      .st38 {
        fill: #f4f7f9;
      }

      .st39 {
        fill: #f1c13c;
      }

      .st40 {
        fill: #808583;
      }

      .st41 {
        fill: #e8964f;
      }

      .st42 {
        fill: #f3f6f8;
      }

      .st43 {
        fill: #fbcd39;
      }

      .st44 {
        fill: #f9c852;
      }

      .st5 {
        font-size: 17px;
      }

      .st45 {
        fill: #faf2ca;
      }

      .st46 {
        fill: #6ba37e;
      }

      .st47 {
        fill: #bcc0c1;
      }

      .st48 {
        fill: #e79a53;
      }

      .st49 {
        fill: #f7d13a;
      }

      .st50 {
        fill: #fb9035;
      }

      .st51 {
        fill: #f2f5f7;
      }

      .st52 {
        fill: #333c33;
      }

      .st53 {
        fill: #76ca8a;
      }

      .st54 {
        fill: #ce8956;
      }

      .st55 {
        fill: #36453b;
      }

      .st56 {
        fill: #c5c6cc;
      }

      .st57 {
        fill: #72bf85;
      }

      .st58 {
        fill: #dedee9;
      }

      .st59 {
        fill: #df9653;
      }

      .st60 {
        fill: #5a9c6d;
      }

      .st61 {
        fill: #7573c4;
      }

      .st62 {
        fill: #73c787;
      }

      .st63 {
        fill: #eef2f5;
      }

      .st64 {
        fill: #eff3f6;
      }

      .st65 {
        font-family: TimesNewRomanPSMT, 'Times New Roman';
      }

      .st66 {
        fill: #44c8d6;
      }

      .st67 {
        fill: #5574b9;
      }

      .st68 {
        fill: #8b6fcc;
      }

      .st69 {
        fill: #b9bdbc;
      }
    </style>
  </defs>
  <g id="_x23_f2f5f7ff">
    <path class="st51" d="M0,0h610.01c.02,1.21.04,2.42.07,3.63.93-.83,1.85-1.67,2.79-2.5.76.96,1.52,1.92,2.3,2.88,3.96-2.24,8.76-4.22,13.03-1.49-6.6,6.95-13.68,13.47-20.06,20.6-1.99.5-3.92,1.35-4.59,3.47-1.02,2.75-3.75,3.97-6.09,5.34.31.89.64,1.78.97,2.67-1.26.31-2.52.61-3.76.91-3,3.13-6.11,6.96-10.76,7.32.03.77.23,1.59.1,2.34-3.44,2.68-7.21,4.95-10.35,8.02-.16-1.35-.31-2.69-.45-4.03-.87-.52-1.73-1.04-2.58-1.56-1.89,1.82-1.87,4.22-.54,6.37.42-.7,1.26-2.11,1.68-2.81.41,1.91.72,3.85,1.03,5.79-.61-.36-1.85-1.07-2.46-1.43-.93,1.09-1.87,2.18-2.79,3.27-.82-1.6-1.64-3.21-2.47-4.81-.94,2.64-1.33,5.46-.29,8.15-2.9-1.55-3.97,1.58-4.81,3.72-.45.02-1.34.05-1.79.06.47-1.58.95-3.17,1.45-4.76-2.15-.21-4.28-.42-6.42-.63-.31.75-.62,1.5-.91,2.25,1.35.98,2.59,3.18.75,4.41-1.43.2-2.83-.26-4.22-.49.99,1.15,1.98,2.31,2.96,3.48-2.56.01-5.12-.18-7.65-.55,2.59-2.31,5.99-4.45,6.13-8.32-6-.32-12.07-.1-17.99-1.32-2.27-.62-4.14,1.13-5.99,2.14.83.76,1.67,1.52,2.5,2.3-2.44-.82-4.55-2.3-6.81-3.47-1.27.13-2.22,1.05-3.32,1.57,1.04.82,2.08,1.65,3.13,2.48-1.46.3-2.93.59-4.39.9.05-1.07.12-2.13.19-3.19-.85-.09-1.68-.17-2.51-.25,2.24-3.23,5.89-6.09,5.83-10.37.11-6.01.2-12.04-.07-18.05,0-2.49-1.14-4.75-2.71-6.62-1.39-1.71-2.82-3.83-5.16-4.2-3.98-.5-8-.15-11.99-.22-37-.02-74,.01-111-.02-2.41-.04-5.05.45-6.64,2.43-1.91,2.06-1.73,5.05-1.81,7.65.03,5.92.02,11.85.04,17.77.24,2.22.8,4.59,2.62,6.08,2.61,2.46,6.42,2.58,9.81,2.57,13.32-.19,26.64.08,39.97-.21,4.49-.12,8.94.98,13.44.57-4.86,8.03-9.27,16.33-13.79,24.56,3.29.06,6.58.11,9.88.14.44,24.82.15,49.65.17,74.47-12.95,1.58-25.9,4.63-37.36,11.05,1.5,2.85,2.99,5.71,4.48,8.57,14.47-7.5,31.08-11.03,47.33-9.35,10.59,1.21,21.07,4.06,30.53,9.06l-.63.42c-1.4.88-2.8,1.72-4.2,2.58.55,2.1,2.03,3.48,4.21,3.73-.1.81-.2,1.63-.29,2.44-3.03,1.27-4.85,4.05-7.12,6.25-1.65.94-3.56,1.22-5.35,1.75.73.21,1.46.42,2.2.63-2.14,2.26-4.22,4.57-6.25,6.92-.72-1.43-1.42-2.88-2.27-4.22-1.51.19-1.46,1.95-1.99,3.02-1.93.94-3.75,2.08-5.47,3.34-1.95-3.25-3.52-6.78-6.04-9.66-3.65-3.69-10.39-2.31-12.6,2.3-6.78,11.5-13.46,23.06-20.16,34.61-3.75,6.66-7.9,13.1-11.38,19.9-2.4,4.65,1.23,11.14,6.58,11.08,21.38.04,42.77.06,64.16-.03,3.44.25,5.69-2.64,7.26-5.28.84.12,1.68.24,2.52.37-.13-2.37-1.28-5.13.42-7.19,1.42-2.23,4.26-2.56,6.53-3.42.57-2.87,2.36-6.73,5.9-5.99,1.35-2.42,3.2-4.5,5.44-6.13.27-1.33.55-2.66.84-3.98.22.56.67,1.67.9,2.23,3.38-1.53,4.76-4.92,5.44-8.34,1.41,1.29,3.09,2.5,5.14,2.11-1.21-.95-2.44-1.87-3.65-2.8,1.78-1.1,3.56-2.2,5.34-3.31,3.13,10.02,6.22,20.33,5.63,30.95-.62,6.91-1.18,13.93-3.5,20.53-2.69,7.63-5.1,15.59-10.12,22.08-5.88,7.65-11.91,15.52-20.24,20.66-13.24,9.7-29.62,14.42-45.88,15.12-10.71-.42-21.32-2.92-31.34-6.66-7.77-3.95-15.39-8.4-22.19-13.9-.43.43-1.29,1.27-1.72,1.69-12.08-10.97-20.72-25.59-24.71-41.4-1.35-5.64-1.82-11.44-2.45-17.19-1.47.03-2.94.08-4.4.13-1.42.05-2.84.14-4.25.26.93-.58,1.87-1.15,2.8-1.73-5.55.11-11.1-.07-16.64.06-.4,11.39,2.09,22.69,5.46,33.51,3.24-1.36,6.82-2.27,9.56-4.56.68-1.72.78-3.6.99-5.41.82,2.82,1.42,5.71,1.68,8.64-25.36,10.86-50.58,22.03-75.89,33.01-1.26-3.34-2.63-6.63-4.11-9.87-4.6,3.32-7.02,8.56-10.49,12.87-3.14,4.18-6.86,8.03-8.98,12.88-.17-4.2,1.08-9.23-2.07-12.63-1.51-1.84-3.95-2.36-6.22-2.32-60.7-.01-121.4.02-182.11,0-3.52-.36-7.42,1.79-7.81,5.57-.91,7.15-.06,14.39-.55,21.58-1.12,5.04,3.54,9.42,8.42,9.08,58.99.09,117.98-.03,176.96.06,3.9-.09,8.41.6,11.57-2.25,2.03-1.47,1.93-4.22,2.45-6.42l-1.6,1.12c1.13-4.21.97-8.59.94-12.89,10.59,2.42,21.5,3.44,32.31,4.5-1.41-3.25-2.68-6.57-3.57-10,19.88-8.52,39.64-17.32,59.46-25.98,5.96-2.06,11.27-5.59,17.25-7.61,4.9,9.02,11.36,17.19,18.84,24.2,2.32,1.95,4.57,4.62,7.91,4.45,6.15,5.72,13.18,10.43,20.77,14.03,6.85,4.19,14.8,5.8,22.57,7.35,2.93.54,5.92.42,8.89.36.81,1.09,1.63,2.18,2.46,3.28.78-1.07,1.56-2.14,2.36-3.2,4.56.1,9.14-.13,13.6-1.23,4.22-1.08,8.74-.62,12.82-2.29,8.05-3.3,16.06-6.87,23.24-11.84,7.38-5.2,13.27-12.09,19.94-18.1,1.94-1.67,1.97-4.4,2.57-6.68.07-.1.2-.31.27-.41,1.81-2.66,3.6-5.33,5.36-8.02,4.25,1.47,8.28,3.47,12.35,5.38,21.97,9.05,43.73,18.6,65.69,27.68-1.58,3.39-3,6.86-4.23,10.4,10.66-1.06,21.21-3.04,31.81-4.51,2.05-1.01.01-3.14-.72-4.32-5.84-7.68-11.6-15.43-17.65-22.95-1.81,3.14-3.31,6.45-4.48,9.88-25.81-10.45-51.25-21.8-77-32.37.45-2.13.95-4.24,1.56-6.32.21.69.62,2.07.82,2.76,3.34,1.55,6.66,3.14,9.96,4.78,2.45-4.16,3.26-8.98,4.38-13.61,1.41-7.08,3.18-14.31,1.99-21.57-5.61-.26-11.24-.39-16.85-.03,1.31.49,2.63.99,3.95,1.49-1.32-.03-2.64-.07-3.96-.1-1.93-.04-3.85-.07-5.77-.1.04-1.43.05-2.85.02-4.27,1.01-.07,2.03-.13,3.06-.19,1.46.77,2.94,1.72,4.68,1.66,4.93.2,9.86-.07,14.8-.05.18-5.23.04-10.5-1.01-15.64-1.54-7.64-2.97-15.46-6.63-22.43-3.93,1.22-7.51,3.28-10.75,5.8-.63-1.76-1.29-3.5-1.95-5.23,26.2-14.25,52.21-28.84,78.37-43.15,3.47-1.71,7.04-3.26,10.27-5.43,1.62,2.98,3.31,5.93,5.1,8.82-2.7-1.29-5.26-3.04-8.22-3.65-7.72.77-12.95,7.28-19.7,10.39-6.52,2.98-12.81,6.43-18.94,10.15-11.24,6.26-22.62,12.29-33.88,18.53,4.06,8.7,6.42,18.05,8.15,27.46.64,4.83.3,9.77,1.44,14.55,8.3.69,16.63.16,24.94.28,16.64-.23,33.3.4,49.93-.2.41-19.99.07-39.99.17-59.98.12-4.46-.57-9.03.5-13.41,1.41-1.94,4.49-2.05,5.58-4.34,1.82-3.66,2.63-8.18,6.61-10.24-.51-.74-1-1.48-1.5-2.22.59-.29,1.18-.58,1.78-.86,1.82,2.68,4.33,5.35,7.93,4.75,69.05-.15,138.1.21,207.14-.17.53-1.59,1.09-3.16,1.73-4.71,2.98-5.46,1.58-11.82,1.91-17.75-.17-3.84.68-8.44-2.31-11.46-1.63-1.77-4.2-1.77-6.41-1.83-68.17.08-136.33-.02-204.5.08,4.32-1.42,8.91-.99,13.38-1,22.7-.07,45.4.05,68.1.02,5.02.61,7.1-4.78,10.84-6.98,3.86-2.08,5.44-6.51,9-8.95,3.96-2.89,7.17-6.66,11.14-9.56-7.08-1.33-14.15.57-21.25.11-5.26.02-10.55-1.68-15.74-.3-5.13,1.93-10.2-1.71-15.42-.26.18-.34.53-1.02.71-1.35-1.82-2.12-4.04-3.96-5.43-6.39-.5-3.56.33-7.19-.34-10.74-1.37-1.17-3.49-1.05-5.13-1.71,2.08-1.88,4.09-3.83,6.07-5.82-.29-.34-.89-1.02-1.19-1.36.98-5,1.5-10.07,2.32-15.09.31-3.76,4.75-5.17,7.97-5.06,5.8.22,11.6-.12,17.4-.53,3.58-.26,7.31,1.2,10.78-.13,2.38-2.54,4.11-5.83,7.33-7.46,1.59-.83,3.39-.05,5.04.16-1.03-3.71,1.47-6.69,3.79-9.24,1.53,1.1,3.07,2.2,4.61,3.3-.37-.85-.73-1.69-1.08-2.53.43-1.02.86-2.03,1.32-3.05-.81-.44-1.6-.88-2.37-1.32,1.67-.99,3.4-1.93,4.94-3.16,1.82-1.5,2.59-3.88,4.36-5.41,1.92.15,3.86.33,5.8.16.02-2-.43-4.14.21-6.06,2.96-2.7,6.28-5.21,10.27-6.15-.04-1.09-.28-2.37.76-3.13,2.31-2.31,4.37-4.87,5.79-7.83.03,1.03.08,2.06.14,3.09.45-.18,1.34-.53,1.78-.71-.14-1.45-.28-2.91-.39-4.36h103.95v503H0V0M709.06,63.9c-.41,8.33-.39,16.71.31,25.02-.25.8-.74,2.39-.99,3.19,1.23,2.17,2.78,4.34,5.23,5.25,4.9,1.94,10.26.7,15.37.81,4.33.14,8.66.31,13.01.2,37-.12,74.03.21,111.04.03,3.97-.43,9-5.16,6.85-9.24.69-6.38.05-12.82.29-19.23-.15-3.91.77-8.74-2.5-11.67-1.73-1.76-4.37-1.73-6.64-1.77-45,.07-90.01-.04-135.01.06-3.98-.19-7.05,3.54-6.96,7.35M74.74,105.07c-.02,7-.32,14.03.14,21.01,1.39,3.08,4.55,5.73,8.1,5.36,45.99-.05,91.98.06,137.97,0,3.78.48,6.3-2.64,8.47-5.21.03-3.55.32-7.09.21-10.64.26,1.26.65,2.48,1.02,3.71,4.95,7.98,8.57,16.7,13.39,24.76,1.85-3.03,3.9-5.94,5.95-8.84,9.66,4.62,18.15,11.26,27.43,16.53,22.95,14.42,45.95,28.78,68.97,43.08,7.14,4.53,14.2,9.18,21.52,13.43-.96,2.68-2.15,5.27-3.23,7.9-2.14-3.71-5.47-8.39-10.27-8-5.92,13.28-9.68,27.86-9.16,42.46,5.86.09,11.73.09,17.59,0-1.06-.54-2.11-1.1-3.2-1.55,2.75.2,5.51.18,8.27.21.28-15.7,5.16-31.3,14.09-44.23,1.49-2.12,3.04-4.21,4.35-6.46,1.25-.83,2.15-2.07,3.16-3.15,5.02-5.73,11.17-10.31,17.38-14.66-1.52-2.83-3.11-5.61-4.75-8.36-10.71,6.68-20.03,15.4-27.54,25.54-1.91-.87-3.75-1.89-5.47-3.1-37.62-23.6-75.33-47.06-112.88-70.78,1.96-2.66,3.55-5.57,4.88-8.6-5.34-.77-10.73-1.01-16.12-1.03-5.19.11-10.32-1.31-15.52-.61-.33-3.61.03-7.28-.62-10.87-1.13-3.18-4.47-5.19-7.82-4.83-46,.01-92.01,0-138.02,0-4.07-.46-8.47,2.57-8.29,6.93M150.78,164.57c-.03,2.78-.02,5.57,0,8.36-1.38-1.02-2.49-2.99-4.43-2.68-.01,3.17,3.84,4.84,5.58,7.26,2-1.93,4.16-3.73,5.9-5.9-.2-3.3-3.55,0-4.7,1.14.09-2.57.25-5.15,0-7.71-.59-.12-1.76-.36-2.35-.47M804.15,191.27c-1.55,3.01,3.3.18,0,0M753.94,200.51c-1.44-1.32-4.06-4.44-4.97-1,2.05,1.98,4.1,3.99,6.45,5.62,1.76-2.07,4.28-3.68,5.51-6.1-.94-3.03-3.25.76-4.66,1.57.01-2.67,0-5.34-.03-8-4-.05-1.72,5.4-2.3,7.91M150.89,204.58c-.11,2.73-.15,5.46-.14,8.2-1.41-1.31-2.85-2.84-4.95-2.79.88,3.28,3.96,5.13,6.21,7.42,2.33-2.09,4.58-4.28,6.6-6.67-2.29-1.63-3.84.67-5.38,2.11.02-2.59.12-5.19-.19-7.77-.54-.12-1.62-.37-2.15-.5M85.53,218.37c-3.11.52-5.49,3.49-5.56,6.61-.26,6.65-.05,13.31-.15,19.97.04,2.98-.33,6.37,1.76,8.81-.03.84-.09,2.51-.13,3.35,2.68,1.31,5.46,2.71,8.53,2.48,42.68-.07,85.36.05,128.03-.07,3.84.66,5.28-3.8,5.57-6.8,1.11-8.84.44-17.79.51-26.67.4-4.42-3.57-8.36-7.97-7.93-40.39-.04-80.77.01-121.15,0-3.15.04-6.32-.22-9.44.26M754.14,232.95c-.04,2.27-.07,4.53-.08,6.8-1.54-1.22-3-3.09-5.2-2.69,1.25,3.07,3.97,5.11,6.56,7.01,1.97-2.27,4.97-3.96,5.67-7.09-1.99.02-3.46,1.35-4.84,2.6,0-2.22-.01-4.44-.03-6.65-.52,0-1.56.01-2.08.02M683,247.15c-1.99,2.09-1.68,5.17-1.92,7.81-.45,4.91-.17,9.83-.04,14.74-.61,2.85-1.5,5.71-1.47,8.65.77,4.01,3.89,8.43,8.4,8.25,7.35-.22,14.64,1.29,22,.74,5.35-.56,10.71.07,16.06-.34,5.33.59,10.68.49,16.01-.04,8.62.7,17.27.28,25.91.46,11.03-.92,22.12.81,33.16-.45,7.66.47,15.49.97,23.05-.83,2.68-1.1,5.27-3.39,5.36-6.5.3-5.54-.04-11.1.1-16.65-.09-2.44.34-5.03-.75-7.31.67-4.57-1.35-10.75-6.85-10.69-43.99-.15-87.98-.04-131.97-.07-2.5-.06-5.31.19-7.05,2.23M637.36,319.09c-.2,5.07-.95,10.13-.3,15.2-.38,5.25-.58,10.56.06,15.81.21,1.5.4,3.13,1.45,4.33-1.53,1.85.64,3.49,2.06,4.29,5.9,3.39,13.02,1.5,19.41,1.04,56.2-.04,112.4.29,168.59-.13,1.53-1.71,3.77-3.44,2.76-6.04,1.09-2.39.85-5.07.87-7.61-.14-8.33.13-16.66-.11-24.99.02-3.84-2.95-7.89-7.06-7.71-57.7-.09-115.4,0-173.1-.04-2.98.02-5.96-.14-8.92.18-2.89.29-5.52,2.71-5.71,5.67M160.34,390.89c-1.37-.89-4.08-4.28-4.73-.9,1.91,1.97,3.62,5.09,6.46,5.51,2.08-1.59,3.89-3.53,5.49-5.59-.76-2.7-3.42.25-4.8.78-.53-2.45,1.71-7.33-2.2-7.45-.14,2.54-.19,5.09-.22,7.65M743.74,385.42c-.09,2.82-.09,5.64-.01,8.47-1.4-1.13-2.55-3.18-4.62-2.72-.57,2.9,2.96,4.67,4.87,6.31,3.33.05,5.92-3.43,7.06-6.32-2.01-.04-3.55,1.19-4.96,2.43-.33-2.73,1.76-7.63-2.34-8.17M314.44,418.94c.02,17.08-.21,34.18.12,51.27.79.73,1.56,1.52,2.41,2.22-.52.36-1.54,1.1-2.06,1.47,2.41,1.68,5.11,3.11,8.15,2.75,86.35-.1,172.71.16,259.05-.11,1.15-1.74,4.66-3.62,2.63-5.94,1.11-1.22.69-3.07.87-4.56-.07-15.7.02-31.4-.05-47.1.18-3.49-3.08-6.66-6.56-6.43-85.68-.14-171.37.05-257.05-.03-3.76-.48-7.76,2.5-7.51,6.46M160.33,428.43c-1.52-.58-4.15-3.89-4.67-.73,1.76,2.31,4.02,4.16,6.26,5.98,2.03-2.36,5.41-4.1,5.75-7.5-1.72.42-3.33,1.16-4.79,2.16-.54-2.3,1.53-6.97-2.07-6.99-1.03,2.18-.37,4.74-.48,7.08M743.49,423.85c.08,2.24.17,4.48.26,6.72-1.34-1.14-2.7-2.27-4.05-3.37-1.56,3.49,3.03,5.53,5.11,7.61,2.49-1.88,5.77-3.98,5.86-7.45-1.85.52-3.27,1.77-4.61,3.08.07-2.11.12-4.21.17-6.31-.69-.07-2.06-.21-2.74-.28M80.41,440.98c-.21,8.9-.25,17.8-.02,26.69.13,1.75-.23,3.66.5,5.32,1.67,1.48,3.78,2.68,6.08,2.55,48,.05,96.01.02,144.01.02,3.36-.17,7.23.74,10.11-1.49,2.06-1.46,1.4-4.22,1.62-6.36,1.03-3.08.27-6.47.48-9.67-.12-5.7.24-11.42-.18-17.11-.3-3.44-3.46-6.56-7.01-6.24-49.69.04-99.39-.04-149.08.04-3.34-.07-6.64,2.8-6.51,6.25M671.56,439.66c-.09.07-.28.2-.37.27-1.18,9.69-.25,19.51-.55,29.25l.47.43c-1.63,1.37.05,3.08.77,4.36,1.92,3.03,5.86,3.44,9.13,3.58,40.99,0,81.98.02,122.97.02,3.85-.14,8.32.79,11.53-1.93,1.66-1.54,3.31-3.64,2.94-6.07,1.09-3.76.87-7.72.45-11.57-.64-5.77,1.3-11.69-.46-17.36-.93-3.17-4.21-5.16-7.45-4.85-44.34,0-88.69-.02-133.03.1-2.7-.21-5.29,1.28-6.4,3.77Z"/>
    <path class="st51" d="M451.98,58.47c1.66.55,3.38.96,5.13,1.14,3.69,6.03,5.96,12.78,9.3,18.99.9,2.16,2.54,4.69,1.27,7.02-1.89,2.45-4.92,3.82-6.56,6.47-1.46,3.45-.92,7.31-1.12,10.96-.41,7.32.42,14.67-.57,21.97-.38,11.13-.42,22.31.06,33.44.89.47,1.8.94,2.71,1.4-1.97-.28-3.95-.51-5.92-.76.35-7.4-1.1-14.78-.1-22.16.3-17.13-.18-34.27.29-51.4,3.26-.06,6.51-.41,9.73-.98-4.63-8.75-9.46-17.41-14.22-26.09Z"/>
    <path class="st51" d="M630.66,139.72c4.72.24,9.64,3.4,14.14.6.35,5.98-1.38,12.28,1.07,17.98-.49.03-1.47.09-1.97.12-4.25.44-6.77,4.6-8.66,8-1.51,2.71-2.77,6.32-6.33,6.77,3.06-4.51,5.49-9.4,8.38-14.01,2.4-4.15,5.38-8.02,7.03-12.56-.15-.35-.45-1.04-.6-1.39-.34-.19-1.02-.56-1.37-.75-9.71-1.53-19.57-.39-29.3-1.64,5.34-3.01,11.63-3.27,17.61-3.12Z"/>
    <path class="st51" d="M609.33,152.31c2.75-2.24,2.83-5.98,3.1-9.21,1.62,3.37,3.38,6.68,5.18,9.98-29.55,16.81-59.6,32.74-89.1,49.64-.81-1.22-1.61-2.44-2.43-3.64,4.4-1.26,9.31-2.91,11.46-7.33.49.2,1,.41,1.51.63,8.52-3.55,15.8-9.29,24.09-13.25,6.66-4.25,14.16-6.96,20.71-11.38,8.45-5.2,17.92-8.89,25.48-15.44Z"/>
  </g>
  <g id="_x23_f3f6f8ff">
    <path class="st42" d="M610.01,0h186.04c.11,1.45.25,2.91.39,4.36-.44.18-1.33.53-1.78.71-.06-1.03-.11-2.06-.14-3.09-1.42,2.96-3.48,5.52-5.79,7.83-1.04.76-.8,2.04-.76,3.13-3.99.94-7.31,3.45-10.27,6.15-.64,1.92-.19,4.06-.21,6.06-1.94.17-3.88-.01-5.8-.16-1.77,1.53-2.54,3.91-4.36,5.41-1.54,1.23-3.27,2.17-4.94,3.16.77.44,1.56.88,2.37,1.32-.46,1.02-.89,2.03-1.32,3.05.35.84.71,1.68,1.08,2.53-1.54-1.1-3.08-2.2-4.61-3.3-2.32,2.55-4.82,5.53-3.79,9.24-1.65-.21-3.45-.99-5.04-.16-3.22,1.63-4.95,4.92-7.33,7.46-3.47,1.33-7.2-.13-10.78.13-5.8.41-11.6.75-17.4.53-3.22-.11-7.66,1.3-7.97,5.06-.82,5.02-1.34,10.09-2.32,15.09-1.78-2.18-4-3.94-6.62-4.98.79,1.8,1.81,3.48,2.9,5.12-3.61-.01-7.24-.3-10.82.19-.96.86-.86,1.52.31,1.98,3.62.52,7.3.17,10.95.2-1.19,1.36-2.37,2.73-3.52,4.12.48.14,1.44.41,1.92.55,1.64.66,3.76.54,5.13,1.71.67,3.55-.16,7.18.34,10.74,1.39,2.43,3.61,4.27,5.43,6.39-.18.33-.53,1.01-.71,1.35,5.22-1.45,10.29,2.19,15.42.26,5.19-1.38,10.48.32,15.74.3,7.1.46,14.17-1.44,21.25-.11-3.97,2.9-7.18,6.67-11.14,9.56-3.56,2.44-5.14,6.87-9,8.95-3.74,2.2-5.82,7.59-10.84,6.98-22.7.03-45.4-.09-68.1-.02-4.47,0-9.06-.42-13.38,1-5.22,1.15-5.96,7.08-5.74,11.52-4.5,2.8-9.42-.36-14.14-.6-5.98-.15-12.27.11-17.61,3.12l-.62.26c-.27,3.23-.35,6.97-3.1,9.21-7.56,6.55-17.03,10.24-25.48,15.44-6.55,4.42-14.05,7.13-20.71,11.38-8.29,3.96-15.57,9.7-24.09,13.25-.51-.22-1.02-.43-1.51-.63-2.15,4.42-7.06,6.07-11.46,7.33-7.31-10.7-16.95-19.76-27.93-26.61-.27.41-.82,1.23-1.09,1.64-1.85.19-3.7.28-5.54.37.75-1.44,1.5-2.9,2.24-4.35-9.7-5.52-20.56-8.66-31.56-10.27-.91-.46-1.82-.93-2.71-1.4-.48-11.13-.44-22.31-.06-33.44.99-7.3.16-14.65.57-21.97.2-3.65-.34-7.51,1.12-10.96,1.64-2.65,4.67-4.02,6.56-6.47,1.27-2.33-.37-4.86-1.27-7.02-3.34-6.21-5.61-12.96-9.3-18.99,13.95-.34,27.91-.07,41.87-.17,4.92-.15,10.01.7,14.79-.77,4.17-1.84,5.25-6.83,4.71-10.96-.23-6.76.06-13.54-.34-20.29,1.57,1.87,2.71,4.13,2.71,6.62.27,6.01.18,12.04.07,18.05.06,4.28-3.59,7.14-5.83,10.37.83.08,1.66.16,2.51.25-.07,1.06-.14,2.12-.19,3.19,1.46-.31,2.93-.6,4.39-.9-1.05-.83-2.09-1.66-3.13-2.48,1.1-.52,2.05-1.44,3.32-1.57,2.26,1.17,4.37,2.65,6.81,3.47-.83-.78-1.67-1.54-2.5-2.3,1.85-1.01,3.72-2.76,5.99-2.14,5.92,1.22,11.99,1,17.99,1.32-.14,3.87-3.54,6.01-6.13,8.32,2.53.37,5.09.56,7.65.55-.98-1.17-1.97-2.33-2.96-3.48,1.39.23,2.79.69,4.22.49,1.84-1.23.6-3.43-.75-4.41.29-.75.6-1.5.91-2.25,2.14.21,4.27.42,6.42.63-.5,1.59-.98,3.18-1.45,4.76.45-.01,1.34-.04,1.79-.06.84-2.14,1.91-5.27,4.81-3.72-1.04-2.69-.65-5.51.29-8.15.83,1.6,1.65,3.21,2.47,4.81.92-1.09,1.86-2.18,2.79-3.27.61.36,1.85,1.07,2.46,1.43-.31-1.94-.62-3.88-1.03-5.79-.42.7-1.26,2.11-1.68,2.81-1.33-2.15-1.35-4.55.54-6.37.85.52,1.71,1.04,2.58,1.56.14,1.34.29,2.68.45,4.03,3.14-3.07,6.91-5.34,10.35-8.02.13-.75-.07-1.57-.1-2.34,4.65-.36,7.76-4.19,10.76-7.32,1.24-.3,2.5-.6,3.76-.91-.33-.89-.66-1.78-.97-2.67,2.34-1.37,5.07-2.59,6.09-5.34.67-2.12,2.6-2.97,4.59-3.47,6.38-7.13,13.46-13.65,20.06-20.6-4.27-2.73-9.07-.75-13.03,1.49-.78-.96-1.54-1.92-2.3-2.88-.94.83-1.86,1.67-2.79,2.5-.03-1.21-.05-2.42-.07-3.63M572.78,69.7c.47,1.97,1.77,3.5,3.14,4.93-3.88.02-7.76-.16-11.62.1-.19.54-.58,1.62-.77,2.16,4.2-.03,8.39.01,12.59.07-.99,1.52-3.75,2.74-2.65,4.83,2.97-.93,4.68-3.9,6.92-5.89-2.22-2.38-4.14-5.63-7.61-6.2Z"/>
  </g>
  <g id="_x23_7573c4ff">
    <path class="st61" d="M383.35,25.41c1.59-1.98,4.23-2.47,6.64-2.43,37,.03,74,0,111,.02,3.99.07,8.01-.28,11.99.22,2.34.37,3.77,2.49,5.16,4.2.4,6.75.11,13.53.34,20.29-.58,3.37-2.45,7.58-6.46,7.53-8.34.39-16.71-.1-25.06.05-11.52-.2-23.07.43-34.57-.39,2.15-.66,4.34-1.36,6.63-1.25,16.33.23,32.66.07,48.99.19,2.98-.03,7.14-.09,8.26-3.53,1.26-4.99.37-10.23.59-15.33-.21-2.98.54-6.65-1.99-8.87-1.47-1.65-3.81-1.69-5.83-1.74-18.09,0-36.17.42-54.25.13-19.72.04-39.45.31-59.18-.01-3.38.07-6.95-.3-10.15,1.04-2.31,1.22-2.16,4.18-2.34,6.41-.03,5.7-.36,11.44.17,17.12.23,3.25,3.72,4.85,6.63,4.72,14.01.04,28.02-.02,42.03-.02,6.81.09,13.75-.65,20.42,1.14-21.11.78-42.26.22-63.38.35-3.3.4-5.44-2.26-7.41-4.42-.02-5.92,0-11.85-.04-17.77.08-2.6-.1-5.59,1.81-7.65Z"/>
  </g>
  <g id="_x23_9472e6ff">
    <path class="st24" d="M385.46,25.53c3.2-1.34,6.77-.97,10.15-1.04,19.73.32,39.46.05,59.18.01,18.08.29,36.16-.13,54.25-.13,2.02.05,4.36.09,5.83,1.74,2.53,2.22,1.78,5.89,1.99,8.87-.22,5.1.67,10.34-.59,15.33-1.12,3.44-5.28,3.5-8.26,3.53-16.33-.12-32.66.04-48.99-.19-2.29-.11-4.48.59-6.63,1.25h-.02c-6.67-1.79-13.61-1.05-20.42-1.14-14.01,0-28.02.06-42.03.02-2.91.13-6.4-1.47-6.63-4.72-.53-5.68-.2-11.42-.17-17.12.18-2.23.03-5.19,2.34-6.41Z"/>
  </g>
  <g id="_x23_c5c6ccff">
    <path class="st56" d="M512.02,55.24c4.01.05,5.88-4.16,6.46-7.53.54,4.13-.54,9.12-4.71,10.96-4.78,1.47-9.87.62-14.79.77-13.96.1-27.92-.17-41.87.17-1.75-.18-3.47-.59-5.13-1.14-.13-.63-.38-1.88-.5-2.5-.99,0-1.98.02-2.96.03-.4,1.27-.72,2.56-1.1,3.84-4.5.41-8.95-.69-13.44-.57-13.33.29-26.65.02-39.97.21-3.39.01-7.2-.11-9.81-2.57-1.82-1.49-2.38-3.86-2.62-6.08,1.97,2.16,4.11,4.82,7.41,4.42,21.12-.13,42.27.43,63.38-.35h.02c11.5.82,23.05.19,34.57.39,8.35-.15,16.72.34,25.06-.05Z"/>
  </g>
  <g id="_x23_9976e8ff">
    <path class="st11" d="M448.52,56c.98,0,1.97-.02,2.96-.03.12.62.37,1.87.5,2.5,4.76,8.68,9.59,17.34,14.22,26.09-3.22.57-6.47.92-9.73.98-.47,17.13.01,34.27-.29,51.4-1,7.38.45,14.76.1,22.16,1.97.25,3.95.48,5.92.76,11,1.61,21.86,4.75,31.56,10.27-.74,1.45-1.49,2.91-2.24,4.35-.83,1.38-1.77,2.68-2.86,3.86-9.46-5-19.94-7.85-30.53-9.06-16.25-1.68-32.86,1.85-47.33,9.35-1.49-2.86-2.98-5.72-4.48-8.57,11.46-6.42,24.41-9.47,37.36-11.05-.02-24.82.27-49.65-.17-74.47-3.3-.03-6.59-.08-9.88-.14,4.52-8.23,8.93-16.53,13.79-24.56.38-1.28.7-2.57,1.1-3.84Z"/>
  </g>
  <g id="_x23_609e71ff">
    <path class="st34" d="M709.06,63.9c-.09-3.81,2.98-7.54,6.96-7.35,45-.1,90.01.01,135.01-.06,2.27.04,4.91,0,6.64,1.77,3.27,2.93,2.35,7.76,2.5,11.67-.24,6.41.4,12.85-.29,19.23-1.47,3.02-4.36,5.4-7.89,5.07-42,.06-84-.02-126,0-3.96-.07-7.97.34-11.87-.4-2.46-.51-3.85-2.77-4.75-4.91-.7-8.31-.72-16.69-.31-25.02M714.12,58.29c-2.12,1.06-3.64,3.28-3.5,5.7-.15,6.67.19,13.34-.08,20.01.15,2.31-.43,5.22,1.58,6.9,2.37,2.29,5.91,1.7,8.91,1.8,43.68-.09,87.36-.06,131.04-.04,3.26.36,6.58-2.37,6.37-5.76.13-7.93.18-15.89-.01-23.83.12-2.89-2.65-5.21-5.43-5.05-42.67-.02-85.35-.01-128.02-.02-3.62.07-7.28-.28-10.86.29Z"/>
  </g>
  <g id="_x23_71c686ff">
    <path class="st32" d="M714.12,58.29c3.58-.57,7.24-.22,10.86-.29,42.67,0,85.35,0,128.02.02,2.78-.16,5.55,2.16,5.43,5.05.19,7.94.14,15.9.01,23.83.21,3.39-3.11,6.12-6.37,5.76-43.68-.02-87.36-.05-131.04.04-3-.1-6.54.49-8.91-1.8-2.01-1.68-1.43-4.59-1.58-6.9.27-6.67-.07-13.34.08-20.01-.14-2.42,1.38-4.64,3.5-5.7Z"/>
    <path class="st32" d="M84.35,220.39c7.14-1.07,14.44-.34,21.64-.5,35.67.02,71.34.16,107.02-.02,2.99.13,6.84-.48,8.73,2.47,1.05,3.43.54,7.09.61,10.63-.19,5.65.39,11.33-.23,16.96-.34,3.39-4.21,4.55-7.11,4.42-30.35-.48-60.7-.03-91.05-.23-11.34-.11-22.68.2-34.01.19-2.47-.18-5.55.18-7.18-2.11-1.97-2.28-1.21-5.49-1.21-8.23.48-6.31-.18-12.63.14-18.94-.07-1.92,1.08-3.63,2.65-4.64Z"/>
    <path class="st32" d="M671.56,439.66c5.45-3.73,12.19-2.53,18.38-2.66,40.06.07,80.12-.05,120.18.01,2.77-.14,6.29.96,6.92,4.04.79,4.94.22,9.96.36,14.94-.1,4.27.48,8.63-.51,12.83-1.14,2.7-4.31,3.28-6.92,3.19-43.67-.02-87.34-.01-131.01-.01-2.75.19-6.11-1.06-6.7-4.05-1.06-9.3.86-18.8-1.07-28.02.09-.07.28-.2.37-.27Z"/>
  </g>
  <g id="_x23_8b6fccff">
    <path class="st68" d="M572.78,69.7c3.47.57,5.39,3.82,7.61,6.2-2.24,1.99-3.95,4.96-6.92,5.89-1.1-2.09,1.66-3.31,2.65-4.83-4.2-.06-8.39-.1-12.59-.07.19-.54.58-1.62.77-2.16,3.86-.26,7.74-.08,11.62-.1-1.37-1.43-2.67-2.96-3.14-4.93Z"/>
  </g>
  <g id="_x23_72bf85ff">
    <path class="st57" d="M698.66,69.53c2.62,1.04,4.84,2.8,6.62,4.98.3.34.9,1.02,1.19,1.36-1.98,1.99-3.99,3.94-6.07,5.82-.48-.14-1.44-.41-1.92-.55,1.15-1.39,2.33-2.76,3.52-4.12-3.65-.03-7.33.32-10.95-.2-1.17-.46-1.27-1.12-.31-1.98,3.58-.49,7.21-.2,10.82-.19-1.09-1.64-2.11-3.32-2.9-5.12Z"/>
  </g>
  <g id="_x23_c5c8ccff">
    <path class="st22" d="M709.37,88.92c.9,2.14,2.29,4.4,4.75,4.91,3.9.74,7.91.33,11.87.4,42-.02,84,.06,126,0,3.53.33,6.42-2.05,7.89-5.07,2.15,4.08-2.88,8.81-6.85,9.24-37.01.18-74.04-.15-111.04-.03-4.35.11-8.68-.06-13.01-.2-5.11-.11-10.47,1.13-15.37-.81-2.45-.91-4-3.08-5.23-5.25.25-.8.74-2.39.99-3.19Z"/>
    <path class="st22" d="M828.87,255.68c1.09,2.28.66,4.87.75,7.31-.14,5.55.2,11.11-.1,16.65-.09,3.11-2.68,5.4-5.36,6.5-7.56,1.8-15.39,1.3-23.05.83-11.04,1.26-22.13-.47-33.16.45-8.64-.18-17.29.24-25.91-.46-5.33.53-10.68.63-16.01.04-5.35.41-10.71-.22-16.06.34-7.36.55-14.65-.96-22-.74-4.51.18-7.63-4.24-8.4-8.25-.03-2.94.86-5.8,1.47-8.65.1,2.62.06,5.28.6,7.87.62,2.94,3.47,5.12,6.46,5.06,16.3.47,32.63-.33,48.92.58,15.32.39,30.64-.69,45.96.09,12.97-.5,25.97.03,38.94-.67,3.68.13,6.57-3.24,6.67-6.77.36-6.72-.14-13.45.28-20.18Z"/>
  </g>
  <g id="_x23_ce8956ff">
    <path class="st54" d="M74.74,105.07c-.18-4.36,4.22-7.39,8.29-6.93,46.01,0,92.02.01,138.02,0,3.35-.36,6.69,1.65,7.82,4.83.65,3.59.29,7.26.62,10.87.04.44.1,1.32.14,1.75.11,3.55-.18,7.09-.21,10.64-2.17,2.57-4.69,5.69-8.47,5.21-45.99.06-91.98-.05-137.97,0-3.55.37-6.71-2.28-8.1-5.36-.46-6.98-.16-14.01-.14-21.01M79.33,100.32c-3.43,1.47-3.08,5.63-3.06,8.7.21,5.22-.49,10.48.22,15.67.52,2.98,3.7,4.69,6.55,4.47,45.66,0,91.32,0,136.98-.02,1.93-.1,4.17,0,5.65-1.48,2.27-1.86,2.03-5.03,2.06-7.66-.14-5.01.15-10.03-.11-15.04-.19-3.23-3.36-5.81-6.58-5.38-46.01.12-92.03-.07-138.04.02-1.28-.01-2.5.22-3.67.72Z"/>
  </g>
  <g id="_x23_fb9035ff">
    <path class="st50" d="M79.33,100.32c1.17-.5,2.39-.73,3.67-.72,46.01-.09,92.03.1,138.04-.02,3.22-.43,6.39,2.15,6.58,5.38.26,5.01-.03,10.03.11,15.04-.03,2.63.21,5.8-2.06,7.66-1.48,1.48-3.72,1.38-5.65,1.48-45.66.03-91.32.02-136.98.02-2.85.22-6.03-1.49-6.55-4.47-.71-5.19,0-10.45-.22-15.67-.02-3.07-.37-7.23,3.06-8.7Z"/>
  </g>
  <g id="_x23_fb953aff">
    <path class="st10" d="M229.49,113.84c5.2-.7,10.33.72,15.52.61,5.39.02,10.78.26,16.12,1.03-1.33,3.03-2.92,5.94-4.88,8.6,37.55,23.72,75.26,47.18,112.88,70.78,1.72,1.21,3.56,2.23,5.47,3.1,7.51-10.14,16.83-18.86,27.54-25.54,1.64,2.75,3.23,5.53,4.75,8.36-6.21,4.35-12.36,8.93-17.38,14.66-1.01,1.08-1.91,2.32-3.16,3.15-3.99,1.59-5.58,5.73-7.86,9.01-2.16,3.22-4.46,6.41-5.79,10.08-3.66,9.68-6.25,19.81-7.3,30.1-2.02.07-4.04.14-6.06.21-.39-1.84-.8-3.66-1.1-5.5.6-9.07,3.08-17.92,6.44-26.33,1.08-2.63,2.27-5.22,3.23-7.9-7.32-4.25-14.38-8.9-21.52-13.43-23.02-14.3-46.02-28.66-68.97-43.08-9.28-5.27-17.77-11.91-27.43-16.53-2.05,2.9-4.1,5.81-5.95,8.84-4.82-8.06-8.44-16.78-13.39-24.76-.37-1.23-.76-2.45-1.02-3.71-.04-.43-.1-1.31-.14-1.75Z"/>
  </g>
  <g id="_x23_5574b9ff">
    <path class="st67" d="M644.8,140.32c-.22-4.44.52-10.37,5.74-11.52,68.17-.1,136.33,0,204.5-.08,2.21.06,4.78.06,6.41,1.83,2.99,3.02,2.14,7.62,2.31,11.46-.33,5.93,1.07,12.29-1.91,17.75-6.11,2.06-12.59,1.22-18.9,1.33-63.32,0-126.64.01-189.96,0-2.71.17-4.95-1.41-7.12-2.78-2.45-5.7-.72-12-1.07-17.98M650.17,130.4c-3.63,1.11-3.74,5.45-3.61,8.58.28,5.62-.49,11.33.46,16.91.78,3.09,4.2,3.87,6.99,3.63,67.03.1,134.06.05,201.09.09,3.01.27,6.65-1.37,7.06-4.66.52-5.29.17-10.62.21-15.93-.07-3.16-.4-7.39-3.95-8.56-3.77-.77-7.65-.3-11.45-.4-61.98-.04-123.96.04-185.94-.03-3.62.08-7.28-.28-10.86.37Z"/>
  </g>
  <g id="_x23_5293e8ff">
    <path class="st17" d="M650.17,130.4c3.58-.65,7.24-.29,10.86-.37,61.98.07,123.96,0,185.94.03,3.8.1,7.68-.37,11.45.4,3.55,1.17,3.88,5.4,3.95,8.56-.04,5.31.31,10.64-.21,15.93-.41,3.29-4.05,4.93-7.06,4.66-67.03-.04-134.06,0-201.09-.09-2.79.24-6.21-.54-6.99-3.63-.95-5.58-.18-11.29-.46-16.91-.13-3.13-.02-7.47,3.61-8.58Z"/>
    <path class="st17" d="M612.43,143.1l.62-.26c9.73,1.25,19.59.11,29.3,1.64.35.19,1.03.56,1.37.75.15.35.45,1.04.6,1.39-1.65,4.54-4.63,8.41-7.03,12.56-2.89,4.61-5.32,9.5-8.38,14.01l-.72.24c-1.79-2.89-3.48-5.84-5.1-8.82-3.23,2.17-6.8,3.72-10.27,5.43-26.16,14.31-52.17,28.9-78.37,43.15.66,1.73,1.32,3.47,1.95,5.23,3.54,9.69,5.57,19.93,5.77,30.26-2.29.1-4.58.23-6.86.4-1.03.06-2.05.12-3.06.19-.49-13.21-3.91-26.39-10.32-37.97-6.79-12.38-16.73-23.14-28.95-30.31,1.35-2.3,2.67-4.62,4.08-6.88.27-.41.82-1.23,1.09-1.64,10.98,6.85,20.62,15.91,27.93,26.61.82,1.2,1.62,2.42,2.43,3.64,29.5-16.9,59.55-32.83,89.1-49.64-1.8-3.3-3.56-6.61-5.18-9.98Z"/>
    <path class="st17" d="M753.94,200.51c.58-2.51-1.7-7.96,2.3-7.91.03,2.66.04,5.33.03,8,1.41-.81,3.72-4.6,4.66-1.57-1.23,2.42-3.75,4.03-5.51,6.1-2.35-1.63-4.4-3.64-6.45-5.62.91-3.44,3.53-.32,4.97,1Z"/>
  </g>
  <g id="_x23_eff3f6ff">
    <path class="st64" d="M635.24,166.42c1.89-3.4,4.41-7.56,8.66-8l1.15,1.47c-.6.28-1.19.57-1.78.86.5.74.99,1.48,1.5,2.22-3.98,2.06-4.79,6.58-6.61,10.24-1.09,2.29-4.17,2.4-5.58,4.34-1.07,4.38-.38,8.95-.5,13.41-.1,19.99.24,39.99-.17,59.98-16.63.6-33.29-.03-49.93.2-8.31-.12-16.64.41-24.94-.28-1.14-4.78-.8-9.72-1.44-14.55-1.73-9.41-4.09-18.76-8.15-27.46,11.26-6.24,22.64-12.27,33.88-18.53,6.13-3.72,12.42-7.17,18.94-10.15,6.75-3.11,11.98-9.62,19.7-10.39,2.96.61,5.52,2.36,8.22,3.65l.72-.24c3.56-.45,4.82-4.06,6.33-6.77Z"/>
  </g>
  <g id="_x23_b9bdbcff">
    <path class="st69" d="M643.9,158.42c.5-.03,1.48-.09,1.97-.12,2.17,1.37,4.41,2.95,7.12,2.78,63.32.02,126.64,0,189.96,0,6.31-.11,12.79.73,18.9-1.33-.64,1.55-1.2,3.12-1.73,4.71-69.04.38-138.09.02-207.14.17-3.6.6-6.11-2.07-7.93-4.75l-1.15-1.47Z"/>
  </g>
  <g id="_x23_e79a53ff">
    <path class="st48" d="M150.78,164.57c.59.11,1.76.35,2.35.47.25,2.56.09,5.14,0,7.71,1.15-1.15,4.5-4.44,4.7-1.14-1.74,2.17-3.9,3.97-5.9,5.9-1.74-2.42-5.59-4.09-5.58-7.26,1.94-.31,3.05,1.66,4.43,2.68-.02-2.79-.03-5.58,0-8.36Z"/>
  </g>
  <g id="_x23_dedee9ff">
    <path class="st58" d="M488.66,178.34c1.09-1.18,2.03-2.48,2.86-3.86,1.84-.09,3.69-.18,5.54-.37-1.41,2.26-2.73,4.58-4.08,6.88-1.62-.81-3.29-1.52-4.95-2.23l.63-.42Z"/>
  </g>
  <g id="_x23_f4f8f9ff">
    <path class="st15" d="M483.83,181.34c1.4-.86,2.8-1.7,4.2-2.58,1.66.71,3.33,1.42,4.95,2.23,12.22,7.17,22.16,17.93,28.95,30.31-.86,3.67,1.15,7,2.21,10.37-1.78,1.11-3.56,2.21-5.34,3.31,1.21.93,2.44,1.85,3.65,2.8-2.05.39-3.73-.82-5.14-2.11-.68,3.42-2.06,6.81-5.44,8.34-.23-.56-.68-1.67-.9-2.23-.29,1.32-.57,2.65-.84,3.98-2.24,1.63-4.09,3.71-5.44,6.13-3.54-.74-5.33,3.12-5.9,5.99-2.27.86-5.11,1.19-6.53,3.42-1.7,2.06-.55,4.82-.42,7.19-.84-.13-1.68-.25-2.52-.37.11-2.2.17-4.51-.93-6.49-2.51-4.87-5.57-9.43-8.19-14.24-6.17-10.76-12.42-21.48-18.7-32.19,1.72-1.26,3.54-2.4,5.47-3.34.53-1.07.48-2.83,1.99-3.02.85,1.34,1.55,2.79,2.27,4.22,2.03-2.35,4.11-4.66,6.25-6.92-.74-.21-1.47-.42-2.2-.63,1.79-.53,3.7-.81,5.35-1.75,2.27-2.2,4.09-4.98,7.12-6.25.09-.81.19-1.63.29-2.44-2.18-.25-3.66-1.63-4.21-3.73Z"/>
  </g>
  <g id="_x23_808583ff">
    <path class="st40" d="M804.15,191.27c3.3.18-1.55,3.01,0,0Z"/>
  </g>
  <g id="_x23_f8c852ff">
    <path class="st26" d="M442.86,197.84c2.21-4.61,8.95-5.99,12.6-2.3,2.52,2.88,4.09,6.41,6.04,9.66,6.28,10.71,12.53,21.43,18.7,32.19-.46,1.25-.91,2.51-1.36,3.77-7.68-13.3-15.44-26.55-23.1-39.86-1.35-2.17-2.91-4.91-5.81-4.97-2.81.23-4.28,2.89-5.6,5.02-6.1,10.57-12.29,21.09-18.4,31.65-1.08-.18-2.16-.37-3.23-.55,6.7-11.55,13.38-23.11,20.16-34.61Z"/>
  </g>
  <g id="_x23_36453bff">
    <path class="st55" d="M444.33,201.35c1.32-2.13,2.79-4.79,5.6-5.02,2.9.06,4.46,2.8,5.81,4.97,7.66,13.31,15.42,26.56,23.1,39.86,2.16,3.83,4.53,7.55,6.56,11.46,1.07,1.92,1.3,4.72-.52,6.28-1.87,1.69-4.61,1.4-6.93,1.55-19.65-.08-39.3.04-58.93-.07-3.74.41-6.59-3.83-4.65-7.1,3.54-6.92,7.8-13.47,11.56-20.28,6.11-10.56,12.3-21.08,18.4-31.65M448.46,200.38c-6.72,11.2-13.03,22.65-19.72,33.87-3.86,7.3-8.78,14.07-12.11,21.63.35.35,1.04,1.05,1.39,1.4,20.32.3,40.66-.01,60.99.15,1.45-.24,3.99.54,4.4-1.51-.86-3.23-2.98-5.89-4.59-8.76-2.85-4.93-5.67-9.86-8.55-14.76-6.06-10.48-12.07-20.99-18.16-31.44-.48-1.59-2.81-2.16-3.65-.58Z"/>
    <path class="st55" d="M455.32,225.26c2.57.04,5.14.05,7.72.06.06,3.2.06,6.4.04,9.6-.69,0-2.08-.02-2.77-.03-.06-2.23-.14-4.47-.25-6.7-1.47-.01-2.94-.02-4.4-.02-.12-.98-.23-1.95-.34-2.91Z"/>
  </g>
  <g id="_x23_df9653ff">
    <path class="st59" d="M378.49,207.6c2.28-3.28,3.87-7.42,7.86-9.01-1.31,2.25-2.86,4.34-4.35,6.46-8.93,12.93-13.81,28.53-14.09,44.23-2.76-.03-5.52,0-8.27-.21-.46-.08-1.38-.25-1.83-.33.13-2.09.27-4.17.43-6.25.3,1.84.71,3.66,1.1,5.5,2.02-.07,4.04-.14,6.06-.21,1.05-10.29,3.64-20.42,7.3-30.1,1.33-3.67,3.63-6.86,5.79-10.08Z"/>
  </g>
  <g id="_x23_f9c852ff">
    <path class="st44" d="M448.46,200.38c.84-1.58,3.17-1.01,3.65.58,6.09,10.45,12.1,20.96,18.16,31.44-4.89,3.08-10.48,4.31-16.04,5.5.05.38.15,1.15.2,1.54.06.45.18,1.35.24,1.8-2.56-.07-4.28,1.51-5.28,3.74-.3-.54-.91-1.63-1.21-2.17,1.24-1.35,2.55-2.66,3.61-4.16-.23-1.43-1.13-2.64-1.71-3.93,1.44-1.64,2.89-3.28,4.37-4.9-1.44-2-2.27-5.57-5.45-4.96.64,1.58,1.33,3.14,1.99,4.72-1.51,1.7-3,3.42-4.47,5.15.8,1.12,1.62,2.25,2.44,3.37-1.39,1.45-2.79,2.9-4.1,4.42.11.31.33.93.44,1.24-1.33-1.34-2.76-2.56-4.18-3.78-.14,1.76-.28,3.53-.41,5.3h-.8v-6.49h-2.99c0,3.13,0,6.27-.11,9.4-2.11-1.39-.88-4.13-1.04-6.18.71-4.01-2.58-8.87-7.03-7.76,6.69-11.22,13-22.67,19.72-33.87M436.95,225.28c-.06,3.19-.06,6.38-.02,9.58.74-.03,2.2-.09,2.93-.12.05-2.21.1-4.42.16-6.62,1.8.05,3.6.09,5.41.15.09-.99.18-1.98.26-2.96-2.92,0-5.83-.02-8.74-.03M455.32,225.26c.11.96.22,1.93.34,2.91,1.46,0,2.93,0,4.4.02.11,2.23.19,4.47.25,6.7.69,0,2.08.03,2.77.03.02-3.2.02-6.4-.04-9.6-2.58-.01-5.15-.02-7.72-.06Z"/>
  </g>
  <g id="_x23_e8964fff">
    <path class="st41" d="M150.89,204.58c.53.13,1.61.38,2.15.5.31,2.58.21,5.18.19,7.77,1.54-1.44,3.09-3.74,5.38-2.11-2.02,2.39-4.27,4.58-6.6,6.67-2.25-2.29-5.33-4.14-6.21-7.42,2.1-.05,3.54,1.48,4.95,2.79,0-2.74.03-5.47.14-8.2Z"/>
  </g>
  <g id="_x23_f4f9f9ff">
    <path class="st30" d="M354.41,208.16c4.8-.39,8.13,4.29,10.27,8-3.36,8.41-5.84,17.26-6.44,26.33-.16,2.08-.3,4.16-.43,6.25.45.08,1.37.25,1.83.33,1.09.45,2.14,1.01,3.2,1.55-5.86.09-11.73.09-17.59,0-.52-14.6,3.24-29.18,9.16-42.46Z"/>
  </g>
  <g id="_x23_eaeef2ff">
    <path class="st9" d="M521.93,211.3c6.41,11.58,9.83,24.76,10.32,37.97.03,1.42.02,2.84-.02,4.27-.47,17.8-7.03,35.32-18.13,49.21-14.75,18.28-37.45,29.94-61,30.65-18.7.63-37.51-5.21-52.45-16.49-2.05-1.48-4.01-3.07-5.87-4.77.43-.42,1.29-1.26,1.72-1.69,6.8,5.5,14.42,9.95,22.19,13.9,10.02,3.74,20.63,6.24,31.34,6.66,16.26-.7,32.64-5.42,45.88-15.12,8.33-5.14,14.36-13.01,20.24-20.66,5.02-6.49,7.43-14.45,10.12-22.08,2.32-6.6,2.88-13.62,3.5-20.53.59-10.62-2.5-20.93-5.63-30.95-1.06-3.37-3.07-6.7-2.21-10.37Z"/>
  </g>
  <g id="_x23_f1f4f6ff">
    <path class="st31" d="M536.4,218.42c3.24-2.52,6.82-4.58,10.75-5.8,3.66,6.97,5.09,14.79,6.63,22.43,1.05,5.14,1.19,10.41,1.01,15.64-4.94-.02-9.87.25-14.8.05-1.74.06-3.22-.89-4.68-1.66,2.28-.17,4.57-.3,6.86-.4-.2-10.33-2.23-20.57-5.77-30.26Z"/>
  </g>
  <g id="_x23_6baa7eff">
    <path class="st8" d="M85.53,218.37c3.12-.48,6.29-.22,9.44-.26,40.38.02,80.76-.03,121.15,0,4.4-.43,8.37,3.51,7.97,7.93-.07,8.88.6,17.83-.51,26.67-2.29,1.56-4.59,3.6-7.56,3.4-42.35.05-84.7.02-127.05.01-2.67.1-5.19-.93-7.39-2.37-2.09-2.44-1.72-5.83-1.76-8.81.1-6.66-.11-13.32.15-19.97.07-3.12,2.45-6.09,5.56-6.61M84.35,220.39c-1.57,1.01-2.72,2.72-2.65,4.64-.32,6.31.34,12.63-.14,18.94,0,2.74-.76,5.95,1.21,8.23,1.63,2.29,4.71,1.93,7.18,2.11,11.33.01,22.67-.3,34.01-.19,30.35.2,60.7-.25,91.05.23,2.9.13,6.77-1.03,7.11-4.42.62-5.63.04-11.31.23-16.96-.07-3.54.44-7.2-.61-10.63-1.89-2.95-5.74-2.34-8.73-2.47-35.68.18-71.35.04-107.02.02-7.2.16-14.5-.57-21.64.5Z"/>
  </g>
  <g id="_x23_384a3eff">
    <path class="st35" d="M436.95,225.28c2.91,0,5.82.02,8.74.03-.08.98-.17,1.97-.26,2.96-1.81-.06-3.61-.1-5.41-.15-.06,2.2-.11,4.41-.16,6.62-.73.03-2.19.09-2.93.12-.04-3.2-.04-6.39.02-9.58Z"/>
    <path class="st35" d="M80.41,440.98c-.13-3.45,3.17-6.32,6.51-6.25,49.69-.08,99.39,0,149.08-.04,3.55-.32,6.71,2.8,7.01,6.24.42,5.69.06,11.41.18,17.11-.21,3.2.55,6.59-.48,9.67-.28.46-.84,1.38-1.12,1.84,1.53-3.31.93-7.05,1.01-10.57-.16-6.02.2-12.05-.1-18.06-.08-2.32-2.14-3.82-3.41-5.53-50.7-.04-101.4,0-152.1,0-2.59-.21-5.67,1.69-5.64,4.49-.74,8.34-.84,16.76-.37,25.12-.1,3.67,3.38,6.68,6.99,6.29,43.66-.04,87.33-.03,131-.03,7.18-.06,14.4.33,21.54-.69-2.35,1.08-4.96,1.18-7.49,1.2-46.02-.09-92.05-.03-138.07-.03-3.29-.02-6.61.27-9.86-.3-1.94-.66-3.2-2.46-4.7-3.77-.23-8.89-.19-17.79.02-26.69Z"/>
  </g>
  <g id="_x23_333e33ff">
    <path class="st21" d="M449,224.86c3.18-.61,4.01,2.96,5.45,4.96-1.48,1.62-2.93,3.26-4.37,4.9.58,1.29,1.48,2.5,1.71,3.93-1.06,1.5-2.37,2.81-3.61,4.16.3.54.91,1.63,1.21,2.17.59,1.08,1.18,2.16,1.75,3.26-3.01.41-4.29-2.53-5.84-4.48-.11-.31-.33-.93-.44-1.24,1.31-1.52,2.71-2.97,4.1-4.42-.82-1.12-1.64-2.25-2.44-3.37,1.47-1.73,2.96-3.45,4.47-5.15-.66-1.58-1.35-3.14-1.99-4.72Z"/>
  </g>
  <g id="_x23_f1c13cff">
    <path class="st39" d="M422.7,232.45c1.07.18,2.15.37,3.23.55-3.76,6.81-8.02,13.36-11.56,20.28-1.94,3.27.91,7.51,4.65,7.1,19.63.11,39.28-.01,58.93.07,2.32-.15,5.06.14,6.93-1.55,1.82-1.56,1.59-4.36.52-6.28-2.03-3.91-4.4-7.63-6.56-11.46.45-1.26.9-2.52,1.36-3.77,2.62,4.81,5.68,9.37,8.19,14.24,1.1,1.98,1.04,4.29.93,6.49-1.57,2.64-3.82,5.53-7.26,5.28-21.39.09-42.78.07-64.16.03-5.35.06-8.98-6.43-6.58-11.08,3.48-6.8,7.63-13.24,11.38-19.9Z"/>
  </g>
  <g id="_x23_f6c33cff">
    <path class="st19" d="M454.23,237.9c5.56-1.19,11.15-2.42,16.04-5.5,2.88,4.9,5.7,9.83,8.55,14.76,1.61,2.87,3.73,5.53,4.59,8.76-.41,2.05-2.95,1.27-4.4,1.51-20.33-.16-40.67.15-60.99-.15-.35-.35-1.04-1.05-1.39-1.4,3.33-7.56,8.25-14.33,12.11-21.63,4.45-1.11,7.74,3.75,7.03,7.76.16,2.05-1.07,4.79,1.04,6.18,2.89,0,5.79-.06,8.68-.08-.54-.93-1.08-1.86-1.61-2.79-.79-.01-2.37-.03-3.17-.04.13-1.77.27-3.54.41-5.3,1.42,1.22,2.85,2.44,4.18,3.78,1.55,1.95,2.83,4.89,5.84,4.48-.57-1.1-1.16-2.18-1.75-3.26,1-2.23,2.72-3.81,5.28-3.74.56,4.5,1.09,9.01,1.57,13.53,1.46-2.01,2.71-4.2,4.51-5.93,2.16-.76,4.48-.78,6.74-1.07-4.16-3.08-8.67-5.62-13.06-8.33-.05-.39-.15-1.16-.2-1.54M460.37,239.22c-1.22,1.5,1.52,2.86,2.51,1.57,1.23-1.53-1.52-2.89-2.51-1.57Z"/>
  </g>
  <g id="_x23_5091e6ff">
    <path class="st0" d="M754.14,232.95c.52,0,1.56-.02,2.08-.02.02,2.21.03,4.43.03,6.65,1.38-1.25,2.85-2.58,4.84-2.6-.7,3.13-3.7,4.82-5.67,7.09-2.59-1.9-5.31-3.94-6.56-7.01,2.2-.4,3.66,1.47,5.2,2.69.01-2.27.04-4.53.08-6.8Z"/>
  </g>
  <g id="_x23_333c33ff">
    <path class="st52" d="M436.92,238.79h2.99v6.48h.8c.8.02,2.38.04,3.17.05.53.93,1.07,1.86,1.61,2.79-2.89.02-5.79.08-8.68.08.12-3.13.11-6.27.11-9.4Z"/>
    <path class="st52" d="M454.43,239.44c4.39,2.71,8.9,5.25,13.06,8.33-2.26.29-4.58.31-6.74,1.07-1.8,1.73-3.05,3.92-4.51,5.93-.48-4.52-1.01-9.03-1.57-13.53-.06-.45-.18-1.35-.24-1.8Z"/>
  </g>
  <g id="_x23_474a32ff">
    <path class="st28" d="M460.37,239.22c.99-1.32,3.74.04,2.51,1.57-.99,1.29-3.73-.07-2.51-1.57Z"/>
  </g>
  <g id="_x23_6ba37eff">
    <path class="st46" d="M683,247.15c1.74-2.04,4.55-2.29,7.05-2.23,43.99.03,87.98-.08,131.97.07,5.5-.06,7.52,6.12,6.85,10.69-.42,6.73.08,13.46-.28,20.18-.1,3.53-2.99,6.9-6.67,6.77-12.97.7-25.97.17-38.94.67-15.32-.78-30.64.3-45.96-.09-16.29-.91-32.62-.11-48.92-.58-2.99.06-5.84-2.12-6.46-5.06-.54-2.59-.5-5.25-.6-7.87-.13-4.91-.41-9.83.04-14.74.24-2.64-.07-5.72,1.92-7.81M688.3,246.51c-2.48.2-5.18,1.89-5.32,4.6-.54,4.95.02,9.94-.14,14.91.05,3.9-.4,7.89.51,11.73.73,2.31,3.39,3.13,5.58,3.14,44.04-.08,88.09-.02,132.13.06,2.51.12,5.38-1.28,5.78-4,.9-7.28.02-14.65.22-21.97-.18-2.43.45-5.5-1.74-7.21-1.42-1.31-3.44-1.38-5.24-1.42-43.92.16-87.86-.12-131.78.16Z"/>
  </g>
  <g id="_x23_73c787ff">
    <path class="st62" d="M688.3,246.51c43.92-.28,87.86,0,131.78-.16,1.8.04,3.82.11,5.24,1.42,2.19,1.71,1.56,4.78,1.74,7.21-.2,7.32.68,14.69-.22,21.97-.4,2.72-3.27,4.12-5.78,4-44.04-.08-88.09-.14-132.13-.06-2.19-.01-4.85-.83-5.58-3.14-.91-3.84-.46-7.83-.51-11.73.16-4.97-.4-9.96.14-14.91.14-2.71,2.84-4.4,5.32-4.6Z"/>
  </g>
  <g id="_x23_f4f7f9ff">
    <path class="st38" d="M345.13,252.27c5.54-.13,11.09.05,16.64-.06-.93.58-1.87,1.15-2.8,1.73-.3.18-.9.55-1.19.73.47,7.13,1.24,14.28,3.36,21.14-.21,1.81-.31,3.69-.99,5.41-2.74,2.29-6.32,3.2-9.56,4.56-3.37-10.82-5.86-22.12-5.46-33.51Z"/>
  </g>
  <g id="_x23_eef2f5ff">
    <path class="st63" d="M538.01,252.25c5.61-.36,11.24-.23,16.85.03,1.19,7.26-.58,14.49-1.99,21.57-1.12,4.63-1.93,9.45-4.38,13.61-3.3-1.64-6.62-3.23-9.96-4.78-.2-.69-.61-2.07-.82-2.76,2.82-8.43,4.36-17.28,4.25-26.18-1.32-.5-2.64-1-3.95-1.49Z"/>
  </g>
  <g id="_x23_bfc3c5ff">
    <path class="st7" d="M216.02,256.12c2.97.2,5.27-1.84,7.56-3.4-.29,3-1.73,7.46-5.57,6.8-42.67.12-85.35,0-128.03.07-3.07.23-5.85-1.17-8.53-2.48.04-.84.1-2.51.13-3.35,2.2,1.44,4.72,2.47,7.39,2.37,42.35.01,84.7.04,127.05-.01Z"/>
    <path class="st7" d="M671.11,469.61c3.55,4.67,9.7,3.7,14.85,3.7,41.68-.06,83.35-.02,125.03-.04,3.04.29,5.51-1.59,7.46-3.7.37,2.43-1.28,4.53-2.94,6.07-3.21,2.72-7.68,1.79-11.53,1.93-40.99,0-81.98-.02-122.97-.02-3.27-.14-7.21-.55-9.13-3.58-.72-1.28-2.4-2.99-.77-4.36Z"/>
  </g>
  <g id="_x23_facf39ff">
    <path class="st13" d="M357.78,254.67c.29-.18.89-.55,1.19-.73,1.41-.12,2.83-.21,4.25-.26.92,2.97,1.72,5.99,1.97,9.1.65,8.98,1.62,18.23,5.72,26.39,3.92,7.68,8.22,15.32,14.29,21.54,3.78,4.28,8.74,7.42,11.98,12.2-.41.22-1.24.67-1.65.89-3.34.17-5.59-2.5-7.91-4.45-7.48-7.01-13.94-15.18-18.84-24.2-5.98,2.02-11.29,5.55-17.25,7.61-19.82,8.66-39.58,17.46-59.46,25.98.89,3.43,2.16,6.75,3.57,10-10.81-1.06-21.72-2.08-32.31-4.5l.02-.9c2.12-4.85,5.84-8.7,8.98-12.88,3.47-4.31,5.89-9.55,10.49-12.87,1.48,3.24,2.85,6.53,4.11,9.87,25.31-10.98,50.53-22.15,75.89-33.01-.26-2.93-.86-5.82-1.68-8.64-2.12-6.86-2.89-14.01-3.36-21.14Z"/>
  </g>
  <g id="_x23_deb731ff">
    <path class="st27" d="M363.22,253.68c1.46-.05,2.93-.1,4.4-.13.63,5.75,1.1,11.55,2.45,17.19,3.99,15.81,12.63,30.43,24.71,41.4,1.86,1.7,3.82,3.29,5.87,4.77-.14,1.37-.27,2.74-.39,4.11-1.03.63-2.05,1.28-3.08,1.89-3.24-4.78-8.2-7.92-11.98-12.2-6.07-6.22-10.37-13.86-14.29-21.54-4.1-8.16-5.07-17.41-5.72-26.39-.25-3.11-1.05-6.13-1.97-9.1Z"/>
    <path class="st27" d="M65.14,323.96c.39-3.78,4.29-5.93,7.81-5.57,60.71.02,121.41-.01,182.11,0,2.27-.04,4.71.48,6.22,2.32,3.15,3.4,1.9,8.43,2.07,12.63l-.02.9c.03,4.3.19,8.68-.94,12.89-2.12,1.72-4.42,3.64-7.35,3.38-60.68.04-121.36-.03-182.05,0-3.68.43-6.27-2.43-8.4-4.97.49-7.19-.36-14.43.55-21.58M69.45,320.47c-2.14,1.41-3.2,4-3.07,6.52.07,5.63-.19,11.27.15,16.89.25,3.16,3.37,5.24,6.39,4.9,60.33.06,120.66-.05,180.99.05,1.91-.04,4.08-.03,5.41-1.67,2.6-2.27,2.29-6.01,2.33-9.13-.17-4.53.24-9.09-.26-13.6-.52-2.91-3.53-4.56-6.32-4.27-60.68-.05-121.36.07-182.04-.03-1.21-.02-2.4.1-3.58.34Z"/>
  </g>
  <g id="_x23_3fb9c8ff">
    <path class="st23" d="M532.23,253.54c1.92.03,3.84.06,5.77.1-.8.87-1.85,1.58-2.4,2.65-1.02,5.8.9,11.83-.92,17.53-1.68,5.72-2.56,11.7-4.75,17.26-2.23,4.38-6.98,8.57-4.91,13.99-.07.1-.2.31-.27.41-8.78,11.66-20.05,21.54-33.2,27.98-11.67,6.17-24.84,8.97-37.93,9.91-.06-1.7-.11-3.4-.17-5.1-.05-.78-.13-2.33-.18-3.11,5.04,1.98,10.62,1.26,15.74.01,3.79-.94,7.07-3.22,10.82-4.29,6.02-1.81,12.05-4.1,17.1-7.91,4-3.65,6.91-8.43,11.48-11.48,3.24-2.1,6.02-4.83,7.71-8.34-.51-.1-1.52-.3-2.02-.4,11.1-13.89,17.66-31.41,18.13-49.21Z"/>
  </g>
  <g id="_x23_48cedcff">
    <path class="st20" d="M538,253.64c1.32.03,2.64.07,3.96.1.11,8.9-1.43,17.75-4.25,26.18-.61,2.08-1.11,4.19-1.56,6.32,25.75,10.57,51.19,21.92,77,32.37,1.17-3.43,2.67-6.74,4.48-9.88,6.05,7.52,11.81,15.27,17.65,22.95.73,1.18,2.77,3.31.72,4.32-10.6,1.47-21.15,3.45-31.81,4.51,1.23-3.54,2.65-7.01,4.23-10.4-21.96-9.08-43.72-18.63-65.69-27.68-4.07-1.91-8.1-3.91-12.35-5.38-1.76,2.69-3.55,5.36-5.36,8.02-2.07-5.42,2.68-9.61,4.91-13.99,2.19-5.56,3.07-11.54,4.75-17.26,1.82-5.7-.1-11.73.92-17.53.55-1.07,1.6-1.78,2.4-2.65Z"/>
    <path class="st20" d="M641.33,315.34c1.76-.77,3.76-.54,5.65-.63,58.33.02,116.67.01,175.01-.02,1.91.07,3.91-.05,5.75.61,2.75,1.48,3.06,4.95,3.01,7.74-.08,9.02.05,18.05-.05,27.07.07,3.41-3.42,6.02-6.69,5.61-60,.03-120.01,0-180,.01-3.1.13-5.48-2.72-5.36-5.71-.35-8.66.03-17.35-.16-26.02.03-3.03-.39-7.04,2.84-8.66Z"/>
  </g>
  <g id="_x23_3f9fabff">
    <path class="st16" d="M514.1,302.75c.5.1,1.51.3,2.02.4-1.69,3.51-4.47,6.24-7.71,8.34-4.57,3.05-7.48,7.83-11.48,11.48-5.05,3.81-11.08,6.1-17.1,7.91-3.75,1.07-7.03,3.35-10.82,4.29-5.12,1.25-10.7,1.97-15.74-.01-.04-.44-.13-1.32-.17-1.76,23.55-.71,46.25-12.37,61-30.65Z"/>
    <path class="st16" d="M637.36,319.09c.19-2.96,2.82-5.38,5.71-5.67,2.96-.32,5.94-.16,8.92-.18,57.7.04,115.4-.05,173.1.04,4.11-.18,7.08,3.87,7.06,7.71.24,8.33-.03,16.66.11,24.99-.02,2.54.22,5.22-.87,7.61-3.97,5.07-10.82,3.42-16.38,3.54-56.35.02-112.71.05-169.06-.04-2.75.17-5.31-.91-7.38-2.66-1.05-1.2-1.24-2.83-1.45-4.33-.64-5.25-.44-10.56-.06-15.81-.65-5.07.1-10.13.3-15.2M641.33,315.34c-3.23,1.62-2.81,5.63-2.84,8.66.19,8.67-.19,17.36.16,26.02-.12,2.99,2.26,5.84,5.36,5.71,59.99-.01,120,.02,180-.01,3.27.41,6.76-2.2,6.69-5.61.1-9.02-.03-18.05.05-27.07.05-2.79-.26-6.26-3.01-7.74-1.84-.66-3.84-.54-5.75-.61-58.34.03-116.68.04-175.01.02-1.89.09-3.89-.14-5.65.63Z"/>
  </g>
  <g id="_x23_d3d5d8ff">
    <path class="st33" d="M491.55,333.46c13.15-6.44,24.42-16.32,33.2-27.98-.6,2.28-.63,5.01-2.57,6.68-6.67,6.01-12.56,12.9-19.94,18.1-7.18,4.97-15.19,8.54-23.24,11.84-4.08,1.67-8.6,1.21-12.82,2.29-4.46,1.1-9.04,1.33-13.6,1.23-.8,1.06-1.58,2.13-2.36,3.2-.83-1.1-1.65-2.19-2.46-3.28-2.97.06-5.96.18-8.89-.36-7.77-1.55-15.72-3.16-22.57-7.35-7.59-3.6-14.62-8.31-20.77-14.03.41-.22,1.24-.67,1.65-.89,1.03-.61,2.05-1.26,3.08-1.89,4.03,2.15,8.26,3.99,11.95,6.72,4.87,3.73,10.82,5.61,16.58,7.49,8.02,2.09,16.32,3.93,24.66,3.04.06,1.7.11,3.4.17,5.1,13.09-.94,26.26-3.74,37.93-9.91Z"/>
  </g>
  <g id="_x23_bcc0c1ff">
    <path class="st47" d="M400.65,316.91c14.94,11.28,33.75,17.12,52.45,16.49.04.44.13,1.32.17,1.76.05.78.13,2.33.18,3.11-8.34.89-16.64-.95-24.66-3.04-5.76-1.88-11.71-3.76-16.58-7.49-3.69-2.73-7.92-4.57-11.95-6.72.12-1.37.25-2.74.39-4.11Z"/>
  </g>
  <g id="_x23_fbcd39ff">
    <path class="st43" d="M69.45,320.47c1.18-.24,2.37-.36,3.58-.34,60.68.1,121.36-.02,182.04.03,2.79-.29,5.8,1.36,6.32,4.27.5,4.51.09,9.07.26,13.6-.04,3.12.27,6.86-2.33,9.13-1.33,1.64-3.5,1.63-5.41,1.67-60.33-.1-120.66.01-180.99-.05-3.02.34-6.14-1.74-6.39-4.9-.34-5.62-.08-11.26-.15-16.89-.13-2.52.93-5.11,3.07-6.52Z"/>
  </g>
  <g id="_x23_c9ccd0ff">
    <path class="st18" d="M64.59,345.54c2.13,2.54,4.72,5.4,8.4,4.97,60.69-.03,121.37.04,182.05,0,2.93.26,5.23-1.66,7.35-3.38l1.6-1.12c-.52,2.2-.42,4.95-2.45,6.42-3.16,2.85-7.67,2.16-11.57,2.25-58.98-.09-117.97.03-176.96-.06-4.88.34-9.54-4.04-8.42-9.08Z"/>
  </g>
  <g id="_x23_b6babbff">
    <path class="st37" d="M815.01,357.13c5.56-.12,12.41,1.53,16.38-3.54,1.01,2.6-1.23,4.33-2.76,6.04-56.19.42-112.39.09-168.59.13-6.39.46-13.51,2.35-19.41-1.04-1.42-.8-3.59-2.44-2.06-4.29,2.07,1.75,4.63,2.83,7.38,2.66,56.35.09,112.71.06,169.06.04Z"/>
  </g>
  <g id="_x23_f7c63bff">
    <path class="st6" d="M160.34,390.89c.03-2.56.08-5.11.22-7.65,3.91.12,1.67,5,2.2,7.45,1.38-.53,4.04-3.48,4.8-.78-1.6,2.06-3.41,4-5.49,5.59-2.84-.42-4.55-3.54-6.46-5.51.65-3.38,3.36.01,4.73.9Z"/>
  </g>
  <g id="_x23_59cddaff">
    <path class="st29" d="M743.74,385.42c4.1.54,2.01,5.44,2.34,8.17,1.41-1.24,2.95-2.47,4.96-2.43-1.14,2.89-3.73,6.37-7.06,6.32-1.91-1.64-5.44-3.41-4.87-6.31,2.07-.46,3.22,1.59,4.62,2.72-.08-2.83-.08-5.65.01-8.47Z"/>
  </g>
  <g id="_x23_f7d13aff">
    <path class="st49" d="M314.44,418.94c-.25-3.96,3.75-6.94,7.51-6.46,85.68.08,171.37-.11,257.05.03,3.48-.23,6.74,2.94,6.56,6.43.07,15.7-.02,31.4.05,47.1-.18,1.49.24,3.34-.87,4.56-1.89,1.6-4.09,3.12-6.7,2.88-83.02-.08-166.04.02-249.05-.02-4.03.04-8.16.34-12.02-1.03-.85-.7-1.62-1.49-2.41-2.22-.33-17.09-.1-34.19-.12-51.27M319.33,416.59c-1.22.57-.91,2.29-1.19,3.38-.72,7.33.05,14.68,0,22.03.09,8.66-.45,17.32.14,25.97.32,2.26,2.92,2.17,4.67,2.21,85.02-.07,170.04,0,255.06-.04,2.47.44,4.29-1.64,4.1-4.02.05-15.37.09-30.76-.02-46.13.23-2.42-1.58-4.55-4.1-4.16-28.99,0-57.98.05-86.97,0-16.66.39-33.34-.42-50.01.27-24.67-.5-49.37-.15-74.06-.21-15.84.88-31.86-1.19-47.62.7Z"/>
  </g>
  <g id="_x23_faf2caff">
    <path class="st45" d="M319.33,416.59c15.76-1.89,31.78.18,47.62-.7,24.69.06,49.39-.29,74.06.21,16.67-.69,33.35.12,50.01-.27,28.99.05,57.98,0,86.97,0,2.52-.39,4.33,1.74,4.1,4.16.11,15.37.07,30.76.02,46.13.19,2.38-1.63,4.46-4.1,4.02-85.02.04-170.04-.03-255.06.04-1.75-.04-4.35.05-4.67-2.21-.59-8.65-.05-17.31-.14-25.97.05-7.35-.72-14.7,0-22.03.28-1.09-.03-2.81,1.19-3.38Z"/>
  </g>
  <g id="_x23_eabd37ff">
    <path class="st36" d="M160.33,428.43c.11-2.34-.55-4.9.48-7.08,3.6.02,1.53,4.69,2.07,6.99,1.46-1,3.07-1.74,4.79-2.16-.34,3.4-3.72,5.14-5.75,7.5-2.24-1.82-4.5-3.67-6.26-5.98.52-3.16,3.15.15,4.67.73Z"/>
  </g>
  <g id="_x23_44c8d6ff">
    <path class="st66" d="M743.49,423.85c.68.07,2.05.21,2.74.28-.05,2.1-.1,4.2-.17,6.31,1.34-1.31,2.76-2.56,4.61-3.08-.09,3.47-3.37,5.57-5.86,7.45-2.08-2.08-6.67-4.12-5.11-7.61,1.35,1.1,2.71,2.23,4.05,3.37-.09-2.24-.18-4.48-.26-6.72Z"/>
  </g>
  <g id="_x23_76ca8aff">
    <path class="st53" d="M81.35,439.88c-.03-2.8,3.05-4.7,5.64-4.49,50.7,0,101.4-.04,152.1,0,1.27,1.71,3.33,3.21,3.41,5.53.3,6.01-.06,12.04.1,18.06-.08,3.52.52,7.26-1.01,10.57-.3.4-.66.74-1.08,1.02-7.14,1.02-14.36.63-21.54.69-43.67,0-87.34-.01-131,.03-3.61.39-7.09-2.62-6.99-6.29-.47-8.36-.37-16.78.37-25.12Z"/>
  </g>
  <g id="_x23_5a9c6dff">
    <path class="st60" d="M671.56,439.66c1.11-2.49,3.7-3.98,6.4-3.77,44.34-.12,88.69-.1,133.03-.1,3.24-.31,6.52,1.68,7.45,4.85,1.76,5.67-.18,11.59.46,17.36.42,3.85.64,7.81-.45,11.57-1.95,2.11-4.42,3.99-7.46,3.7-41.68.02-83.35-.02-125.03.04-5.15,0-11.3.97-14.85-3.7l-.47-.43c.3-9.74-.63-19.56.55-29.25,1.93,9.22.01,18.72,1.07,28.02.59,2.99,3.95,4.24,6.7,4.05,43.67,0,87.34-.01,131.01.01,2.61.09,5.78-.49,6.92-3.19.99-4.2.41-8.56.51-12.83-.14-4.98.43-10-.36-14.94-.63-3.08-4.15-4.18-6.92-4.04-40.06-.06-80.12.06-120.18-.01-6.19.13-12.93-1.07-18.38,2.66Z"/>
  </g>
  <g id="_x23_bec2c2ff">
    <path class="st14" d="M80.39,467.67c1.5,1.31,2.76,3.11,4.7,3.77,3.25.57,6.57.28,9.86.3,46.02,0,92.05-.06,138.07.03,2.53-.02,5.14-.12,7.49-1.2.42-.28.78-.62,1.08-1.02.28-.46.84-1.38,1.12-1.84-.22,2.14.44,4.9-1.62,6.36-2.88,2.23-6.75,1.32-10.11,1.49-48,0-96.01.03-144.01-.02-2.3.13-4.41-1.07-6.08-2.55-.73-1.66-.37-3.57-.5-5.32Z"/>
  </g>
  <g id="_x23_babfbdff">
    <path class="st25" d="M578.04,473.48c2.61.24,4.81-1.28,6.7-2.88,2.03,2.32-1.48,4.2-2.63,5.94-86.34.27-172.7,0-259.05.11-3.04.36-5.74-1.07-8.15-2.75.52-.37,1.54-1.11,2.06-1.47,3.86,1.37,7.99,1.07,12.02,1.03,83.01.04,166.03-.06,249.05.02Z"/>
  </g>
  <g class="st3">
    <g class="st3">
      <text class="st4" transform="translate(397.97 45.36)"><tspan x="0" y="0">OCR MISSING</tspan></text>
    </g>
  </g>
  <g class="st3">
    <g class="st3">
      <text class="st5" transform="translate(343.18 440.62)"><tspan x="0" y="0">Structured error attribution </tspan><tspan x="13.55" y="20.4">&gt; vague noise description</tspan></text>
    </g>
  </g>
  <g class="st3">
    <g class="st3">
      <text class="st1" transform="translate(100.97 451.21)"><tspan class="st12" x="0" y="0">Fix: </tspan><tspan class="st65" x="25.63" y="0">stronger sequence </tspan><tspan class="st65"><tspan x="-11.19" y="15.6">labeling, reduce complexity</tspan></tspan></text>
    </g>
  </g>
  <g class="st3">
    <g class="st3">
      <text class="st4" transform="translate(61.3 340.1)"><tspan x="0" y="0">MULTI-IMAGE CONFUSION</tspan></text>
    </g>
  </g>
  <g class="st3">
    <g class="st3">
      <text class="st1" transform="translate(107.75 362.52)"><tspan class="st12" x="0" y="0">Symptom:</tspan><tspan class="st65" x="57.78" y="0" xml:space="preserve"> mixing</tspan><tspan class="st65"><tspan x="-21.29" y="15.6" xml:space="preserve"> information across images</tspan></tspan></text>
    </g>
  </g>
  <g class="st3">
    <g class="st3">
      <text class="st1" transform="translate(105.62 404.52)"><tspan class="st12" x="0" y="0">Cause: </tspan><tspan class="st65" x="41.53" y="0">poor ordering</tspan><tspan class="st65"><tspan x="8.49" y="15.6" xml:space="preserve"> or context control</tspan></tspan></text>
    </g>
  </g>
  <g class="st3">
    <g class="st3">
      <text/>
    </g>
  </g>
  <g class="st3">
    <g class="st3">
      <text class="st2" transform="translate(402.87 293.86)"><tspan x="0" y="0">FAILURE </tspan><tspan x="14.51" y="22.8">CASES</tspan></text>
    </g>
  </g>
  <g class="st3">
    <g class="st3">
      <text class="st1" transform="translate(678.42 451.21)"><tspan class="st12" x="0" y="0">Fix: </tspan><tspan class="st65" x="25.63" y="0">visualization checks, </tspan><tspan class="st65"><tspan x="25.09" y="15.6">clamp validation</tspan></tspan></text>
    </g>
  </g>
  <g class="st3">
    <g class="st3">
      <text class="st1" transform="translate(669.99 405.62)"><tspan class="st12" x="0" y="0">Cause:</tspan><tspan class="st65" x="38.28" y="0" xml:space="preserve"> coordinate conversion </tspan><tspan class="st65"><tspan x="19.67" y="15.6">or normalization issues</tspan></tspan></text>
    </g>
  </g>
  <g class="st3">
    <g class="st3">
      <text class="st1" transform="translate(680.21 367.61)"><tspan class="st12" x="0" y="0">Symptom: </tspan><tspan class="st65" x="61.03" y="0">bounding box </tspan><tspan class="st65"><tspan x="18.62" y="15.6">shifted or incorrect</tspan></tspan></text>
    </g>
  </g>
  <g class="st3">
    <g class="st3">
      <text class="st4" transform="translate(650.6 333.06)"><tspan x="0" y="0">BBOX MISALIGNMENT</tspan><tspan x="1.05" y="18" xml:space="preserve"> (GROUNDING ERROR)</tspan></text>
    </g>
  </g>
  <g class="st3">
    <g class="st3">
      <text class="st1" transform="translate(701.04 258.76)"><tspan class="st12" x="0" y="0">Fix: </tspan><tspan class="st65" x="25.63" y="0">refine templates, </tspan><tspan class="st65"><tspan x="-5.42" y="15.6">add structured examples</tspan></tspan></text>
    </g>
  </g>
  <g class="st3">
    <g class="st3">
      <text class="st4" transform="translate(83.31 121.39)"><tspan x="0" y="0" xml:space="preserve"> HALLUCINATION</tspan></text>
    </g>
  </g>
  <g class="st3">
    <g class="st3">
      <text class="st1" transform="translate(92.52 146.12)"><tspan class="st12" x="0" y="0">Symptom:</tspan><tspan class="st65" x="57.78" y="0" xml:space="preserve"> describing </tspan><tspan class="st65"><tspan x="10.48" y="15.6">objects not present</tspan></tspan></text>
    </g>
  </g>
  <g class="st3">
    <g class="st3">
      <text class="st1" transform="translate(90.77 189.3)"><tspan class="st12" x="0" y="0">Cause:</tspan><tspan class="st65" x="38.28" y="0" xml:space="preserve"> over-generative</tspan><tspan class="st65"><tspan x="34.65" y="15.6" xml:space="preserve"> responses</tspan></tspan></text>
    </g>
  </g>
  <g class="st3">
    <g class="st3">
      <text class="st1" transform="translate(89.92 233.32)"><tspan class="st12" x="0" y="0">Fix:</tspan><tspan class="st65" x="22.38" y="0" xml:space="preserve"> constrain prompts,</tspan><tspan class="st65"><tspan x="-1.97" y="15.6" xml:space="preserve"> reduce over-description</tspan></tspan></text>
    </g>
  </g>
  <g class="st3">
    <g class="st3">
      <text class="st1" transform="translate(697.55 212.72)"><tspan class="st12" x="0" y="0">Cause: </tspan><tspan class="st65" x="41.53" y="0">weak structural</tspan><tspan class="st65"><tspan x="22.2" y="15.6" xml:space="preserve"> understanding</tspan></tspan></text>
    </g>
  </g>
  <g class="st3">
    <g class="st3">
      <text class="st1" transform="translate(704.13 174.6)"><tspan class="st12" x="0" y="0">Symptom: </tspan><tspan class="st65" x="61.03" y="0">incorrect</tspan><tspan class="st65"><tspan x="-5.78" y="15.6" xml:space="preserve"> trends or relationships</tspan></tspan></text>
    </g>
  </g>
  <g class="st3">
    <g class="st3">
      <text class="st4" transform="translate(638.1 152.7)"><tspan x="0" y="0" xml:space="preserve"> CHART MISINTERPRETATION</tspan></text>
    </g>
  </g>
  <g class="st3">
    <g class="st3">
      <text class="st1" transform="translate(719.68 72.54)"><tspan class="st12" x="0" y="0">Fix:</tspan><tspan class="st65" x="22.38" y="0" xml:space="preserve"> improve intermediate </tspan><tspan class="st65"><tspan x="10.82" y="15.6">validation, manual QA</tspan></tspan></text>
    </g>
  </g>
  <g class="st3">
    <g class="st3">
      <text class="st1" transform="translate(585.44 72.5)"><tspan class="st12" x="0" y="0">Cause:</tspan><tspan class="st65" x="38.28" y="0" xml:space="preserve"> OCR noise, </tspan><tspan class="st65"><tspan x="13.19" y="15.6">blurred regions</tspan></tspan></text>
    </g>
  </g>
  <g class="st3">
    <g class="st3">
      <text class="st1" transform="translate(487.76 70.82)"><tspan class="st12"><tspan x="0" y="0">Symptom:</tspan></tspan><tspan class="st65"><tspan x="-15.35" y="15.6" xml:space="preserve"> missing key text</tspan></tspan></text>
    </g>
  </g>
</svg>