<svg width="1344" height="768" xmlns="http://www.w3.org/2000/svg" xmlns:xlink="http://www.w3.org/1999/xlink" overflow="hidden"><defs><filter id="fx0" x="-10%" y="-10%" width="120%" height="120%" filterUnits="userSpaceOnUse" primitiveUnits="userSpaceOnUse"><feComponentTransfer color-interpolation-filters="sRGB"><feFuncR type="discrete" tableValues="0 0"/><feFuncG type="discrete" tableValues="0 0"/><feFuncB type="discrete" tableValues="0 0"/><feFuncA type="linear" slope="0.34902" intercept="0"/></feComponentTransfer><feGaussianBlur stdDeviation="1.39983 1.39983"/></filter><filter id="fx1" x="-10%" y="-10%" width="120%" height="120%" filterUnits="userSpaceOnUse" primitiveUnits="userSpaceOnUse"><feComponentTransfer color-interpolation-filters="sRGB"><feFuncR type="discrete" tableValues="0 0"/><feFuncG type="discrete" tableValues="0 0"/><feFuncB type="discrete" tableValues="0 0"/><feFuncA type="linear" slope="0.34902" intercept="0"/></feComponentTransfer><feGaussianBlur stdDeviation="1.39983 1.39983"/></filter><filter id="fx2" x="-10%" y="-10%" width="120%" height="120%" filterUnits="userSpaceOnUse" primitiveUnits="userSpaceOnUse"><feComponentTransfer color-interpolation-filters="sRGB"><feFuncR type="discrete" tableValues="0 0"/><feFuncG type="discrete" tableValues="0 0"/><feFuncB type="discrete" tableValues="0 0"/><feFuncA type="linear" slope="0.34902" intercept="0"/></feComponentTransfer><feGaussianBlur stdDeviation="1.39983 1.39983"/></filter><filter id="fx3" x="-10%" y="-10%" width="120%" height="120%" filterUnits="userSpaceOnUse" primitiveUnits="userSpaceOnUse"><feComponentTransfer color-interpolation-filters="sRGB"><feFuncR type="discrete" tableValues="0 0"/><feFuncG type="discrete" tableValues="0 0"/><feFuncB type="discrete" tableValues="0 0"/><feFuncA type="linear" slope="0.34902" intercept="0"/></feComponentTransfer><feGaussianBlur stdDeviation="1.39983 1.39983"/></filter><filter id="fx4" x="-10%" y="-10%" width="120%" height="120%" filterUnits="userSpaceOnUse" primitiveUnits="userSpaceOnUse"><feComponentTransfer color-interpolation-filters="sRGB"><feFuncR type="discrete" tableValues="0 0"/><feFuncG type="discrete" tableValues="0 0"/><feFuncB type="discrete" tableValues="0 0"/><feFuncA type="linear" slope="0.34902" intercept="0"/></feComponentTransfer><feGaussianBlur stdDeviation="1.39983 1.39983"/></filter><filter id="fx5" x="-10%" y="-10%" width="120%" height="120%" filterUnits="userSpaceOnUse" primitiveUnits="userSpaceOnUse"><feComponentTransfer color-interpolation-filters="sRGB"><feFuncR type="discrete" tableValues="0 0"/><feFuncG type="discrete" tableValues="0 0"/><feFuncB type="discrete" tableValues="0 0"/><feFuncA type="linear" slope="0.34902" intercept="0"/></feComponentTransfer><feGaussianBlur stdDeviation="1.39983 1.39983"/></filter><filter id="fx6" x="-10%" y="-10%" width="120%" height="120%" filterUnits="userSpaceOnUse" primitiveUnits="userSpaceOnUse"><feComponentTransfer color-interpolation-filters="sRGB"><feFuncR type="discrete" tableValues="0 0"/><feFuncG type="discrete" tableValues="0 0"/><feFuncB type="discrete" tableValues="0 0"/><feFuncA type="linear" slope="0.34902" intercept="0"/></feComponentTransfer><feGaussianBlur stdDeviation="1.39983 1.39983"/></filter><filter id="fx7" x="-10%" y="-10%" width="120%" height="120%" filterUnits="userSpaceOnUse" primitiveUnits="userSpaceOnUse"><feComponentTransfer color-interpolation-filters="sRGB"><feFuncR type="discrete" tableValues="0 0"/><feFuncG type="discrete" tableValues="0 0"/><feFuncB type="discrete" tableValues="0 0"/><feFuncA type="linear" slope="0.34902" intercept="0"/></feComponentTransfer><feGaussianBlur stdDeviation="1.39983 1.39983"/></filter><filter id="fx8" x="-10%" y="-10%" width="120%" height="120%" filterUnits="userSpaceOnUse" primitiveUnits="userSpaceOnUse"><feComponentTransfer color-interpolation-filters="sRGB"><feFuncR type="discrete" tableValues="0 0"/><feFuncG type="discrete" tableValues="0 0"/><feFuncB type="discrete" tableValues="0 0"/><feFuncA type="linear" slope="0.34902" intercept="0"/></feComponentTransfer><feGaussianBlur stdDeviation="1.39983 1.39983"/></filter><filter id="fx9" x="-10%" y="-10%" width="120%" height="120%" filterUnits="userSpaceOnUse" primitiveUnits="userSpaceOnUse"><feComponentTransfer color-interpolation-filters="sRGB"><feFuncR type="discrete" tableValues="0 0"/><feFuncG type="discrete" tableValues="0 0"/><feFuncB type="discrete" tableValues="0 0"/><feFuncA type="linear" slope="0.34902" intercept="0"/></feComponentTransfer><feGaussianBlur stdDeviation="1.39983 1.39983"/></filter><filter id="fx10" x="-10%" y="-10%" width="120%" height="120%" filterUnits="userSpaceOnUse" primitiveUnits="userSpaceOnUse"><feComponentTransfer color-interpolation-filters="sRGB"><feFuncR type="discrete" tableValues="0 0"/><feFuncG type="discrete" tableValues="0 0"/><feFuncB type="discrete" tableValues="0 0"/><feFuncA type="linear" slope="0.34902" intercept="0"/></feComponentTransfer><feGaussianBlur stdDeviation="1.39983 1.39983"/></filter><filter id="fx11" x="-10%" y="-10%" width="120%" height="120%" filterUnits="userSpaceOnUse" primitiveUnits="userSpaceOnUse"><feComponentTransfer color-interpolation-filters="sRGB"><feFuncR type="discrete" tableValues="0 0"/><feFuncG type="discrete" tableValues="0 0"/><feFuncB type="discrete" tableValues="0 0"/><feFuncA type="linear" slope="0.34902" intercept="0"/></feComponentTransfer><feGaussianBlur stdDeviation="1.39983 1.39983"/></filter><filter id="fx12" x="-10%" y="-10%" width="120%" height="120%" filterUnits="userSpaceOnUse" primitiveUnits="userSpaceOnUse"><feComponentTransfer color-interpolation-filters="sRGB"><feFuncR type="discrete" tableValues="0 0"/><feFuncG type="discrete" tableValues="0 0"/><feFuncB type="discrete" tableValues="0 0"/><feFuncA type="linear" slope="0.34902" intercept="0"/></feComponentTransfer><feGaussianBlur stdDeviation="1.39983 1.39983"/></filter><filter id="fx13" x="-10%" y="-10%" width="120%" height="120%" filterUnits="userSpaceOnUse" primitiveUnits="userSpaceOnUse"><feComponentTransfer color-interpolation-filters="sRGB"><feFuncR type="discrete" tableValues="0 0"/><feFuncG type="discrete" tableValues="0 0"/><feFuncB type="discrete" tableValues="0 0"/><feFuncA type="linear" slope="0.34902" intercept="0"/></feComponentTransfer><feGaussianBlur stdDeviation="1.39983 1.39983"/></filter><filter id="fx14" x="-10%" y="-10%" width="120%" height="120%" filterUnits="userSpaceOnUse" primitiveUnits="userSpaceOnUse"><feComponentTransfer color-interpolation-filters="sRGB"><feFuncR type="discrete" tableValues="0 0"/><feFuncG type="discrete" tableValues="0 0"/><feFuncB type="discrete" tableValues="0 0"/><feFuncA type="linear" slope="0.34902" intercept="0"/></feComponentTransfer><feGaussianBlur stdDeviation="1.39983 1.39983"/></filter><filter id="fx15" x="-10%" y="-10%" width="120%" height="120%" filterUnits="userSpaceOnUse" primitiveUnits="userSpaceOnUse"><feComponentTransfer color-interpolation-filters="sRGB"><feFuncR type="discrete" tableValues="0 0"/><feFuncG type="discrete" tableValues="0 0"/><feFuncB type="discrete" tableValues="0 0"/><feFuncA type="linear" slope="0.34902" intercept="0"/></feComponentTransfer><feGaussianBlur stdDeviation="1.39983 1.39983"/></filter><filter id="fx16" x="-10%" y="-10%" width="120%" height="120%" filterUnits="userSpaceOnUse" primitiveUnits="userSpaceOnUse"><feComponentTransfer color-interpolation-filters="sRGB"><feFuncR type="discrete" tableValues="0 0"/><feFuncG type="discrete" tableValues="0 0"/><feFuncB type="discrete" tableValues="0 0"/><feFuncA type="linear" slope="0.34902" intercept="0"/></feComponentTransfer><feGaussianBlur stdDeviation="1.39983 1.39983"/></filter><filter id="fx17" x="-10%" y="-10%" width="120%" height="120%" filterUnits="userSpaceOnUse" primitiveUnits="userSpaceOnUse"><feComponentTransfer color-interpolation-filters="sRGB"><feFuncR type="discrete" tableValues="0 0"/><feFuncG type="discrete" tableValues="0 0"/><feFuncB type="discrete" tableValues="0 0"/><feFuncA type="linear" slope="0.34902" intercept="0"/></feComponentTransfer><feGaussianBlur stdDeviation="1.39983 1.39983"/></filter><filter id="fx18" x="-10%" y="-10%" width="120%" height="120%" filterUnits="userSpaceOnUse" primitiveUnits="userSpaceOnUse"><feComponentTransfer color-interpolation-filters="sRGB"><feFuncR type="discrete" tableValues="0 0"/><feFuncG type="discrete" tableValues="0 0"/><feFuncB type="discrete" tableValues="0 0"/><feFuncA type="linear" slope="0.34902" intercept="0"/></feComponentTransfer><feGaussianBlur stdDeviation="1.39983 1.39983"/></filter><filter id="fx19" x="-10%" y="-10%" width="120%" height="120%" filterUnits="userSpaceOnUse" primitiveUnits="userSpaceOnUse"><feComponentTransfer color-interpolation-filters="sRGB"><feFuncR type="discrete" tableValues="0 0"/><feFuncG type="discrete" tableValues="0 0"/><feFuncB type="discrete" tableValues="0 0"/><feFuncA type="linear" slope="0.34902" intercept="0"/></feComponentTransfer><feGaussianBlur stdDeviation="1.39983 1.39983"/></filter><filter id="fx20" x="-10%" y="-10%" width="120%" height="120%" filterUnits="userSpaceOnUse" primitiveUnits="userSpaceOnUse"><feComponentTransfer color-interpolation-filters="sRGB"><feFuncR type="discrete" tableValues="0 0"/><feFuncG type="discrete" tableValues="0 0"/><feFuncB type="discrete" tableValues="0 0"/><feFuncA type="linear" slope="0.34902" intercept="0"/></feComponentTransfer><feGaussianBlur stdDeviation="1.39983 1.39983"/></filter><filter id="fx21" x="-10%" y="-10%" width="120%" height="120%" filterUnits="userSpaceOnUse" primitiveUnits="userSpaceOnUse"><feComponentTransfer color-interpolation-filters="sRGB"><feFuncR type="discrete" tableValues="0 0"/><feFuncG type="discrete" tableValues="0 0"/><feFuncB type="discrete" tableValues="0 0"/><feFuncA type="linear" slope="0.34902" intercept="0"/></feComponentTransfer><feGaussianBlur stdDeviation="1.39983 1.39983"/></filter><filter id="fx22" x="-10%" y="-10%" width="120%" height="120%" filterUnits="userSpaceOnUse" primitiveUnits="userSpaceOnUse"><feComponentTransfer color-interpolation-filters="sRGB"><feFuncR type="discrete" tableValues="0 0"/><feFuncG type="discrete" tableValues="0 0"/><feFuncB type="discrete" tableValues="0 0"/><feFuncA type="linear" slope="0.34902" intercept="0"/></feComponentTransfer><feGaussianBlur stdDeviation="1.39983 1.39983"/></filter><filter id="fx23" x="-10%" y="-10%" width="120%" height="120%" filterUnits="userSpaceOnUse" primitiveUnits="userSpaceOnUse"><feComponentTransfer color-interpolation-filters="sRGB"><feFuncR type="discrete" tableValues="0 0"/><feFuncG type="discrete" tableValues="0 0"/><feFuncB type="discrete" tableValues="0 0"/><feFuncA type="linear" slope="0.34902" intercept="0"/></feComponentTransfer><feGaussianBlur stdDeviation="1.39983 1.39983"/></filter><filter id="fx24" x="-10%" y="-10%" width="120%" height="120%" filterUnits="userSpaceOnUse" primitiveUnits="userSpaceOnUse"><feComponentTransfer color-interpolation-filters="sRGB"><feFuncR type="discrete" tableValues="0 0"/><feFuncG type="discrete" tableValues="0 0"/><feFuncB type="discrete" tableValues="0 0"/><feFuncA type="linear" slope="0.34902" intercept="0"/></feComponentTransfer><feGaussianBlur stdDeviation="1.39983 1.39983"/></filter><filter id="fx25" x="-10%" y="-10%" width="120%" height="120%" filterUnits="userSpaceOnUse" primitiveUnits="userSpaceOnUse"><feComponentTransfer color-interpolation-filters="sRGB"><feFuncR type="discrete" tableValues="0 0"/><feFuncG type="discrete" tableValues="0 0"/><feFuncB type="discrete" tableValues="0 0"/><feFuncA type="linear" slope="0.34902" intercept="0"/></feComponentTransfer><feGaussianBlur stdDeviation="1.39983 1.39983"/></filter><filter id="fx26" x="-10%" y="-10%" width="120%" height="120%" filterUnits="userSpaceOnUse" primitiveUnits="userSpaceOnUse"><feComponentTransfer color-interpolation-filters="sRGB"><feFuncR type="discrete" tableValues="0 0"/><feFuncG type="discrete" tableValues="0 0"/><feFuncB type="discrete" tableValues="0 0"/><feFuncA type="linear" slope="0.34902" intercept="0"/></feComponentTransfer><feGaussianBlur stdDeviation="1.39983 1.39983"/></filter><filter id="fx27" x="-10%" y="-10%" width="120%" height="120%" filterUnits="userSpaceOnUse" primitiveUnits="userSpaceOnUse"><feComponentTransfer color-interpolation-filters="sRGB"><feFuncR type="discrete" tableValues="0 0"/><feFuncG type="discrete" tableValues="0 0"/><feFuncB type="discrete" tableValues="0 0"/><feFuncA type="linear" slope="0.34902" intercept="0"/></feComponentTransfer><feGaussianBlur stdDeviation="1.39983 1.39983"/></filter><filter id="fx28" x="-10%" y="-10%" width="120%" height="120%" filterUnits="userSpaceOnUse" primitiveUnits="userSpaceOnUse"><feComponentTransfer color-interpolation-filters="sRGB"><feFuncR type="discrete" tableValues="0 0"/><feFuncG type="discrete" tableValues="0 0"/><feFuncB type="discrete" tableValues="0 0"/><feFuncA type="linear" slope="0.34902" intercept="0"/></feComponentTransfer><feGaussianBlur stdDeviation="1.39983 1.39983"/></filter><filter id="fx29" x="-10%" y="-10%" width="120%" height="120%" filterUnits="userSpaceOnUse" primitiveUnits="userSpaceOnUse"><feComponentTransfer color-interpolation-filters="sRGB"><feFuncR type="discrete" tableValues="0 0"/><feFuncG type="discrete" tableValues="0 0"/><feFuncB type="discrete" tableValues="0 0"/><feFuncA type="linear" slope="0.34902" intercept="0"/></feComponentTransfer><feGaussianBlur stdDeviation="1.39983 1.39983"/></filter><filter id="fx30" x="-10%" y="-10%" width="120%" height="120%" filterUnits="userSpaceOnUse" primitiveUnits="userSpaceOnUse"><feComponentTransfer color-interpolation-filters="sRGB"><feFuncR type="discrete" tableValues="0 0"/><feFuncG type="discrete" tableValues="0 0"/><feFuncB type="discrete" tableValues="0 0"/><feFuncA type="linear" slope="0.34902" intercept="0"/></feComponentTransfer><feGaussianBlur stdDeviation="1.39983 1.39983"/></filter><filter id="fx31" x="-10%" y="-10%" width="120%" height="120%" filterUnits="userSpaceOnUse" primitiveUnits="userSpaceOnUse"><feComponentTransfer color-interpolation-filters="sRGB"><feFuncR type="discrete" tableValues="0 0"/><feFuncG type="discrete" tableValues="0 0"/><feFuncB type="discrete" tableValues="0 0"/><feFuncA type="linear" slope="0.34902" intercept="0"/></feComponentTransfer><feGaussianBlur stdDeviation="1.39983 1.39983"/></filter><filter id="fx32" x="-10%" y="-10%" width="120%" height="120%" filterUnits="userSpaceOnUse" primitiveUnits="userSpaceOnUse"><feComponentTransfer color-interpolation-filters="sRGB"><feFuncR type="discrete" tableValues="0 0"/><feFuncG type="discrete" tableValues="0 0"/><feFuncB type="discrete" tableValues="0 0"/><feFuncA type="linear" slope="0.34902" intercept="0"/></feComponentTransfer><feGaussianBlur stdDeviation="1.39983 1.39983"/></filter><filter id="fx33" x="-10%" y="-10%" width="120%" height="120%" filterUnits="userSpaceOnUse" primitiveUnits="userSpaceOnUse"><feComponentTransfer color-interpolation-filters="sRGB"><feFuncR type="discrete" tableValues="0 0"/><feFuncG type="discrete" tableValues="0 0"/><feFuncB type="discrete" tableValues="0 0"/><feFuncA type="linear" slope="0.34902" intercept="0"/></feComponentTransfer><feGaussianBlur stdDeviation="1.39983 1.39983"/></filter><filter id="fx34" x="-10%" y="-10%" width="120%" height="120%" filterUnits="userSpaceOnUse" primitiveUnits="userSpaceOnUse"><feComponentTransfer color-interpolation-filters="sRGB"><feFuncR type="discrete" tableValues="0 0"/><feFuncG type="discrete" tableValues="0 0"/><feFuncB type="discrete" tableValues="0 0"/><feFuncA type="linear" slope="0.34902" intercept="0"/></feComponentTransfer><feGaussianBlur stdDeviation="1.39983 1.39983"/></filter><filter id="fx35" x="-10%" y="-10%" width="120%" height="120%" filterUnits="userSpaceOnUse" primitiveUnits="userSpaceOnUse"><feComponentTransfer color-interpolation-filters="sRGB"><feFuncR type="discrete" tableValues="0 0"/><feFuncG type="discrete" tableValues="0 0"/><feFuncB type="discrete" tableValues="0 0"/><feFuncA type="linear" slope="0.34902" intercept="0"/></feComponentTransfer><feGaussianBlur stdDeviation="1.39983 1.39983"/></filter><filter id="fx36" x="-10%" y="-10%" width="120%" height="120%" filterUnits="userSpaceOnUse" primitiveUnits="userSpaceOnUse"><feComponentTransfer color-interpolation-filters="sRGB"><feFuncR type="discrete" tableValues="0 0"/><feFuncG type="discrete" tableValues="0 0"/><feFuncB type="discrete" tableValues="0 0"/><feFuncA type="linear" slope="0.34902" intercept="0"/></feComponentTransfer><feGaussianBlur stdDeviation="1.39983 1.39983"/></filter><filter id="fx37" x="-10%" y="-10%" width="120%" height="120%" filterUnits="userSpaceOnUse" primitiveUnits="userSpaceOnUse"><feComponentTransfer color-interpolation-filters="sRGB"><feFuncR type="discrete" tableValues="0 0"/><feFuncG type="discrete" tableValues="0 0"/><feFuncB type="discrete" tableValues="0 0"/><feFuncA type="linear" slope="0.34902" intercept="0"/></feComponentTransfer><feGaussianBlur stdDeviation="1.39983 1.39983"/></filter><filter id="fx38" x="-10%" y="-10%" width="120%" height="120%" filterUnits="userSpaceOnUse" primitiveUnits="userSpaceOnUse"><feComponentTransfer color-interpolation-filters="sRGB"><feFuncR type="discrete" tableValues="0 0"/><feFuncG type="discrete" tableValues="0 0"/><feFuncB type="discrete" tableValues="0 0"/><feFuncA type="linear" slope="0.34902" intercept="0"/></feComponentTransfer><feGaussianBlur stdDeviation="1.39983 1.39983"/></filter><filter id="fx39" x="-10%" y="-10%" width="120%" height="120%" filterUnits="userSpaceOnUse" primitiveUnits="userSpaceOnUse"><feComponentTransfer color-interpolation-filters="sRGB"><feFuncR type="discrete" tableValues="0 0"/><feFuncG type="discrete" tableValues="0 0"/><feFuncB type="discrete" tableValues="0 0"/><feFuncA type="linear" slope="0.34902" intercept="0"/></feComponentTransfer><feGaussianBlur stdDeviation="1.39983 1.39983"/></filter><filter id="fx40" x="-10%" y="-10%" width="120%" height="120%" filterUnits="userSpaceOnUse" primitiveUnits="userSpaceOnUse"><feComponentTransfer color-interpolation-filters="sRGB"><feFuncR type="discrete" tableValues="0 0"/><feFuncG type="discrete" tableValues="0 0"/><feFuncB type="discrete" tableValues="0 0"/><feFuncA type="linear" slope="0.34902" intercept="0"/></feComponentTransfer><feGaussianBlur stdDeviation="1.39983 1.39983"/></filter><filter id="fx41" x="-10%" y="-10%" width="120%" height="120%" filterUnits="userSpaceOnUse" primitiveUnits="userSpaceOnUse"><feComponentTransfer color-interpolation-filters="sRGB"><feFuncR type="discrete" tableValues="0 0"/><feFuncG type="discrete" tableValues="0 0"/><feFuncB type="discrete" tableValues="0 0"/><feFuncA type="linear" slope="0.34902" intercept="0"/></feComponentTransfer><feGaussianBlur stdDeviation="1.39983 1.39983"/></filter><filter id="fx42" x="-10%" y="-10%" width="120%" height="120%" filterUnits="userSpaceOnUse" primitiveUnits="userSpaceOnUse"><feComponentTransfer color-interpolation-filters="sRGB"><feFuncR type="discrete" tableValues="0 0"/><feFuncG type="discrete" tableValues="0 0"/><feFuncB type="discrete" tableValues="0 0"/><feFuncA type="linear" slope="0.34902" intercept="0"/></feComponentTransfer><feGaussianBlur stdDeviation="1.39983 1.39983"/></filter><filter id="fx43" x="-10%" y="-10%" width="120%" height="120%" filterUnits="userSpaceOnUse" primitiveUnits="userSpaceOnUse"><feComponentTransfer color-interpolation-filters="sRGB"><feFuncR type="discrete" tableValues="0 0"/><feFuncG type="discrete" tableValues="0 0"/><feFuncB type="discrete" tableValues="0 0"/><feFuncA type="linear" slope="0.34902" intercept="0"/></feComponentTransfer><feGaussianBlur stdDeviation="1.39983 1.39983"/></filter><clipPath id="clip44"><path d="M398.5 27.5001 398.5 716.5 399.5 716.5 399.5 27.5001ZM2.00272e-05 1.14441e-05 1344 1.14441e-05 1344 768 2.00272e-05 768Z" fill-rule="evenodd" clip-rule="evenodd"/></clipPath><clipPath id="clip45"><rect x="1" y="1" width="13" height="701"/></clipPath><clipPath id="clip46"><path d="M672.5 27.5001 672.5 716.5 673.5 716.5 673.5 27.5001ZM2.00272e-05 1.14441e-05 1344 1.14441e-05 1344 768 2.00272e-05 768Z" fill-rule="evenodd" clip-rule="evenodd"/></clipPath><clipPath id="clip47"><rect x="1" y="1" width="13" height="701"/></clipPath><clipPath id="clip48"><path d="M955.5 27.5001 955.5 716.5 956.5 716.5 956.5 27.5001ZM2.00272e-05 1.14441e-05 1344 1.14441e-05 1344 768 2.00272e-05 768Z" fill-rule="evenodd" clip-rule="evenodd"/></clipPath><clipPath id="clip49"><rect x="1" y="1" width="13" height="701"/></clipPath><clipPath id="clip50"><path d="M46.5001 101.5 46.5001 102.5 1299.5 102.5 1299.5 101.5ZM2.00272e-05 1.14441e-05 1344 1.14441e-05 1344 768 2.00272e-05 768Z" fill-rule="evenodd" clip-rule="evenodd"/></clipPath><clipPath id="clip51"><rect x="1" y="1" width="1265" height="13"/></clipPath><clipPath id="clip52"><path d="M46.5001 384.5 46.5001 385.5 1299.5 385.5 1299.5 384.5ZM2.00272e-05 1.14441e-05 1344 1.14441e-05 1344 768 2.00272e-05 768Z" fill-rule="evenodd" clip-rule="evenodd"/></clipPath><clipPath id="clip53"><rect x="1" y="1" width="1265" height="13"/></clipPath><clipPath id="clip54"><path d="M480.5 96.5001 480.5 192.5 384.5 192.5 384.5 288.5 384.5 384.5 576.5 384.5 576.5 288.5 672.5 288.5 672.5 96.5001 576.5 96.5001ZM2.00272e-05 1.14441e-05 1344 1.14441e-05 1344 768 2.00272e-05 768Z" fill-rule="evenodd" clip-rule="evenodd"/></clipPath><clipPath id="clip55"><rect x="1" y="1" width="303" height="303"/></clipPath><clipPath id="clip56"><path d="M672.5 96.5001 672.5 288.5 768.5 288.5 864.5 384.5 960.5 384.5 960.5 288.5 960.5 192.5 864.5 192.5 864.5 96.5001 768.5 96.5001ZM2.00272e-05 1.14441e-05 1344 1.14441e-05 1344 768 2.00272e-05 768Z" fill-rule="evenodd" clip-rule="evenodd"/></clipPath><clipPath id="clip57"><rect x="1" y="1" width="303" height="303"/></clipPath><clipPath id="clip58"><path d="M864.5 384.5 864.5 480.5 768.5 480.5 768.5 576.5 672.5 576.5 672.5 672.5 768.5 672.5 864.5 672.5 864.5 576.5 960.5 576.5 960.5 480.5 960.5 384.5ZM2.00272e-05 1.14441e-05 1344 1.14441e-05 1344 768 2.00272e-05 768Z" fill-rule="evenodd" clip-rule="evenodd"/></clipPath><clipPath id="clip59"><rect x="1" y="1" width="303" height="303"/></clipPath><clipPath id="clip60"><path d="M384.5 384.5 384.5 480.5 384.5 576.5 480.5 576.5 480.5 672.5 576.5 672.5 672.5 672.5 672.5 576.5 576.5 576.5 576.5 480.5 576.5 384.5ZM2.00272e-05 1.14441e-05 1344 1.14441e-05 1344 768 2.00272e-05 768Z" fill-rule="evenodd" clip-rule="evenodd"/></clipPath><clipPath id="clip61"><rect x="1" y="1" width="303" height="303"/></clipPath><clipPath id="clip62"><path d="M480.5 96.5001 480.5 192.5 384.5 192.5 384.5 288.5 384.5 384.5 480.5 384.5 576.5 384.5 576.5 288.5 672.5 288.5 672.5 192.5 672.5 96.5001 576.5 96.5001ZM2.00272e-05 1.14441e-05 1344 1.14441e-05 1344 768 2.00272e-05 768Z" fill-rule="evenodd" clip-rule="evenodd"/></clipPath><clipPath id="clip63"><rect x="1" y="1" width="303" height="303"/></clipPath><clipPath id="clip64"><path d="M672.5 96.5001 672.5 192.5 672.5 288.5 768.5 288.5 768.5 384.5 864.5 384.5 960.5 384.5 960.5 288.5 960.5 192.5 864.5 192.5 864.5 96.5001 768.5 96.5001ZM2.00272e-05 1.14441e-05 1344 1.14441e-05 1344 768 2.00272e-05 768Z" fill-rule="evenodd" clip-rule="evenodd"/></clipPath><clipPath id="clip65"><rect x="1" y="1" width="303" height="303"/></clipPath><clipPath id="clip66"><path d="M768.5 384.5 768.5 480.5 672.5 480.5 672.5 576.5 672.5 672.5 768.5 672.5 864.5 672.5 864.5 576.5 960.5 576.5 960.5 480.5 960.5 384.5 864.5 384.5ZM2.00272e-05 1.14441e-05 1344 1.14441e-05 1344 768 2.00272e-05 768Z" fill-rule="evenodd" clip-rule="evenodd"/></clipPath><clipPath id="clip67"><rect x="1" y="1" width="303" height="303"/></clipPath><clipPath id="clip68"><path d="M384.5 384.5 384.5 480.5 384.5 576.5 480.5 576.5 480.5 672.5 576.5 672.5 672.5 672.5 672.5 576.5 672.5 480.5 576.5 480.5 576.5 384.5 480.5 384.5ZM2.00272e-05 1.14441e-05 1344 1.14441e-05 1344 768 2.00272e-05 768Z" fill-rule="evenodd" clip-rule="evenodd"/></clipPath><clipPath id="clip69"><rect x="1" y="1" width="303" height="303"/></clipPath><clipPath id="clip70"><path d="M673 249.5C599.27 249.5 539.5 309.27 539.5 383 539.5 456.73 599.27 516.5 673 516.5 746.73 516.5 806.5 456.73 806.5 383 806.5 309.27 746.73 249.5 673 249.5ZM2.00272e-05 1.14441e-05 1344 1.14441e-05 1344 768 2.00272e-05 768Z" fill-rule="evenodd" clip-rule="evenodd"/></clipPath><clipPath id="clip71"><rect x="1" y="1" width="279" height="279"/></clipPath><clipPath id="clip72"><path d="M672.5 263.5C607.33 263.5 554.5 316.33 554.5 381.5 554.5 446.67 607.33 499.5 672.5 499.5 737.67 499.5 790.5 446.67 790.5 381.5 790.5 316.33 737.67 263.5 672.5 263.5ZM2.00272e-05 1.14441e-05 1344 1.14441e-05 1344 768 2.00272e-05 768Z" fill-rule="evenodd" clip-rule="evenodd"/></clipPath><clipPath id="clip73"><rect x="1" y="1" width="253" height="253"/></clipPath><clipPath id="clip74"><rect x="17" y="15" width="155" height="85"/></clipPath><clipPath id="clip75"><path d="M72.8335 149.5C69.8879 149.5 67.5001 151.888 67.5001 154.834L67.5001 176.167C67.5001 179.112 69.8879 181.5 72.8335 181.5L95.1666 181.5C98.1122 181.5 100.5 179.112 100.5 176.167L100.5 154.834C100.5 151.888 98.1122 149.5 95.1666 149.5ZM2.00272e-05 1.14441e-05 1344 1.14441e-05 1344 768 2.00272e-05 768Z" fill-rule="evenodd" clip-rule="evenodd"/></clipPath><clipPath id="clip76"><rect x="1" y="1" width="45" height="45"/></clipPath><clipPath id="clip77"><rect x="15" y="13" width="17" height="27"/></clipPath><clipPath id="clip78"><path d="M112.5 223.5C110.291 223.5 108.5 225.291 108.5 227.5 108.5 229.709 110.291 231.5 112.5 231.5 114.709 231.5 116.5 229.709 116.5 227.5 116.5 225.291 114.709 223.5 112.5 223.5ZM2.00272e-05 1.14441e-05 1344 1.14441e-05 1344 768 2.00272e-05 768Z" fill-rule="evenodd" clip-rule="evenodd"/></clipPath><clipPath id="clip79"><rect x="1" y="1" width="21" height="21"/></clipPath><clipPath id="clip80"><path d="M112.5 252.5C110.291 252.5 108.5 254.291 108.5 256.5 108.5 258.709 110.291 260.5 112.5 260.5 114.709 260.5 116.5 258.709 116.5 256.5 116.5 254.291 114.709 252.5 112.5 252.5ZM2.00272e-05 1.14441e-05 1344 1.14441e-05 1344 768 2.00272e-05 768Z" fill-rule="evenodd" clip-rule="evenodd"/></clipPath><clipPath id="clip81"><rect x="1" y="1" width="21" height="21"/></clipPath><clipPath id="clip82"><path d="M112.5 281.5C110.291 281.5 108.5 283.067 108.5 285 108.5 286.933 110.291 288.5 112.5 288.5 114.709 288.5 116.5 286.933 116.5 285 116.5 283.067 114.709 281.5 112.5 281.5ZM2.00272e-05 1.14441e-05 1344 1.14441e-05 1344 768 2.00272e-05 768Z" fill-rule="evenodd" clip-rule="evenodd"/></clipPath><clipPath id="clip83"><rect x="1" y="1" width="21" height="19"/></clipPath><clipPath id="clip84"><path d="M112.5 310.5C110.291 310.5 108.5 312.067 108.5 314 108.5 315.933 110.291 317.5 112.5 317.5 114.709 317.5 116.5 315.933 116.5 314 116.5 312.067 114.709 310.5 112.5 310.5ZM2.00272e-05 1.14441e-05 1344 1.14441e-05 1344 768 2.00272e-05 768Z" fill-rule="evenodd" clip-rule="evenodd"/></clipPath><clipPath id="clip85"><rect x="1" y="1" width="21" height="19"/></clipPath><clipPath id="clip86"><path d="M973.833 149.5C970.888 149.5 968.5 151.888 968.5 154.833L968.5 176.167C968.5 179.112 970.888 181.5 973.833 181.5L995.167 181.5C998.112 181.5 1000.5 179.112 1000.5 176.167L1000.5 154.833C1000.5 151.888 998.112 149.5 995.167 149.5ZM2.00272e-05 1.14441e-05 1344 1.14441e-05 1344 768 2.00272e-05 768Z" fill-rule="evenodd" clip-rule="evenodd"/></clipPath><clipPath id="clip87"><rect x="1" y="1" width="45" height="45"/></clipPath><clipPath id="clip88"><rect x="15" y="13" width="21" height="27"/></clipPath><clipPath id="clip89"><path d="M1024.5 223.5C1022.29 223.5 1020.5 225.291 1020.5 227.5 1020.5 229.709 1022.29 231.5 1024.5 231.5 1026.71 231.5 1028.5 229.709 1028.5 227.5 1028.5 225.291 1026.71 223.5 1024.5 223.5ZM2.00272e-05 1.14441e-05 1344 1.14441e-05 1344 768 2.00272e-05 768Z" fill-rule="evenodd" clip-rule="evenodd"/></clipPath><clipPath id="clip90"><rect x="1" y="1" width="21" height="21"/></clipPath><clipPath id="clip91"><path d="M1024.5 252.5C1022.29 252.5 1020.5 254.291 1020.5 256.5 1020.5 258.709 1022.29 260.5 1024.5 260.5 1026.71 260.5 1028.5 258.709 1028.5 256.5 1028.5 254.291 1026.71 252.5 1024.5 252.5ZM2.00272e-05 1.14441e-05 1344 1.14441e-05 1344 768 2.00272e-05 768Z" fill-rule="evenodd" clip-rule="evenodd"/></clipPath><clipPath id="clip92"><rect x="1" y="1" width="21" height="21"/></clipPath><clipPath id="clip93"><path d="M1024.5 281.5C1022.29 281.5 1020.5 283.067 1020.5 285 1020.5 286.933 1022.29 288.5 1024.5 288.5 1026.71 288.5 1028.5 286.933 1028.5 285 1028.5 283.067 1026.71 281.5 1024.5 281.5ZM2.00272e-05 1.14441e-05 1344 1.14441e-05 1344 768 2.00272e-05 768Z" fill-rule="evenodd" clip-rule="evenodd"/></clipPath><clipPath id="clip94"><rect x="1" y="1" width="21" height="19"/></clipPath><clipPath id="clip95"><path d="M1024.5 310.5C1022.29 310.5 1020.5 312.067 1020.5 314 1020.5 315.933 1022.29 317.5 1024.5 317.5 1026.71 317.5 1028.5 315.933 1028.5 314 1028.5 312.067 1026.71 310.5 1024.5 310.5ZM2.00272e-05 1.14441e-05 1344 1.14441e-05 1344 768 2.00272e-05 768Z" fill-rule="evenodd" clip-rule="evenodd"/></clipPath><clipPath id="clip96"><rect x="1" y="1" width="21" height="19"/></clipPath><clipPath id="clip97"><path d="M1024.5 338.5C1022.29 338.5 1020.5 340.291 1020.5 342.5 1020.5 344.709 1022.29 346.5 1024.5 346.5 1026.71 346.5 1028.5 344.709 1028.5 342.5 1028.5 340.291 1026.71 338.5 1024.5 338.5ZM2.00272e-05 1.14441e-05 1344 1.14441e-05 1344 768 2.00272e-05 768Z" fill-rule="evenodd" clip-rule="evenodd"/></clipPath><clipPath id="clip98"><rect x="1" y="1" width="21" height="21"/></clipPath><clipPath id="clip99"><path d="M1002 454.5C998.963 454.5 996.5 456.963 996.5 460L996.5 482C996.5 485.038 998.963 487.5 1002 487.5L1024 487.5C1027.04 487.5 1029.5 485.038 1029.5 482L1029.5 460C1029.5 456.963 1027.04 454.5 1024 454.5ZM2.00272e-05 1.14441e-05 1344 1.14441e-05 1344 768 2.00272e-05 768Z" fill-rule="evenodd" clip-rule="evenodd"/></clipPath><clipPath id="clip100"><rect x="1" y="1" width="45" height="45"/></clipPath><clipPath id="clip101"><rect x="15" y="13" width="21" height="27"/></clipPath><clipPath id="clip102"><path d="M1047 554.5C1045.07 554.5 1043.5 556.291 1043.5 558.5 1043.5 560.709 1045.07 562.5 1047 562.5 1048.93 562.5 1050.5 560.709 1050.5 558.5 1050.5 556.291 1048.93 554.5 1047 554.5ZM2.00272e-05 1.14441e-05 1344 1.14441e-05 1344 768 2.00272e-05 768Z" fill-rule="evenodd" clip-rule="evenodd"/></clipPath><clipPath id="clip103"><rect x="1" y="1" width="19" height="21"/></clipPath><clipPath id="clip104"><path d="M1047 583.5C1045.07 583.5 1043.5 585.291 1043.5 587.5 1043.5 589.709 1045.07 591.5 1047 591.5 1048.93 591.5 1050.5 589.709 1050.5 587.5 1050.5 585.291 1048.93 583.5 1047 583.5ZM2.00272e-05 1.14441e-05 1344 1.14441e-05 1344 768 2.00272e-05 768Z" fill-rule="evenodd" clip-rule="evenodd"/></clipPath><clipPath id="clip105"><rect x="1" y="1" width="19" height="21"/></clipPath><clipPath id="clip106"><path d="M1047 612.5C1045.07 612.5 1043.5 614.291 1043.5 616.5 1043.5 618.709 1045.07 620.5 1047 620.5 1048.93 620.5 1050.5 618.709 1050.5 616.5 1050.5 614.291 1048.93 612.5 1047 612.5ZM2.00272e-05 1.14441e-05 1344 1.14441e-05 1344 768 2.00272e-05 768Z" fill-rule="evenodd" clip-rule="evenodd"/></clipPath><clipPath id="clip107"><rect x="1" y="1" width="19" height="21"/></clipPath><clipPath id="clip108"><path d="M1047 641.5C1045.07 641.5 1043.5 643.067 1043.5 645 1043.5 646.933 1045.07 648.5 1047 648.5 1048.93 648.5 1050.5 646.933 1050.5 645 1050.5 643.067 1048.93 641.5 1047 641.5ZM2.00272e-05 1.14441e-05 1344 1.14441e-05 1344 768 2.00272e-05 768Z" fill-rule="evenodd" clip-rule="evenodd"/></clipPath><clipPath id="clip109"><rect x="1" y="1" width="19" height="19"/></clipPath><clipPath id="clip110"><path d="M1047 670.5C1045.07 670.5 1043.5 672.067 1043.5 674 1043.5 675.933 1045.07 677.5 1047 677.5 1048.93 677.5 1050.5 675.933 1050.5 674 1050.5 672.067 1048.93 670.5 1047 670.5ZM2.00272e-05 1.14441e-05 1344 1.14441e-05 1344 768 2.00272e-05 768Z" fill-rule="evenodd" clip-rule="evenodd"/></clipPath><clipPath id="clip111"><rect x="1" y="1" width="19" height="19"/></clipPath><clipPath id="clip112"><path d="M73.0002 455.5C69.9625 455.5 67.5001 457.963 67.5001 461L67.5001 483C67.5001 486.038 69.9625 488.5 73.0002 488.5L95 488.5C98.0376 488.5 100.5 486.038 100.5 483L100.5 461C100.5 457.963 98.0376 455.5 95 455.5ZM2.00272e-05 1.14441e-05 1344 1.14441e-05 1344 768 2.00272e-05 768Z" fill-rule="evenodd" clip-rule="evenodd"/></clipPath><clipPath id="clip113"><rect x="1" y="1" width="45" height="45"/></clipPath><clipPath id="clip114"><rect x="13" y="13" width="23" height="27"/></clipPath><clipPath id="clip115"><path d="M112.5 528.5C110.291 528.5 108.5 530.291 108.5 532.5 108.5 534.709 110.291 536.5 112.5 536.5 114.709 536.5 116.5 534.709 116.5 532.5 116.5 530.291 114.709 528.5 112.5 528.5ZM2.00272e-05 1.14441e-05 1344 1.14441e-05 1344 768 2.00272e-05 768Z" fill-rule="evenodd" clip-rule="evenodd"/></clipPath><clipPath id="clip116"><rect x="1" y="1" width="21" height="21"/></clipPath><clipPath id="clip117"><path d="M112.5 557.5C110.291 557.5 108.5 559.291 108.5 561.5 108.5 563.709 110.291 565.5 112.5 565.5 114.709 565.5 116.5 563.709 116.5 561.5 116.5 559.291 114.709 557.5 112.5 557.5ZM2.00272e-05 1.14441e-05 1344 1.14441e-05 1344 768 2.00272e-05 768Z" fill-rule="evenodd" clip-rule="evenodd"/></clipPath><clipPath id="clip118"><rect x="1" y="1" width="21" height="21"/></clipPath><clipPath id="clip119"><path d="M112.5 586.5C110.291 586.5 108.5 588.291 108.5 590.5 108.5 592.709 110.291 594.5 112.5 594.5 114.709 594.5 116.5 592.709 116.5 590.5 116.5 588.291 114.709 586.5 112.5 586.5ZM2.00272e-05 1.14441e-05 1344 1.14441e-05 1344 768 2.00272e-05 768Z" fill-rule="evenodd" clip-rule="evenodd"/></clipPath><clipPath id="clip120"><rect x="1" y="1" width="21" height="21"/></clipPath><clipPath id="clip121"><path d="M112.5 615.5C110.291 615.5 108.5 617.291 108.5 619.5 108.5 621.709 110.291 623.5 112.5 623.5 114.709 623.5 116.5 621.709 116.5 619.5 116.5 617.291 114.709 615.5 112.5 615.5ZM2.00272e-05 1.14441e-05 1344 1.14441e-05 1344 768 2.00272e-05 768Z" fill-rule="evenodd" clip-rule="evenodd"/></clipPath><clipPath id="clip122"><rect x="1" y="1" width="21" height="21"/></clipPath><clipPath id="clip123"><path d="M112.5 644.5C110.291 644.5 108.5 646.067 108.5 648 108.5 649.933 110.291 651.5 112.5 651.5 114.709 651.5 116.5 649.933 116.5 648 116.5 646.067 114.709 644.5 112.5 644.5ZM2.00272e-05 1.14441e-05 1344 1.14441e-05 1344 768 2.00272e-05 768Z" fill-rule="evenodd" clip-rule="evenodd"/></clipPath><clipPath id="clip124"><rect x="1" y="1" width="21" height="19"/></clipPath><clipPath id="clip125"><path d="M112.5 672.5C110.291 672.5 108.5 674.291 108.5 676.5 108.5 678.709 110.291 680.5 112.5 680.5 114.709 680.5 116.5 678.709 116.5 676.5 116.5 674.291 114.709 672.5 112.5 672.5ZM2.00272e-05 1.14441e-05 1344 1.14441e-05 1344 768 2.00272e-05 768Z" fill-rule="evenodd" clip-rule="evenodd"/></clipPath><clipPath id="clip126"><rect x="1" y="1" width="21" height="21"/></clipPath></defs><g><rect x="0" y="0" width="1344" height="768" fill="#F5F7FA"/><g clip-path="url(#clip44)"><g clip-path="url(#clip45)" filter="url(#fx0)" transform="translate(392 23)"><g><rect x="6.50006" y="6.91475" width="1" height="689" stroke="#D1D7DF" stroke-linejoin="round" stroke-miterlimit="10" fill="#D1D7DF"/></g></g></g><rect x="398.5" y="27.5001" width="1" height="689" stroke="#D1D7DF" stroke-linejoin="round" stroke-miterlimit="10" fill="#D1D7DF"/><g clip-path="url(#clip46)"><g clip-path="url(#clip47)" filter="url(#fx1)" transform="translate(666 23)"><g><rect x="6.50006" y="6.91475" width="1" height="689" stroke="#D1D7DF" stroke-linejoin="round" stroke-miterlimit="10" fill="#D1D7DF"/></g></g></g><rect x="672.5" y="27.5001" width="1" height="689" stroke="#D1D7DF" stroke-linejoin="round" stroke-miterlimit="10" fill="#D1D7DF"/><g clip-path="url(#clip48)"><g clip-path="url(#clip49)" filter="url(#fx2)" transform="translate(949 23)"><g><rect x="6.50006" y="6.91475" width="1" height="689" stroke="#D1D7DF" stroke-linejoin="round" stroke-miterlimit="10" fill="#D1D7DF"/></g></g></g><rect x="955.5" y="27.5001" width="1" height="689" stroke="#D1D7DF" stroke-linejoin="round" stroke-miterlimit="10" fill="#D1D7DF"/><g clip-path="url(#clip50)"><g clip-path="url(#clip51)" filter="url(#fx3)" transform="translate(40 97)"><g><rect x="6.50005" y="6.91475" width="1253" height="1" stroke="#D1D7DF" stroke-linejoin="round" stroke-miterlimit="10" fill="#D1D7DF"/></g></g></g><rect x="46.5001" y="101.5" width="1253" height="1" stroke="#D1D7DF" stroke-linejoin="round" stroke-miterlimit="10" fill="#D1D7DF"/><g clip-path="url(#clip52)"><g clip-path="url(#clip53)" filter="url(#fx4)" transform="translate(40 380)"><g><rect x="6.50005" y="6.91476" width="1253" height="1" stroke="#D1D7DF" stroke-linejoin="round" stroke-miterlimit="10" fill="#D1D7DF"/></g></g></g><rect x="46.5001" y="384.5" width="1253" height="1" stroke="#D1D7DF" stroke-linejoin="round" stroke-miterlimit="10" fill="#D1D7DF"/><g clip-path="url(#clip54)"><g clip-path="url(#clip55)" filter="url(#fx5)" transform="translate(377 91)"><g><path d="M295.5 7.91475 295.5 7.91475 295.5 7.91475 295.5 7.91475 199.5 7.91475 199.5 7.91475 199.5 7.91475 199.5 7.91475 199.5 7.91475 199.5 7.91475 199.5 7.91475 199.5 7.91475 199.5 7.91475 103.5 7.91475 103.5 103.915 103.5 103.915 103.5 103.915 103.5 103.915 103.5 103.915 103.5 103.915 103.5 103.915 103.5 103.915 103.5 103.915 103.5 103.915 103.5 103.915 103.5 103.915 7.50006 103.915 7.50006 199.915 7.50006 199.915 7.50006 199.915 7.50006 199.915 7.50006 199.915 7.50006 199.915 7.50006 199.915 7.50006 199.915 7.50006 199.915 7.50006 199.915 7.50006 295.915 7.50006 295.915 7.50006 295.915 7.50006 295.915 7.50006 295.915 7.50006 295.915 7.50006 295.915 7.50006 295.915 199.5 295.915 199.5 295.915 199.5 295.915 199.5 295.915 199.5 295.915 199.5 295.915 199.5 295.915 199.5 295.915 199.5 295.915 199.5 295.915 199.5 295.915 199.5 295.915 199.5 295.915 199.5 199.915 199.5 199.915 199.5 199.915 199.5 199.915 199.5 199.915 199.5 199.915 199.5 199.915 199.5 199.915 199.5 199.915 199.5 199.915 199.5 199.915 199.5 199.915 199.5 199.915 199.5 199.915 199.5 199.915 199.5 199.915 199.5 199.915 199.5 199.915 199.5 199.915 199.5 199.915 199.5 199.915 199.5 199.915 199.5 199.915 295.5 199.915 295.5 199.915 295.5 199.915 295.5 199.915 295.5 199.915 295.5 199.915 295.5 199.915 295.5 199.915 295.5 199.915Z" stroke="#D7DDE5" stroke-width="3" stroke-linejoin="round" stroke-miterlimit="10" fill="#D7DDE5" fill-rule="evenodd"/></g></g></g><path d="M672.5 96.5001 672.5 96.5001 672.5 96.5001 672.5 96.5001 576.5 96.5001 576.5 96.5001 576.5 96.5001 576.5 96.5001 576.5 96.5001 576.5 96.5001 576.5 96.5001 576.5 96.5001 576.5 96.5001 480.5 96.5001 480.5 192.5 480.5 192.5 480.5 192.5 480.5 192.5 480.5 192.5 480.5 192.5 480.5 192.5 480.5 192.5 480.5 192.5 480.5 192.5 480.5 192.5 480.5 192.5 384.5 192.5 384.5 288.5 384.5 288.5 384.5 288.5 384.5 288.5 384.5 288.5 384.5 288.5 384.5 288.5 384.5 288.5 384.5 288.5 384.5 288.5 384.5 384.5 384.5 384.5 384.5 384.5 384.5 384.5 384.5 384.5 384.5 384.5 384.5 384.5 384.5 384.5 576.5 384.5 576.5 384.5 576.5 384.5 576.5 384.5 576.5 384.5 576.5 384.5 576.5 384.5 576.5 384.5 576.5 384.5 576.5 384.5 576.5 384.5 576.5 384.5 576.5 384.5 576.5 288.5 576.5 288.5 576.5 288.5 576.5 288.5 576.5 288.5 576.5 288.5 576.5 288.5 576.5 288.5 576.5 288.5 576.5 288.5 576.5 288.5 576.5 288.5 576.5 288.5 576.5 288.5 576.5 288.5 576.5 288.5 576.5 288.5 576.5 288.5 576.5 288.5 576.5 288.5 576.5 288.5 576.5 288.5 576.5 288.5 672.5 288.5 672.5 288.5 672.5 288.5 672.5 288.5 672.5 288.5 672.5 288.5 672.5 288.5 672.5 288.5 672.5 288.5Z" stroke="#D7DDE5" stroke-width="3.06656" stroke-linejoin="round" stroke-miterlimit="10" fill="#D7DDE5" fill-rule="evenodd"/><g clip-path="url(#clip56)"><g clip-path="url(#clip57)" filter="url(#fx6)" transform="translate(665 91)"><g><path d="M295.5 295.915 295.5 295.915 295.5 295.915 295.5 295.915 295.5 199.915 295.5 199.915 295.5 199.915 295.5 199.915 295.5 199.915 295.5 199.915 295.5 199.915 295.5 199.915 295.5 199.915 295.5 199.915 295.5 103.915 295.5 103.915 199.5 103.915 199.5 103.915 199.5 103.915 199.5 103.915 199.5 103.915 199.5 103.915 199.5 103.915 199.5 103.915 199.5 103.915 199.5 103.915 199.5 103.915 199.5 7.91475 199.5 7.91475 103.5 7.91475 103.5 7.91475 103.5 7.91475 103.5 7.91475 103.5 7.91475 103.5 7.91475 103.5 7.91475 103.5 7.91475 103.5 7.91475 7.50006 7.91475 7.50006 7.91475 7.50006 7.91475 7.50006 7.91475 7.50006 7.91475 7.50006 7.91475 7.50006 7.91475 7.50006 199.915 7.50006 199.915 7.50006 199.915 7.50006 199.915 7.50006 199.915 7.50006 199.915 7.50006 199.915 7.50006 199.915 7.50006 199.915 7.50006 199.915 7.50006 199.915 103.5 199.915 103.5 199.915 103.5 199.915 103.5 199.915 103.5 199.915 103.5 199.915 103.5 199.915 103.5 199.915 103.5 199.915 103.5 199.915 103.5 199.915 103.5 199.915 103.5 199.915 103.5 199.915 103.5 199.915 103.5 199.915 103.5 199.915 103.5 199.915 103.5 199.915 103.5 199.915 103.5 199.915 103.5 199.915 103.5 199.915 103.5 199.915 103.5 199.915 199.5 295.915 199.5 295.915 199.5 295.915 199.5 295.915 199.5 295.915 199.5 295.915 199.5 295.915 199.5 295.915 199.5 295.915Z" stroke="#D7DDE5" stroke-width="3" stroke-linejoin="round" stroke-miterlimit="10" fill="#D7DDE5" fill-rule="evenodd"/></g></g></g><path d="M960.5 384.5 960.5 384.5 960.5 384.5 960.5 384.5 960.5 288.5 960.5 288.5 960.5 288.5 960.5 288.5 960.5 288.5 960.5 288.5 960.5 288.5 960.5 288.5 960.5 288.5 960.5 288.5 960.5 192.5 960.5 192.5 864.5 192.5 864.5 192.5 864.5 192.5 864.5 192.5 864.5 192.5 864.5 192.5 864.5 192.5 864.5 192.5 864.5 192.5 864.5 192.5 864.5 192.5 864.5 96.5001 864.5 96.5001 768.5 96.5001 768.5 96.5001 768.5 96.5001 768.5 96.5001 768.5 96.5001 768.5 96.5001 768.5 96.5001 768.5 96.5001 768.5 96.5001 672.5 96.5001 672.5 96.5001 672.5 96.5001 672.5 96.5001 672.5 96.5001 672.5 96.5001 672.5 96.5001 672.5 288.5 672.5 288.5 672.5 288.5 672.5 288.5 672.5 288.5 672.5 288.5 672.5 288.5 672.5 288.5 672.5 288.5 672.5 288.5 672.5 288.5 768.5 288.5 768.5 288.5 768.5 288.5 768.5 288.5 768.5 288.5 768.5 288.5 768.5 288.5 768.5 288.5 768.5 288.5 768.5 288.5 768.5 288.5 768.5 288.5 768.5 288.5 768.5 288.5 768.5 288.5 768.5 288.5 768.5 288.5 768.5 288.5 768.5 288.5 768.5 288.5 768.5 288.5 768.5 288.5 768.5 288.5 768.5 288.5 768.5 288.5 864.5 384.5 864.5 384.5 864.5 384.5 864.5 384.5 864.5 384.5 864.5 384.5 864.5 384.5 864.5 384.5 864.5 384.5Z" stroke="#D7DDE5" stroke-width="3.06656" stroke-linejoin="round" stroke-miterlimit="10" fill="#D7DDE5" fill-rule="evenodd"/><g clip-path="url(#clip58)"><g clip-path="url(#clip59)" filter="url(#fx7)" transform="translate(665 379)"><g><path d="M7.50006 295.915 7.50006 295.915 7.50006 295.915 103.5 295.915 103.5 295.915 103.5 295.915 103.5 295.915 103.5 295.915 103.5 295.915 103.5 295.915 103.5 295.915 103.5 295.915 199.5 295.915 199.5 295.915 199.5 295.915 199.5 295.915 199.5 295.915 199.5 199.915 199.5 199.915 199.5 199.915 199.5 199.915 199.5 199.915 199.5 199.915 199.5 199.915 199.5 199.915 295.5 199.915 295.5 199.915 295.5 199.915 295.5 199.915 295.5 103.915 295.5 103.915 295.5 103.915 295.5 103.915 295.5 103.915 295.5 103.915 295.5 103.915 295.5 103.915 295.5 103.915 295.5 103.915 295.5 7.91476 295.5 7.91476 295.5 7.91476 295.5 7.91476 295.5 7.91476 295.5 7.91476 199.5 7.91476 199.5 7.91476 199.5 7.91476 199.5 7.91476 199.5 7.91476 199.5 7.91476 199.5 7.91476 199.5 7.91476 199.5 7.91476 199.5 7.91476 199.5 103.915 199.5 103.915 199.5 103.915 103.5 103.915 103.5 103.915 103.5 103.915 103.5 103.915 103.5 103.915 103.5 103.915 103.5 103.915 103.5 103.915 103.5 103.915 103.5 103.915 103.5 103.915 103.5 103.915 103.5 103.915 103.5 103.915 103.5 103.915 103.5 103.915 103.5 103.915 103.5 103.915 103.5 103.915 103.5 103.915 103.5 103.915 103.5 103.915 103.5 199.915 103.5 199.915 103.5 199.915 7.50006 199.915 7.50006 199.915 7.50006 199.915 7.50006 199.915 7.50006 199.915 7.50006 199.915 7.50006 199.915Z" stroke="#D7DDE5" stroke-width="3" stroke-linejoin="round" stroke-miterlimit="10" fill="#D7DDE5" fill-rule="evenodd"/></g></g></g><path d="M672.5 672.5 672.5 672.5 672.5 672.5 768.5 672.5 768.5 672.5 768.5 672.5 768.5 672.5 768.5 672.5 768.5 672.5 768.5 672.5 768.5 672.5 768.5 672.5 864.5 672.5 864.5 672.5 864.5 672.5 864.5 672.5 864.5 672.5 864.5 576.5 864.5 576.5 864.5 576.5 864.5 576.5 864.5 576.5 864.5 576.5 864.5 576.5 864.5 576.5 960.5 576.5 960.5 576.5 960.5 576.5 960.5 576.5 960.5 480.5 960.5 480.5 960.5 480.5 960.5 480.5 960.5 480.5 960.5 480.5 960.5 480.5 960.5 480.5 960.5 480.5 960.5 480.5 960.5 384.5 960.5 384.5 960.5 384.5 960.5 384.5 960.5 384.5 960.5 384.5 864.5 384.5 864.5 384.5 864.5 384.5 864.5 384.5 864.5 384.5 864.5 384.5 864.5 384.5 864.5 384.5 864.5 384.5 864.5 384.5 864.5 480.5 864.5 480.5 864.5 480.5 768.5 480.5 768.5 480.5 768.5 480.5 768.5 480.5 768.5 480.5 768.5 480.5 768.5 480.5 768.5 480.5 768.5 480.5 768.5 480.5 768.5 480.5 768.5 480.5 768.5 480.5 768.5 480.5 768.5 480.5 768.5 480.5 768.5 480.5 768.5 480.5 768.5 480.5 768.5 480.5 768.5 480.5 768.5 480.5 768.5 576.5 768.5 576.5 768.5 576.5 672.5 576.5 672.5 576.5 672.5 576.5 672.5 576.5 672.5 576.5 672.5 576.5 672.5 576.5Z" stroke="#D7DDE5" stroke-width="3.06656" stroke-linejoin="round" stroke-miterlimit="10" fill="#D7DDE5" fill-rule="evenodd"/><g clip-path="url(#clip60)"><g clip-path="url(#clip61)" filter="url(#fx8)" transform="translate(377 379)"><g><path d="M7.50006 7.91476 7.50006 7.91476 7.50006 7.91476 7.50006 103.915 7.50006 103.915 7.50006 103.915 7.50006 103.915 7.50006 103.915 7.50006 103.915 7.50006 103.915 7.50006 103.915 7.50006 103.915 7.50006 199.915 7.50006 199.915 7.50006 199.915 103.5 199.915 103.5 199.915 103.5 199.915 103.5 199.915 103.5 199.915 103.5 199.915 103.5 199.915 103.5 199.915 103.5 199.915 103.5 295.915 103.5 295.915 103.5 295.915 103.5 295.915 199.5 295.915 199.5 295.915 199.5 295.915 199.5 295.915 199.5 295.915 199.5 295.915 199.5 295.915 199.5 295.915 199.5 295.915 295.5 295.915 295.5 295.915 295.5 295.915 295.5 295.915 295.5 295.915 295.5 295.915 295.5 295.915 295.5 295.915 295.5 199.915 295.5 199.915 295.5 199.915 295.5 199.915 295.5 199.915 295.5 199.915 295.5 199.915 295.5 199.915 295.5 199.915 295.5 199.915 295.5 199.915 295.5 199.915 295.5 199.915 199.5 199.915 199.5 103.915 199.5 103.915 199.5 103.915 199.5 103.915 199.5 103.915 199.5 103.915 199.5 103.915 199.5 103.915 199.5 103.915 199.5 103.915 199.5 103.915 199.5 103.915 199.5 103.915 199.5 103.915 199.5 103.915 199.5 103.915 199.5 103.915 199.5 103.915 199.5 103.915 199.5 103.915 199.5 103.915 199.5 103.915 199.5 103.915 199.5 103.915 199.5 103.915 199.5 7.91476 199.5 7.91476 199.5 7.91476 199.5 7.91476 199.5 7.91476 199.5 7.91476Z" stroke="#D7DDE5" stroke-width="3" stroke-linejoin="round" stroke-miterlimit="10" fill="#D7DDE5" fill-rule="evenodd"/></g></g></g><path d="M384.5 384.5 384.5 384.5 384.5 384.5 384.5 480.5 384.5 480.5 384.5 480.5 384.5 480.5 384.5 480.5 384.5 480.5 384.5 480.5 384.5 480.5 384.5 480.5 384.5 576.5 384.5 576.5 384.5 576.5 480.5 576.5 480.5 576.5 480.5 576.5 480.5 576.5 480.5 576.5 480.5 576.5 480.5 576.5 480.5 576.5 480.5 576.5 480.5 672.5 480.5 672.5 480.5 672.5 480.5 672.5 576.5 672.5 576.5 672.5 576.5 672.5 576.5 672.5 576.5 672.5 576.5 672.5 576.5 672.5 576.5 672.5 576.5 672.5 672.5 672.5 672.5 672.5 672.5 672.5 672.5 672.5 672.5 672.5 672.5 672.5 672.5 672.5 672.5 672.5 672.5 576.5 672.5 576.5 672.5 576.5 672.5 576.5 672.5 576.5 672.5 576.5 672.5 576.5 672.5 576.5 672.5 576.5 672.5 576.5 672.5 576.5 672.5 576.5 672.5 576.5 576.5 576.5 576.5 480.5 576.5 480.5 576.5 480.5 576.5 480.5 576.5 480.5 576.5 480.5 576.5 480.5 576.5 480.5 576.5 480.5 576.5 480.5 576.5 480.5 576.5 480.5 576.5 480.5 576.5 480.5 576.5 480.5 576.5 480.5 576.5 480.5 576.5 480.5 576.5 480.5 576.5 480.5 576.5 480.5 576.5 480.5 576.5 480.5 576.5 480.5 576.5 480.5 576.5 384.5 576.5 384.5 576.5 384.5 576.5 384.5 576.5 384.5 576.5 384.5Z" stroke="#D7DDE5" stroke-width="3.06656" stroke-linejoin="round" stroke-miterlimit="10" fill="#D7DDE5" fill-rule="evenodd"/><g clip-path="url(#clip62)"><g clip-path="url(#clip63)" filter="url(#fx9)" transform="translate(377 91)"><g><path d="M295.5 7.91475 295.5 7.91475 295.5 7.91475 199.5 7.91475 199.5 7.91475 199.5 7.91475 199.5 7.91475 199.5 7.91475 199.5 7.91475 199.5 7.91475 199.5 7.91475 199.5 7.91475 199.5 7.91475 103.5 7.91475 103.5 7.91475 103.5 7.91475 103.5 103.915 103.5 103.915 103.5 103.915 103.5 103.915 103.5 103.915 103.5 103.915 103.5 103.915 103.5 103.915 103.5 103.915 7.50006 103.915 7.50006 103.915 7.50006 103.915 7.50006 199.915 7.50006 199.915 7.50006 199.915 7.50006 199.915 7.50006 199.915 7.50006 199.915 7.50006 199.915 7.50006 199.915 7.50006 199.915 7.50006 199.915 7.50006 295.915 7.50006 295.915 7.50006 295.915 7.50006 295.915 7.50006 295.915 7.50006 295.915 7.50006 295.915 103.5 295.915 103.5 295.915 103.5 295.915 103.5 295.915 103.5 295.915 103.5 295.915 103.5 295.915 103.5 295.915 103.5 295.915 103.5 295.915 199.5 295.915 199.5 295.915 199.5 199.915 199.5 199.915 199.5 199.915 199.5 199.915 199.5 199.915 199.5 199.915 199.5 199.915 199.5 199.915 199.5 199.915 199.5 199.915 199.5 199.915 199.5 199.915 199.5 199.915 199.5 199.915 199.5 199.915 199.5 199.915 199.5 199.915 199.5 199.915 199.5 199.915 199.5 199.915 199.5 199.915 199.5 199.915 199.5 199.915 199.5 199.915 199.5 199.915 295.5 199.915 295.5 199.915 295.5 103.915 295.5 103.915 295.5 103.915 295.5 103.915 295.5 103.915 295.5 103.915Z" stroke="#FFFFFF" stroke-width="3" stroke-linejoin="round" stroke-miterlimit="10" fill="#2F86DE" fill-rule="evenodd"/></g></g></g><path d="M672.5 96.5001 672.5 96.5001 672.5 96.5001 576.5 96.5001 576.5 96.5001 576.5 96.5001 576.5 96.5001 576.5 96.5001 576.5 96.5001 576.5 96.5001 576.5 96.5001 576.5 96.5001 576.5 96.5001 480.5 96.5001 480.5 96.5001 480.5 96.5001 480.5 192.5 480.5 192.5 480.5 192.5 480.5 192.5 480.5 192.5 480.5 192.5 480.5 192.5 480.5 192.5 480.5 192.5 384.5 192.5 384.5 192.5 384.5 192.5 384.5 288.5 384.5 288.5 384.5 288.5 384.5 288.5 384.5 288.5 384.5 288.5 384.5 288.5 384.5 288.5 384.5 288.5 384.5 288.5 384.5 384.5 384.5 384.5 384.5 384.5 384.5 384.5 384.5 384.5 384.5 384.5 384.5 384.5 480.5 384.5 480.5 384.5 480.5 384.5 480.5 384.5 480.5 384.5 480.5 384.5 480.5 384.5 480.5 384.5 480.5 384.5 480.5 384.5 576.5 384.5 576.5 384.5 576.5 288.5 576.5 288.5 576.5 288.5 576.5 288.5 576.5 288.5 576.5 288.5 576.5 288.5 576.5 288.5 576.5 288.5 576.5 288.5 576.5 288.5 576.5 288.5 576.5 288.5 576.5 288.5 576.5 288.5 576.5 288.5 576.5 288.5 576.5 288.5 576.5 288.5 576.5 288.5 576.5 288.5 576.5 288.5 576.5 288.5 576.5 288.5 576.5 288.5 672.5 288.5 672.5 288.5 672.5 192.5 672.5 192.5 672.5 192.5 672.5 192.5 672.5 192.5 672.5 192.5Z" stroke="#FFFFFF" stroke-width="3.06656" stroke-linejoin="round" stroke-miterlimit="10" fill="#2F86DE" fill-rule="evenodd"/><g clip-path="url(#clip64)"><g clip-path="url(#clip65)" filter="url(#fx10)" transform="translate(665 91)"><g><path d="M295.5 295.915 295.5 295.915 295.5 295.915 295.5 199.915 295.5 199.915 295.5 199.915 295.5 199.915 295.5 199.915 295.5 199.915 295.5 199.915 295.5 199.915 295.5 199.915 295.5 199.915 295.5 103.915 295.5 103.915 295.5 103.915 199.5 103.915 199.5 103.915 199.5 103.915 199.5 103.915 199.5 103.915 199.5 103.915 199.5 103.915 199.5 103.915 199.5 103.915 199.5 7.91475 199.5 7.91475 199.5 7.91475 103.5 7.91475 103.5 7.91475 103.5 7.91475 103.5 7.91475 103.5 7.91475 103.5 7.91475 103.5 7.91475 103.5 7.91475 103.5 7.91475 103.5 7.91475 7.50006 7.91475 7.50006 7.91475 7.50006 7.91475 7.50006 7.91475 7.50006 7.91475 7.50006 7.91475 7.50006 7.91475 7.50006 103.915 7.50006 103.915 7.50006 103.915 7.50006 103.915 7.50006 103.915 7.50006 103.915 7.50006 103.915 7.50006 103.915 7.50006 103.915 7.50006 103.915 7.50006 199.915 7.50006 199.915 103.5 199.915 103.5 199.915 103.5 199.915 103.5 199.915 103.5 199.915 103.5 199.915 103.5 199.915 103.5 199.915 103.5 199.915 103.5 199.915 103.5 199.915 103.5 199.915 103.5 199.915 103.5 199.915 103.5 199.915 103.5 199.915 103.5 199.915 103.5 199.915 103.5 199.915 103.5 199.915 103.5 199.915 103.5 199.915 103.5 199.915 103.5 199.915 103.5 199.915 103.5 295.915 103.5 295.915 199.5 295.915 199.5 295.915 199.5 295.915 199.5 295.915 199.5 295.915 199.5 295.915Z" stroke="#FFFFFF" stroke-width="3" stroke-linejoin="round" stroke-miterlimit="10" fill="#9B4DD8" fill-rule="evenodd"/></g></g></g><path d="M960.5 384.5 960.5 384.5 960.5 384.5 960.5 288.5 960.5 288.5 960.5 288.5 960.5 288.5 960.5 288.5 960.5 288.5 960.5 288.5 960.5 288.5 960.5 288.5 960.5 288.5 960.5 192.5 960.5 192.5 960.5 192.5 864.5 192.5 864.5 192.5 864.5 192.5 864.5 192.5 864.5 192.5 864.5 192.5 864.5 192.5 864.5 192.5 864.5 192.5 864.5 96.5001 864.5 96.5001 864.5 96.5001 768.5 96.5001 768.5 96.5001 768.5 96.5001 768.5 96.5001 768.5 96.5001 768.5 96.5001 768.5 96.5001 768.5 96.5001 768.5 96.5001 768.5 96.5001 672.5 96.5001 672.5 96.5001 672.5 96.5001 672.5 96.5001 672.5 96.5001 672.5 96.5001 672.5 96.5001 672.5 192.5 672.5 192.5 672.5 192.5 672.5 192.5 672.5 192.5 672.5 192.5 672.5 192.5 672.5 192.5 672.5 192.5 672.5 192.5 672.5 288.5 672.5 288.5 768.5 288.5 768.5 288.5 768.5 288.5 768.5 288.5 768.5 288.5 768.5 288.5 768.5 288.5 768.5 288.5 768.5 288.5 768.5 288.5 768.5 288.5 768.5 288.5 768.5 288.5 768.5 288.5 768.5 288.5 768.5 288.5 768.5 288.5 768.5 288.5 768.5 288.5 768.5 288.5 768.5 288.5 768.5 288.5 768.5 288.5 768.5 288.5 768.5 288.5 768.5 384.5 768.5 384.5 864.5 384.5 864.5 384.5 864.5 384.5 864.5 384.5 864.5 384.5 864.5 384.5Z" stroke="#FFFFFF" stroke-width="3.06656" stroke-linejoin="round" stroke-miterlimit="10" fill="#9B4DD8" fill-rule="evenodd"/><g clip-path="url(#clip66)"><g clip-path="url(#clip67)" filter="url(#fx11)" transform="translate(665 379)"><g><path d="M7.50006 295.915 7.50006 295.915 7.50006 295.915 103.5 295.915 103.5 295.915 103.5 295.915 103.5 295.915 103.5 295.915 103.5 295.915 103.5 295.915 103.5 295.915 103.5 295.915 103.5 295.915 199.5 295.915 199.5 295.915 199.5 295.915 199.5 199.915 199.5 199.915 199.5 199.915 199.5 199.915 199.5 199.915 199.5 199.915 199.5 199.915 199.5 199.915 199.5 199.915 295.5 199.915 295.5 199.915 295.5 199.915 295.5 103.915 295.5 103.915 295.5 103.915 295.5 103.915 295.5 103.915 295.5 103.915 295.5 103.915 295.5 103.915 295.5 103.915 295.5 103.915 295.5 7.91476 295.5 7.91476 295.5 7.91476 295.5 7.91476 295.5 7.91476 295.5 7.91476 295.5 7.91476 199.5 7.91476 199.5 7.91476 199.5 7.91476 199.5 7.91476 199.5 7.91476 199.5 7.91476 199.5 7.91476 199.5 7.91476 199.5 7.91476 199.5 7.91476 103.5 7.91476 103.5 7.91476 103.5 103.915 103.5 103.915 103.5 103.915 103.5 103.915 103.5 103.915 103.5 103.915 103.5 103.915 103.5 103.915 103.5 103.915 103.5 103.915 103.5 103.915 103.5 103.915 103.5 103.915 103.5 103.915 103.5 103.915 103.5 103.915 103.5 103.915 103.5 103.915 103.5 103.915 103.5 103.915 103.5 103.915 103.5 103.915 103.5 103.915 103.5 103.915 103.5 103.915 7.50006 103.915 7.50006 103.915 7.50006 199.915 7.50006 199.915 7.50006 199.915 7.50006 199.915 7.50006 199.915 7.50006 199.915Z" stroke="#FFFFFF" stroke-width="3" stroke-linejoin="round" stroke-miterlimit="10" fill="#16BFD0" fill-rule="evenodd"/></g></g></g><path d="M672.5 672.5 672.5 672.5 672.5 672.5 768.5 672.5 768.5 672.5 768.5 672.5 768.5 672.5 768.5 672.5 768.5 672.5 768.5 672.5 768.5 672.5 768.5 672.5 768.5 672.5 864.5 672.5 864.5 672.5 864.5 672.5 864.5 576.5 864.5 576.5 864.5 576.5 864.5 576.5 864.5 576.5 864.5 576.5 864.5 576.5 864.5 576.5 864.5 576.5 960.5 576.5 960.5 576.5 960.5 576.5 960.5 480.5 960.5 480.5 960.5 480.5 960.5 480.5 960.5 480.5 960.5 480.5 960.5 480.5 960.5 480.5 960.5 480.5 960.5 480.5 960.5 384.5 960.5 384.5 960.5 384.5 960.5 384.5 960.5 384.5 960.5 384.5 960.5 384.5 864.5 384.5 864.5 384.5 864.5 384.5 864.5 384.5 864.5 384.5 864.5 384.5 864.5 384.5 864.5 384.5 864.5 384.5 864.5 384.5 768.5 384.5 768.5 384.5 768.5 480.5 768.5 480.5 768.5 480.5 768.5 480.5 768.5 480.5 768.5 480.5 768.5 480.5 768.5 480.5 768.5 480.5 768.5 480.5 768.5 480.5 768.5 480.5 768.5 480.5 768.5 480.5 768.5 480.5 768.5 480.5 768.5 480.5 768.5 480.5 768.5 480.5 768.5 480.5 768.5 480.5 768.5 480.5 768.5 480.5 768.5 480.5 768.5 480.5 672.5 480.5 672.5 480.5 672.5 576.5 672.5 576.5 672.5 576.5 672.5 576.5 672.5 576.5 672.5 576.5Z" stroke="#FFFFFF" stroke-width="3.06656" stroke-linejoin="round" stroke-miterlimit="10" fill="#16BFD0" fill-rule="evenodd"/><g clip-path="url(#clip68)"><g clip-path="url(#clip69)" filter="url(#fx12)" transform="translate(377 379)"><g><path d="M7.50006 7.91476 7.50006 7.91476 7.50006 7.91476 7.50006 103.915 7.50006 103.915 7.50006 103.915 7.50006 103.915 7.50006 103.915 7.50006 103.915 7.50006 103.915 7.50006 103.915 7.50006 103.915 7.50006 103.915 7.50006 199.915 7.50006 199.915 7.50006 199.915 103.5 199.915 103.5 199.915 103.5 199.915 103.5 199.915 103.5 199.915 103.5 199.915 103.5 199.915 103.5 199.915 103.5 199.915 103.5 295.915 103.5 295.915 103.5 295.915 199.5 295.915 199.5 295.915 199.5 295.915 199.5 295.915 199.5 295.915 199.5 295.915 199.5 295.915 199.5 295.915 199.5 295.915 199.5 295.915 295.5 295.915 295.5 295.915 295.5 295.915 295.5 295.915 295.5 295.915 295.5 295.915 295.5 295.915 295.5 199.915 295.5 199.915 295.5 199.915 295.5 199.915 295.5 199.915 295.5 199.915 295.5 199.915 295.5 199.915 295.5 199.915 295.5 199.915 295.5 103.915 295.5 103.915 199.5 103.915 199.5 103.915 199.5 103.915 199.5 103.915 199.5 103.915 199.5 103.915 199.5 103.915 199.5 103.915 199.5 103.915 199.5 103.915 199.5 103.915 199.5 103.915 199.5 103.915 199.5 103.915 199.5 103.915 199.5 103.915 199.5 103.915 199.5 103.915 199.5 103.915 199.5 103.915 199.5 103.915 199.5 103.915 199.5 103.915 199.5 103.915 199.5 103.915 199.5 7.91476 199.5 7.91476 103.5 7.91476 103.5 7.91476 103.5 7.91476 103.5 7.91476 103.5 7.91476 103.5 7.91476Z" stroke="#FFFFFF" stroke-width="3" stroke-linejoin="round" stroke-miterlimit="10" fill="#FF9D1B" fill-rule="evenodd"/></g></g></g><path d="M384.5 384.5 384.5 384.5 384.5 384.5 384.5 480.5 384.5 480.5 384.5 480.5 384.5 480.5 384.5 480.5 384.5 480.5 384.5 480.5 384.5 480.5 384.5 480.5 384.5 480.5 384.5 576.5 384.5 576.5 384.5 576.5 480.5 576.5 480.5 576.5 480.5 576.5 480.5 576.5 480.5 576.5 480.5 576.5 480.5 576.5 480.5 576.5 480.5 576.5 480.5 672.5 480.5 672.5 480.5 672.5 576.5 672.5 576.5 672.5 576.5 672.5 576.5 672.5 576.5 672.5 576.5 672.5 576.5 672.5 576.5 672.5 576.5 672.5 576.5 672.5 672.5 672.5 672.5 672.5 672.5 672.5 672.5 672.5 672.5 672.5 672.5 672.5 672.5 672.5 672.5 576.5 672.5 576.5 672.5 576.5 672.5 576.5 672.5 576.5 672.5 576.5 672.5 576.5 672.5 576.5 672.5 576.5 672.5 576.5 672.5 480.5 672.5 480.5 576.5 480.5 576.5 480.5 576.5 480.5 576.5 480.5 576.5 480.5 576.5 480.5 576.5 480.5 576.5 480.5 576.5 480.5 576.5 480.5 576.5 480.5 576.5 480.5 576.5 480.5 576.5 480.5 576.5 480.5 576.5 480.5 576.5 480.5 576.5 480.5 576.5 480.5 576.5 480.5 576.5 480.5 576.5 480.5 576.5 480.5 576.5 480.5 576.5 480.5 576.5 384.5 576.5 384.5 480.5 384.5 480.5 384.5 480.5 384.5 480.5 384.5 480.5 384.5 480.5 384.5Z" stroke="#FFFFFF" stroke-width="3.06656" stroke-linejoin="round" stroke-miterlimit="10" fill="#FF9D1B" fill-rule="evenodd"/><g clip-path="url(#clip70)"><g clip-path="url(#clip71)" filter="url(#fx13)" transform="translate(533 245)"><g><path d="M6.50006 140.415C6.50006 66.6847 66.27 6.91475 140 6.91475 213.73 6.91475 273.5 66.6847 273.5 140.415 273.5 214.145 213.73 273.915 140 273.915 66.27 273.915 6.50006 214.145 6.50006 140.415Z" stroke="#D7DDE5" stroke-linejoin="round" stroke-miterlimit="10" fill="#D7DDE5" fill-rule="evenodd"/></g></g></g><path d="M539.5 383C539.5 309.27 599.27 249.5 673 249.5 746.73 249.5 806.5 309.27 806.5 383 806.5 456.73 746.73 516.5 673 516.5 599.27 516.5 539.5 456.73 539.5 383Z" stroke="#D7DDE5" stroke-linejoin="round" stroke-miterlimit="10" fill="#D7DDE5" fill-rule="evenodd"/><g clip-path="url(#clip72)"><g clip-path="url(#clip73)" filter="url(#fx14)" transform="translate(546 257)"><g><path d="M8.50006 126.915C8.50006 61.7452 61.3305 8.91476 126.5 8.91476 191.67 8.91476 244.5 61.7452 244.5 126.915 244.5 192.084 191.67 244.915 126.5 244.915 61.3305 244.915 8.50006 192.084 8.50006 126.915Z" stroke="#FFFFFF" stroke-width="5" stroke-linejoin="round" stroke-miterlimit="10" fill="#F8FAFC" fill-rule="evenodd"/></g></g><g clip-path="url(#clip74)" filter="url(#fx15)" transform="translate(577 324)"><g><path d="M1.56885 0 1.56885-19.3271 6.35367-19.3271 9.23511-6.13037 12.0939-19.3271 16.9014-19.3271 16.9014 0 13.9219 0 13.9219-15.2271 10.7626 0 7.68418 0 4.54834-15.2271 4.54834 0ZM19.7487-19.3271 22.9391-19.3271 22.9391-8.85938C22.9391-7.2334 22.9787-6.17432 23.058-5.68213 23.1989-4.82959 23.5358-4.17041 24.0687-3.70459 24.6016-3.23877 25.304-3.00586 26.1759-3.00586 26.9157-3.00586 27.519-3.17065 27.9859-3.50024 28.4527-3.82983 28.772-4.28687 28.9437-4.87134 29.1155-5.45581 29.2013-6.71045 29.2013-8.63525L29.2013-19.3271 32.3918-19.3271 32.3918-9.17578C32.3918-6.58301 32.2533-4.70874 31.9765-3.55298 31.6996-2.39722 31.0756-1.46118 30.1044-0.744873 29.1332-0.0285645 27.8522 0.32959 26.2614 0.32959 24.6091 0.32959 23.3193 0.032959 22.392-0.560303 21.4648-1.15356 20.7924-1.98853 20.3749-3.06519 19.9574-4.14185 19.7487-6.12598 19.7487-9.01758ZM35.7007 0 35.7007-19.1689 38.8911-19.1689 38.8911-3.26953 46.854-3.26953 46.854 0ZM50.9145 0 50.9145-16.0576 46.2079-16.0576 46.2079-19.3271 58.7983-19.3271 58.7983-16.0576 54.1049-16.0576 54.1049 0ZM60.5828 0 60.5828-19.3271 63.7732-19.3271 63.7732 0ZM66.6355 0 66.6355-19.3271 71.4203-19.3271 74.3018-6.13037 77.1606-19.3271 81.968-19.3271 81.968 0 78.9885 0 78.9885-15.2271 75.8292 0 72.7508 0 69.615-15.2271 69.615 0ZM84.1957-9.54492C84.1957-11.8477 84.5363-13.7439 85.2175-15.2336 85.8986-16.7234 86.7885-17.833 87.8871-18.5625 88.9858-19.292 90.3173-19.6567 91.8818-19.6567 94.1494-19.6567 95.9973-18.791 97.4255-17.0596 98.8537-15.3281 99.5678-12.8628 99.5678-9.66357 99.5678-6.4292 98.8119-3.90234 97.3002-2.08301 95.9731-0.474609 94.1713 0.32959 91.895 0.32959 89.601 0.32959 87.7905-0.46582 86.4633-2.05664 84.9516-3.87598 84.1957-6.37207 84.1957-9.54492ZM87.4916-9.67676C87.4916-7.45312 87.9141-5.7854 88.7591-4.67358 89.6041-3.56177 90.6516-3.00586 91.9016-3.00586 93.1603-3.00586 94.2034-3.55737 95.0308-4.6604 95.8582-5.76343 96.2719-7.45752 96.2719-9.74268 96.2719-11.9839 95.8692-13.6406 95.0638-14.7129 94.2583-15.7852 93.2043-16.3213 91.9016-16.3213 90.5988-16.3213 89.5382-15.7808 88.7196-14.6997 87.9009-13.6187 87.4916-11.9443 87.4916-9.67676ZM101.829-19.3271 107.663-19.3271C109.138-19.3271 110.251-19.1624 111.002-18.8328 111.752-18.5032 112.444-17.9473 113.076-17.165 113.708-16.3828 114.204-15.3677 114.564-14.1196 114.924-12.8716 115.104-11.3203 115.104-9.46582 115.104-7.7959 114.916-6.34351 114.538-5.10864 114.16-3.87378 113.682-2.896 113.102-2.17529 112.523-1.45459 111.823-0.911865 111.002-0.547119 110.181-0.182373 109.125 0 107.834 0L101.829 0ZM105.019-16.0576 105.019-3.26953 107.418-3.26953C108.447-3.26953 109.192-3.36611 109.653-3.55926 110.114-3.75241 110.492-4.04434 110.787-4.43504 111.081-4.82574 111.325-5.44256 111.518-6.28548 111.712-7.12841 111.809-8.23906 111.809-9.61743 111.809-11.0485 111.71-12.1768 111.512-13.0021 111.314-13.8275 111.007-14.4772 110.589-14.9513 110.172-15.4255 109.664-15.7372 109.066-15.8864 108.618-16.0006 107.752-16.0576 106.469-16.0576ZM131.979 0 128.511 0 127.123-4.37695 120.778-4.37695 119.468 0 116.067 0 122.238-19.3271 125.627-19.3271ZM126.092-7.64648 123.904-14.8184 121.757-7.64648ZM133.601 0 133.601-19.1689 136.791-19.1689 136.791-3.26953 144.754-3.26953 144.754 0Z" fill="#111318" transform="translate(22.037 40)"/><path d="M1.59521-19.3271 7.42978-19.3271C8.90483-19.3271 10.0177-19.1624 10.7684-18.8328 11.5191-18.5032 12.2106-17.9473 12.8428-17.165 13.475-16.3828 13.9711-15.3677 14.3311-14.1196 14.6911-12.8716 14.8711-11.3203 14.8711-9.46582 14.8711-7.7959 14.6823-6.34351 14.3047-5.10864 13.9271-3.87378 13.4486-2.896 12.8691-2.17529 12.2897-1.45459 11.5895-0.911865 10.7685-0.547119 9.94757-0.182373 8.89172 0 7.60096 0L1.59521 0ZM4.78564-16.0576 4.78564-3.26953 7.18506-3.26953C8.21338-3.26953 8.95825-3.36611 9.41968-3.55926 9.8811-3.75241 10.259-4.04434 10.5535-4.43504 10.8479-4.82574 11.0918-5.44256 11.2852-6.28548 11.4785-7.12841 11.5752-8.23906 11.5752-9.61743 11.5752-11.0485 11.4763-12.1768 11.2786-13.0021 11.0808-13.8275 10.7732-14.4772 10.3557-14.9513 9.93823-15.4255 9.43066-15.7372 8.83301-15.8864 8.38477-16.0006 7.51904-16.0576 6.23584-16.0576ZM31.7459 0 28.2772 0 26.8892-4.37695 20.545-4.37695 19.2347 0 15.8333 0 22.0047-19.3271 25.3935-19.3271ZM25.859-7.64648 23.671-14.8184 21.5239-7.64648ZM35.2478 0 35.2478-16.0576 30.5413-16.0576 30.5413-19.3271 43.1316-19.3271 43.1316-16.0576 38.4382-16.0576 38.4382 0ZM57.7126 0 54.2439 0 52.8559-4.37695 46.5117-4.37695 45.2014 0 41.8 0 47.9714-19.3271 51.3602-19.3271ZM51.8257-7.64648 49.6376-14.8184 47.4906-7.64648Z" fill="#111318" transform="translate(66.2304 67)"/><path d="M1.63477 0 1.63477-19.3271 12.498-19.3271 12.498-16.0576 4.8252-16.0576 4.8252-11.4829 11.4697-11.4829 11.4697-8.21338 4.8252-8.21338 4.8252 0ZM28.0459 0 24.5772 0 23.1892-4.37695 16.845-4.37695 15.5347 0 12.1333 0 18.3047-19.3271 21.6935-19.3271ZM22.159-7.64648 19.971-14.8184 17.8239-7.64648ZM39.7264-7.10596 42.8246-5.90625C42.3412-3.74414 41.537-2.16431 40.412-1.16675 39.287-0.169189 37.9027 0.32959 36.2591 0.32959 34.1937 0.32959 32.5194-0.46582 31.2362-2.05664 29.7596-3.89355 29.0214-6.37207 29.0214-9.49219 29.0214-12.7881 29.7647-15.3677 31.2514-17.231 32.5447-18.8481 34.2822-19.6567 36.4641-19.6567 38.2411-19.6567 39.7279-19.0503 40.9243-17.8374 41.7776-16.9761 42.4023-15.6973 42.7982-14.001L39.6341-13.0781C39.4316-14.124 39.0288-14.926 38.4257-15.4841 37.8226-16.0422 37.1116-16.3213 36.2927-16.3213 35.1216-16.3213 34.1662-15.8115 33.4266-14.792 32.687-13.7725 32.3173-12.0894 32.3173-9.74268 32.3173-7.3081 32.6776-5.57666 33.3983-4.54834 34.119-3.52002 35.055-3.00586 36.2064-3.00586 37.0502-3.00586 37.7797-3.33325 38.3949-3.98804 39.0101-4.64282 39.454-5.68213 39.7264-7.10596ZM48.9812 0 48.9812-16.0576 44.2746-16.0576 44.2746-19.3271 56.8649-19.3271 56.8649-16.0576 52.1716-16.0576 52.1716 0ZM57.7157-9.54492C57.7157-11.8477 58.0563-13.7439 58.7375-15.2336 59.4186-16.7234 60.3085-17.833 61.4071-18.5625 62.5058-19.292 63.8373-19.6567 65.4018-19.6567 67.6694-19.6567 69.5173-18.791 70.9455-17.0596 72.3737-15.3281 73.0878-12.8628 73.0878-9.66357 73.0878-6.4292 72.332-3.90234 70.8202-2.08301 69.4931-0.474609 67.6913 0.32959 65.415 0.32959 63.121 0.32959 61.3105-0.46582 59.9833-2.05664 58.4716-3.87598 57.7157-6.37207 57.7157-9.54492ZM61.0116-9.67676C61.0116-7.45312 61.4341-5.7854 62.2791-4.67358 63.1241-3.56177 64.1716-3.00586 65.4216-3.00586 66.6803-3.00586 67.7234-3.55737 68.5508-4.6604 69.3782-5.76343 69.7919-7.45752 69.7919-9.74268 69.7919-11.9839 69.3892-13.6406 68.5838-14.7129 67.7783-15.7852 66.7243-16.3213 65.4216-16.3213 64.1189-16.3213 63.0582-15.7808 62.2396-14.6997 61.4209-13.6187 61.0116-11.9443 61.0116-9.67676ZM75.3749 0 75.3749-19.3271 82.1117-19.3271C83.8344-19.3271 85.0649-19.1536 85.8031-18.8064 86.5414-18.4592 87.1479-17.8572 87.6225-17.0002 88.0971-16.1433 88.3344-15.1172 88.3344-13.9219 88.3344-12.4102 87.9718-11.1929 87.2467-10.27 86.5217-9.34717 85.4911-8.76709 84.1552-8.52979 84.8407-8.0376 85.4076-7.49927 85.8559-6.91479 86.3041-6.33032 86.915-5.28223 87.6884-3.77051L89.6132 0 85.7959 0 83.4804-4.20557C82.647-5.72607 82.081-6.67749 81.7822-7.05981 81.4833-7.44214 81.1669-7.70581 80.8329-7.85083 80.4989-7.99585 79.9628-8.06836 79.2245-8.06836L78.5654-8.06836 78.5654 0ZM78.5654-11.1533 80.9384-11.1533C82.3886-11.1533 83.3114-11.217 83.707-11.3445 84.1025-11.4719 84.4233-11.729 84.6694-12.1157 84.9155-12.5024 85.0385-13.0166 85.0385-13.6582 85.0385-14.2734 84.9155-14.7678 84.6694-15.1414 84.4233-15.5149 84.0893-15.772 83.6674-15.9126 83.3686-16.0093 82.5029-16.0576 81.0702-16.0576L78.5654-16.0576ZM94.5678 0 94.5678-8.13696 88.767-19.3271 92.5111-19.3271 96.2347-11.6846 99.9071-19.3271 103.585-19.3271 97.7582-8.11059 97.7582 0Z" fill="#111318" transform="translate(42.9237 95)"/></g></g></g><path d="M554.5 381.5C554.5 316.33 607.33 263.5 672.5 263.5 737.67 263.5 790.5 316.33 790.5 381.5 790.5 446.67 737.67 499.5 672.5 499.5 607.33 499.5 554.5 446.67 554.5 381.5Z" stroke="#FFFFFF" stroke-width="5.33333" stroke-linejoin="round" stroke-miterlimit="10" fill="#F8FAFC" fill-rule="evenodd"/><text fill="#111318" font-family="Arial Narrow,Arial Narrow_MSFontService,sans-serif" font-weight="700" font-stretch="condensed" font-size="27" transform="translate(599.037 362)">MULTIMODAL</text><text fill="#111318" font-family="Arial Narrow,Arial Narrow_MSFontService,sans-serif" font-weight="700" font-stretch="condensed" font-size="27" transform="translate(643.23 389)">DATA</text><text fill="#111318" font-family="Arial Narrow,Arial Narrow_MSFontService,sans-serif" font-weight="700" font-stretch="condensed" font-size="27" transform="translate(619.924 417)">FACTORY</text><g clip-path="url(#clip75)"><g clip-path="url(#clip76)" filter="url(#fx16)" transform="translate(61 145)"><g><path d="M6.50005 12.2482C6.50005 9.30262 8.88792 6.91475 11.8335 6.91475L34.1666 6.91475C37.1122 6.91475 39.5001 9.30262 39.5001 12.2482L39.5001 33.5813C39.5001 36.5269 37.1122 38.9147 34.1666 38.9147L11.8335 38.9147C8.88792 38.9147 6.50005 36.5269 6.50005 33.5813Z" stroke="#2F86DE" stroke-linejoin="round" stroke-miterlimit="10" fill="#2F86DE" fill-rule="evenodd"/></g></g><g clip-path="url(#clip77)" filter="url(#fx17)" transform="translate(59 141)"><g><path d="M7.42334 0 4.84033 0 4.84033-11.8931C3.87451-10.8075 2.75895-10.0101 1.49365-9.50098L1.49365-12.3647C2.2124-12.6559 2.95736-13.1767 3.72852-13.9272 4.49967-14.6776 5.03499-15.5419 5.33447-16.52L7.42334-16.52Z" fill="#FFFFFF" transform="translate(19.3533 35)"/></g></g></g><path d="M67.5001 154.833C67.5001 151.888 69.8879 149.5 72.8335 149.5L95.1666 149.5C98.1122 149.5 100.5 151.888 100.5 154.833L100.5 176.167C100.5 179.112 98.1122 181.5 95.1666 181.5L72.8335 181.5C69.8879 181.5 67.5001 179.112 67.5001 176.167Z" stroke="#2F86DE" stroke-linejoin="round" stroke-miterlimit="10" fill="#2F86DE" fill-rule="evenodd"/><text fill="#FFFFFF" font-family="Arial Narrow,Arial Narrow_MSFontService,sans-serif" font-weight="700" font-stretch="condensed" font-size="23" transform="translate(78.3533 174)">1</text><text fill="#111318" font-family="Arial Narrow,Arial Narrow_MSFontService,sans-serif" font-weight="700" font-stretch="condensed" font-size="27" transform="translate(108.48 172)">ASSET PLANNING</text><text fill="#111318" font-family="Arial Narrow,Arial Narrow_MSFontService,sans-serif" font-weight="700" font-stretch="condensed" font-size="27" transform="translate(108.48 201)">&amp; SAMPLING</text><g clip-path="url(#clip78)"><g clip-path="url(#clip79)" filter="url(#fx18)" transform="translate(102 219)"><g><path d="M6.50005 10.9147C6.50005 8.70561 8.29091 6.91475 10.5001 6.91475 12.7092 6.91475 14.5001 8.70561 14.5001 10.9147 14.5001 13.1239 12.7092 14.9147 10.5001 14.9147 8.29091 14.9147 6.50005 13.1239 6.50005 10.9147Z" stroke="#2F86DE" stroke-linejoin="round" stroke-miterlimit="10" fill="#2F86DE" fill-rule="evenodd"/></g></g></g><path d="M108.5 227.5C108.5 225.291 110.291 223.5 112.5 223.5 114.709 223.5 116.5 225.291 116.5 227.5 116.5 229.709 114.709 231.5 112.5 231.5 110.291 231.5 108.5 229.709 108.5 227.5Z" stroke="#2F86DE" stroke-linejoin="round" stroke-miterlimit="10" fill="#2F86DE" fill-rule="evenodd"/><text fill="#111318" font-family="Arial Narrow,Arial Narrow_MSFontService,sans-serif" font-weight="400" font-stretch="condensed" font-size="23" transform="translate(124.8 235)">Data Sources</text><g clip-path="url(#clip80)"><g clip-path="url(#clip81)" filter="url(#fx19)" transform="translate(102 248)"><g><path d="M6.50005 10.9147C6.50005 8.70561 8.29091 6.91475 10.5001 6.91475 12.7092 6.91475 14.5001 8.70561 14.5001 10.9147 14.5001 13.1239 12.7092 14.9147 10.5001 14.9147 8.29091 14.9147 6.50005 13.1239 6.50005 10.9147Z" stroke="#2F86DE" stroke-linejoin="round" stroke-miterlimit="10" fill="#2F86DE" fill-rule="evenodd"/></g></g></g><path d="M108.5 256.5C108.5 254.291 110.291 252.5 112.5 252.5 114.709 252.5 116.5 254.291 116.5 256.5 116.5 258.709 114.709 260.5 112.5 260.5 110.291 260.5 108.5 258.709 108.5 256.5Z" stroke="#2F86DE" stroke-linejoin="round" stroke-miterlimit="10" fill="#2F86DE" fill-rule="evenodd"/><text fill="#111318" font-family="Arial Narrow,Arial Narrow_MSFontService,sans-serif" font-weight="400" font-stretch="condensed" font-size="23" transform="translate(124.8 264)">Category Design</text><g clip-path="url(#clip82)"><g clip-path="url(#clip83)" filter="url(#fx20)" transform="translate(102 277)"><g><path d="M6.50005 10.4148C6.50005 8.48177 8.29091 6.91476 10.5001 6.91476 12.7092 6.91476 14.5001 8.48177 14.5001 10.4148 14.5001 12.3478 12.7092 13.9148 10.5001 13.9148 8.29091 13.9148 6.50005 12.3478 6.50005 10.4148Z" stroke="#2F86DE" stroke-linejoin="round" stroke-miterlimit="10" fill="#2F86DE" fill-rule="evenodd"/></g></g></g><path d="M108.5 285C108.5 283.067 110.291 281.5 112.5 281.5 114.709 281.5 116.5 283.067 116.5 285 116.5 286.933 114.709 288.5 112.5 288.5 110.291 288.5 108.5 286.933 108.5 285Z" stroke="#2F86DE" stroke-linejoin="round" stroke-miterlimit="10" fill="#2F86DE" fill-rule="evenodd"/><text fill="#111318" font-family="Arial Narrow,Arial Narrow_MSFontService,sans-serif" font-weight="400" font-stretch="condensed" font-size="23" transform="translate(124.8 293)">Distribution Balancing</text><g clip-path="url(#clip84)"><g clip-path="url(#clip85)" filter="url(#fx21)" transform="translate(102 306)"><g><path d="M6.50005 10.4148C6.50005 8.48177 8.29091 6.91476 10.5001 6.91476 12.7092 6.91476 14.5001 8.48177 14.5001 10.4148 14.5001 12.3478 12.7092 13.9148 10.5001 13.9148 8.29091 13.9148 6.50005 12.3478 6.50005 10.4148Z" stroke="#2F86DE" stroke-linejoin="round" stroke-miterlimit="10" fill="#2F86DE" fill-rule="evenodd"/></g></g></g><path d="M108.5 314C108.5 312.067 110.291 310.5 112.5 310.5 114.709 310.5 116.5 312.067 116.5 314 116.5 315.933 114.709 317.5 112.5 317.5 110.291 317.5 108.5 315.933 108.5 314Z" stroke="#2F86DE" stroke-linejoin="round" stroke-miterlimit="10" fill="#2F86DE" fill-rule="evenodd"/><text fill="#111318" font-family="Arial Narrow,Arial Narrow_MSFontService,sans-serif" font-weight="400" font-stretch="condensed" font-size="23" transform="translate(124.8 321)">Asset Pool Construction</text><g clip-path="url(#clip86)"><g clip-path="url(#clip87)" filter="url(#fx22)" transform="translate(962 145)"><g><path d="M6.50006 12.2482C6.50006 9.30261 8.88792 6.91475 11.8335 6.91475L33.1666 6.91475C36.1122 6.91475 38.5001 9.30261 38.5001 12.2482L38.5001 33.5813C38.5001 36.5269 36.1122 38.9147 33.1666 38.9147L11.8335 38.9147C8.88792 38.9147 6.50006 36.5269 6.50006 33.5813Z" stroke="#9B4DD8" stroke-linejoin="round" stroke-miterlimit="10" fill="#9B4DD8" fill-rule="evenodd"/></g></g><g clip-path="url(#clip88)" filter="url(#fx23)" transform="translate(959 141)"><g><path d="M9.5459-2.93115 9.5459 0 0.47168 0C0.56901-1.10714 0.866618-2.16008 1.3645-3.15883 1.86239-4.15758 2.83008-5.46859 4.26758-7.09187 5.4056-8.38606 6.10563-9.26133 6.36768-9.71769 6.757-10.3836 6.95166-11.0531 6.95166-11.7264 6.95166-12.4445 6.79069-12.9869 6.46875-13.3535 6.14681-13.72 5.7238-13.9033 5.19971-13.9033 4.0542-13.9033 3.43652-13.0461 3.34668-11.3315L0.774902-11.646C0.932129-13.3231 1.39819-14.5547 2.1731-15.3408 2.948-16.127 3.97933-16.52 5.26709-16.52 6.68213-16.52 7.74902-16.0599 8.46777-15.1398 9.18652-14.2197 9.5459-13.1649 9.5459-11.9754 9.5459-11.3021 9.45418-10.6494 9.27075-10.0173 9.08732-9.38519 8.80469-8.74932 8.42285-8.10971 8.04102-7.4701 7.40462-6.65282 6.51367-5.65788 5.68262-4.72282 5.15666-4.10567 4.93579-3.80643 4.71492-3.50718 4.53711-3.21542 4.40234-2.93115Z" fill="#FFFFFF" transform="translate(19.8333 35)"/></g></g></g><path d="M968.5 154.833C968.5 151.888 970.888 149.5 973.833 149.5L995.167 149.5C998.112 149.5 1000.5 151.888 1000.5 154.833L1000.5 176.167C1000.5 179.112 998.112 181.5 995.167 181.5L973.833 181.5C970.888 181.5 968.5 179.112 968.5 176.167Z" stroke="#9B4DD8" stroke-linejoin="round" stroke-miterlimit="10" fill="#9B4DD8" fill-rule="evenodd"/><text fill="#FFFFFF" font-family="Arial Narrow,Arial Narrow_MSFontService,sans-serif" font-weight="700" font-stretch="condensed" font-size="23" transform="translate(978.833 174)">2</text><text fill="#111318" font-family="Arial Narrow,Arial Narrow_MSFontService,sans-serif" font-weight="700" font-stretch="condensed" font-size="27" transform="translate(1008 172)">DATA PROCESSING &amp;</text><text fill="#111318" font-family="Arial Narrow,Arial Narrow_MSFontService,sans-serif" font-weight="700" font-stretch="condensed" font-size="27" transform="translate(1008 201)">INTERFACE MAINTENANCE</text><g clip-path="url(#clip89)"><g clip-path="url(#clip90)" filter="url(#fx24)" transform="translate(1014 219)"><g><path d="M6.50006 10.9147C6.50006 8.70561 8.29092 6.91475 10.5001 6.91475 12.7092 6.91475 14.5001 8.70561 14.5001 10.9147 14.5001 13.1239 12.7092 14.9147 10.5001 14.9147 8.29092 14.9147 6.50006 13.1239 6.50006 10.9147Z" stroke="#9B4DD8" stroke-linejoin="round" stroke-miterlimit="10" fill="#9B4DD8" fill-rule="evenodd"/></g></g></g><path d="M1020.5 227.5C1020.5 225.291 1022.29 223.5 1024.5 223.5 1026.71 223.5 1028.5 225.291 1028.5 227.5 1028.5 229.709 1026.71 231.5 1024.5 231.5 1022.29 231.5 1020.5 229.709 1020.5 227.5Z" stroke="#9B4DD8" stroke-linejoin="round" stroke-miterlimit="10" fill="#9B4DD8" fill-rule="evenodd"/><text fill="#111318" font-family="Arial Narrow,Arial Narrow_MSFontService,sans-serif" font-weight="400" font-stretch="condensed" font-size="23" transform="translate(1036.8 235)">Image Processing</text><g clip-path="url(#clip91)"><g clip-path="url(#clip92)" filter="url(#fx25)" transform="translate(1014 248)"><g><path d="M6.50006 10.9147C6.50006 8.70561 8.29092 6.91475 10.5001 6.91475 12.7092 6.91475 14.5001 8.70561 14.5001 10.9147 14.5001 13.1239 12.7092 14.9147 10.5001 14.9147 8.29092 14.9147 6.50006 13.1239 6.50006 10.9147Z" stroke="#9B4DD8" stroke-linejoin="round" stroke-miterlimit="10" fill="#9B4DD8" fill-rule="evenodd"/></g></g></g><path d="M1020.5 256.5C1020.5 254.291 1022.29 252.5 1024.5 252.5 1026.71 252.5 1028.5 254.291 1028.5 256.5 1028.5 258.709 1026.71 260.5 1024.5 260.5 1022.29 260.5 1020.5 258.709 1020.5 256.5Z" stroke="#9B4DD8" stroke-linejoin="round" stroke-miterlimit="10" fill="#9B4DD8" fill-rule="evenodd"/><text fill="#111318" font-family="Arial Narrow,Arial Narrow_MSFontService,sans-serif" font-weight="400" font-stretch="condensed" font-size="23" transform="translate(1036.8 264)">Annotation Alignment</text><g clip-path="url(#clip93)"><g clip-path="url(#clip94)" filter="url(#fx26)" transform="translate(1014 277)"><g><path d="M6.50006 10.4148C6.50006 8.48177 8.29092 6.91476 10.5001 6.91476 12.7092 6.91476 14.5001 8.48177 14.5001 10.4148 14.5001 12.3478 12.7092 13.9148 10.5001 13.9148 8.29092 13.9148 6.50006 12.3478 6.50006 10.4148Z" stroke="#9B4DD8" stroke-linejoin="round" stroke-miterlimit="10" fill="#9B4DD8" fill-rule="evenodd"/></g></g></g><path d="M1020.5 285C1020.5 283.067 1022.29 281.5 1024.5 281.5 1026.71 281.5 1028.5 283.067 1028.5 285 1028.5 286.933 1026.71 288.5 1024.5 288.5 1022.29 288.5 1020.5 286.933 1020.5 285Z" stroke="#9B4DD8" stroke-linejoin="round" stroke-miterlimit="10" fill="#9B4DD8" fill-rule="evenodd"/><text fill="#111318" font-family="Arial Narrow,Arial Narrow_MSFontService,sans-serif" font-weight="400" font-stretch="condensed" font-size="23" transform="translate(1036.8 293)">Schema Design</text><g clip-path="url(#clip95)"><g clip-path="url(#clip96)" filter="url(#fx27)" transform="translate(1014 306)"><g><path d="M6.50006 10.4148C6.50006 8.48177 8.29092 6.91476 10.5001 6.91476 12.7092 6.91476 14.5001 8.48177 14.5001 10.4148 14.5001 12.3478 12.7092 13.9148 10.5001 13.9148 8.29092 13.9148 6.50006 12.3478 6.50006 10.4148Z" stroke="#9B4DD8" stroke-linejoin="round" stroke-miterlimit="10" fill="#9B4DD8" fill-rule="evenodd"/></g></g></g><path d="M1020.5 314C1020.5 312.067 1022.29 310.5 1024.5 310.5 1026.71 310.5 1028.5 312.067 1028.5 314 1028.5 315.933 1026.71 317.5 1024.5 317.5 1022.29 317.5 1020.5 315.933 1020.5 314Z" stroke="#9B4DD8" stroke-linejoin="round" stroke-miterlimit="10" fill="#9B4DD8" fill-rule="evenodd"/><text fill="#111318" font-family="Arial Narrow,Arial Narrow_MSFontService,sans-serif" font-weight="400" font-stretch="condensed" font-size="23" transform="translate(1036.8 321)">Intermediate Storage</text><g clip-path="url(#clip97)"><g clip-path="url(#clip98)" filter="url(#fx28)" transform="translate(1014 334)"><g><path d="M6.50006 10.9148C6.50006 8.70563 8.29092 6.91476 10.5001 6.91476 12.7092 6.91476 14.5001 8.70563 14.5001 10.9148 14.5001 13.1239 12.7092 14.9148 10.5001 14.9148 8.29092 14.9148 6.50006 13.1239 6.50006 10.9148Z" stroke="#9B4DD8" stroke-linejoin="round" stroke-miterlimit="10" fill="#9B4DD8" fill-rule="evenodd"/></g></g></g><path d="M1020.5 342.5C1020.5 340.291 1022.29 338.5 1024.5 338.5 1026.71 338.5 1028.5 340.291 1028.5 342.5 1028.5 344.709 1026.71 346.5 1024.5 346.5 1022.29 346.5 1020.5 344.709 1020.5 342.5Z" stroke="#9B4DD8" stroke-linejoin="round" stroke-miterlimit="10" fill="#9B4DD8" fill-rule="evenodd"/><text fill="#111318" font-family="Arial Narrow,Arial Narrow_MSFontService,sans-serif" font-weight="400" font-stretch="condensed" font-size="23" transform="translate(1036.8 350)">Version Tracking</text><g clip-path="url(#clip99)"><g clip-path="url(#clip100)" filter="url(#fx29)" transform="translate(990 450)"><g><path d="M6.50006 12.4149C6.50006 9.37725 8.96254 6.91476 12.0002 6.91476L34 6.91476C37.0376 6.91476 39.5001 9.37725 39.5001 12.4149L39.5001 34.4147C39.5001 37.4523 37.0376 39.9148 34 39.9148L12.0002 39.9148C8.96254 39.9148 6.50006 37.4523 6.50006 34.4147Z" stroke="#16BFD0" stroke-linejoin="round" stroke-miterlimit="10" fill="#16BFD0" fill-rule="evenodd"/></g></g><g clip-path="url(#clip101)" filter="url(#fx30)" transform="translate(988 446)"><g><path d="M0.70752-4.35742 3.21191-4.72803C3.27953-3.95301 3.49355-3.36057 3.85398-2.95072 4.21441-2.54086 4.63865-2.33594 5.12671-2.33594 5.65981-2.33594 6.11034-2.57926 6.47831-3.06592 6.84629-3.55257 7.03027-4.2264 7.03027-5.0874 7.03027-5.88851 6.85366-6.51742 6.50042-6.97412 6.14719-7.43083 5.71882-7.65918 5.21532-7.65918 4.88473-7.65918 4.4902-7.58057 4.03174-7.42334L4.3125-9.99512C4.98235-9.98014 5.51293-10.1593 5.90424-10.5326 6.28807-10.9059 6.47998-11.4323 6.47998-12.1117 6.47998-12.6791 6.34097-13.1233 6.06296-13.4443 5.78495-13.7653 5.42806-13.9258 4.99229-13.9258 4.55653-13.9258 4.17899-13.7405 3.85968-13.3699 3.54038-12.9993 3.35066-12.4508 3.29053-11.7246L0.898438-12.2188C1.14586-13.7236 1.62944-14.8167 2.34919-15.498 3.06893-16.1794 3.97611-16.52 5.07073-16.52 6.30023-16.52 7.27673-16.0827 8.00022-15.208 8.72371-14.3333 9.08545-13.3651 9.08545-12.3035 9.08545-11.5858 8.92261-10.9391 8.59692-10.3635 8.27124-9.78791 7.78271-9.28327 7.13135-8.84961 7.88753-8.64746 8.50334-8.20199 8.97876-7.51318 9.45418-6.82438 9.69189-5.96338 9.69189-4.93018 9.69189-3.42529 9.24399-2.18058 8.34819-1.19604 7.45238-0.211507 6.38604 0.280762 5.14917 0.280762 3.96471 0.280762 2.96204-0.133771 2.14116-0.962837 1.32028-1.7919 0.842402-2.92343 0.70752-4.35742Z" fill="#FFFFFF" transform="translate(19.6333 35)"/></g></g></g><path d="M996.5 460C996.5 456.963 998.963 454.5 1002 454.5L1024 454.5C1027.04 454.5 1029.5 456.963 1029.5 460L1029.5 482C1029.5 485.038 1027.04 487.5 1024 487.5L1002 487.5C998.963 487.5 996.5 485.038 996.5 482Z" stroke="#16BFD0" stroke-linejoin="round" stroke-miterlimit="10" fill="#16BFD0" fill-rule="evenodd"/><text fill="#FFFFFF" font-family="Arial Narrow,Arial Narrow_MSFontService,sans-serif" font-weight="700" font-stretch="condensed" font-size="23" transform="translate(1007.63 479)">3</text><text fill="#111318" font-family="Arial Narrow,Arial Narrow_MSFontService,sans-serif" font-weight="700" font-stretch="condensed" font-size="27" transform="translate(1038.72 476)">TASK GENERATION &amp;</text><text fill="#111318" font-family="Arial Narrow,Arial Narrow_MSFontService,sans-serif" font-weight="700" font-stretch="condensed" font-size="27" transform="translate(1038.72 505)">TEMPLATE</text><text fill="#111318" font-family="Arial Narrow,Arial Narrow_MSFontService,sans-serif" font-weight="700" font-stretch="condensed" font-size="27" transform="translate(1038.72 534)">ORCHESTRATION</text><g clip-path="url(#clip102)"><g clip-path="url(#clip103)" filter="url(#fx31)" transform="translate(1037 550)"><g><path d="M6.5 10.9147C6.5 8.7056 8.067 6.91473 10 6.91473 11.933 6.91473 13.5 8.7056 13.5 10.9147 13.5 13.1239 11.933 14.9147 10 14.9147 8.067 14.9147 6.5 13.1239 6.5 10.9147Z" stroke="#16BFD0" stroke-linejoin="round" stroke-miterlimit="10" fill="#16BFD0" fill-rule="evenodd"/></g></g></g><path d="M1043.5 558.5C1043.5 556.291 1045.07 554.5 1047 554.5 1048.93 554.5 1050.5 556.291 1050.5 558.5 1050.5 560.709 1048.93 562.5 1047 562.5 1045.07 562.5 1043.5 560.709 1043.5 558.5Z" stroke="#16BFD0" stroke-linejoin="round" stroke-miterlimit="10" fill="#16BFD0" fill-rule="evenodd"/><text fill="#111318" font-family="Arial Narrow,Arial Narrow_MSFontService,sans-serif" font-weight="400" font-stretch="condensed" font-size="23" transform="translate(1058.88 566)">Caption Rewriting</text><g clip-path="url(#clip104)"><g clip-path="url(#clip105)" filter="url(#fx32)" transform="translate(1037 579)"><g><path d="M6.5 10.9147C6.5 8.7056 8.067 6.91473 10 6.91473 11.933 6.91473 13.5 8.7056 13.5 10.9147 13.5 13.1239 11.933 14.9147 10 14.9147 8.067 14.9147 6.5 13.1239 6.5 10.9147Z" stroke="#16BFD0" stroke-linejoin="round" stroke-miterlimit="10" fill="#16BFD0" fill-rule="evenodd"/></g></g></g><path d="M1043.5 587.5C1043.5 585.291 1045.07 583.5 1047 583.5 1048.93 583.5 1050.5 585.291 1050.5 587.5 1050.5 589.709 1048.93 591.5 1047 591.5 1045.07 591.5 1043.5 589.709 1043.5 587.5Z" stroke="#16BFD0" stroke-linejoin="round" stroke-miterlimit="10" fill="#16BFD0" fill-rule="evenodd"/><text fill="#111318" font-family="Arial Narrow,Arial Narrow_MSFontService,sans-serif" font-weight="400" font-stretch="condensed" font-size="23" transform="translate(1058.88 595)">OCR Tasks</text><g clip-path="url(#clip106)"><g clip-path="url(#clip107)" filter="url(#fx33)" transform="translate(1037 608)"><g><path d="M6.5 10.9147C6.5 8.7056 8.067 6.91473 10 6.91473 11.933 6.91473 13.5 8.7056 13.5 10.9147 13.5 13.1239 11.933 14.9147 10 14.9147 8.067 14.9147 6.5 13.1239 6.5 10.9147Z" stroke="#16BFD0" stroke-linejoin="round" stroke-miterlimit="10" fill="#16BFD0" fill-rule="evenodd"/></g></g></g><path d="M1043.5 616.5C1043.5 614.291 1045.07 612.5 1047 612.5 1048.93 612.5 1050.5 614.291 1050.5 616.5 1050.5 618.709 1048.93 620.5 1047 620.5 1045.07 620.5 1043.5 618.709 1043.5 616.5Z" stroke="#16BFD0" stroke-linejoin="round" stroke-miterlimit="10" fill="#16BFD0" fill-rule="evenodd"/><text fill="#111318" font-family="Arial Narrow,Arial Narrow_MSFontService,sans-serif" font-weight="400" font-stretch="condensed" font-size="23" transform="translate(1058.88 624)">Chart Reasoning</text><g clip-path="url(#clip108)"><g clip-path="url(#clip109)" filter="url(#fx34)" transform="translate(1037 637)"><g><path d="M6.5 10.4147C6.5 8.48174 8.067 6.91473 10 6.91473 11.933 6.91473 13.5 8.48174 13.5 10.4147 13.5 12.3477 11.933 13.9147 10 13.9147 8.067 13.9147 6.5 12.3477 6.5 10.4147Z" stroke="#16BFD0" stroke-linejoin="round" stroke-miterlimit="10" fill="#16BFD0" fill-rule="evenodd"/></g></g></g><path d="M1043.5 645C1043.5 643.067 1045.07 641.5 1047 641.5 1048.93 641.5 1050.5 643.067 1050.5 645 1050.5 646.933 1048.93 648.5 1047 648.5 1045.07 648.5 1043.5 646.933 1043.5 645Z" stroke="#16BFD0" stroke-linejoin="round" stroke-miterlimit="10" fill="#16BFD0" fill-rule="evenodd"/><text fill="#111318" font-family="Arial Narrow,Arial Narrow_MSFontService,sans-serif" font-weight="400" font-stretch="condensed" font-size="23" transform="translate(1058.88 653)">Multi</text><text fill="#111318" font-family="Arial Narrow,Arial Narrow_MSFontService,sans-serif" font-weight="400" font-stretch="condensed" font-size="23" transform="translate(1098.55 653)">-</text><text fill="#111318" font-family="Arial Narrow,Arial Narrow_MSFontService,sans-serif" font-weight="400" font-stretch="condensed" font-size="23" transform="translate(1104.88 653)">image Tasks</text><g clip-path="url(#clip110)"><g clip-path="url(#clip111)" filter="url(#fx35)" transform="translate(1037 666)"><g><path d="M6.5 10.4147C6.5 8.48174 8.067 6.91473 10 6.91473 11.933 6.91473 13.5 8.48174 13.5 10.4147 13.5 12.3477 11.933 13.9147 10 13.9147 8.067 13.9147 6.5 12.3477 6.5 10.4147Z" stroke="#16BFD0" stroke-linejoin="round" stroke-miterlimit="10" fill="#16BFD0" fill-rule="evenodd"/></g></g></g><path d="M1043.5 674C1043.5 672.067 1045.07 670.5 1047 670.5 1048.93 670.5 1050.5 672.067 1050.5 674 1050.5 675.933 1048.93 677.5 1047 677.5 1045.07 677.5 1043.5 675.933 1043.5 674Z" stroke="#16BFD0" stroke-linejoin="round" stroke-miterlimit="10" fill="#16BFD0" fill-rule="evenodd"/><text fill="#111318" font-family="Arial Narrow,Arial Narrow_MSFontService,sans-serif" font-weight="400" font-stretch="condensed" font-size="23" transform="translate(1058.88 681)">Conversation Templates</text><g clip-path="url(#clip112)"><g clip-path="url(#clip113)" filter="url(#fx36)" transform="translate(61 451)"><g><path d="M6.50005 12.4149C6.50005 9.37725 8.96254 6.91476 12.0002 6.91476L33.9999 6.91476C37.0376 6.91476 39.5001 9.37725 39.5001 12.4149L39.5001 34.4147C39.5001 37.4523 37.0376 39.9148 33.9999 39.9148L12.0002 39.9148C8.96254 39.9148 6.50005 37.4523 6.50005 34.4147Z" stroke="#FF9D1B" stroke-linejoin="round" stroke-miterlimit="10" fill="#FF9D1B" fill-rule="evenodd"/></g></g><g clip-path="url(#clip114)" filter="url(#fx37)" transform="translate(59 447)"><g><path d="M5.87354 0 5.87354-3.31299 0.348145-3.31299 0.348145-6.07568 6.19922-16.52 8.37793-16.52 8.37793-6.08691 10.0513-6.08691 10.0513-3.31299 8.37793-3.31299 8.37793 0ZM5.87354-6.08691 5.87354-11.7074 2.77393-6.08691Z" fill="#FFFFFF" transform="translate(19.3533 35)"/></g></g></g><path d="M67.5001 461C67.5001 457.963 69.9625 455.5 73.0002 455.5L94.9999 455.5C98.0376 455.5 100.5 457.963 100.5 461L100.5 483C100.5 486.038 98.0376 488.5 94.9999 488.5L73.0002 488.5C69.9625 488.5 67.5001 486.038 67.5001 483Z" stroke="#FF9D1B" stroke-linejoin="round" stroke-miterlimit="10" fill="#FF9D1B" fill-rule="evenodd"/><text fill="#FFFFFF" font-family="Arial Narrow,Arial Narrow_MSFontService,sans-serif" font-weight="700" font-stretch="condensed" font-size="23" transform="translate(78.3533 480)">4</text><text fill="#111318" font-family="Arial Narrow,Arial Narrow_MSFontService,sans-serif" font-weight="700" font-stretch="condensed" font-size="27" transform="translate(108.48 477)">QUALITY ASSURANCE,</text><text fill="#111318" font-family="Arial Narrow,Arial Narrow_MSFontService,sans-serif" font-weight="700" font-stretch="condensed" font-size="27" transform="translate(108.48 506)">FEEDBACK &amp; VERSIONING</text><g clip-path="url(#clip115)"><g clip-path="url(#clip116)" filter="url(#fx38)" transform="translate(102 524)"><g><path d="M6.50005 10.9147C6.50005 8.7056 8.29091 6.91473 10.5001 6.91473 12.7092 6.91473 14.5001 8.7056 14.5001 10.9147 14.5001 13.1239 12.7092 14.9147 10.5001 14.9147 8.29091 14.9147 6.50005 13.1239 6.50005 10.9147Z" stroke="#FF9D1B" stroke-linejoin="round" stroke-miterlimit="10" fill="#FF9D1B" fill-rule="evenodd"/></g></g></g><path d="M108.5 532.5C108.5 530.291 110.291 528.5 112.5 528.5 114.709 528.5 116.5 530.291 116.5 532.5 116.5 534.709 114.709 536.5 112.5 536.5 110.291 536.5 108.5 534.709 108.5 532.5Z" stroke="#FF9D1B" stroke-linejoin="round" stroke-miterlimit="10" fill="#FF9D1B" fill-rule="evenodd"/><text fill="#111318" font-family="Arial Narrow,Arial Narrow_MSFontService,sans-serif" font-weight="400" font-stretch="condensed" font-size="23" transform="translate(124.8 540)">Rule</text><text fill="#111318" font-family="Arial Narrow,Arial Narrow_MSFontService,sans-serif" font-weight="400" font-stretch="condensed" font-size="23" transform="translate(163.467 540)">-</text><text fill="#111318" font-family="Arial Narrow,Arial Narrow_MSFontService,sans-serif" font-weight="400" font-stretch="condensed" font-size="23" transform="translate(169.8 540)">based Validation</text><g clip-path="url(#clip117)"><g clip-path="url(#clip118)" filter="url(#fx39)" transform="translate(102 553)"><g><path d="M6.50005 10.9147C6.50005 8.7056 8.29091 6.91473 10.5001 6.91473 12.7092 6.91473 14.5001 8.7056 14.5001 10.9147 14.5001 13.1239 12.7092 14.9147 10.5001 14.9147 8.29091 14.9147 6.50005 13.1239 6.50005 10.9147Z" stroke="#FF9D1B" stroke-linejoin="round" stroke-miterlimit="10" fill="#FF9D1B" fill-rule="evenodd"/></g></g></g><path d="M108.5 561.5C108.5 559.291 110.291 557.5 112.5 557.5 114.709 557.5 116.5 559.291 116.5 561.5 116.5 563.709 114.709 565.5 112.5 565.5 110.291 565.5 108.5 563.709 108.5 561.5Z" stroke="#FF9D1B" stroke-linejoin="round" stroke-miterlimit="10" fill="#FF9D1B" fill-rule="evenodd"/><text fill="#111318" font-family="Arial Narrow,Arial Narrow_MSFontService,sans-serif" font-weight="400" font-stretch="condensed" font-size="23" transform="translate(124.8 569)">Human Inspection</text><g clip-path="url(#clip119)"><g clip-path="url(#clip120)" filter="url(#fx40)" transform="translate(102 582)"><g><path d="M6.50005 10.9147C6.50005 8.7056 8.29091 6.91473 10.5001 6.91473 12.7092 6.91473 14.5001 8.7056 14.5001 10.9147 14.5001 13.1239 12.7092 14.9147 10.5001 14.9147 8.29091 14.9147 6.50005 13.1239 6.50005 10.9147Z" stroke="#FF9D1B" stroke-linejoin="round" stroke-miterlimit="10" fill="#FF9D1B" fill-rule="evenodd"/></g></g></g><path d="M108.5 590.5C108.5 588.291 110.291 586.5 112.5 586.5 114.709 586.5 116.5 588.291 116.5 590.5 116.5 592.709 114.709 594.5 112.5 594.5 110.291 594.5 108.5 592.709 108.5 590.5Z" stroke="#FF9D1B" stroke-linejoin="round" stroke-miterlimit="10" fill="#FF9D1B" fill-rule="evenodd"/><text fill="#111318" font-family="Arial Narrow,Arial Narrow_MSFontService,sans-serif" font-weight="400" font-stretch="condensed" font-size="23" transform="translate(124.8 598)">Visualization Checks</text><g clip-path="url(#clip121)"><g clip-path="url(#clip122)" filter="url(#fx41)" transform="translate(102 611)"><g><path d="M6.50005 10.9147C6.50005 8.7056 8.29091 6.91473 10.5001 6.91473 12.7092 6.91473 14.5001 8.7056 14.5001 10.9147 14.5001 13.1239 12.7092 14.9147 10.5001 14.9147 8.29091 14.9147 6.50005 13.1239 6.50005 10.9147Z" stroke="#FF9D1B" stroke-linejoin="round" stroke-miterlimit="10" fill="#FF9D1B" fill-rule="evenodd"/></g></g></g><path d="M108.5 619.5C108.5 617.291 110.291 615.5 112.5 615.5 114.709 615.5 116.5 617.291 116.5 619.5 116.5 621.709 114.709 623.5 112.5 623.5 110.291 623.5 108.5 621.709 108.5 619.5Z" stroke="#FF9D1B" stroke-linejoin="round" stroke-miterlimit="10" fill="#FF9D1B" fill-rule="evenodd"/><text fill="#111318" font-family="Arial Narrow,Arial Narrow_MSFontService,sans-serif" font-weight="400" font-stretch="condensed" font-size="23" transform="translate(124.8 627)">Error Attribution</text><g clip-path="url(#clip123)"><g clip-path="url(#clip124)" filter="url(#fx42)" transform="translate(102 640)"><g><path d="M6.50005 10.4147C6.50005 8.48174 8.29091 6.91473 10.5001 6.91473 12.7092 6.91473 14.5001 8.48174 14.5001 10.4147 14.5001 12.3477 12.7092 13.9147 10.5001 13.9147 8.29091 13.9147 6.50005 12.3477 6.50005 10.4147Z" stroke="#FF9D1B" stroke-linejoin="round" stroke-miterlimit="10" fill="#FF9D1B" fill-rule="evenodd"/></g></g></g><path d="M108.5 648C108.5 646.067 110.291 644.5 112.5 644.5 114.709 644.5 116.5 646.067 116.5 648 116.5 649.933 114.709 651.5 112.5 651.5 110.291 651.5 108.5 649.933 108.5 648Z" stroke="#FF9D1B" stroke-linejoin="round" stroke-miterlimit="10" fill="#FF9D1B" fill-rule="evenodd"/><text fill="#111318" font-family="Arial Narrow,Arial Narrow_MSFontService,sans-serif" font-weight="400" font-stretch="condensed" font-size="23" transform="translate(124.8 655)">Low</text><text fill="#111318" font-family="Arial Narrow,Arial Narrow_MSFontService,sans-serif" font-weight="400" font-stretch="condensed" font-size="23" transform="translate(159.3 655)">-</text><text fill="#111318" font-family="Arial Narrow,Arial Narrow_MSFontService,sans-serif" font-weight="400" font-stretch="condensed" font-size="23" transform="translate(165.633 655)">quality Filtering</text><g clip-path="url(#clip125)"><g clip-path="url(#clip126)" filter="url(#fx43)" transform="translate(102 668)"><g><path d="M6.50005 10.9147C6.50005 8.7056 8.29091 6.91473 10.5001 6.91473 12.7092 6.91473 14.5001 8.7056 14.5001 10.9147 14.5001 13.1239 12.7092 14.9147 10.5001 14.9147 8.29091 14.9147 6.50005 13.1239 6.50005 10.9147Z" stroke="#FF9D1B" stroke-linejoin="round" stroke-miterlimit="10" fill="#FF9D1B" fill-rule="evenodd"/></g></g></g><path d="M108.5 676.5C108.5 674.291 110.291 672.5 112.5 672.5 114.709 672.5 116.5 674.291 116.5 676.5 116.5 678.709 114.709 680.5 112.5 680.5 110.291 680.5 108.5 678.709 108.5 676.5Z" stroke="#FF9D1B" stroke-linejoin="round" stroke-miterlimit="10" fill="#FF9D1B" fill-rule="evenodd"/><text fill="#111318" font-family="Arial Narrow,Arial Narrow_MSFontService,sans-serif" font-weight="400" font-stretch="condensed" font-size="23" transform="translate(124.8 684)">Feedback Loop</text></g></svg>