<?xml version="1.0" encoding="UTF-8"?>
<svg id="_图层_1" data-name="图层_1" xmlns="http://www.w3.org/2000/svg" version="1.1" viewBox="0 0 900 491">
  <!-- Generator: Adobe Illustrator 29.6.0, SVG Export Plug-In . SVG Version: 2.1.1 Build 207)  -->
  <defs>
    <style>
      .st0 {
        fill: #f6ebdd;
      }

      .st1 {
        fill: #e29444;
      }

      .st2 {
        fill: #7e9875;
      }

      .st3 {
        fill: #313132;
      }

      .st4 {
        fill: #fae19e;
      }

      .st5 {
        fill: #f2f5f9;
      }

      .st6 {
        fill: #050304;
      }

      .st7 {
        fill: #434549;
      }

      .st8 {
        fill: #2a2a2a;
      }

      .st9 {
        fill: #7070dd;
      }

      .st10 {
        fill: #2d2d2d;
      }

      .st11 {
        fill: #fff;
      }

      .st12 {
        fill: #67b18b;
      }

      .st13 {
        font-family: TimesNewRomanPSMT, 'Times New Roman';
      }

      .st13, .st14, .st15, .st16, .st17 {
        isolation: isolate;
      }

      .st13, .st16 {
        font-size: 15px;
      }

      .st18 {
        fill: #f3b670;
      }

      .st19 {
        fill: #e7ebef;
      }

      .st20 {
        fill: #7eafe3;
      }

      .st21 {
        fill: #e5e9ee;
      }

      .st22 {
        fill: #cad0d5;
      }

      .st23 {
        fill: #d2d3d4;
      }

      .st24 {
        fill: #9fc9ed;
      }

      .st25 {
        fill: #2c2c2d;
      }

      .st26 {
        fill: #4a505c;
      }

      .st27 {
        fill: #3f4144;
      }

      .st28 {
        fill: #babfc1;
      }

      .st29 {
        fill: #dee0e3;
      }

      .st30 {
        fill: #818eb7;
      }

      .st31 {
        fill: #3f3d3d;
      }

      .st32 {
        fill: #5aab78;
      }

      .st15 {
        font-size: 17px;
      }

      .st15, .st16, .st17 {
        font-family: TimesNewRomanPS-BoldMT, 'Times New Roman';
        font-weight: 700;
      }

      .st33 {
        fill: #6485b0;
      }

      .st34 {
        fill: #efbf83;
      }

      .st35 {
        fill: #4d576a;
      }

      .st36 {
        fill: #5da578;
      }

      .st37 {
        fill: #85bd8f;
      }

      .st38 {
        fill: #c59cce;
      }

      .st39 {
        fill: #e3e7ec;
      }

      .st40 {
        fill: #fefefe;
      }

      .st41 {
        fill: #74a5e0;
      }

      .st17 {
        font-size: 21px;
      }

      .st42 {
        fill: #242424;
      }

      .st43 {
        fill: #d4514b;
      }

      .st44 {
        fill: #5dab78;
      }

      .st45 {
        fill: #f5f3eb;
      }
    </style>
  </defs>
  <g id="_x23_f2f5f9ff">
    <path class="st5" d="M0,0h900v491H0V0M85.29,74.36c-2.53,1.09-4.29,3.82-4.13,6.59.08,19.34.09,38.68.04,58.02-.41,3.85,2.87,7.2,6.73,6.76,51.04-.03,102.09-.07,153.12-.02,3.78.38,7.05-2.84,6.64-6.63.08-18.37-.12-36.74.08-55.11-.09-2.77.2-5.92-1.71-8.19-1.58-2.23-4.69-1.66-7.06-1.91-47.99.08-95.99.03-143.98.05-3.24.02-6.55-.3-9.73.44M56.36,75.37c-1.51,1.07-1.2,3.05-1.26,4.64.12,22.65-.05,45.31.14,67.95.23,2.81,3.71,2.45,5.74,2.48,1.94-.33,4.85.9,5.79-1.56-3.13-.22-6.3.16-9.42-.31-.99-1.28-.32-3.11-.52-4.6.08-22.45,0-44.9.02-67.34,3.31-.46,7.35,1.11,10.08-1.35-3.51-.14-7.08-.48-10.57.09M262.69,104.06c4.24,1.99,8.42,4.1,12.65,6.14-.37-1.76-.72-3.51-1.09-5.27,82.26.01,164.52.01,246.78.01,104.19.11,208.38-.2,312.56.14.02,31.76.07,63.52.07,95.28l1.84.1c-.05-16.82,0-33.63-.05-50.45-.1-15.59.47-31.21-.21-46.78-186.97-.14-373.95.05-560.93-.11.35-1.79.7-3.58,1.04-5.37-4.26,2.03-8.49,4.1-12.66,6.31M505.44,118.57c-1.42,2.3,2.01,4.66,3.44,2.23.85-2.32-1.68-4.16-3.44-2.23M506.24,131.24c-1.7,1.09-1.3,3.7.7,4.16,2.09-.02,1.9-2.21,2.39-3.65-1.03-.22-2.05-.39-3.09-.51M506.61,144.76c-2.38.52-1.41,4.59.98,3.9,2.4-.45,1.42-4.82-.98-3.9M153.61,146.49c.33,9.6.12,19.22.23,28.83-3.38.02-6.76.11-10.14.14,6.54,8.72,13.99,16.71,20.58,25.41-5.41.39-10.84.43-16.26.31-19.03-.14-38.06.16-57.09-.08-2.68.08-5.9-.33-7.75,2.06-2.06,1.65-2.14,4.39-2.15,6.81.29,30.99-.04,61.99.1,92.99-.39,3.24,1.76,6,4.5,7.43,3.4.71,6.91.24,10.36.3,48.36-.04,96.73,0,145.09-.01,3.55.23,6.81-3.23,6.56-6.74.14-29.31,0-58.63.04-87.94-.05-3.49.34-7.03-.27-10.49-1.21-2.38-3.54-4.55-6.39-4.34-25.47-.27-50.96.43-76.42-.32,6.85-8.67,14.02-17.09,21.18-25.52-3.6.07-7.2.09-10.8.09.02-9.64-.07-19.29.32-28.93-7.23-.04-14.46-.02-21.69,0M505.55,193.85c-2.85,3.38-1.97,8.07-2.06,12.14.17,21.34-.18,42.68.13,64.02.67.65,1.35,1.31,2.03,1.98-.56.7-1.12,1.41-1.68,2.12-5.28-3.8-9.98-8.34-15.14-12.3-.06,3.33-.12,6.66-.13,9.99-5.79.72-11.62.67-17.44.53-2.4-.83-4.95-.96-7.46-.94-.31-21.14.01-42.28-.15-63.42-.02-2.7-1.83-5.14-4.11-6.44-4.12-.72-8.35-.25-12.51-.34-45.67-.04-91.34.09-137.01-.06-3.71.15-8.76-1.04-11,2.83-1.77,3.72-.95,8.03-1.07,12.02.09,33.33-.06,66.66.1,99.98-.35,3.84,2.87,7.94,6.87,7.73,50.36,0,100.72-.02,151.08-.02,3.77.29,7.54-2.78,7.61-6.63.38-8.12-.41-16.28.52-24.38,8.19-.03,16.43-.48,24.57.62.03,3.28.05,6.56.08,9.85,4.54-3.79,8.97-7.7,13.59-11.4.37,4.75.39,9.51.3,14.28-.05,28.32.29,56.64.29,84.96-.28,4.73,1.93,9.5,5.85,12.2,2.69,1.77,6.05,1.75,9.16,1.83,51.68-.06,103.37-.08,155.05-.01,4.39.14,8.59-2.27,11.13-5.78,1.74-2.38,1.23-5.46,1.24-8.21-.43-7.36.84-14.69.74-22.04-.25-22.66.45-45.32.14-67.98-.04-2.9.25-5.79.51-8.68,5.09.72,9.97,2.74,14.22,5.62,10.49,7.12,15.03,19.59,23.48,28.61,9.09,10.2,22.44,16,36.02,16.46-.01,3.23,0,6.46.07,9.69,7.08-5.31,14.11-10.69,21.18-16.02-7.09-5.25-13.97-10.8-21.25-15.8-.03,3.27-.03,6.53-.03,9.8-6.74-.54-13.54-2.13-19.31-5.78-9.99-6.52-15.17-17.63-22.23-26.82-4.25-5.68-10.33-9.47-16.38-12.97,3.34-2.17,6.81-4.19,9.91-6.71,9.52-7.52,14.69-19.21,24.54-26.4,6.74-5.17,15.27-7.43,23.64-7.95-.02,3.31-.04,6.62-.06,9.93,7.07-5.35,13.97-10.93,21.21-16.04-6.98-5.36-13.99-10.69-21.22-15.71-.03,3.18-.02,6.36.02,9.55-12.68.91-25.5,5.15-34.95,13.9-8.17,6.92-12.91,16.95-21.11,23.83-5.52,4.31-12.21,7.92-19.31,8.29.55-21.92.11-43.85.3-65.78-.17-4.96.36-9.98-.4-14.91-1.3-4.79-6.41-7.63-11.17-7.55h-158.85c-3.61.02-7.37,1.3-9.55,4.31M57,200.95c-1.72.6-1.95,2.46-1.85,4.03.03,85.42-.15,170.84,0,256.27,39.27.29,78.55.07,117.83.13,218.66.01,437.32-.04,655.99-.01,2.61-.06,5.28.21,7.87-.33.18-1.37.28-2.73.29-4.1,0-26.01-.1-52.03.04-78.04,1.3.17,2.62.36,3.95.56-1.42-3.5-3.25-6.8-4.83-10.22-1.61,3.35-3.2,6.71-4.74,10.1.93-.11,2.8-.34,3.73-.46.09,26.9-.03,53.81.04,80.71-29.1-.26-58.21-.03-87.32-.11-230.4.07-460.81-.11-691.21.09.11-85.69.02-171.37.05-257.06,3.36-.66,7.47.97,10.21-1.61-3.32-.33-6.77-.7-10.06.05M694.24,202.34c-4.63,1.64-6.48,7.98-3.37,11.81,3.25,4.73,11.54,3.55,13.32-1.93,2.5-5.8-4.12-12.5-9.95-9.88M273.04,261.42c0,3.44.03,6.88.04,10.33-8.22.15-16.43-.11-24.65-.21.06,7.3-.06,14.61.07,21.91,8.16-.16,16.33-.23,24.49-.06.07,3.3.08,6.6.07,9.9,8.14-6.97,16.32-13.88,24.35-20.96-8.09-7.01-16.24-13.96-24.37-20.91M95.59,325.57c-2.32.37-2.03,4.41.5,3.82,2.52-.1,1.79-3.96-.5-3.82M303.42,340.5c-.13.69-.41,2.07-.54,2.76.93.21,1.88.37,2.84.48,1.36-.84.61-2.34.41-3.56-.68.08-2.03.24-2.71.32M93.69,343.85c.43.48,1.28,1.45,1.71,1.93,2.29.01,2.37-2.56,1.85-4.18-1.35.48-3.25.47-3.56,2.25M694.45,348.5c-2.31.99-4.08,3.1-4.78,5.5-1.31,4.83,3.25,10.32,8.3,9.54,5.2-.42,8.66-6.96,5.84-11.42-1.68-3.33-5.88-4.94-9.36-3.62M304.61,356.71c-2.92.1-1.5,4.51.8,3.58,2.21-.51,1.36-4.2-.8-3.58M94.42,358.45c-1.26,1.43.46,4.42,2.21,2.97,2.45-1.25-.02-4.68-2.21-2.97M303.58,373.45c-2.07,1.66,1,4.98,2.58,2.68,1.73-1.58-.82-3.81-2.58-2.68M94.68,374.62c-1.78.9.01,4.31,1.91,3.02,2.41-.63.11-5.2-1.91-3.02M95.48,389.94c-.74,1.12-2.4,2.25-1.08,3.63,1.1,1.35,3.71.44,3.13-1.37.09-1.19-1.41-1.52-2.05-2.26M303.4,390.33c-.96,1.62.23,3.52,2.11,3.07,2.82-1.04-.08-5.54-2.11-3.07M268.4,422.21c.02,8.16.02,16.32,0,24.48,120.25.11,240.5-.06,360.75.1.78-8.2.58-16.49.13-24.7-108.75-.07-217.51.09-326.27-.02-11.53.4-23.07-.52-34.6.14Z"/>
    <path class="st5" d="M695.69,211.24c1.72-2.17,3.63-4.2,5.84-5.89-.55,3.64-3.74,5.85-5.98,8.46-1.2-1.24-2.41-2.45-3.65-3.63.38-.21,1.14-.61,1.52-.82.75.63,1.51,1.25,2.27,1.88Z"/>
    <path class="st5" d="M693.2,352.07c1.26.89,2.59,1.8,4.12,2.16,1.28-.58,2.44-1.38,3.65-2.1-.93,1.27-1.84,2.54-2.73,3.83,1.11,1.26,2.21,2.54,3.31,3.83-1.53-.89-3.08-1.74-4.62-2.57-1.08.93-2.17,1.85-3.28,2.72.23-1.57,1.19-2.84,2.11-4.08-.86-1.27-1.69-2.54-2.56-3.79Z"/>
  </g>
  <g id="_x23_ffffffff">
    <path class="st11" d="M85.29,74.36c3.18-.74,6.49-.42,9.73-.44,47.99-.02,95.99.03,143.98-.05,2.37.25,5.48-.32,7.06,1.91,1.91,2.27,1.62,5.42,1.71,8.19-.2,18.37,0,36.74-.08,55.11.41,3.79-2.86,7.01-6.64,6.63-51.03-.05-102.08-.01-153.12.02-3.86.44-7.14-2.91-6.73-6.76.05-19.34.04-38.68-.04-58.02-.16-2.77,1.6-5.5,4.13-6.59M86.76,91.98c-.02,8-.03,16.01-.03,24.01-.26,2.54,1.38,5.52,4.18,5.52,7.1.18,14.2.03,21.3.09.91,1.6,1.63,4,3.83,4.14,3.92.27,7.85.04,11.77.07,2.35,2.22,4.8,4.33,7.32,6.34.08-2.02.13-4.04.19-6.06,2.05-.25,5.04-.57,5.4-3.13.2-5.29.21-10.62-.03-15.91-1.06-3.99-5.91-2.74-8.95-2.89-.07-4.09.15-8.18-.02-12.26.09-2.45-2.33-4.56-4.74-4.27-11.65.04-23.3.01-34.95-.03-2.6-.32-5.35,1.61-5.27,4.38Z"/>
    <path class="st11" d="M83.18,203.16c1.85-2.39,5.07-1.98,7.75-2.06,19.03.24,38.06-.06,57.09.08,5.42.12,10.85.08,16.26-.31l.32-.02c25.46.75,50.95.05,76.42.32,2.85-.21,5.18,1.96,6.39,4.34.61,3.46.22,7,.27,10.49-.05,29.31.1,58.63-.04,87.94.25,3.51-3.01,6.97-6.56,6.74-48.36.01-96.73-.03-145.09.01-3.45-.06-6.96.41-10.36-.3-2.74-1.43-4.89-4.19-4.5-7.43-.14-31,.19-62-.1-92.99.01-2.42.09-5.16,2.15-6.81M175.33,215.04c-3.77,1.54-7.81,1.46-11.8,1.61-3.78,1.21-2.59,6.04-2.67,9.06-1.41-1.66-2.99-3.16-4.73-4.47-1.05.71-2.1,1.43-3.14,2.16-1.02-.41-2.04-.82-3.06-1.23-.58-1.29-.24-3.42-1.9-3.95-2.07-.36-4.17,0-6.21.33-.15,1.21-.29,2.43-.43,3.64-1.11.43-2.23.85-3.34,1.28-1.06-.74-2.12-1.46-3.19-2.17-1.74,1.4-3.77,2.71-4.63,4.87.49,1.15,1.14,2.22,1.74,3.32-.36.94-.72,1.88-1.08,2.83-1.3.58-3.14.39-4.01,1.66-.25,1.69-.22,3.41-.06,5.11.52,1.78,2.76,1.45,4.14,1.97.39.9.77,1.8,1.16,2.7-.52,1.28-1.92,2.44-1.77,3.88,1.06,1.61,2.48,2.98,4.04,4.12,1.42.12,2.55-1.13,3.82-1.64.98.47,1.97.94,2.96,1.42.42,1.31.85,2.62,1.31,3.92,1.93.02,3.87.16,5.79-.13,1.12-1.01,1.19-2.65,1.72-3.97.97-.42,1.94-.83,2.91-1.23,1.25.5,2.35,1.81,3.76,1.66,1.56-1.15,2.85-2.58,4.2-3.95-.07,4.06-.18,8.12,0,12.18-.03,2.13,2.01,3.87,4.11,3.64,9.67.08,19.34.04,29.01-.03,2.04.18,4.03-1.45,3.91-3.58.63-10.68-.36-21.39.16-32.08-.05-3.22.38-6.55-.52-9.67-1.35-2.39-4.33-1.71-6.58-1.81-2.59.21-5.01-.76-7.44-1.46-1.2-1.32-2.45-3.29-4.55-2.89-1.76.04-2.58,1.79-3.63,2.9Z"/>
    <path class="st11" d="M299.02,203.96c2.24-3.87,7.29-2.68,11-2.83,45.67.15,91.34.02,137.01.06,4.16.09,8.39-.38,12.51.34,2.28,1.3,4.09,3.74,4.11,6.44.16,21.14-.16,42.28.15,63.42,2.51-.02,5.06.11,7.46.94-2.31,0-4.62.02-6.93.04.05,6.76.34,13.54-.2,20.29-.93,8.1-.14,16.26-.52,24.38-.07,3.85-3.84,6.92-7.61,6.63-50.36,0-100.72.02-151.08.02-4,.21-7.22-3.89-6.87-7.73-.16-33.32,0-66.65-.1-99.98.12-3.99-.7-8.3,1.07-12.02M340.29,221.97c-.08,9.69-.07,19.39-.02,29.08-.27,1.55,1.17,2.84,2.67,2.71,4.1.13,8.2,0,12.29,0-.04,1.88-.06,3.78-.09,5.67,6.26-.04,12.53.11,18.79-.03-.37,1.1-.72,2.2-1.06,3.31,1.48-1.18,2.96-2.4,4.23-3.81-1.27-1.57-2.8-2.91-4.45-4.05.59,1.22,1.26,2.4,2,3.54-6.12-.22-12.24-.1-18.36-.07,0-1.51.02-3.02.03-4.53,4.42-.09,8.86.27,13.26-.16,1.72-.87,1.13-3.04,1.31-4.59-.19-9.32.21-18.64-.16-27.95.05-1.41-1.45-2.46-2.76-2.32-8.02-.01-16.05-.04-24.08-.03-1.91-.39-3.98,1.19-3.6,3.23M379.18,222.03c.17,13.04-.38,26.1.1,39.12.18.4.55,1.19.74,1.59,9.26,1.06,18.66.18,27.98.49,2.86-.24,6.44.95,8.49-1.7-.16-13.96.17-27.92-.18-41.88-1.73-.44-3.47-.96-5.26-.89-9.69.07-19.38-.1-29.07.05-1.81-.1-3.21,1.41-2.8,3.22Z"/>
    <path class="st11" d="M513.35,209.94c-.33-4.33,2.76-9.34,7.61-8.68,49.37.17,98.76-.05,148.13.08,4.15-.25,7.66,3.47,7.4,7.58.17,22.82-.2,45.65.17,68.46.06,4.68.05,9.37.04,14.05l-.03,1.01c-.29,7.55.09,15.11-.09,22.66.02,4.48-3.84,9.09-8.56,8.64-48.33-.06-96.66-.05-144.99,0-2.64-.08-5.71-.06-7.59-2.23-2.31-2.18-2.1-5.6-2.18-8.5.17-10,.06-20,0-30.01l-.02-1.03c.17-24.01.1-48.02.11-72.03M576.91,212.33c.1,2.01-.57,4.56,1.6,5.72.02.24.05.72.07.95-3.44-.28-7-.5-10.32.6.1,13.93-.3,27.88.18,41.79.38.18,1.15.55,1.54.73,13.36.21,26.74.17,40.1.03,2.97-1.87.96-6.35,1.48-9.3.57.41,1.72,1.21,2.3,1.62,1.33.06,2.67.11,4.02.18.07-1.5.15-3,.23-4.5-.43-.29-1.3-.86-1.73-1.15-.21-10.29.03-20.6-.09-30.9.48-.29,1.44-.85,1.91-1.13-.1-1.55-.21-3.09-.31-4.63-1.49-.02-2.98-.04-4.46-.05-.29.5-.86,1.5-1.14,2-9.84-.13-19.68-.08-29.52-.03-.3-.5-.91-1.49-1.21-1.99-1.56.02-3.11.04-4.65.06Z"/>
    <path class="st11" d="M140.37,231.31c2.52-2.73,6.68-2.55,9.78-.96,1.82,2.09,3.32,4.71,2.76,7.6-.37,4.85-6.28,7.9-10.51,5.55-4.65-1.97-5.8-8.82-2.03-12.19Z"/>
  </g>
  <g id="_x23_050304ff">
    <path class="st6" d="M56.36,75.37c3.49-.57,7.06-.23,10.57-.09-2.73,2.46-6.77.89-10.08,1.35-.02,22.44.06,44.89-.02,67.34.2,1.49-.47,3.32.52,4.6,3.12.47,6.29.09,9.42.31-.94,2.46-3.85,1.23-5.79,1.56-2.03-.03-5.51.33-5.74-2.48-.19-22.64-.02-45.3-.14-67.95.06-1.59-.25-3.57,1.26-4.64Z"/>
    <path class="st6" d="M86.76,91.98c-.08-2.77,2.67-4.7,5.27-4.38,11.65.04,23.3.07,34.95.03,2.41-.29,4.83,1.82,4.74,4.27.17,4.08-.05,8.17.02,12.26,3.04.15,7.89-1.1,8.95,2.89.24,5.29.23,10.62.03,15.91-.36,2.56-3.35,2.88-5.4,3.13-.06,2.02-.11,4.04-.19,6.06-2.52-2.01-4.97-4.12-7.32-6.34-3.92-.03-7.85.2-11.77-.07-2.2-.14-2.92-2.54-3.83-4.14-7.1-.06-14.2.09-21.3-.09-2.8,0-4.44-2.98-4.18-5.52,0-8,0-16.01.03-24.01M88.33,89.39c-.08,1.76-.25,3.53-.47,5.28,14.36.02,28.71.06,43.06-.02-.5-2.03.02-5.39-2.79-5.76-10.03-.41-20.09-.02-30.12-.19-3.25-.13-6.49.1-9.68.69M87.83,95.81c-.01,6.76-.04,13.51.07,20.27-.07,1.78.76,4.33,2.95,4.21,7.25.25,14.52-.02,21.78.08-.02-1.56,0-3.11.01-4.67-3.6.04-7.2.03-10.8.04v-1.16c3.62,0,7.23,0,10.84,0-.01-1.12-.02-2.23-.03-3.34-3.6,0-7.2.01-10.79.04l-.16-1.16c3.55.05,7.1.04,10.65.08.45-1.57.86-3.15,1.18-4.75-3.81.14-7.62.09-11.44.14-.04-.33-.13-.99-.18-1.32,9.55.14,19.1-.2,28.65-.07,0-2.83-.02-5.65,0-8.48-14.24.22-28.48,0-42.72.08M114.56,105.5c-1.23,4.06-.78,8.32-.81,12.5.1,2.14-.3,4.54,1.14,6.35,4.32.89,8.78.35,13.17.44,2.05,1.73,4.09,3.45,6.1,5.22.02-1.64.04-3.29.07-4.93,1.73-.5,4.87.17,5.19-2.19.41-5.22.39-10.53-.02-15.75-.27-.38-.81-1.13-1.08-1.51-7.86-.74-15.85-.26-23.76-.13Z"/>
    <path class="st6" d="M262.69,104.06c4.17-2.21,8.4-4.28,12.66-6.31-.34,1.79-.69,3.58-1.04,5.37,186.98.16,373.96-.03,560.93.11.68,15.57.11,31.19.21,46.78.05,16.82,0,33.63.05,50.45l-1.84-.1c0-31.76-.05-63.52-.07-95.28-104.18-.34-208.37-.03-312.56-.14-82.26,0-164.52,0-246.78-.01.37,1.76.72,3.51,1.09,5.27-4.23-2.04-8.41-4.15-12.65-6.14Z"/>
    <path class="st6" d="M91.38,98.85c2.48-.04,4.96-.03,7.44-.05.01,2.55.03,5.1.04,7.65-2.48.02-4.97.03-7.45.02-.04-2.54-.04-5.08-.03-7.62M92.48,99.75c0,1.89,0,3.77,0,5.66,1.78-.02,3.55-.05,5.33-.07-.01-1.85-.01-3.7-.01-5.56-1.78,0-3.55-.01-5.33-.03Z"/>
    <path class="st6" d="M91.35,109.15c2.51-.01,5.03,0,7.54-.01-.03,2.5-.05,5-.05,7.5-2.49-.01-4.98.01-7.47.02-.01-2.5-.01-5-.02-7.51M92.54,110.21c-.03,1.78-.05,3.57-.07,5.37,1.76.04,3.53.07,5.29.11,0-1.83,0-3.65,0-5.47-1.74,0-3.49-.01-5.23-.01Z"/>
    <path class="st6" d="M117.09,110.43c6.51-.34,13.07-.48,19.57.06-3.95,1.76-8.45.51-12.63.92-2.26-.26-5.09.56-6.94-.98Z"/>
    <path class="st6" d="M116.99,119.5c4.36-1.44,9.47-1.36,13.85-.05-4.6.48-9.25.46-13.85.05Z"/>
    <path class="st6" d="M505.44,118.57c1.76-1.93,4.29-.09,3.44,2.23-1.43,2.43-4.86.07-3.44-2.23Z"/>
    <path class="st6" d="M506.24,131.24c1.04.12,2.06.29,3.09.51-.49,1.44-.3,3.63-2.39,3.65-2-.46-2.4-3.07-.7-4.16Z"/>
    <path class="st6" d="M506.61,144.76c2.4-.92,3.38,3.45.98,3.9-2.39.69-3.36-3.38-.98-3.9Z"/>
    <path class="st6" d="M57,200.95c3.29-.75,6.74-.38,10.06-.05-2.74,2.58-6.85.95-10.21,1.61-.03,85.69.06,171.37-.05,257.06,230.4-.2,460.81-.02,691.21-.09,29.11.08,58.22-.15,87.32.11-.07-26.9.05-53.81-.04-80.71-.93.12-2.8.35-3.73.46,1.54-3.39,3.13-6.75,4.74-10.1,1.58,3.42,3.41,6.72,4.83,10.22-1.33-.2-2.65-.39-3.95-.56-.14,26.01-.04,52.03-.04,78.04-.01,1.37-.11,2.73-.29,4.1-2.59.54-5.26.27-7.87.33-218.67-.03-437.33.02-655.99.01-39.28-.06-78.56.16-117.83-.13-.16-85.43.02-170.85,0-256.27-.1-1.57.13-3.43,1.85-4.03Z"/>
    <path class="st6" d="M175.33,215.04c1.05-1.11,1.87-2.86,3.63-2.9,2.1-.4,3.35,1.57,4.55,2.89,2.43.7,4.85,1.67,7.44,1.46,2.25.1,5.23-.58,6.58,1.81.9,3.12.47,6.45.52,9.67-.52,10.69.47,21.4-.16,32.08.12,2.13-1.87,3.76-3.91,3.58-9.67.07-19.34.11-29.01.03-2.1.23-4.14-1.51-4.11-3.64-.18-4.06-.07-8.12,0-12.18-1.35,1.37-2.64,2.8-4.2,3.95-1.41.15-2.51-1.16-3.76-1.66-.97.4-1.94.81-2.91,1.23-.53,1.32-.6,2.96-1.72,3.97-1.92.29-3.86.15-5.79.13-.46-1.3-.89-2.61-1.31-3.92-.99-.48-1.98-.95-2.96-1.42-1.27.51-2.4,1.76-3.82,1.64-1.56-1.14-2.98-2.51-4.04-4.12-.15-1.44,1.25-2.6,1.77-3.88-.39-.9-.77-1.8-1.16-2.7-1.38-.52-3.62-.19-4.14-1.97-.16-1.7-.19-3.42.06-5.11.87-1.27,2.71-1.08,4.01-1.66.36-.95.72-1.89,1.08-2.83-.6-1.1-1.25-2.17-1.74-3.32.86-2.16,2.89-3.47,4.63-4.87,1.07.71,2.13,1.43,3.19,2.17,1.11-.43,2.23-.85,3.34-1.28.14-1.21.28-2.43.43-3.64,2.04-.33,4.14-.69,6.21-.33,1.66.53,1.32,2.66,1.9,3.95,1.02.41,2.04.82,3.06,1.23,1.04-.73,2.09-1.45,3.14-2.16,1.74,1.31,3.32,2.81,4.73,4.47.08-3.02-1.11-7.85,2.67-9.06,3.99-.15,8.03-.07,11.8-1.61M177.96,213.78c-.43.95-.85,1.91-1.27,2.86-1.33.03-2.65.06-3.97.1-.04,1.56-.08,3.12-.12,4.69,4.57-.09,9.14-.13,13.72-.07-.04-1.55-.07-3.09-.1-4.64-1.34-.03-2.67-.06-4.01-.08-.43-.94-.85-1.87-1.28-2.8-.74,0-2.23-.04-2.97-.06M162.43,218.38c-.18,13.86-.15,27.73-.04,41.58-.34,1.54,1.31,2.31,2.61,2.26,5.32.2,10.65-.13,15.97,0,5.19-.06,10.44.6,15.57-.52.09-14.42.29-28.85-.08-43.27-2.98-.4-5.97-.66-8.98-.72l.05,1.92c2.41.07,4.82.11,7.23.13-.11,13.52.1,27.03-.03,40.55-10.17.17-20.34.22-30.51,0-.04-13.51,0-27.01-.04-40.51,2.66-.06,5.33-.09,7.99-.33-2.18-3.27-6.57-1.23-9.74-1.09M143.11,219.6c-.08.87-.24,2.61-.32,3.48-1.54.63-3.06,1.36-4.68,1.75-1.16-.53-2.25-1.19-3.36-1.79-1.02,1.01-2.04,2.03-3.06,3.04.65.98,1.3,1.96,1.96,2.94-.6,1.55-1.19,3.11-1.76,4.68-1.22.23-2.45.46-3.67.7.02,1.45.03,2.91.06,4.37,1.82.66,4.29.96,4.72,3.28,1.26,1.9-.78,3.7-.73,5.62.78,1.05,1.68,2.02,2.55,3.01,1.06-.74,2.13-1.47,3.2-2.19,1.49.68,3,1.37,4.5,2.06.26,1.21.53,2.42.8,3.63,1.48-.03,2.97-.08,4.46-.11.24-1.2.48-2.4.72-3.59,1.52-.64,3.04-1.27,4.56-1.9,1.07.66,2.14,1.33,3.22,2,1.11-1.16,2.23-2.32,3.35-3.48-.79-1.04-1.57-2.07-2.35-3.1,1.08-1.88,2.23-3.72,3.61-5.39.56-2.77-.89-4.93-2.48-6.99-1.56-1.85.5-3.8.74-5.72-.66-1.05-1.55-1.94-2.53-2.67-1.3.4-2.52,1.06-3.84,1.39-1.6-.19-3.01-1.05-4.49-1.62-.05-.86-.16-2.57-.21-3.43-1.66,0-3.32,0-4.97.03M165.41,221.15c0,12.67-.07,25.35.02,38.03,9.33-.09,18.65-.07,27.98-.02-.21-12.71.03-25.41-.02-38.12-1.5.01-2.98.08-4.46.22-5.3,2.74-11.5.89-17.21,1.43-.14-.39-.41-1.16-.55-1.55-1.92,0-3.84,0-5.76,0M158.74,229.44c.68,1.3,1.36,2.59,2.06,3.88.07-2.14.12-4.29.18-6.42-.75.84-1.49,1.69-2.24,2.54M158.64,243.87c.73,1.04,1.47,2.08,2.21,3.12.07-2.23.14-4.45.24-6.67-.81,1.19-1.61,2.38-2.45,3.55Z"/>
    <path class="st6" d="M340.29,221.97c-.38-2.04,1.69-3.62,3.6-3.23,8.03-.01,16.06.02,24.08.03,1.31-.14,2.81.91,2.76,2.32.37,9.31-.03,18.63.16,27.95-.18,1.55.41,3.72-1.31,4.59-4.4.43-8.84.07-13.26.16-.01,1.51-.02,3.02-.03,4.53,6.12-.03,12.24-.15,18.36.07-.74-1.14-1.41-2.32-2-3.54,1.65,1.14,3.18,2.48,4.45,4.05-1.27,1.41-2.75,2.63-4.23,3.81.34-1.11.69-2.21,1.06-3.31-6.26.14-12.53,0-18.79.03.03-1.89.05-3.79.09-5.67-4.09,0-8.19.13-12.29,0-1.5.13-2.94-1.16-2.67-2.71-.05-9.69-.06-19.39.02-29.08M341.55,220.15c-.12,10.79-.11,21.59,0,32.38,9.33.29,18.68.24,28.01.03.16-10.92.39-21.86-.15-32.76-9.29.08-18.56.47-27.85.35Z"/>
    <path class="st6" d="M379.18,222.03c-.41-1.81.99-3.32,2.8-3.22,9.69-.15,19.38.02,29.07-.05,1.79-.07,3.53.45,5.26.89.35,13.96.02,27.92.18,41.88-2.05,2.65-5.63,1.46-8.49,1.7-9.32-.31-18.72.57-27.98-.49.16-.23.5-.7.66-.94,4.1.37,8.22.42,12.33.29,7.41-.47,14.83.46,22.22-.36,0-13.82-.05-27.64.02-41.46-11.62-.93-23.28.22-34.92-.08-.22,13.89.16,27.78-.27,41.67-.19-.18-.59-.53-.78-.71-.48-13.02.07-26.08-.1-39.12Z"/>
    <path class="st6" d="M568.26,219.6c3.32-1.1,6.88-.88,10.32-.6l.08,1.19c-3.06-.02-6.1-.05-9.15-.06.09,8.77-.08,17.54.06,26.31,3.05-3.12,6.13-6.2,9.04-9.44v1.57c-2.98,3.19-6.17,6.19-9.12,9.41-.03,4.48-.1,8.97,0,13.45,2.06-.2,4.16-.23,6.19-.72,2.36-1.72,3.99-4.22,5.88-6.4,1.06-.84,2.25-1.52,3.58-1.86-2.56,2.92-5.29,5.68-8.02,8.44,11.05-.18,22.09.26,33.14.24.04-2.81.07-5.62.08-8.43.3.04.91.11,1.22.15-.52,2.95,1.49,7.43-1.48,9.3-13.36.14-26.74.18-40.1-.03-.39-.18-1.16-.55-1.54-.73-.48-13.91-.08-27.86-.18-41.79Z"/>
    <path class="st6" d="M579.97,218.87c8.68-.07,17.36.02,26.04-.04,1.78.08,3.77-.23,5.34.85.53,10.66.1,21.37.19,32.05-.21-.2-.61-.59-.82-.78-4.14-3.97-8.13-8.09-12.16-12.17-4.1,3.9-7.78,8.25-12.14,11.87-.4.27-1.21.82-1.62,1.1,2.16-2.74,4.56-5.28,6.98-7.79-3.09-3.06-6.16-6.13-9.2-9.22-.85.75-1.68,1.5-2.52,2.26.12-.48.35-1.42.46-1.89.7-.62,1.41-1.23,2.14-1.81,3.25,3.38,6.58,6.7,9.92,10,1.61-1.71,3.22-3.41,4.82-5.12.52.01,1.56.05,2.08.07,3.55,3.68,7.15,7.31,10.81,10.88-.02-9.64-.06-19.27-.02-28.91-9.99-.05-19.98.09-29.96-.05l-.34-1.3Z"/>
    <path class="st6" d="M382.66,222.43c9.99-.02,19.98-.04,29.97.03.12,9.37.05,18.75.01,28.12-8.57.16-17.14.05-25.7.15-1.36-.23-3.08.4-4.19-.52-.36-9.25-.16-18.52-.09-27.78M383.68,223.54c.18,6.1.1,12.21.07,18.32,2.83-2.9,5.7-5.77,8.54-8.66,2.4,2.41,4.82,4.82,7.21,7.26,1.36-1.39,2.74-2.78,4.1-4.17,2.53,2.65,5.16,5.2,7.84,7.71.21-6.81-.01-13.63.13-20.44-9.29.22-18.59.1-27.89-.02M383.71,243.13c-.04,2.15-.06,4.31-.08,6.46,9.34.03,18.68.06,28.03.04-.08-1.52-.16-3.05-.23-4.57-2.6-2.26-4.92-4.82-7.57-7-2.28.51-3.91,2.94-3.2,5.25-2.48-3.09-5.43-5.76-8.15-8.63-2.97,2.78-5.87,5.64-8.8,8.45Z"/>
    <path class="st6" d="M343.52,224.48c2.98-.91,6.34-1.2,9.25.1-1.01.09-3.03.26-4.04.34,0,2.97.08,5.94-.23,8.9-1.75-2.62-.68-5.93-.94-8.86-1.01-.12-3.03-.36-4.04-.48Z"/>
    <path class="st6" d="M353.75,224.43c4.59-.41,9.24-.44,13.82.03-4.36,1.38-9.47,1.4-13.82-.03Z"/>
    <path class="st6" d="M174.39,226.1c.32.09.96.28,1.27.37-1.46,1.67-2.91,3.36-4.65,4.75-1.3-.8-2.05-2.15-2.91-3.35,1.04.5,2.11.96,3.19,1.39,1.02-1.07,2.06-2.12,3.1-3.16Z"/>
    <path class="st6" d="M400.38,228.38c1-1.63,3.35-1.42,4.9-.83,1.21,1.25,1.04,3.04,1.2,4.64-1.68.4-3.56,1.87-5.17.5-1.57-.77-1.11-2.92-.93-4.31M401.45,228.16c-.07,1.2-.12,2.4-.16,3.6,1.64.12,3.72.38,4.26-1.68-.56-1.95-2.5-1.79-4.1-1.92Z"/>
    <path class="st6" d="M138.29,241.74c-3.74-4.86-.45-13.11,5.77-13.62,2.06-.06,5.63-.47,6.09,2.23-3.1-1.59-7.26-1.77-9.78.96-3.77,3.37-2.62,10.22,2.03,12.19,4.23,2.35,10.14-.7,10.51-5.55.56-2.89-.94-5.51-2.76-7.6l.44-1.41c3.08,2.97,5.04,7.57,3.01,11.68-2.47,5.98-11.96,6.6-15.31,1.12Z"/>
    <path class="st6" d="M177.09,228.45c4.59-.52,9.25-.49,13.84-.03-2.02,1.49-4.61.89-6.94,1.04-2.32-.12-4.86.41-6.9-1.01Z"/>
    <path class="st6" d="M353.64,228.45c4.64-.46,9.35-.53,13.99-.02-4.46,1.34-9.49,1.14-13.99.02Z"/>
    <path class="st6" d="M171.14,237.02c1.36-1.36,2.79-2.74,4.74-3.17-1.4,1.98-3.06,3.78-4.94,5.33-1.09-1.03-2.03-2.19-2.96-3.35.79.3,2.37.89,3.16,1.19Z"/>
    <path class="st6" d="M177.22,236.19c4.54-.47,9.14-.45,13.69.03-2.04,1.37-4.55,1.03-6.87,1.12-2.3-.13-4.88.43-6.82-1.15Z"/>
    <path class="st6" d="M171.26,244.87c1.31-1.34,2.74-2.61,4.61-3.1-1.43,2.01-3.15,3.79-4.89,5.54-.99-1.13-1.96-2.27-2.91-3.43.8.25,2.39.75,3.19.99Z"/>
    <path class="st6" d="M177.05,244.09c4.71-.34,9.55-.75,14.18.41-4.58.84-9.86,1.65-14.18-.41Z"/>
    <path class="st6" d="M343.41,248.51c2.68-1.28,5.73-.71,8.59-.82,2.95.15,6.13-.56,8.87.86-5.8.41-11.66.44-17.46-.04Z"/>
    <path class="st6" d="M171.25,252.68c1.33-1.39,2.82-2.65,4.55-3.52-1.23,2.17-2.91,4.03-4.65,5.8-1.1-1.07-2.18-2.15-3.25-3.24,1.13.28,2.24.61,3.35.96Z"/>
    <path class="st6" d="M177.2,252.66c1.95-1.51,4.52-.84,6.79-1.01,2.34.11,4.92-.42,6.97,1.04-4.57.5-9.19.41-13.76-.03Z"/>
    <path class="st6" d="M383.11,253.48c4.91.08,9.82.05,14.73,0,.04.3.13.89.18,1.19-5.01.02-10.02,0-15.02,0,.03-.29.08-.88.11-1.18Z"/>
    <path class="st6" d="M95.59,325.57c2.29-.14,3.02,3.72.5,3.82-2.53.59-2.82-3.45-.5-3.82Z"/>
    <path class="st6" d="M303.42,340.5c.68-.08,2.03-.24,2.71-.32.2,1.22.95,2.72-.41,3.56-.96-.11-1.91-.27-2.84-.48.13-.69.41-2.07.54-2.76Z"/>
    <path class="st6" d="M521.33,340.49c1.42-.68,2.72.04,3.11,1.55-.35,1.05-2.19,3.27-3.15,1.53-1.24-.55-1.22-2.67.04-3.08Z"/>
    <path class="st6" d="M93.69,343.85c.31-1.78,2.21-1.77,3.56-2.25.52,1.62.44,4.19-1.85,4.18-.43-.48-1.28-1.45-1.71-1.93Z"/>
    <path class="st6" d="M304.61,356.71c2.16-.62,3.01,3.07.8,3.58-2.3.93-3.72-3.48-.8-3.58Z"/>
    <path class="st6" d="M94.42,358.45c2.19-1.71,4.66,1.72,2.21,2.97-1.75,1.45-3.47-1.54-2.21-2.97Z"/>
    <path class="st6" d="M303.58,373.45c1.76-1.13,4.31,1.1,2.58,2.68-1.58,2.3-4.65-1.02-2.58-2.68Z"/>
    <path class="st6" d="M520.33,375.51c.2-2.86,3.21-2.49,4.46-.44-1.36,1.59-3.33,3.15-4.46.44Z"/>
    <path class="st6" d="M94.68,374.62c2.02-2.18,4.32,2.39,1.91,3.02-1.9,1.29-3.69-2.12-1.91-3.02Z"/>
    <path class="st6" d="M95.48,389.94c.64.74,2.14,1.07,2.05,2.26.58,1.81-2.03,2.72-3.13,1.37-1.32-1.38.34-2.51,1.08-3.63Z"/>
    <path class="st6" d="M303.4,390.33c2.03-2.47,4.93,2.03,2.11,3.07-1.88.45-3.07-1.45-2.11-3.07Z"/>
  </g>
  <g id="_x23_818eb7ff">
    <path class="st30" d="M88.33,89.39c3.19-.59,6.43-.82,9.68-.69,10.03.17,20.09-.22,30.12.19,2.81.37,2.29,3.73,2.79,5.76-14.35.08-28.7.04-43.06.02.22-1.75.39-3.52.47-5.28M91.15,91.08c-.53,1.63.03,2.18,1.66,1.66.53-1.62-.02-2.17-1.66-1.66M95.07,91.07c-.52,1.63.04,2.18,1.67,1.65.52-1.62-.04-2.17-1.67-1.65M99.01,91.08c-.54,1.63,0,2.19,1.64,1.68.54-1.62-.01-2.18-1.64-1.68Z"/>
    <path class="st30" d="M162.43,218.38c3.17-.14,7.56-2.18,9.74,1.09-2.66.24-5.33.27-7.99.33.05,13.5,0,27,.04,40.51,10.17.22,20.34.17,30.51,0,.13-13.52-.08-27.03.03-40.55-2.41-.02-4.82-.06-7.23-.13l-.05-1.92c3.01.06,6,.32,8.98.72.37,14.42.17,28.85.08,43.27-5.13,1.12-10.38.46-15.57.52-5.32-.13-10.65.2-15.97,0-1.3.05-2.95-.72-2.61-2.26-.11-13.85-.14-27.72.04-41.58Z"/>
  </g>
  <g id="_x23_3f4144ff">
    <path class="st27" d="M91.15,91.08c1.64-.51,2.19.04,1.66,1.66-1.63.52-2.19-.03-1.66-1.66Z"/>
  </g>
  <g id="_x23_434549ff">
    <path class="st7" d="M95.07,91.07c1.63-.52,2.19.03,1.67,1.65-1.63.53-2.19-.02-1.67-1.65Z"/>
  </g>
  <g id="_x23_4a505cff">
    <path class="st26" d="M99.01,91.08c1.63-.5,2.18.06,1.64,1.68-1.63.51-2.18-.05-1.64-1.68Z"/>
  </g>
  <g id="_x23_e5e9eeff">
    <path class="st21" d="M87.83,95.81c14.24-.07,28.48.14,42.72-.08-.01,2.83,0,5.65,0,8.48-9.55-.13-19.1.21-28.65.07.05.33.14.99.18,1.32,3.82-.05,7.63,0,11.44-.14-.32,1.6-.73,3.18-1.18,4.75-3.55-.04-7.1-.03-10.65-.08l.16,1.16c3.59-.03,7.19-.04,10.79-.04.01,1.11.02,2.22.03,3.34-3.61,0-7.22,0-10.83,0v1.16c3.59,0,7.19,0,10.79-.04-.02,1.56-.03,3.11-.01,4.67-7.26-.1-14.53.17-21.78-.08-2.19.12-3.02-2.43-2.95-4.21-.11-6.76-.08-13.51-.07-20.27M91.38,98.85c0,2.54,0,5.08.03,7.62,2.48.01,4.97,0,7.45-.02-.01-2.55-.03-5.1-.04-7.65-2.48.02-4.96,0-7.44.05M101.76,99.82l-.02,1.26c8.66-.15,17.36.43,25.98-.43-1.46-.7-3.06-.97-4.66-.9-7.1.02-14.2-.04-21.3.07M91.35,109.15c.01,2.51.01,5.01.02,7.51,2.49-.01,4.98-.03,7.47-.02,0-2.5.02-5,.05-7.5-2.51.01-5.03,0-7.54.01Z"/>
    <path class="st21" d="M380.33,220.19c11.64.3,23.3-.85,34.92.08-.07,13.82-.01,27.64-.02,41.46-7.39.82-14.81-.11-22.22.36-4.11.13-8.23.08-12.33-.29-.16.24-.5.71-.66.94-.19-.4-.56-1.19-.74-1.59.19.18.59.53.78.71.43-13.89.05-27.78.27-41.67M382.66,222.43c-.07,9.26-.27,18.53.09,27.78,1.11.92,2.83.29,4.19.52,8.56-.1,17.13.01,25.7-.15.04-9.37.11-18.75-.01-28.12-9.99-.07-19.98-.05-29.97-.03M383.11,253.48c-.03.3-.08.89-.11,1.18,5,0,10.01.02,15.02,0-.05-.3-.14-.89-.18-1.19-4.91.06-9.82.09-14.73,0M383.22,257.41c.01.3.03.9.04,1.2,5.47.19,10.94.49,16.42.54-.23-.53-.7-1.58-.93-2.11-5.16-.72-10.36.14-15.53.37Z"/>
  </g>
  <g id="_x23_c59cceff">
    <path class="st38" d="M92.48,99.75c1.78.02,3.55.03,5.33.03,0,1.86,0,3.71.01,5.56-1.78.02-3.55.05-5.33.07,0-1.89,0-3.77,0-5.66Z"/>
    <path class="st38" d="M92.54,110.21c1.74,0,3.49.01,5.23.01,0,1.82,0,3.64,0,5.47-1.76-.04-3.53-.07-5.29-.11.02-1.8.04-3.59.07-5.37Z"/>
  </g>
  <g id="_x23_242424ff">
    <path class="st42" d="M101.76,99.82c7.1-.11,14.2-.05,21.3-.07,1.6-.07,3.2.2,4.66.9-8.62.86-17.32.28-25.98.43l.02-1.26Z"/>
  </g>
  <g id="_x23_9fc9edff">
    <path class="st24" d="M114.56,105.5c7.91-.13,15.9-.61,23.76.13.27.38.81,1.13,1.08,1.51.41,5.22.43,10.53.02,15.75-.32,2.36-3.46,1.69-5.19,2.19-.03,1.64-.05,3.29-.07,4.93-2.01-1.77-4.05-3.49-6.1-5.22-4.39-.09-8.85.45-13.17-.44-1.44-1.81-1.04-4.21-1.14-6.35.03-4.18-.42-8.44.81-12.5M117.09,110.43c1.85,1.54,4.68.72,6.94.98,4.18-.41,8.68.84,12.63-.92-6.5-.54-13.06-.4-19.57-.06M117.29,114.03c.23.45.69,1.34.92,1.79,6.09.42,12.22.17,18.32.03-.28-.39-.83-1.16-1.11-1.55-6-.73-12.1-.17-18.13-.27M116.99,119.5c4.6.41,9.25.43,13.85-.05-4.38-1.31-9.49-1.39-13.85.05Z"/>
  </g>
  <g id="_x23_4d576aff">
    <path class="st35" d="M117.29,114.03c6.03.1,12.13-.46,18.13.27.28.39.83,1.16,1.11,1.55-6.1.14-12.23.39-18.32-.03-.23-.45-.69-1.34-.92-1.79Z"/>
  </g>
  <g id="_x23_7070ddff">
    <path class="st9" d="M153.61,146.49c7.23-.02,14.46-.04,21.69,0-.39,9.64-.3,19.29-.32,28.93,3.6,0,7.2-.02,10.8-.09-7.16,8.43-14.33,16.85-21.18,25.52l-.32.02c-6.59-8.7-14.04-16.69-20.58-25.41,3.38-.03,6.76-.12,10.14-.14-.11-9.61.1-19.23-.23-28.83Z"/>
    <path class="st9" d="M273.04,261.42c8.13,6.95,16.28,13.9,24.37,20.91-8.03,7.08-16.21,13.99-24.35,20.96.01-3.3,0-6.6-.07-9.9-8.16-.17-16.33-.1-24.49.06-.13-7.3,0-14.61-.07-21.91,8.22.1,16.43.36,24.65.21,0-3.45-.03-6.89-.04-10.33Z"/>
  </g>
  <g id="_x23_f5f3ebff">
    <path class="st45" d="M505.55,193.85c2.18-3.01,5.94-4.29,9.55-4.31h158.85c4.76-.08,9.87,2.76,11.17,7.55.76,4.93.23,9.95.4,14.91-.19,21.93.25,43.86-.3,65.78-2.86-.08-5.71-.24-8.56-.4-.37-22.81,0-45.64-.17-68.46.26-4.11-3.25-7.83-7.4-7.58-49.37-.13-98.76.09-148.13-.08-4.85-.66-7.94,4.35-7.61,8.68,0,24.01.06,48.02-.11,72.03-2.76-2.99-5.99-5.48-9.27-7.86.56-.71,1.12-1.42,1.68-2.12-.68-.67-1.36-1.33-2.03-1.98-.31-21.34.04-42.68-.13-64.02.09-4.07-.79-8.76,2.06-12.14Z"/>
    <path class="st45" d="M614.41,251.06c1.07-1.52,3.4.41,2.22,1.78-1.09,1.52-3.42-.42-2.22-1.78Z"/>
    <path class="st45" d="M502.37,291.73c3.65-2.88,7.3-5.76,10.89-8.73.06,10.01.17,20.01,0,30.01.08,2.9-.13,6.32,2.18,8.5,1.88,2.17,4.95,2.15,7.59,2.23,48.33-.05,96.66-.06,144.99,0,4.72.45,8.58-4.16,8.56-8.64.18-7.55-.2-15.11.09-22.66,3.36-.08,6.73-.28,10.11-.14-.26,2.89-.55,5.78-.51,8.68.31,22.66-.39,45.32-.14,67.98.1,7.35-1.17,14.68-.74,22.04-.01,2.75.5,5.83-1.24,8.21-2.54,3.51-6.74,5.92-11.13,5.78-51.68-.07-103.37-.05-155.05.01-3.11-.08-6.47-.06-9.16-1.83-3.92-2.7-6.13-7.47-5.85-12.2,0-28.32-.34-56.64-.29-84.96.09-4.77.07-9.53-.3-14.28M521.33,340.49c-1.26.41-1.28,2.53-.04,3.08.96,1.74,2.8-.48,3.15-1.53-.39-1.51-1.69-2.23-3.11-1.55M520.33,375.51c1.13,2.71,3.1,1.15,4.46-.44-1.25-2.05-4.26-2.42-4.46.44Z"/>
  </g>
  <g id="_x23_5aab78ff">
    <path class="st32" d="M694.24,202.34c5.83-2.62,12.45,4.08,9.95,9.88-1.78,5.48-10.07,6.66-13.32,1.93-3.11-3.83-1.26-10.17,3.37-11.81M695.69,211.24c-.76-.63-1.52-1.25-2.27-1.88-.38.21-1.14.61-1.52.82,1.24,1.18,2.45,2.39,3.65,3.63,2.24-2.61,5.43-4.82,5.98-8.46-2.21,1.69-4.12,3.72-5.84,5.89Z"/>
    <path class="st32" d="M760.57,222.21c7.23,5.02,14.24,10.35,21.22,15.71-7.24,5.11-14.14,10.69-21.21,16.04.02-3.31.04-6.62.06-9.93-8.37.52-16.9,2.78-23.64,7.95-9.85,7.19-15.02,18.88-24.54,26.4-3.1,2.52-6.57,4.54-9.91,6.71-4.6-2.46-9.98-1.81-14.95-2.81-.81-.9-1.62-1.79-2.42-2.68-1.85-.09-3.69-.19-5.52-.29-.93,3.51-1.08,7.18-.28,10.73-.67.35-2.01,1.04-2.68,1.39.01-4.68.02-9.37-.04-14.05,2.85.16,5.7.32,8.56.4,7.1-.37,13.79-3.98,19.31-8.29,8.2-6.88,12.94-16.91,21.11-23.83,9.45-8.75,22.27-12.99,34.95-13.9-.04-3.19-.05-6.37-.02-9.55Z"/>
  </g>
  <g id="_x23_e29444ff">
    <path class="st1" d="M576.91,212.33c1.54-.02,3.09-.04,4.65-.06.3.5.91,1.49,1.21,1.99,9.84-.05,19.68-.1,29.52.03.28-.5.85-1.5,1.14-2,1.48.01,2.97.03,4.46.05.1,1.54.21,3.08.31,4.63-.47.28-1.43.84-1.91,1.13.12,10.3-.12,20.61.09,30.9.43.29,1.3.86,1.73,1.15-.08,1.5-.16,3-.23,4.5-1.35-.07-2.69-.12-4.02-.18-.58-.41-1.73-1.21-2.3-1.62-.31-.04-.92-.11-1.22-.15-8.4-.15-16.81.16-25.2-.25-1.33.34-2.52,1.02-3.58,1.86-1.61,0-3.22-.03-4.81-.04.07-.78.22-2.35.3-3.13,2.15-3.86,1.66-8.33,1.56-12.57v-1.57c-.12-5.6.12-11.21.05-16.81l-.08-1.19c-.02-.23-.05-.71-.07-.95-2.17-1.16-1.5-3.71-1.6-5.72M578.42,214.15c-1.18,1.44,1.33,3.15,2.33,1.64,1.16-1.45-1.34-3.16-2.33-1.64M614.28,214.11c-1.19,1.45,1.32,3.14,2.33,1.64,1.18-1.46-1.34-3.15-2.33-1.64M579.97,218.87l.34,1.3c-.09,4.98-.27,9.97.21,14.94-.11.47-.34,1.41-.46,1.89.37,3.96.36,7.95.1,11.92,1.38,1.19,2.95,2.13,4.64,2.83.41-.28,1.22-.83,1.62-1.1,8.06.87,16.22.79,24.3.3.21.19.61.58.82.78,1.1-.98,2.22-1.97,3.25-3.03.03-10.16.1-20.31-.08-30.46-.92-.8-1.83-1.61-2.72-2.42-9.7-.14-19.4.06-29.09-.05-.98,1.04-1.94,2.08-2.93,3.1M578.34,251.12c-.55,1.6,0,2.16,1.66,1.67.53-1.62-.03-2.18-1.66-1.67M614.41,251.06c-1.2,1.36,1.13,3.3,2.22,1.78,1.18-1.37-1.15-3.3-2.22-1.78Z"/>
    <path class="st1" d="M488.83,261.81c5.16,3.96,9.86,8.5,15.14,12.3,3.28,2.38,6.51,4.87,9.27,7.86l.02,1.03c-3.59,2.97-7.24,5.85-10.89,8.73-4.62,3.7-9.05,7.61-13.59,11.4-.03-3.29-.05-6.57-.08-9.85-8.14-1.1-16.38-.65-24.57-.62.54-6.75.25-13.53.2-20.29,2.31-.02,4.62-.04,6.93-.04,5.82.14,11.65.19,17.44-.53,0-3.33.07-6.66.13-9.99Z"/>
  </g>
  <g id="_x23_babfc1ff">
    <path class="st28" d="M177.96,213.78c.74.02,2.23.05,2.97.06.43.93.85,1.86,1.28,2.8,1.34.02,2.67.05,4.01.08.03,1.55.06,3.09.1,4.64-4.58-.06-9.15-.02-13.72.07.04-1.57.08-3.13.12-4.69,1.32-.04,2.64-.07,3.97-.1.42-.95.84-1.91,1.27-2.86Z"/>
  </g>
  <g id="_x23_f6ebddff">
    <path class="st0" d="M578.42,214.15c.99-1.52,3.49.19,2.33,1.64-1,1.51-3.51-.2-2.33-1.64Z"/>
    <path class="st0" d="M614.28,214.11c.99-1.51,3.51.18,2.33,1.64-1.01,1.5-3.52-.19-2.33-1.64Z"/>
  </g>
  <g id="_x23_fefefeff">
    <path class="st40" d="M579.97,218.87c.99-1.02,1.95-2.06,2.93-3.1,9.69.11,19.39-.09,29.09.05.89.81,1.8,1.62,2.72,2.42.18,10.15.11,20.3.08,30.46-1.03,1.06-2.15,2.05-3.25,3.03-.09-10.68.34-21.39-.19-32.05-1.57-1.08-3.56-.77-5.34-.85-8.68.06-17.36-.03-26.04.04Z"/>
  </g>
  <g id="_x23_6485b0ff">
    <path class="st33" d="M143.11,219.6c1.65-.02,3.31-.03,4.97-.03.05.86.16,2.57.21,3.43,1.48.57,2.89,1.43,4.49,1.62,1.32-.33,2.54-.99,3.84-1.39.98.73,1.87,1.62,2.53,2.67-.24,1.92-2.3,3.87-.74,5.72,1.59,2.06,3.04,4.22,2.48,6.99-1.38,1.67-2.53,3.51-3.61,5.39.78,1.03,1.56,2.06,2.35,3.1-1.12,1.16-2.24,2.32-3.35,3.48-1.08-.67-2.15-1.34-3.22-2-1.52.63-3.04,1.26-4.56,1.9-.24,1.19-.48,2.39-.72,3.59-1.49.03-2.98.08-4.46.11-.27-1.21-.54-2.42-.8-3.63-1.5-.69-3.01-1.38-4.5-2.06-1.07.72-2.14,1.45-3.2,2.19-.87-.99-1.77-1.96-2.55-3.01-.05-1.92,1.99-3.72.73-5.62-.43-2.32-2.9-2.62-4.72-3.28-.03-1.46-.04-2.92-.06-4.37,1.22-.24,2.45-.47,3.67-.7.57-1.57,1.16-3.13,1.76-4.68-.66-.98-1.31-1.96-1.96-2.94,1.02-1.01,2.04-2.03,3.06-3.04,1.11.6,2.2,1.26,3.36,1.79,1.62-.39,3.14-1.12,4.68-1.75.08-.87.24-2.61.32-3.48M138.29,241.74c3.35,5.48,12.84,4.86,15.31-1.12,2.03-4.11.07-8.71-3.01-11.68l-.44,1.41c-.46-2.7-4.03-2.29-6.09-2.23-6.22.51-9.51,8.76-5.77,13.62Z"/>
  </g>
  <g id="_x23_e3e7ecff">
    <path class="st39" d="M341.55,220.15c9.29.12,18.56-.27,27.85-.35.54,10.9.31,21.84.15,32.76-9.33.21-18.68.26-28.01-.03-.1-10.79-.11-21.59,0-32.38M343.52,224.48c1.01.12,3.03.36,4.04.48.26,2.93-.81,6.24.94,8.86.31-2.96.23-5.93.23-8.9,1.01-.08,3.03-.25,4.04-.34-2.91-1.3-6.27-1.01-9.25-.1M353.75,224.43c4.35,1.43,9.46,1.41,13.82.03-4.58-.47-9.23-.44-13.82-.03M353.64,228.45c4.5,1.12,9.53,1.32,13.99-.02-4.64-.51-9.35-.44-13.99.02M353.54,232.38c4.52,1.08,9.75,1.64,14.12-.22-4.7-.42-9.46-.46-14.12.22M343.41,236.85c8.03.48,16.14.52,24.18-.02-3.89-1.97-8.44-.63-12.61-.99-3.84.31-8.05-.95-11.57,1.01M343.42,240.17c2.64,1.37,5.67.89,8.52.97,5.2-.1,10.42.23,15.61-.34-2.25-1.47-5.02-.98-7.54-1.07-5.53.15-11.09-.35-16.59.44M343.41,244.68c8.03.63,16.15.54,24.19.11-3.15-2.07-7.1-.82-10.61-1.14-4.5.39-9.36-.95-13.58,1.03M343.41,248.51c5.8.48,11.66.45,17.46.04-2.74-1.42-5.92-.71-8.87-.86-2.86.11-5.91-.46-8.59.82Z"/>
  </g>
  <g id="_x23_7eafe3ff">
    <path class="st20" d="M569.51,220.13c3.05,0,6.09.04,9.15.06.07,5.6-.17,11.21-.05,16.81-2.91,3.24-5.99,6.32-9.04,9.44-.14-8.77.03-17.54-.06-26.31Z"/>
    <path class="st20" d="M580.31,220.17c9.98.14,19.97,0,29.96.05-.04,9.64,0,19.27.02,28.91-3.66-3.57-7.26-7.2-10.81-10.88-.52-.02-1.56-.06-2.08-.07-1.6,1.71-3.21,3.41-4.82,5.12-3.34-3.3-6.67-6.62-9.92-10-.73.58-1.44,1.19-2.14,1.81-.48-4.97-.3-9.96-.21-14.94M596.34,224.39c-3.1,1.33-3.68,6.13-.89,8.08,2.27,2.01,6,.87,7.14-1.82,2.02-3.61-2.63-8.31-6.25-6.26Z"/>
  </g>
  <g id="_x23_e7ebefff">
    <path class="st19" d="M165.41,221.15c1.92,0,3.84,0,5.76,0,.14.39.41,1.16.55,1.55,5.71-.54,11.91,1.31,17.21-1.43,1.48-.14,2.96-.21,4.46-.22.05,12.71-.19,25.41.02,38.12-9.33-.05-18.65-.07-27.98.02-.09-12.68-.02-25.36-.02-38.03M174.39,226.1c-1.04,1.04-2.08,2.09-3.1,3.16-1.08-.43-2.15-.89-3.19-1.39.86,1.2,1.61,2.55,2.91,3.35,1.74-1.39,3.19-3.08,4.65-4.75-.31-.09-.95-.28-1.27-.37M177.09,228.45c2.04,1.42,4.58.89,6.9,1.01,2.33-.15,4.92.45,6.94-1.04-4.59-.46-9.25-.49-13.84.03M171.14,237.02c-.79-.3-2.37-.89-3.16-1.19.93,1.16,1.87,2.32,2.96,3.35,1.88-1.55,3.54-3.35,4.94-5.33-1.95.43-3.38,1.81-4.74,3.17M177.22,236.19c1.94,1.58,4.52,1.02,6.82,1.15,2.32-.09,4.83.25,6.87-1.12-4.55-.48-9.15-.5-13.69-.03M171.26,244.87c-.8-.24-2.39-.74-3.19-.99.95,1.16,1.92,2.3,2.91,3.43,1.74-1.75,3.46-3.53,4.89-5.54-1.87.49-3.3,1.76-4.61,3.1M177.05,244.09c4.32,2.06,9.6,1.25,14.18.41-4.63-1.16-9.47-.75-14.18-.41M171.25,252.68c-1.11-.35-2.22-.68-3.35-.96,1.07,1.09,2.15,2.17,3.25,3.24,1.74-1.77,3.42-3.63,4.65-5.8-1.73.87-3.22,2.13-4.55,3.52M177.2,252.66c4.57.44,9.19.53,13.76.03-2.05-1.46-4.63-.93-6.97-1.04-2.27.17-4.84-.5-6.79,1.01Z"/>
  </g>
  <g id="_x23_74a5e0ff">
    <path class="st41" d="M383.68,223.54c9.3.12,18.6.24,27.89.02-.14,6.81.08,13.63-.13,20.44-2.68-2.51-5.31-5.06-7.84-7.71-1.36,1.39-2.74,2.78-4.1,4.17-2.39-2.44-4.81-4.85-7.21-7.26-2.84,2.89-5.71,5.76-8.54,8.66.03-6.11.11-12.22-.07-18.32M400.38,228.38c-.18,1.39-.64,3.54.93,4.31,1.61,1.37,3.49-.1,5.17-.5-.16-1.6,0-3.39-1.2-4.64-1.55-.59-3.9-.8-4.9.83Z"/>
  </g>
  <g id="_x23_3f3d3dff">
    <path class="st31" d="M596.34,224.39c3.62-2.05,8.27,2.65,6.25,6.26-1.14,2.69-4.87,3.83-7.14,1.82-2.79-1.95-2.21-6.75.89-8.08M596.29,226.29c-1.44,1.44-1.51,3.91.29,5.1,2.15,1.92,5.63-.81,4.67-3.43-.25-2.34-3.29-2.73-4.96-1.67Z"/>
  </g>
  <g id="_x23_f3b670ff">
    <path class="st18" d="M596.29,226.29c1.67-1.06,4.71-.67,4.96,1.67.96,2.62-2.52,5.35-4.67,3.43-1.8-1.19-1.73-3.66-.29-5.1Z"/>
  </g>
  <g id="_x23_dee0e3ff">
    <path class="st29" d="M158.74,229.44c.75-.85,1.49-1.7,2.24-2.54-.06,2.13-.11,4.28-.18,6.42-.7-1.29-1.38-2.58-2.06-3.88Z"/>
  </g>
  <g id="_x23_efbf83ff">
    <path class="st34" d="M401.45,228.16c1.6.13,3.54-.03,4.1,1.92-.54,2.06-2.62,1.8-4.26,1.68.04-1.2.09-2.4.16-3.6Z"/>
  </g>
  <g id="_x23_313132ff">
    <path class="st3" d="M353.54,232.38c4.66-.68,9.42-.64,14.12-.22-4.37,1.86-9.6,1.3-14.12.22Z"/>
  </g>
  <g id="_x23_67b18bff">
    <path class="st12" d="M383.71,243.13c2.93-2.81,5.83-5.67,8.8-8.45,2.72,2.87,5.67,5.54,8.15,8.63-.71-2.31.92-4.74,3.2-5.25,2.65,2.18,4.97,4.74,7.57,7,.07,1.52.15,3.05.23,4.57-9.35.02-18.69-.01-28.03-.04.02-2.15.04-4.31.08-6.46Z"/>
  </g>
  <g id="_x23_5dab78ff">
    <path class="st44" d="M580.06,237c.84-.76,1.67-1.51,2.52-2.26,3.04,3.09,6.11,6.16,9.2,9.22-2.42,2.51-4.82,5.05-6.98,7.79-1.69-.7-3.26-1.64-4.64-2.83.26-3.97.27-7.96-.1-11.92Z"/>
  </g>
  <g id="_x23_2d2d2dff">
    <path class="st10" d="M343.41,236.85c3.52-1.96,7.73-.7,11.57-1.01,4.17.36,8.72-.98,12.61.99-8.04.54-16.15.5-24.18.02Z"/>
  </g>
  <g id="_x23_5da578ff">
    <path class="st36" d="M569.49,247.98c2.95-3.22,6.14-6.22,9.12-9.41.1,4.24.59,8.71-1.56,12.57-.08.78-.23,2.35-.3,3.13,1.59,0,3.2.03,4.81.04-1.89,2.18-3.52,4.68-5.88,6.4-2.03.49-4.13.52-6.19.72-.1-4.48-.03-8.97,0-13.45Z"/>
  </g>
  <g id="_x23_85bd8fff">
    <path class="st37" d="M586.42,250.65c4.36-3.62,8.04-7.97,12.14-11.87,4.03,4.08,8.02,8.2,12.16,12.17-8.08.49-16.24.57-24.3-.3Z"/>
    <path class="st37" d="M585.14,252.45c8.39.41,16.8.1,25.2.25-.01,2.81-.04,5.62-.08,8.43-11.05.02-22.09-.42-33.14-.24,2.73-2.76,5.46-5.52,8.02-8.44Z"/>
  </g>
  <g id="_x23_2a2a2aff">
    <path class="st8" d="M343.42,240.17c5.5-.79,11.06-.29,16.59-.44,2.52.09,5.29-.4,7.54,1.07-5.19.57-10.41.24-15.61.34-2.85-.08-5.88.4-8.52-.97Z"/>
  </g>
  <g id="_x23_d2d3d4ff">
    <path class="st23" d="M158.64,243.87c.84-1.17,1.64-2.36,2.45-3.55-.1,2.22-.17,4.44-.24,6.67-.74-1.04-1.48-2.08-2.21-3.12Z"/>
  </g>
  <g id="_x23_2c2c2dff">
    <path class="st25" d="M343.41,244.68c4.22-1.98,9.08-.64,13.58-1.03,3.51.32,7.46-.93,10.61,1.14-8.04.43-16.16.52-24.19-.11Z"/>
  </g>
  <g id="_x23_7e9875ff">
    <path class="st2" d="M578.34,251.12c1.63-.51,2.19.05,1.66,1.67-1.65.49-2.21-.07-1.66-1.67Z"/>
  </g>
  <g id="_x23_cad0d5ff">
    <path class="st22" d="M383.22,257.41c5.17-.23,10.37-1.09,15.53-.37.23.53.7,1.58.93,2.11-5.48-.05-10.95-.35-16.42-.54-.01-.3-.03-.9-.04-1.2Z"/>
  </g>
  <g id="_x23_d4514bff">
    <path class="st43" d="M679.66,279.31c1.83.1,3.67.2,5.52.29.8.89,1.61,1.78,2.42,2.68,4.97,1,10.35.35,14.95,2.81,6.05,3.5,12.13,7.29,16.38,12.97,7.06,9.19,12.24,20.3,22.23,26.82,5.77,3.65,12.57,5.24,19.31,5.78,0-3.27,0-6.53.03-9.8,7.28,5,14.16,10.55,21.25,15.8-7.07,5.33-14.1,10.71-21.18,16.02-.07-3.23-.08-6.46-.07-9.69-13.58-.46-26.93-6.26-36.02-16.46-8.45-9.02-12.99-21.49-23.48-28.61-4.25-2.88-9.13-4.9-14.22-5.62-3.38-.14-6.75.06-10.11.14l.03-1.01c.67-.35,2.01-1.04,2.68-1.39-.8-3.55-.65-7.22.28-10.73Z"/>
    <path class="st43" d="M694.45,348.5c3.48-1.32,7.68.29,9.36,3.62,2.82,4.46-.64,11-5.84,11.42-5.05.78-9.61-4.71-8.3-9.54.7-2.4,2.47-4.51,4.78-5.5M693.2,352.07c.87,1.25,1.7,2.52,2.56,3.79-.92,1.24-1.88,2.51-2.11,4.08,1.11-.87,2.2-1.79,3.28-2.72,1.54.83,3.09,1.68,4.62,2.57-1.1-1.29-2.2-2.57-3.31-3.83.89-1.29,1.8-2.56,2.73-3.83-1.21.72-2.37,1.52-3.65,2.1-1.53-.36-2.86-1.27-4.12-2.16Z"/>
  </g>
  <g id="_x23_fae19eff">
    <path class="st4" d="M268.4,422.21c11.53-.66,23.07.26,34.6-.14,108.76.11,217.52-.05,326.27.02.45,8.21.65,16.5-.13,24.7-120.25-.16-240.5,0-360.75-.1.03-8.16.03-16.32,0-24.48Z"/>
  </g>
  <text/>
  <g class="st14">
    <g class="st14">
      <text class="st13" transform="translate(46.11 124.75) rotate(-90)"><tspan x="0" y="0">QA</tspan></text>
    </g>
  </g>
  <g class="st14">
    <g class="st14">
      <text class="st13" transform="translate(46.12 357.23) rotate(-90)"><tspan x="0" y="0">Validation</tspan></text>
    </g>
  </g>
  <g class="st14">
    <g class="st14">
      <text class="st16" transform="translate(159.39 107.19)"><tspan x="0" y="0">Sample </tspan><tspan x="-10.62" y="18">Generation</tspan></text>
    </g>
  </g>
  <g class="st14">
    <g class="st14">
      <text class="st13" transform="translate(515.61 97.81)"><tspan x="0" y="0">Feedback Loop</tspan></text>
    </g>
  </g>
  <g class="st14">
    <g class="st14">
      <text class="st13" transform="translate(513.2 123.43)"><tspan x="0" y="0">prompt tuning</tspan></text>
    </g>
  </g>
  <g class="st14">
    <g class="st14">
      <text class="st13" transform="translate(513.14 138.38)"><tspan x="0" y="0">rule updates</tspan></text>
    </g>
  </g>
  <g class="st14">
    <g class="st14">
      <text class="st13" transform="translate(511.47 150.78)"><tspan x="0" y="0">template refinement</tspan></text>
    </g>
  </g>
  <g class="st14">
    <g class="st14">
      <text class="st16" transform="translate(352.9 289.77)"><tspan x="0" y="0">Layer 2:</tspan><tspan x="-52.51" y="18" xml:space="preserve"> Semantic Quality Check</tspan></text>
    </g>
  </g>
  <g class="st14">
    <g class="st14">
      <text class="st16" transform="translate(126.06 282.18)"><tspan x="0" y="0">Layer 1: </tspan><tspan x="-39.8" y="18">Structural Validation</tspan></text>
    </g>
  </g>
  <g class="st14">
    <g class="st14">
      <text class="st16" transform="translate(560.31 278.92)"><tspan x="0" y="0">Layer 3:</tspan><tspan x="-32.32" y="18">Visual Grounding </tspan><tspan x="-11.04" y="36">Verification</tspan></text>
    </g>
  </g>
  <g class="st14">
    <g class="st14">
      <text class="st13" transform="translate(710.15 212.33)"><tspan x="0" y="0" xml:space="preserve"> Passed </tspan><tspan x="0" y="18">samples</tspan></text>
    </g>
  </g>
  <g class="st14">
    <g class="st14">
      <text class="st13" transform="translate(712.26 358.4)"><tspan x="0" y="0">Failed </tspan><tspan x="-3.54" y="18">samples</tspan></text>
    </g>
  </g>
  <g class="st14">
    <g class="st14">
      <text class="st13" transform="translate(531.45 348.91)"><tspan x="0" y="0">Draw the bbox back</tspan><tspan x="0" y="18">onto the image</tspan></text>
    </g>
  </g>
  <g class="st14">
    <g class="st14">
      <text class="st13" transform="translate(529.71 379.92)"><tspan x="0" y="0">Manual inspection</tspan></text>
    </g>
  </g>
  <g class="st14">
    <g class="st14">
      <text class="st13" transform="translate(309.85 346.07)"><tspan x="0" y="0">Alignment with image content</tspan></text>
    </g>
  </g>
  <g class="st14">
    <g class="st14">
      <text class="st13" transform="translate(311.24 362.54)"><tspan x="0" y="0">Hallucination detection</tspan></text>
    </g>
  </g>
  <g class="st14">
    <g class="st14">
      <text class="st13" transform="translate(310.03 378.8)"><tspan x="0" y="0">OCR correctness</tspan></text>
    </g>
  </g>
  <g class="st14">
    <g class="st14">
      <text class="st13" transform="translate(311.72 397.2)"><tspan x="0" y="0">Chart reasoning accuracy</tspan></text>
    </g>
  </g>
  <g class="st14">
    <g class="st14">
      <text class="st13" transform="translate(99.84 330.15)"><tspan x="0" y="0">File paths</tspan></text>
    </g>
  </g>
  <g class="st14">
    <g class="st14">
      <text class="st13" transform="translate(101.64 347.49)"><tspan x="0" y="0">Schema completeness</tspan></text>
    </g>
  </g>
  <g class="st14">
    <g class="st14">
      <text class="st13" transform="translate(100.76 364.54)"><tspan x="0" y="0">Bbox format</tspan></text>
    </g>
  </g>
  <g class="st14">
    <g class="st14">
      <text class="st13" transform="translate(100.03 381.73)"><tspan x="0" y="0">Multi-image consistency</tspan></text>
    </g>
  </g>
  <g class="st14">
    <g class="st14">
      <text class="st13" transform="translate(99.47 398.09)"><tspan x="0" y="0">Dataset splits</tspan></text>
    </g>
  </g>
  <g class="st14">
    <g class="st14">
      <text class="st16" transform="translate(305.52 440.43)"><tspan x="0" y="0">Fluent text ≠ Correct multimodal grounding</tspan></text>
    </g>
  </g>
  <g class="st14">
    <g class="st14">
      <text class="st13" transform="translate(402.83 477.17)"><tspan x="0" y="0">Feedback Loop</tspan></text>
    </g>
  </g>
  <g class="st14">
    <g class="st14">
      <text class="st15" transform="translate(792.67 221.99)"><tspan x="0" y="0">Training</tspan><tspan x="2.62" y="20.4" xml:space="preserve"> Dataset</tspan></text>
    </g>
  </g>
  <g class="st14">
    <g class="st14">
      <text class="st15" transform="translate(777.23 339.42)"><tspan x="0" y="0" xml:space="preserve"> Low-quality / </tspan><tspan x="8.52" y="20.4">Failure Pool</tspan></text>
    </g>
  </g>
  <g class="st14">
    <g class="st14">
      <text class="st17" transform="translate(148.4 32.28)"><tspan x="0" y="0">Research-level Multimodal Data Quality Control and Feedback Loop</tspan></text>
    </g>
  </g>
</svg>