<svg xmlns="http://www.w3.org/2000/svg" width="1536" height="1024" viewBox="0 0 1536 1024" role="img" aria-labelledby="title desc">
  <title id="title">DataGallery Ecosystem Architecture for DataAgent</title>
  <desc id="desc">Architecture diagram showing DataGallery Core on the left, Data-Studio and Data-Ops on the right, and foundation layers for models, data infrastructure, and hardware at the bottom.</desc>
  <defs>
    <linearGradient id="bg" x1="0" y1="0" x2="1" y2="1">
      <stop offset="0" stop-color="#edf9ff"/>
      <stop offset="0.48" stop-color="#f7fcff"/>
      <stop offset="1" stop-color="#dff3ff"/>
    </linearGradient>

    <linearGradient id="panelFill" x1="0" y1="0" x2="1" y2="1">
      <stop offset="0" stop-color="#ffffff" stop-opacity="0.78"/>
      <stop offset="1" stop-color="#ffffff" stop-opacity="0.47"/>
    </linearGradient>

    <linearGradient id="cardFill" x1="0" y1="0" x2="1" y2="1">
      <stop offset="0" stop-color="#ffffff" stop-opacity="0.96"/>
      <stop offset="1" stop-color="#ffffff" stop-opacity="0.78"/>
    </linearGradient>

    <linearGradient id="cyanIcon" x1="0" y1="0" x2="1" y2="1">
      <stop offset="0" stop-color="#35d6d1"/>
      <stop offset="1" stop-color="#0fadd0"/>
    </linearGradient>
    <linearGradient id="orangeIcon" x1="0" y1="0" x2="1" y2="1">
      <stop offset="0" stop-color="#ff9f2d"/>
      <stop offset="1" stop-color="#ff7e22"/>
    </linearGradient>
    <linearGradient id="purpleIcon" x1="0" y1="0" x2="1" y2="1">
      <stop offset="0" stop-color="#b186ee"/>
      <stop offset="1" stop-color="#7c55d8"/>
    </linearGradient>
    <linearGradient id="blueIcon" x1="0" y1="0" x2="1" y2="1">
      <stop offset="0" stop-color="#4aa1ff"/>
      <stop offset="1" stop-color="#1762de"/>
    </linearGradient>
    <linearGradient id="roseIcon" x1="0" y1="0" x2="1" y2="1">
      <stop offset="0" stop-color="#ff8a9d"/>
      <stop offset="1" stop-color="#ef5575"/>
    </linearGradient>
    <linearGradient id="tealIcon" x1="0" y1="0" x2="1" y2="1">
      <stop offset="0" stop-color="#27d7c5"/>
      <stop offset="1" stop-color="#09a997"/>
    </linearGradient>
    <linearGradient id="chipIcon" x1="0" y1="0" x2="1" y2="1">
      <stop offset="0" stop-color="#7eb4ef"/>
      <stop offset="1" stop-color="#5485c9"/>
    </linearGradient>

    <filter id="softShadow" x="-12%" y="-18%" width="124%" height="136%">
      <feDropShadow dx="0" dy="8" stdDeviation="12" flood-color="#94b7dc" flood-opacity="0.16"/>
    </filter>
    <filter id="tinyShadow" x="-25%" y="-25%" width="150%" height="150%">
      <feDropShadow dx="0" dy="5" stdDeviation="7" flood-color="#7da7ce" flood-opacity="0.18"/>
    </filter>

    <style>
      .title {
        font-family: "Inter", "SF Pro Display", -apple-system, BlinkMacSystemFont, "Segoe UI", sans-serif;
        font-size: 29px;
        line-height: 1;
        font-weight: 720;
        fill: #07080b;
        letter-spacing: 0;
      }
      .section-title {
        font-family: "Inter", "SF Pro Display", -apple-system, BlinkMacSystemFont, "Segoe UI", sans-serif;
        font-size: 24px;
        font-weight: 720;
        fill: #07080b;
        letter-spacing: 0;
      }
      .group-title {
        font-family: "Inter", "SF Pro Text", -apple-system, BlinkMacSystemFont, "Segoe UI", sans-serif;
        font-size: 20px;
        font-weight: 690;
        fill: #07080b;
        letter-spacing: 0;
      }
      .label {
        font-family: "Inter", "SF Pro Text", -apple-system, BlinkMacSystemFont, "Segoe UI", sans-serif;
        font-size: 17px;
        font-weight: 440;
        fill: #0a0b0f;
        letter-spacing: 0;
      }
      .bottom-label {
        font-family: "Inter", "SF Pro Text", -apple-system, BlinkMacSystemFont, "Segoe UI", sans-serif;
        font-size: 20px;
        font-weight: 520;
        fill: #0a0b0f;
        letter-spacing: 0;
      }
      .panel {
        fill: url(#panelFill);
        stroke: #b8d8f6;
        stroke-width: 1.05;
      }
      .card {
        fill: url(#cardFill);
        stroke: #b9d7f4;
        stroke-width: 1.05;
      }
      .pill,
      .group-box {
        fill: rgba(255,255,255,0.5);
        stroke: #bdd7f2;
        stroke-width: 1.05;
      }
      .line-art {
        fill: none;
        stroke: #ffffff;
        stroke-width: 2.7;
        stroke-linecap: round;
        stroke-linejoin: round;
      }
      .line-art-thin {
        fill: none;
        stroke: #ffffff;
        stroke-width: 2.2;
        stroke-linecap: round;
        stroke-linejoin: round;
      }
      .white-fill {
        fill: #ffffff;
      }
      .label-mask {
        fill: #ffffff;
      }
    </style>
  </defs>

  <rect width="1536" height="1024" fill="url(#bg)"/>

  <g opacity="0.42">
    <path d="M0 95 C115 190 188 237 334 244 C495 251 624 182 768 207 C960 240 1075 389 1214 386 C1346 383 1438 266 1536 206" fill="none" stroke="#b9dcf6" stroke-width="1.2"/>
    <path d="M0 348 C118 252 288 217 471 275 C687 343 778 465 986 419 C1176 377 1301 247 1536 318" fill="none" stroke="#d6effc" stroke-width="13" stroke-opacity="0.45"/>
    <path d="M0 467 C199 412 330 403 513 455 C727 516 914 568 1090 501 C1247 441 1397 424 1536 469" fill="none" stroke="#ffffff" stroke-width="2" stroke-opacity="0.6"/>
    <path d="M0 615 C168 559 301 549 459 585 C607 619 722 702 894 663 C1054 626 1148 516 1309 548 C1405 567 1477 626 1536 656" fill="none" stroke="#b7d9f4" stroke-width="1"/>
  </g>
  <g opacity="0.18">
    <path d="M1325 93 L1536 0 L1536 218 L1325 333 Z" fill="#ffffff"/>
    <path d="M0 770 L193 686 L374 744 L171 840 Z" fill="#ffffff"/>
    <path d="M1379 804 L1536 722 L1536 1024 L1280 1024 Z" fill="#ffffff"/>
  </g>

  <!-- Outer layout panels -->
  <rect class="panel" x="50" y="32" width="975" height="856" rx="18" filter="url(#softShadow)"/>
  <rect class="panel" x="1044" y="32" width="449" height="856" rx="18" filter="url(#softShadow)"/>

  <text class="title" x="537.5" y="78" text-anchor="middle">DataGallery Core</text>
  <text class="title" x="1268.5" y="78" text-anchor="middle">Data-Studio &amp; Data-Ops</text>

  <!-- Left: Data Intelligence Framework -->
  <rect class="card" x="77" y="103" width="922" height="402" rx="12" filter="url(#tinyShadow)"/>
  <g transform="translate(111 115)">
    <rect width="56" height="56" rx="11" fill="url(#cyanIcon)"/>
    <path class="line-art-thin" d="M19 17 L36 24 L35 40 L18 34 Z"/>
    <path class="line-art-thin" d="M19 17 L18 34 M36 24 L44 15 M35 40 L44 45 M18 34 L10 42 M19 17 L11 10"/>
    <circle class="white-fill" cx="19" cy="17" r="4"/>
    <circle class="white-fill" cx="36" cy="24" r="4"/>
    <circle class="white-fill" cx="35" cy="40" r="4"/>
    <circle class="white-fill" cx="18" cy="34" r="4"/>
    <circle class="white-fill" cx="44" cy="15" r="3.5"/>
    <circle class="white-fill" cx="44" cy="45" r="3.5"/>
    <circle class="white-fill" cx="10" cy="42" r="3.5"/>
    <circle class="white-fill" cx="11" cy="10" r="3.5"/>
  </g>
  <text class="section-title" x="196" y="153">Data Intelligence Framework</text>

  <rect class="pill" x="111" y="179" width="848" height="43" rx="6"/>
  <text class="label" x="535" y="206" text-anchor="middle">DataAgent SDK</text>

  <rect class="group-box" x="111" y="246" width="848" height="144" rx="12"/>
  <rect class="label-mask" x="137" y="235" width="185" height="24"/>
  <text class="group-title" x="138" y="254">Data Agent Engine</text>
  <rect class="pill" x="123" y="271" width="276" height="45" rx="6"/>
  <rect class="pill" x="421" y="271" width="259" height="45" rx="6"/>
  <rect class="pill" x="703" y="271" width="246" height="45" rx="6"/>
  <rect class="pill" x="123" y="329" width="276" height="45" rx="6"/>
  <rect class="pill" x="421" y="329" width="259" height="45" rx="6"/>
  <rect class="pill" x="703" y="329" width="246" height="45" rx="6"/>
  <text class="label" x="261" y="300" text-anchor="middle">Intent Understanding</text>
  <text class="label" x="550.5" y="300" text-anchor="middle">Schema Linking</text>
  <text class="label" x="826" y="300" text-anchor="middle">SQL Generation</text>
  <text class="label" x="261" y="358" text-anchor="middle">Execution Validation</text>
  <text class="label" x="550.5" y="358" text-anchor="middle">Reflection &amp; Repair</text>
  <text class="label" x="826" y="358" text-anchor="middle">Confidence Selector</text>

  <rect class="group-box" x="111" y="411" width="848" height="80" rx="12"/>
  <rect class="label-mask" x="137" y="400" width="166" height="24"/>
  <text class="group-title" x="138" y="419">Data Agent Shell</text>
  <rect class="pill" x="123" y="433" width="276" height="45" rx="6"/>
  <rect class="pill" x="421" y="433" width="259" height="45" rx="6"/>
  <rect class="pill" x="703" y="433" width="246" height="45" rx="6"/>
  <text class="label" x="261" y="462" text-anchor="middle">Privilege Control</text>
  <text class="label" x="550.5" y="462" text-anchor="middle">Tool Guardrail</text>
  <text class="label" x="826" y="462" text-anchor="middle">Privacy-aware Routing</text>

  <!-- Left: Semantic Distributed Runtime -->
  <rect class="card" x="77" y="515" width="922" height="174" rx="12" filter="url(#tinyShadow)"/>
  <g transform="translate(111 522)">
    <rect width="50" height="50" rx="10" fill="url(#orangeIcon)"/>
    <path class="white-fill" d="M25 10 L39 17 L25 24 L11 17 Z"/>
    <path class="line-art" d="M11 25 L25 32 L39 25"/>
    <path class="line-art" d="M11 33 L25 40 L39 33"/>
  </g>
  <text class="section-title" x="196" y="555">Semantic Distributed Runtime</text>
  <rect class="pill" x="111" y="578" width="848" height="42" rx="6"/>
  <text class="label" x="535" y="605" text-anchor="middle">Semantic Service SDK</text>
  <rect class="pill" x="111" y="631" width="275" height="45" rx="6"/>
  <rect class="pill" x="411" y="631" width="267" height="45" rx="6"/>
  <rect class="pill" x="704" y="631" width="255" height="45" rx="6"/>
  <text class="label" x="248.5" y="660" text-anchor="middle">Metadata Ingestion</text>
  <text class="label" x="544.5" y="660" text-anchor="middle">Ontology Modeling</text>
  <text class="label" x="831.5" y="660" text-anchor="middle">Metric Registry</text>

  <!-- Left: Data System Service -->
  <rect class="card" x="77" y="699" width="922" height="173" rx="12" filter="url(#tinyShadow)"/>
  <g transform="translate(111 708)">
    <rect width="50" height="50" rx="10" fill="url(#purpleIcon)"/>
    <path class="line-art-thin" d="M25 10 L38 17.5 L38 32.5 L25 40 L12 32.5 L12 17.5 Z"/>
    <path class="line-art-thin" d="M12 17.5 L25 25 L38 17.5"/>
    <path class="line-art-thin" d="M25 25 L25 40"/>
  </g>
  <text class="section-title" x="196" y="743">Data System Service</text>
  <rect class="pill" x="111" y="763" width="848" height="40" rx="6"/>
  <text class="label" x="535" y="790" text-anchor="middle">Data POSIX</text>
  <rect class="pill" x="111" y="815" width="275" height="43" rx="6"/>
  <rect class="pill" x="411" y="815" width="267" height="43" rx="6"/>
  <rect class="pill" x="704" y="815" width="255" height="43" rx="6"/>
  <text class="label" x="248.5" y="842" text-anchor="middle">System Sandbox</text>
  <text class="label" x="544.5" y="842" text-anchor="middle">Memory Storage</text>
  <text class="label" x="831.5" y="842" text-anchor="middle">Agent UI / Web</text>

  <!-- Right: Data Studio -->
  <rect class="card" x="1067" y="104" width="399" height="413" rx="12" filter="url(#tinyShadow)"/>
  <g transform="translate(1090 130)">
    <rect width="56" height="56" rx="11" fill="url(#blueIcon)"/>
    <path class="line-art-thin" d="M28 14 C18 14 12 21 12 29 C12 38 20 44 29 44 L34 44 C37 44 39 42 39 39 C39 36 37 35 34 35 L32 35 C30 35 29 34 29 32 C29 30 31 29 33 29 L38 29 C42 29 44 26 43 23 C41 18 36 14 28 14 Z"/>
    <circle class="white-fill" cx="23" cy="24" r="2.8"/>
    <circle class="white-fill" cx="32" cy="23" r="2.8"/>
    <circle class="white-fill" cx="20" cy="33" r="2.8"/>
  </g>
  <text class="section-title" x="1168" y="168">Data Studio</text>
  <rect class="pill" x="1094" y="209" width="344" height="53" rx="6"/>
  <rect class="pill" x="1094" y="284" width="344" height="54" rx="6"/>
  <rect class="pill" x="1094" y="360" width="344" height="54" rx="6"/>
  <rect class="pill" x="1094" y="436" width="344" height="54" rx="6"/>
  <text class="label" x="1266" y="243" text-anchor="middle">Text-to-SQL</text>
  <text class="label" x="1266" y="318" text-anchor="middle">Data Analysis</text>
  <text class="label" x="1266" y="394" text-anchor="middle">Data Engineering</text>
  <text class="label" x="1266" y="470" text-anchor="middle">Business Process</text>

  <!-- Right: Data Ops -->
  <rect class="card" x="1067" y="533" width="399" height="332" rx="12" filter="url(#tinyShadow)"/>
  <g transform="translate(1090 553)">
    <rect width="56" height="56" rx="11" fill="url(#roseIcon)"/>
    <circle class="line-art-thin" cx="28" cy="28" r="15"/>
    <path class="line-art-thin" d="M13 29 H22 L25 19 L31 37 L35 28 H43"/>
  </g>
  <text class="section-title" x="1168" y="590">Data Ops</text>
  <rect class="pill" x="1094" y="626" width="344" height="53" rx="6"/>
  <rect class="pill" x="1094" y="698" width="344" height="53" rx="6"/>
  <rect class="pill" x="1094" y="771" width="344" height="53" rx="6"/>
  <text class="label" x="1266" y="660" text-anchor="middle">Full-chain Visual Tuning</text>
  <text class="label" x="1266" y="732" text-anchor="middle">Benchmark &amp; Eval</text>
  <text class="label" x="1266" y="805" text-anchor="middle">Observation</text>

  <!-- Bottom foundation row -->
  <rect class="panel" x="50" y="903" width="452" height="88" rx="14" filter="url(#tinyShadow)"/>
  <rect class="panel" x="519" y="903" width="480" height="88" rx="14" filter="url(#tinyShadow)"/>
  <rect class="panel" x="1017" y="903" width="476" height="88" rx="14" filter="url(#tinyShadow)"/>

  <g transform="translate(121 917)">
    <rect width="60" height="60" rx="12" fill="url(#blueIcon)"/>
    <path class="line-art-thin" d="M30 10 L47 20 L47 40 L30 50 L13 40 L13 20 Z"/>
    <path class="line-art-thin" d="M30 10 V50 M13 20 L47 40 M47 20 L13 40"/>
    <circle class="white-fill" cx="30" cy="10" r="3.4"/>
    <circle class="white-fill" cx="47" cy="20" r="3.4"/>
    <circle class="white-fill" cx="47" cy="40" r="3.4"/>
    <circle class="white-fill" cx="30" cy="50" r="3.4"/>
    <circle class="white-fill" cx="13" cy="40" r="3.4"/>
    <circle class="white-fill" cx="13" cy="20" r="3.4"/>
  </g>
  <text class="bottom-label" x="279" y="957" text-anchor="middle">Models</text>

  <g transform="translate(591 917)">
    <rect width="60" height="60" rx="12" fill="url(#tealIcon)"/>
    <ellipse class="line-art" cx="30" cy="18" rx="13" ry="6"/>
    <path class="line-art" d="M17 18 V41 C17 45 23 48 30 48 C37 48 43 45 43 41 V18"/>
    <path class="line-art" d="M17 30 C17 34 23 37 30 37 C37 37 43 34 43 30"/>
  </g>
  <text class="bottom-label" x="759" y="957" text-anchor="middle">Data Infrastructure</text>

  <g transform="translate(1080 917)">
    <rect width="60" height="60" rx="12" fill="url(#chipIcon)"/>
    <rect class="line-art-thin" x="21" y="21" width="18" height="18" rx="2"/>
    <path class="line-art-thin" d="M18 13 V18 M26 13 V18 M34 13 V18 M42 13 V18"/>
    <path class="line-art-thin" d="M18 42 V47 M26 42 V47 M34 42 V47 M42 42 V47"/>
    <path class="line-art-thin" d="M13 18 H18 M13 26 H18 M13 34 H18 M13 42 H18"/>
    <path class="line-art-thin" d="M42 18 H47 M42 26 H47 M42 34 H47 M42 42 H47"/>
  </g>
  <text class="bottom-label" x="1272" y="957" text-anchor="middle">Hardware / Chipsets</text>
</svg>
