<?xml version="1.0" encoding="UTF-8" standalone="no"?>
<svg
   height="791.87109"
   version="1.1"
   viewBox="0 0 1473.5 791.87109"
   width="1473.5"
   id="svg53"
   xmlns="http://www.w3.org/2000/svg"
   xmlns:svg="http://www.w3.org/2000/svg"
   xmlns:ns2="http://www.iki.fi/pav/software/textext/">
  <defs
     id="defs4" />
  <text
     fill="#173a5e"
     font-family="Arial, Helvetica, sans-serif"
     font-size="40px"
     font-weight="bold"
     text-anchor="start"
     x="0.75"
     y="29.121094"
     id="text4"><tspan
       dy="0"
       x="0.75"
       id="tspan4">Supervision Masks for Latent-then-Explicit Reasoning</tspan></text>
  <text
     fill="#52647a"
     font-family="Arial, Helvetica, sans-serif"
     font-size="22px"
     font-weight="normal"
     text-anchor="start"
     x="0.75"
     y="67.121094"
     id="text5"><tspan
       dy="0"
       x="0.75"
       id="tspan5">A book-ready recipe for assigning CE labels, teacher KL, and loss weights over token regions.</tspan></text>
  <rect
     fill="#fbfdff"
     height="235"
     opacity="1"
     rx="18"
     ry="18"
     stroke="#d6e0ee"
     stroke-width="1.5"
     width="1472"
     x="0.75"
     y="101.12109"
     id="rect5" />
  <text
     fill="#173a5e"
     font-family="Arial, Helvetica, sans-serif"
     font-size="26px"
     font-weight="bold"
     text-anchor="start"
     x="28.75"
     y="148.12109"
     id="text6"><tspan
       dy="0"
       x="28.75"
       id="tspan6">1 Segment the training sequence</tspan></text>
  <rect
     fill="#f7f9fc"
     height="78"
     opacity="1"
     rx="12"
     ry="12"
     stroke="#334155"
     stroke-width="2"
     width="184.86592"
     x="14.847786"
     y="194.12109"
     id="rect6" />
  <text
     fill="#334155"
     font-family="Arial, Helvetica, sans-serif"
     font-size="22px"
     font-weight="bold"
     text-anchor="middle"
     x="105.1869"
     y="221.12109"
     id="text7"><tspan
       dy="0"
       x="105.1869"
       id="tspan7">Prompt</tspan></text>
  <text
     fill="#334155"
     font-family="Arial, Helvetica, sans-serif"
     font-size="18px"
     font-weight="normal"
     text-anchor="middle"
     x="105.1869"
     y="251.12109"
     id="text8"><tspan
       dy="0"
       x="105.1869"
       id="tspan8">user question + prefix</tspan></text>
  <rect
     fill="#eaf4ff"
     height="78"
     opacity="1"
     rx="12"
     ry="12"
     stroke="#2b6cb0"
     stroke-width="2"
     width="410"
     x="216.75"
     y="194.12109"
     id="rect8" />
  <text
     fill="#334155"
     font-family="Arial, Helvetica, sans-serif"
     font-size="22px"
     font-weight="bold"
     text-anchor="middle"
     x="421.75"
     y="221.12109"
     id="text9"><tspan
       dy="0"
       x="421.75"
       id="tspan9">Latent rollout</tspan></text>
  <text
     fill="#334155"
     font-family="Arial, Helvetica, sans-serif"
     font-size="18px"
     font-weight="normal"
     text-anchor="middle"
     x="421.75"
     y="251.12109"
     id="text10"><tspan
       dy="0"
       x="421.75"
       id="tspan10">&lt;latent_think&gt; l₁ … lₘ &lt;/latent_think&gt;</tspan></text>
  <rect
     fill="#fff2e3"
     height="78"
     opacity="1"
     rx="12"
     ry="12"
     stroke="#e67e22"
     stroke-width="2"
     width="360"
     x="642.75"
     y="194.12109"
     id="rect10" />
  <text
     fill="#334155"
     font-family="Arial, Helvetica, sans-serif"
     font-size="22px"
     font-weight="bold"
     text-anchor="middle"
     x="822.75"
     y="221.12109"
     id="text11"><tspan
       dy="0"
       x="822.75"
       id="tspan11">Explicit CoT</tspan></text>
  <text
     fill="#334155"
     font-family="Arial, Helvetica, sans-serif"
     font-size="18px"
     font-weight="normal"
     text-anchor="middle"
     x="822.75"
     y="251.12109"
     id="text12"><tspan
       dy="0"
       x="822.75"
       id="tspan12">&lt;think&gt; t₁ … tₙ &lt;/think&gt;</tspan></text>
  <rect
     fill="#eaf7ea"
     height="78"
     opacity="1"
     rx="12"
     ry="12"
     stroke="#2e7d32"
     stroke-width="2"
     width="270"
     x="1024.75"
     y="194.12109"
     id="rect12" />
  <text
     fill="#334155"
     font-family="Arial, Helvetica, sans-serif"
     font-size="22px"
     font-weight="bold"
     text-anchor="middle"
     x="1159.75"
     y="221.12109"
     id="text13"><tspan
       dy="0"
       x="1159.75"
       id="tspan13">Final answer</tspan></text>
  <text
     fill="#334155"
     font-family="Arial, Helvetica, sans-serif"
     font-size="18px"
     font-weight="normal"
     text-anchor="middle"
     x="1159.75"
     y="251.12109"
     id="text14"><tspan
       dy="0"
       x="1159.75"
       id="tspan14">a₁ … aₖ</tspan></text>
  <rect
     fill="#f8fafc"
     height="78"
     opacity="1"
     rx="12"
     ry="12"
     stroke="#334155"
     stroke-width="2"
     width="140"
     x="1314.75"
     y="194.12109"
     id="rect14" />
  <text
     fill="#334155"
     font-family="Arial, Helvetica, sans-serif"
     font-size="22px"
     font-weight="bold"
     text-anchor="middle"
     x="1384.75"
     y="221.12109"
     id="text15"><tspan
       dy="0"
       x="1384.75"
       id="tspan15">End token</tspan></text>
  <text
     fill="#334155"
     font-family="Arial, Helvetica, sans-serif"
     font-size="18px"
     font-weight="normal"
     text-anchor="middle"
     x="1384.75"
     y="251.12109"
     id="text16"><tspan
       dy="0"
       x="1384.75"
       id="tspan16">&lt;lim_end&gt;</tspan></text>
  <rect
     fill="#ffffff"
     height="420"
     opacity="1"
     rx="18"
     ry="18"
     stroke="#d6e0ee"
     stroke-width="1.5"
     width="1472"
     x="0.75"
     y="371.12109"
     id="rect16" />
  <text
     fill="#173a5e"
     font-family="Arial, Helvetica, sans-serif"
     font-size="26px"
     font-weight="bold"
     text-anchor="start"
     x="28.75"
     y="417.12109"
     id="text17"><tspan
       dy="0"
       x="28.75"
       id="tspan17">2 Set masks and loss weights</tspan></text>
  <text
     fill="#52647a"
     font-family="Arial, Helvetica, sans-serif"
     font-size="20px"
     font-weight="normal"
     text-anchor="start"
     x="28.75"
     y="449.12109"
     id="text18"><tspan
       dy="0"
       x="28.75"
       id="tspan18">Prompt and latent tokens are masked out; CoT and answer tokens receive CE and teacher-KL supervision.</tspan></text>
  <text
     fill="#52647a"
     font-family="Arial, Helvetica, sans-serif"
     font-size="18px"
     font-weight="bold"
     text-anchor="middle"
     x="127.75"
     y="513.12109"
     id="text19"><tspan
       dy="0"
       x="127.75"
       id="tspan19">Token region</tspan></text>
  <rect
     fill="#f7f9fc"
     height="58"
     opacity="1"
     rx="10"
     ry="10"
     stroke="#334155"
     stroke-width="1.8"
     width="250"
     x="222.75"
     y="476.12109"
     id="rect19" />
  <text
     fill="#334155"
     font-family="Arial, Helvetica, sans-serif"
     font-size="20px"
     font-weight="bold"
     text-anchor="middle"
     x="347.75"
     y="512.12109"
     id="text20"><tspan
       dy="0"
       x="347.75"
       id="tspan20">Prompt</tspan></text>
  <rect
     fill="#eaf4ff"
     height="58"
     opacity="1"
     rx="10"
     ry="10"
     stroke="#2b6cb0"
     stroke-width="1.8"
     width="340"
     x="480.75"
     y="476.12109"
     id="rect20" />
  <text
     fill="#334155"
     font-family="Arial, Helvetica, sans-serif"
     font-size="20px"
     font-weight="bold"
     text-anchor="middle"
     x="650.75"
     y="512.12109"
     id="text21"><tspan
       dy="0"
       x="650.75"
       id="tspan21">Latent rollout</tspan></text>
  <rect
     fill="#fff2e3"
     height="58"
     opacity="1"
     rx="10"
     ry="10"
     stroke="#e67e22"
     stroke-width="1.8"
     width="330"
     x="828.75"
     y="476.12109"
     id="rect21" />
  <text
     fill="#334155"
     font-family="Arial, Helvetica, sans-serif"
     font-size="20px"
     font-weight="bold"
     text-anchor="middle"
     x="993.75"
     y="512.12109"
     id="text22"><tspan
       dy="0"
       x="993.75"
       id="tspan22">Explicit CoT</tspan></text>
  <rect
     fill="#eaf7ea"
     height="58"
     opacity="1"
     rx="10"
     ry="10"
     stroke="#2e7d32"
     stroke-width="1.8"
     width="300"
     x="1166.75"
     y="476.12109"
     id="rect22" />
  <text
     fill="#334155"
     font-family="Arial, Helvetica, sans-serif"
     font-size="20px"
     font-weight="bold"
     text-anchor="middle"
     x="1316.75"
     y="512.12109"
     id="text23"><tspan
       dy="0"
       x="1316.75"
       id="tspan23">Final answer</tspan></text>
  <rect
     fill="#f8fafc"
     height="54"
     opacity="1"
     rx="8"
     ry="8"
     stroke="#cbd5e1"
     stroke-width="1.2"
     width="180"
     x="32.75"
     y="544.12109"
     id="rect23" />
  <text
     fill="#334155"
     font-family="Arial, Helvetica, sans-serif"
     font-size="16.5px"
     font-weight="bold"
     text-anchor="middle"
     x="122.75"
     y="577.12109"
     id="text24"><tspan
       dy="0"
       x="122.75"
       id="tspan24">CE mask</tspan></text>
  <rect
     fill="#fafafa"
     height="54"
     opacity="1"
     rx="8"
     ry="8"
     stroke="#cbd5e1"
     stroke-width="1.1"
     width="250"
     x="222.75"
     y="544.12109"
     id="rect24" />
  <text
     fill="#52647a"
     font-family="Arial, Helvetica, sans-serif"
     font-size="17.5px"
     font-weight="normal"
     text-anchor="middle"
     x="347.75"
     y="577.12109"
     id="text25"><tspan
       dy="0"
       x="347.75"
       id="tspan25">OFF</tspan></text>
  <rect
     fill="#fafafa"
     height="54"
     opacity="1"
     rx="8"
     ry="8"
     stroke="#cbd5e1"
     stroke-width="1.1"
     width="340"
     x="480.75"
     y="544.12109"
     id="rect25" />
  <text
     fill="#52647a"
     font-family="Arial, Helvetica, sans-serif"
     font-size="17.5px"
     font-weight="normal"
     text-anchor="middle"
     x="650.75"
     y="577.12109"
     id="text26"><tspan
       dy="0"
       x="650.75"
       id="tspan26">OFF</tspan></text>
  <rect
     fill="#fff2e3"
     height="54"
     opacity="1"
     rx="8"
     ry="8"
     stroke="#f0b178"
     stroke-width="1.1"
     width="330"
     x="828.75"
     y="544.12109"
     id="rect26" />
  <text
     fill="#334155"
     font-family="Arial, Helvetica, sans-serif"
     font-size="17.5px"
     font-weight="bold"
     text-anchor="middle"
     x="993.75"
     y="577.12109"
     id="text27"><tspan
       dy="0"
       x="993.75"
       id="tspan27">ON</tspan></text>
  <rect
     fill="#eaf7ea"
     height="54"
     opacity="1"
     rx="8"
     ry="8"
     stroke="#92c993"
     stroke-width="1.1"
     width="300"
     x="1166.75"
     y="544.12109"
     id="rect27" />
  <text
     fill="#334155"
     font-family="Arial, Helvetica, sans-serif"
     font-size="17.5px"
     font-weight="bold"
     text-anchor="middle"
     x="1316.75"
     y="577.12109"
     id="text28"><tspan
       dy="0"
       x="1316.75"
       id="tspan28">ON</tspan></text>
  <rect
     fill="#f8fafc"
     height="54"
     opacity="1"
     rx="8"
     ry="8"
     stroke="#cbd5e1"
     stroke-width="1.2"
     width="180"
     x="32.75"
     y="606.12109"
     id="rect28" />
  <text
     fill="#334155"
     font-family="Arial, Helvetica, sans-serif"
     font-size="16.5px"
     font-weight="bold"
     text-anchor="middle"
     x="122.75"
     y="639.12109"
     id="text29"><tspan
       dy="0"
       x="122.75"
       id="tspan29">Teacher KL mask</tspan></text>
  <rect
     fill="#fafafa"
     height="54"
     opacity="1"
     rx="8"
     ry="8"
     stroke="#cbd5e1"
     stroke-width="1.1"
     width="250"
     x="222.75"
     y="606.12109"
     id="rect29" />
  <text
     fill="#52647a"
     font-family="Arial, Helvetica, sans-serif"
     font-size="17.5px"
     font-weight="normal"
     text-anchor="middle"
     x="347.75"
     y="639.12109"
     id="text30"><tspan
       dy="0"
       x="347.75"
       id="tspan30">OFF</tspan></text>
  <rect
     fill="#fafafa"
     height="54"
     opacity="1"
     rx="8"
     ry="8"
     stroke="#cbd5e1"
     stroke-width="1.1"
     width="340"
     x="480.75"
     y="606.12109"
     id="rect30" />
  <text
     fill="#52647a"
     font-family="Arial, Helvetica, sans-serif"
     font-size="17.5px"
     font-weight="normal"
     text-anchor="middle"
     x="650.75"
     y="639.12109"
     id="text31"><tspan
       dy="0"
       x="650.75"
       id="tspan31">OFF</tspan></text>
  <rect
     fill="#fff2e3"
     height="54"
     opacity="1"
     rx="8"
     ry="8"
     stroke="#f0b178"
     stroke-width="1.1"
     width="330"
     x="828.75"
     y="606.12109"
     id="rect31" />
  <text
     fill="#334155"
     font-family="Arial, Helvetica, sans-serif"
     font-size="17.5px"
     font-weight="bold"
     text-anchor="middle"
     x="993.75"
     y="639.12109"
     id="text32"><tspan
       dy="0"
       x="993.75"
       id="tspan32">ON</tspan></text>
  <rect
     fill="#eaf7ea"
     height="54"
     opacity="1"
     rx="8"
     ry="8"
     stroke="#92c993"
     stroke-width="1.1"
     width="300"
     x="1166.75"
     y="606.12109"
     id="rect32" />
  <text
     fill="#334155"
     font-family="Arial, Helvetica, sans-serif"
     font-size="17.5px"
     font-weight="bold"
     text-anchor="middle"
     x="1316.75"
     y="639.12109"
     id="text33"><tspan
       dy="0"
       x="1316.75"
       id="tspan33">ON</tspan></text>
  <rect
     fill="#f8fafc"
     height="54"
     opacity="1"
     rx="8"
     ry="8"
     stroke="#cbd5e1"
     stroke-width="1.2"
     width="180"
     x="32.75"
     y="668.12109"
     id="rect33" />
  <text
     fill="#334155"
     font-family="Arial, Helvetica, sans-serif"
     font-size="16.5px"
     font-weight="bold"
     text-anchor="middle"
     x="122.75"
     y="701.12109"
     id="text34"><tspan
       dy="0"
       x="122.75"
       id="tspan34">Loss weight</tspan></text>
  <rect
     fill="#fafafa"
     height="54"
     opacity="1"
     rx="8"
     ry="8"
     stroke="#cbd5e1"
     stroke-width="1.1"
     width="250"
     x="222.75"
     y="668.12109"
     id="rect34" />
  <text
     fill="#52647a"
     font-family="Arial, Helvetica, sans-serif"
     font-size="17.5px"
     font-weight="normal"
     text-anchor="middle"
     x="347.75"
     y="701.12109"
     id="text35"><tspan
       dy="0"
       x="347.75"
       id="tspan35">0</tspan></text>
  <rect
     fill="#fafafa"
     height="54"
     opacity="1"
     rx="8"
     ry="8"
     stroke="#cbd5e1"
     stroke-width="1.1"
     width="340"
     x="480.75"
     y="668.12109"
     id="rect35" />
  <text
     fill="#52647a"
     font-family="Arial, Helvetica, sans-serif"
     font-size="17.5px"
     font-weight="normal"
     text-anchor="middle"
     x="650.75"
     y="701.12109"
     id="text36"><tspan
       dy="0"
       x="650.75"
       id="tspan36">0</tspan></text>
  <rect
     fill="#fff2e3"
     height="54"
     opacity="1"
     rx="8"
     ry="8"
     stroke="#f0b178"
     stroke-width="1.1"
     width="330"
     x="828.75"
     y="668.12109"
     id="rect36" />
  <rect
     fill="#eaf7ea"
     height="54"
     opacity="1"
     rx="8"
     ry="8"
     stroke="#92c993"
     stroke-width="1.1"
     width="300"
     x="1166.75"
     y="668.12109"
     id="rect37" />
  <text
     fill="#334155"
     font-family="Arial, Helvetica, sans-serif"
     font-size="17.5px"
     font-weight="normal"
     text-anchor="middle"
     x="1316.75"
     y="701.12109"
     id="text38"><tspan
       dy="0"
       x="1316.75"
       id="tspan38">1.0</tspan></text>
  <rect
     fill="#f8fafc"
     height="54"
     opacity="1"
     rx="8"
     ry="8"
     stroke="#cbd5e1"
     stroke-width="1.2"
     width="180"
     x="32.75"
     y="730.12109"
     id="rect38" />
  <text
     fill="#334155"
     font-family="Arial, Helvetica, sans-serif"
     font-size="16.5px"
     font-weight="bold"
     text-anchor="middle"
     x="122.75"
     y="763.12109"
     id="text39"><tspan
       dy="0"
       x="122.75"
       id="tspan39">Supervised target</tspan></text>
  <rect
     fill="#fafafa"
     height="54"
     opacity="1"
     rx="8"
     ry="8"
     stroke="#cbd5e1"
     stroke-width="1.1"
     width="250"
     x="222.75"
     y="730.12109"
     id="rect39" />
  <text
     fill="#52647a"
     font-family="Arial, Helvetica, sans-serif"
     font-size="17.5px"
     font-weight="normal"
     text-anchor="middle"
     x="347.75"
     y="763.12109"
     id="text40"><tspan
       dy="0"
       x="347.75"
       id="tspan40">none</tspan></text>
  <rect
     fill="#fafafa"
     height="54"
     opacity="1"
     rx="8"
     ry="8"
     stroke="#cbd5e1"
     stroke-width="1.1"
     width="340"
     x="480.75"
     y="730.12109"
     id="rect40" />
  <text
     fill="#52647a"
     font-family="Arial, Helvetica, sans-serif"
     font-size="17.5px"
     font-weight="normal"
     text-anchor="middle"
     x="650.75"
     y="763.12109"
     id="text41"><tspan
       dy="0"
       x="650.75"
       id="tspan41">none</tspan></text>
  <rect
     fill="#fff2e3"
     height="54"
     opacity="1"
     rx="8"
     ry="8"
     stroke="#f0b178"
     stroke-width="1.1"
     width="330"
     x="828.75"
     y="730.12109"
     id="rect41" />
  <text
     fill="#334155"
     font-family="Arial, Helvetica, sans-serif"
     font-size="17.5px"
     font-weight="normal"
     text-anchor="middle"
     x="993.75"
     y="763.12109"
     id="text42"><tspan
       dy="0"
       x="993.75"
       id="tspan42">teacher CoT + CE label</tspan></text>
  <rect
     fill="#eaf7ea"
     height="54"
     opacity="1"
     rx="8"
     ry="8"
     stroke="#92c993"
     stroke-width="1.1"
     width="300"
     x="1166.75"
     y="730.12109"
     id="rect42" />
  <text
     fill="#334155"
     font-family="Arial, Helvetica, sans-serif"
     font-size="17.5px"
     font-weight="normal"
     text-anchor="middle"
     x="1316.75"
     y="763.12109"
     id="text43"><tspan
       dy="0"
       x="1316.75"
       id="tspan43">teacher answer + CE label</tspan></text>
  <g
     id="g9041"
     transform="matrix(2.53735,0,0,2.53735,969.6509,689.98248)"
     ns2:version="1.13.0"
     ns2:texconverter="pdflatex"
     ns2:pdfconverter="inkscape"
     ns2:text="$$\na_{CoT}\n$$"
     ns2:preamble="C:\Users\TioeAre\AppData\Roaming\inkscape\extensions\textext\default_packages.tex"
     ns2:scale="1.9030209325523315"
     ns2:alignment="middle center"
     ns2:jacobian_sqrt="2.53735">
    <defs
       id="defs9848" />
    <g
       fill="#000000"
       fill-opacity="1"
       id="g3046"
       transform="translate(-295.191,-142.314)">
      <g
         transform="translate(294.785,146.72)"
         id="g5198">
        <path
           d="M 3.71875,-3.765625 C 3.53125,-4.140625 3.25,-4.40625 2.796875,-4.40625 c -1.15625,0 -2.390625,1.46875 -2.390625,2.921875 0,0.9375 0.546875,1.59375 1.3125,1.59375 0.203125,0 0.703125,-0.046875 1.296875,-0.75 0.078125,0.421875 0.4375,0.75 0.90625,0.75 0.359375,0 0.578125,-0.234375 0.75,-0.546875 0.15625,-0.359375 0.296875,-0.96875 0.296875,-0.984375 0,-0.109375 -0.09375,-0.109375 -0.125,-0.109375 -0.09375,0 -0.109375,0.046875 -0.140625,0.1875 -0.171875,0.640625 -0.34375,1.234375 -0.75,1.234375 -0.28125,0 -0.296875,-0.265625 -0.296875,-0.453125 0,-0.21875 0.015625,-0.3125 0.125,-0.75 C 3.890625,-1.71875 3.90625,-1.828125 4,-2.203125 L 4.359375,-3.59375 c 0.0625,-0.28125 0.0625,-0.296875 0.0625,-0.34375 0,-0.171875 -0.109375,-0.265625 -0.28125,-0.265625 -0.25,0 -0.390625,0.21875 -0.421875,0.4375 z M 3.078125,-1.1875 C 3.015625,-1 3.015625,-0.984375 2.875,-0.8125 2.4375,-0.265625 2.03125,-0.109375 1.75,-0.109375 c -0.5,0 -0.640625,-0.546875 -0.640625,-0.9375 0,-0.5 0.3125,-1.71875 0.546875,-2.1875 0.3125,-0.578125 0.75,-0.953125 1.15625,-0.953125 0.640625,0 0.78125,0.8125 0.78125,0.875 0,0.0625 -0.015625,0.125 -0.03125,0.171875 z m 0,0"
           id="path2467" />
      </g>
    </g>
    <g
       fill="#000000"
       fill-opacity="1"
       id="g6466"
       transform="translate(-295.191,-142.314)">
      <g
         transform="translate(300.051,148.214)"
         id="g8459">
        <path
           d="m 5.875,-4.8125 c 0,-0.03125 -0.015625,-0.09375 -0.09375,-0.09375 -0.046875,0 -0.0625,0.015625 -0.125,0.09375 l -0.5,0.53125 c -0.0625,-0.078125 -0.453125,-0.625 -1.3125,-0.625 -1.703125,0 -3.359375,1.5 -3.359375,3.078125 0,1.140625 0.890625,1.96875 2.140625,1.96875 0.375,0 1.046875,-0.078125 1.765625,-0.6875 0.546875,-0.46875 0.703125,-1.0625 0.703125,-1.125 0,-0.09375 -0.078125,-0.09375 -0.125,-0.09375 -0.078125,0 -0.09375,0.03125 -0.125,0.109375 -0.28125,0.953125 -1.25,1.546875 -2.09375,1.546875 -0.75,0 -1.5625,-0.40625 -1.5625,-1.5 0,-0.203125 0.046875,-1.296875 0.84375,-2.1875 0.484375,-0.53125 1.21875,-0.84375 1.875,-0.84375 0.8125,0 1.28125,0.578125 1.28125,1.359375 0,0.1875 -0.015625,0.25 -0.015625,0.28125 0,0.09375 0.09375,0.09375 0.125,0.09375 0.109375,0 0.109375,-0.015625 0.140625,-0.15625 z m 0,0"
           id="path194" />
      </g>
    </g>
    <g
       fill="#000000"
       fill-opacity="1"
       id="g7244"
       transform="translate(-295.191,-142.314)">
      <g
         transform="translate(306.254,148.214)"
         id="g7553">
        <path
           d="m 3.703125,-1.859375 c 0,-0.765625 -0.578125,-1.21875 -1.265625,-1.21875 -1.03125,0 -2,0.96875 -2,1.921875 0,0.703125 0.5,1.21875 1.265625,1.21875 1,0 2,-0.90625 2,-1.921875 z m -2,1.734375 c -0.34375,0 -0.6875,-0.21875 -0.6875,-0.78125 0,-0.28125 0.125,-0.96875 0.40625,-1.359375 C 1.71875,-2.703125 2.125,-2.875 2.4375,-2.875 c 0.375,0 0.6875,0.25 0.6875,0.765625 C 3.125,-1.9375 3.046875,-1.25 2.734375,-0.765625 2.46875,-0.34375 2.0625,-0.125 1.703125,-0.125 Z m 0,0"
           id="path7683" />
      </g>
      <g
         transform="translate(310.186,148.214)"
         id="g7022">
        <path
           d="m 3.390625,-4.21875 c 0.046875,-0.203125 0.0625,-0.21875 0.21875,-0.234375 0.03125,0 0.265625,0 0.40625,0 0.4375,0 0.609375,0 0.78125,0.046875 0.3125,0.09375 0.328125,0.296875 0.328125,0.546875 0,0.109375 0,0.203125 -0.046875,0.5625 L 5.0625,-3.21875 c 0,0.078125 0.046875,0.109375 0.125,0.109375 0.109375,0 0.109375,-0.0625 0.125,-0.171875 L 5.5,-4.609375 c 0,-0.09375 -0.078125,-0.09375 -0.203125,-0.09375 h -4.28125 c -0.171875,0 -0.1875,0 -0.234375,0.140625 l -0.453125,1.234375 c 0,0.03125 -0.03125,0.09375 -0.03125,0.125 0,0.03125 0.015625,0.09375 0.125,0.09375 0.09375,0 0.09375,-0.03125 0.140625,-0.171875 0.40625,-1.109375 0.640625,-1.171875 1.703125,-1.171875 h 0.28125 c 0.21875,0 0.21875,0 0.21875,0.0625 0,0 0,0.046875 -0.03125,0.140625 L 1.8125,-0.578125 C 1.75,-0.328125 1.734375,-0.25 1,-0.25 c -0.25,0 -0.3125,0 -0.3125,0.15625 C 0.6875,-0.078125 0.703125,0 0.8125,0 1,0 1.21875,-0.015625 1.40625,-0.015625 1.609375,-0.015625 1.8125,-0.03125 2,-0.03125 c 0.203125,0 0.4375,0 0.640625,0.015625 C 2.828125,-0.015625 3.03125,0 3.21875,0 3.28125,0 3.375,0 3.375,-0.15625 3.375,-0.25 3.3125,-0.25 3.09375,-0.25 c -0.125,0 -0.265625,-0.015625 -0.40625,-0.015625 -0.234375,-0.015625 -0.25,-0.046875 -0.25,-0.125 0,-0.0625 0,-0.0625 0.03125,-0.171875 z m 0,0"
           id="path4432" />
      </g>
    </g>
  </g>
</svg>
