<?xml version="1.0" encoding="UTF-8" standalone="no"?>
<svg
   width="1400"
   height="763"
   viewBox="0 0 1400 763"
   role="img"
   aria-labelledby="title desc"
   version="1.1"
   id="svg74"
   sodipodi:docname="ch36_01_compliance_shift_left_governance.svg"
   inkscape:version="1.4.4 (dcaf3e7, 2026-05-05)"
   xmlns:inkscape="http://www.inkscape.org/namespaces/inkscape"
   xmlns:sodipodi="http://sodipodi.sourceforge.net/DTD/sodipodi-0.dtd"
   xmlns="http://www.w3.org/2000/svg"
   xmlns:svg="http://www.w3.org/2000/svg">
  <sodipodi:namedview
     id="namedview74"
     pagecolor="#ffffff"
     bordercolor="#000000"
     borderopacity="0.25"
     inkscape:showpageshadow="2"
     inkscape:pageopacity="0.0"
     inkscape:pagecheckerboard="0"
     inkscape:deskcolor="#d1d1d1"
     inkscape:zoom="1.1205767"
     inkscape:cx="591.65965"
     inkscape:cy="514.46725"
     inkscape:window-width="1920"
     inkscape:window-height="1111"
     inkscape:window-x="-9"
     inkscape:window-y="-9"
     inkscape:window-maximized="1"
     inkscape:current-layer="svg74" />
  <title
     id="title">Enterprise Compliance: Shift-Left Compliance</title>
  <desc
     id="desc">A governance architecture that moves compliance from a final review into requirements, architecture, data engineering, model training, and continuous controls.</desc>
  <defs
     id="defs6">
    <linearGradient
       id="shiftBand"
       x1="0"
       y1="0"
       x2="1"
       y2="0">
      <stop
         offset="0"
         stop-color="#3f9fe0"
         id="stop1" />
      <stop
         offset="0.72"
         stop-color="#b9def5"
         id="stop2" />
      <stop
         offset="1"
         stop-color="#e8f4fb"
         id="stop3" />
    </linearGradient>
    <linearGradient
       id="processBlue"
       x1="0"
       y1="0"
       x2="0"
       y2="1">
      <stop
         offset="0"
         stop-color="#2783bd"
         id="stop4" />
      <stop
         offset="1"
         stop-color="#116a9f"
         id="stop5" />
    </linearGradient>
    <marker
       id="arrowBlue"
       markerWidth="10"
       markerHeight="10"
       refX="8"
       refY="5"
       orient="auto-start-reverse"
       markerUnits="strokeWidth">
      <path
         d="M0,0 L10,5 L0,10 Z"
         fill="#176b9c"
         id="path5" />
    </marker>
    <marker
       id="arrowGreen"
       markerWidth="10"
       markerHeight="10"
       refX="8"
       refY="5"
       orient="auto"
       markerUnits="strokeWidth">
      <path
         d="M0,0 L10,5 L0,10 Z"
         fill="#248a58"
         id="path6" />
    </marker>
  </defs>
  <rect
     width="1400"
     height="763"
     fill="#ffffff"
     id="rect6" />
  <text
     x="52"
     y="56"
     font-family="Arial, Helvetica, sans-serif"
     font-size="43"
     font-weight="700"
     fill="#171b1f"
     id="text6">Enterprise Compliance: Shift-Left Compliance</text>
  <!-- Shift-left direction and deployment context -->
  <path
     d="M47 118 L84 80 L84 90 L1124 90 L1153 118 L1124 147 L84 147 L84 157 Z"
     fill="url(#shiftBand)"
     id="path7" />
  <path
     d="M1125 90 L1400 90 L1400 147 L1125 147 L1153 118 Z"
     fill="#146f9f"
     id="path8" />
  <text
     x="1293.7882"
     y="127.9343"
     text-anchor="middle"
     font-family="Arial, Helvetica, sans-serif"
     font-size="26.571px"
     fill="#ffffff"
     id="text8"
     transform="scale(0.98410998,1.0161466)"
     style="stroke-width:1">System Deployment</text>
  <!-- Traditional late-stage compliance -->
  <text
     x="30"
     y="236"
     transform="rotate(-90 30 236)"
     text-anchor="middle"
     font-family="Arial, Helvetica, sans-serif"
     font-size="18"
     font-weight="700"
     fill="#20262b"
     id="text9">Traditional</text>
  <g
     font-family="Arial, Helvetica, sans-serif"
     fill="#ffffff"
     text-anchor="middle"
     id="g16">
    <rect
       x="48"
       y="160"
       width="254"
       height="84"
       rx="3"
       fill="url(#processBlue)"
       stroke="#0d5f91"
       stroke-width="2"
       id="rect9" />
    <text
       x="175"
       y="196"
       font-size="25"
       id="text10"><tspan
         x="175"
         id="tspan9">Requirements</tspan><tspan
         x="175"
         dy="29"
         id="tspan10">Analysis</tspan></text>
    <path
       d="M302 183 H313 V172 L328 202 L313 232 V221 H302 Z"
       fill="#9fa4a8"
       id="path10" />
    <rect
       x="329"
       y="160"
       width="252"
       height="84"
       rx="3"
       fill="url(#processBlue)"
       stroke="#0d5f91"
       stroke-width="2"
       id="rect10" />
    <text
       x="455"
       y="196"
       font-size="25"
       id="text12"><tspan
         x="455"
         id="tspan11">Architecture</tspan><tspan
         x="455"
         dy="29"
         id="tspan12">Design</tspan></text>
    <path
       d="M581 183 H592 V172 L607 202 L592 232 V221 H581 Z"
       fill="#9fa4a8"
       id="path12" />
    <rect
       x="607"
       y="160"
       width="248"
       height="84"
       rx="3"
       fill="url(#processBlue)"
       stroke="#0d5f91"
       stroke-width="2"
       id="rect12" />
    <text
       x="731"
       y="211"
       font-size="25"
       id="text13">Data Engineering</text>
    <path
       d="M855 183 H866 V172 L881 202 L866 232 V221 H855 Z"
       fill="#9fa4a8"
       id="path13" />
    <rect
       x="880"
       y="160"
       width="242"
       height="84"
       rx="3"
       fill="url(#processBlue)"
       stroke="#0d5f91"
       stroke-width="2"
       id="rect13" />
    <text
       x="1001"
       y="211"
       font-size="25"
       id="text14">Model Training</text>
    <path
       d="M1122 183 H1133 V172 L1148 202 L1133 232 V221 H1122 Z"
       fill="#c9100a"
       id="path14" />
    <rect
       x="1150"
       y="160"
       width="250"
       height="84"
       rx="3"
       fill="#c80f08"
       stroke="#9e0b07"
       stroke-width="2"
       id="rect14" />
    <path
       d="M1186 177 L1207 219 H1165 Z"
       fill="#f5b7ae"
       id="path15" />
    <text
       x="1186"
       y="210"
       font-size="27"
       font-weight="700"
       fill="#a90e08"
       id="text15">!</text>
    <text
       x="1280"
       y="196"
       font-size="25"
       id="text16"><tspan
         x="1280"
         id="tspan15">Compliance</tspan><tspan
         x="1280"
         dy="29"
         id="tspan16">Review</tspan></text>
  </g>
  <path
     d="M174 244 V267 H455 V244"
     fill="none"
     stroke="#176b9c"
     stroke-width="3"
     id="path16" />
  <path
     d="M1002 244 V267 H1275 V244"
     fill="none"
     stroke="#b10f09"
     stroke-width="3"
     id="path17" />
  <!-- Compliance differences -->
  <text
     x="31"
     y="399"
     transform="rotate(-90 31 399)"
     text-anchor="middle"
     font-family="Arial, Helvetica, sans-serif"
     font-size="18"
     font-weight="700"
     fill="#20262b"
     id="text17">Global Compliance diffs</text>
  <rect
     x="48"
     y="307"
     width="253"
     height="187"
     fill="#f1f2f3"
     id="rect17" />
  <g
     font-family="Arial, Helvetica, sans-serif"
     fill="#161a1d"
     id="g23">
    <text
       x="61"
       y="361"
       font-size="24"
       id="text18"><tspan
         font-size="20"
         id="tspan17">•</tspan><tspan
         dx="12"
         font-weight="700"
         id="tspan18">China PIPL</tspan></text>
    <text
       x="61"
       y="397"
       font-size="22"
       id="text20"><tspan
         font-size="19"
         id="tspan19">•</tspan><tspan
         dx="12"
         id="tspan20">Notice &amp; consent</tspan></text>
    <text
       x="61"
       y="431"
       font-size="21"
       id="text22"><tspan
         font-size="19"
         id="tspan21">•</tspan><tspan
         dx="12"
         id="tspan22">Cross-border data</tspan></text>
    <text
       x="89"
       y="458"
       font-size="21"
       id="text23">restrictions</text>
  </g>
  <rect
     x="1150"
     y="307"
     width="250"
     height="187"
     fill="#f1f2f3"
     id="rect23" />
  <g
     font-family="Arial, Helvetica, sans-serif"
     fill="#161a1d"
     id="g31">
    <text
       x="1160"
       y="352"
       font-size="24"
       id="text24"><tspan
         font-size="20"
         id="tspan23">•</tspan><tspan
         dx="12"
         font-weight="700"
         id="tspan24">EU GDPR</tspan></text>
    <text
       x="1160"
       y="386"
       font-size="21"
       id="text26"><tspan
         font-size="18"
         id="tspan25">•</tspan><tspan
         dx="12"
         id="tspan26">Data minimization</tspan></text>
    <text
       x="1160"
       y="420"
       font-size="21"
       id="text28"><tspan
         font-size="18"
         id="tspan27">•</tspan><tspan
         dx="12"
         id="tspan28">Right to be forgotten</tspan></text>
    <text
       x="1160"
       y="454"
       font-size="21"
       id="text30"><tspan
         font-size="18"
         id="tspan29">•</tspan><tspan
         dx="12"
         id="tspan30">Penalties of up to 4%</tspan></text>
    <text
       x="1188"
       y="480"
       font-size="21"
       id="text31">global revenue fines</text>
  </g>
  <!-- Shift-left governance hub -->
  <path
     d="M727 244 V267"
     fill="none"
     stroke="#176b9c"
     stroke-width="3"
     id="path31" />
  <rect
     x="602"
     y="267"
     width="250"
     height="50"
     rx="9"
     fill="#1f78ae"
     stroke="#116795"
     stroke-width="2"
     id="rect31" />
  <text
     x="727"
     y="300"
     text-anchor="middle"
     font-family="Arial, Helvetica, sans-serif"
     font-size="24"
     fill="#ffffff"
     id="text32">Shift-Left Compliance</text>
  <path
     d="M727 326 V346"
     fill="none"
     stroke="#176b9c"
     stroke-width="3"
     id="path32" />
  <path
     d="M727 318 L719 330 H735 Z M727 354 L719 342 H735 Z"
     fill="#176b9c"
     id="path33" />
  <rect
     x="329"
     y="355"
     width="252"
     height="82"
     rx="10"
     fill="#2b85bb"
     stroke="#176b9c"
     stroke-width="2"
     id="rect33" />
  <text
     x="455"
     y="389"
     text-anchor="middle"
     font-family="Arial, Helvetica, sans-serif"
     font-size="24"
     fill="#ffffff"
     id="text34"><tspan
       x="455"
       id="tspan33">Data Governance</tspan><tspan
       x="455"
       dy="27"
       font-size="20"
       id="tspan34">Quality and lifecycle</tspan></text>
  <rect
     x="629"
     y="355"
     width="195"
     height="82"
     rx="14"
     fill="#0f4567"
     stroke="#0b3b58"
     stroke-width="2"
     id="rect34" />
  <text
     x="777.50281"
     y="377.57635"
     text-anchor="middle"
     font-family="Arial, Helvetica, sans-serif"
     font-size="25.2341px"
     fill="#ffffff"
     id="text35"
     transform="scale(0.93459491,1.0699823)"
     style="stroke-width:0.999998">Metadata Center</text>
  <rect
     x="870"
     y="355"
     width="252"
     height="82"
     rx="10"
     fill="#2d915c"
     stroke="#237849"
     stroke-width="2"
     id="rect35" />
  <text
     x="996"
     y="389"
     text-anchor="middle"
     font-family="Arial, Helvetica, sans-serif"
     font-size="24"
     fill="#ffffff"
     id="text36"><tspan
       x="996"
       id="tspan35">AI Governance</tspan><tspan
       x="996"
       dy="27"
       font-size="20"
       id="tspan36">Bias and explainability</tspan></text>
  <path
     d="M591 396 H619"
     fill="none"
     stroke="#176b9c"
     stroke-width="2.5"
     id="path36" />
  <path
     d="M582 396 L594 388 V404 Z M628 396 L616 388 V404 Z"
     fill="#176b9c"
     id="path37" />
  <path
     d="M834 396 H860"
     fill="none"
     stroke="#176b9c"
     stroke-width="2.5"
     id="path38" />
  <path
     d="M825 396 L837 388 V404 Z M869 396 L857 388 V404 Z"
     fill="#176b9c"
     id="path39" />
  <path
     d="M329 396 H306"
     fill="none"
     stroke="#176b9c"
     stroke-width="2.5"
     marker-end="url(#arrowBlue)"
     id="path40" />
  <path
     d="M1122 396 H1145"
     fill="none"
     stroke="#248a58"
     stroke-width="2.5"
     marker-end="url(#arrowGreen)"
     id="path41" />
  <path
     d="M727 446 V465"
     fill="none"
     stroke="#176b9c"
     stroke-width="3"
     id="path42" />
  <path
     d="M727 438 L719 450 H735 Z M727 473 L719 461 H735 Z"
     fill="#176b9c"
     id="path43" />
  <rect
     x="602"
     y="474"
     width="250"
     height="49"
     rx="8"
     fill="#237faf"
     stroke="#176b9c"
     stroke-width="2"
     id="rect43" />
  <text
     x="727"
     y="507"
     text-anchor="middle"
     font-family="Arial, Helvetica, sans-serif"
     font-size="23"
     fill="#ffffff"
     id="text43">Business Governance</text>
  <path
     d="M455 437 V522 H172 V542"
     fill="none"
     stroke="#176b9c"
     stroke-width="2.5"
     id="path44" />
  <path
     d="M996 437 V522 H1274 V542"
     fill="none"
     stroke="#248a58"
     stroke-width="2.5"
     id="path45" />
  <!-- Continuous compliance controls -->
  <text
     x="31"
     y="655"
     transform="rotate(-90 31 655)"
     text-anchor="middle"
     font-family="Arial, Helvetica, sans-serif"
     font-size="21"
     font-weight="700"
     fill="#20262b"
     id="text45">Compliance</text>
  <g
     fill="#156e9f"
     stroke="#0f5f8c"
     stroke-width="2"
     id="g49">
    <rect
       x="48"
       y="542"
       width="250"
       height="218"
       rx="3"
       id="rect45" />
    <rect
       x="326"
       y="542"
       width="250"
       height="218"
       rx="3"
       id="rect46" />
    <rect
       x="603"
       y="542"
       width="250"
       height="218"
       rx="3"
       id="rect47" />
    <rect
       x="880"
       y="542"
       width="250"
       height="218"
       rx="3"
       id="rect48" />
    <rect
       x="1157"
       y="542"
       width="241"
       height="218"
       rx="3"
       id="rect49" />
  </g>
  <path
     d="M48 548 H1378 L1398 568 L1378 588 H48 Z"
     fill="#37aa75"
     id="path49" />
  <text
     x="723"
     y="578"
     text-anchor="middle"
     font-family="Arial, Helvetica, sans-serif"
     font-size="28"
     fill="#ffffff"
     id="text49">Privacy by Design</text>
  <g
     font-family="Arial, Helvetica, sans-serif"
     font-size="20"
     fill="#ffffff"
     text-anchor="middle"
     id="g65">
    <g
       id="g52">
      <rect
         x="59"
         y="592"
         width="228"
         height="32"
         rx="4"
         fill="#0f4e73"
         id="rect50" />
      <text
         x="173"
         y="615"
         id="text50">Data authorization</text>
      <rect
         x="59"
         y="627"
         width="228"
         height="32"
         rx="4"
         fill="#0f4e73"
         id="rect51" />
      <text
         x="173"
         y="650"
         id="text51">Data masking</text>
      <rect
         x="59"
         y="662"
         width="228"
         height="32"
         rx="4"
         fill="#0f4e73"
         id="rect52" />
      <text
         x="173"
         y="685"
         id="text52">Audit Logging</text>
    </g>
    <g
       id="g55">
      <rect
         x="337"
         y="592"
         width="228"
         height="32"
         rx="4"
         fill="#0f4e73"
         id="rect53" />
      <text
         x="451"
         y="615"
         id="text53">Data authorization</text>
      <rect
         x="337"
         y="627"
         width="228"
         height="32"
         rx="4"
         fill="#0f4e73"
         id="rect54" />
      <text
         x="451"
         y="650"
         id="text54">Data masking</text>
      <rect
         x="337"
         y="662"
         width="228"
         height="32"
         rx="4"
         fill="#0f4e73"
         id="rect55" />
      <text
         x="451"
         y="685"
         id="text55">Audit Logging</text>
    </g>
    <g
       id="g58">
      <rect
         x="614"
         y="592"
         width="228"
         height="32"
         rx="4"
         fill="#0f4e73"
         id="rect56" />
      <text
         x="728"
         y="615"
         id="text56">Data authorization</text>
      <rect
         x="614"
         y="627"
         width="228"
         height="32"
         rx="4"
         fill="#0f4e73"
         id="rect57" />
      <text
         x="728"
         y="650"
         id="text57">Data masking</text>
      <rect
         x="614"
         y="662"
         width="228"
         height="32"
         rx="4"
         fill="#0f4e73"
         id="rect58" />
      <text
         x="728"
         y="685"
         id="text58">Audit Logging</text>
    </g>
    <g
       id="g61">
      <rect
         x="891"
         y="592"
         width="228"
         height="32"
         rx="4"
         fill="#0f4e73"
         id="rect59" />
      <text
         x="1005"
         y="615"
         id="text59">Data authorization</text>
      <rect
         x="891"
         y="627"
         width="228"
         height="32"
         rx="4"
         fill="#0f4e73"
         id="rect60" />
      <text
         x="1005"
         y="650"
         id="text60">Data masking</text>
      <rect
         x="891"
         y="662"
         width="228"
         height="32"
         rx="4"
         fill="#0f4e73"
         id="rect61" />
      <text
         x="1005"
         y="685"
         id="text61">Audit Logging</text>
    </g>
    <g
       id="g64">
      <rect
         x="1168"
         y="592"
         width="219"
         height="32"
         rx="4"
         fill="#0f4e73"
         id="rect62" />
      <text
         x="1277"
         y="615"
         id="text62">Data authorization</text>
      <rect
         x="1168"
         y="627"
         width="219"
         height="32"
         rx="4"
         fill="#0f4e73"
         id="rect63" />
      <text
         x="1277"
         y="650"
         id="text63">Data masking</text>
      <rect
         x="1168"
         y="662"
         width="219"
         height="32"
         rx="4"
         fill="#0f4e73"
         id="rect64" />
      <text
         x="1277"
         y="685"
         id="text64">Audit Logging</text>
    </g>
  </g>
  <g
     fill="#9fa4a8"
     id="g68">
    <path
       d="M298 635 H311 V622 L326 651 L311 680 V667 H298 Z"
       id="path65" />
    <path
       d="M576 635 H588 V622 L603 651 L588 680 V667 H576 Z"
       id="path66" />
    <path
       d="M853 635 H865 V622 L880 651 L865 680 V667 H853 Z"
       id="path67" />
    <path
       d="M1130 635 H1142 V622 L1157 651 L1142 680 V667 H1130 Z"
       id="path68" />
  </g>
  <path
     d="M48 705 H1378 L1398 725 L1378 745 H48 Z"
     fill="#37aa75"
     id="path69" />
  <g
     font-family="Arial, Helvetica, sans-serif"
     fill="#ffffff"
     text-anchor="middle"
     id="g74">
    <text
       x="173"
       y="718"
       font-size="20"
       id="text69">Risk Assessment</text>
    <text
       x="451"
       y="718"
       font-size="20"
       id="text70">Risk Assessment</text>
    <text
       x="728"
       y="718"
       font-size="20"
       id="text71">Risk Assessment</text>
    <text
       x="1005"
       y="718"
       font-size="20"
       id="text72">Risk Assessment</text>
    <text
       x="1277"
       y="718"
       font-size="20"
       id="text73">Risk Assessment</text>
    <text
       x="723"
       y="741"
       font-size="27"
       id="text74">Privacy by Design</text>
  </g>
</svg>
