<?xml version="1.0" encoding="UTF-8" standalone="no"?>
<svg
   width="1600"
   height="900"
   viewBox="0 0 1600 900"
   role="img"
   aria-labelledby="title desc"
   version="1.1"
   id="svg125"
   sodipodi:docname="ch36_04_data_purpose_action_risk_matrix.svg"
   inkscape:version="1.4.4 (dcaf3e7, 2026-05-05)"
   xmlns:inkscape="http://www.inkscape.org/namespaces/inkscape"
   xmlns:sodipodi="http://sodipodi.sourceforge.net/DTD/sodipodi-0.dtd"
   xmlns="http://www.w3.org/2000/svg"
   xmlns:svg="http://www.w3.org/2000/svg">
  <sodipodi:namedview
     id="namedview125"
     pagecolor="#ffffff"
     bordercolor="#000000"
     borderopacity="0.25"
     inkscape:showpageshadow="2"
     inkscape:pageopacity="0.0"
     inkscape:pagecheckerboard="0"
     inkscape:deskcolor="#d1d1d1"
     inkscape:zoom="2.6870058"
     inkscape:cx="139.18839"
     inkscape:cy="243.95184"
     inkscape:window-width="1920"
     inkscape:window-height="1111"
     inkscape:window-x="-9"
     inkscape:window-y="-9"
     inkscape:window-maximized="1"
     inkscape:current-layer="g10" />
  <title
     id="title">Data Risk Assessment Matrix</title>
  <desc
     id="desc">A privacy risk matrix combining data sensitivity, processing action intensity, and impact scope, with policy-engine outputs and control measures mapping.</desc>
  <defs
     id="defs8">
    <marker
       id="arrowBlue"
       markerWidth="18"
       markerHeight="18"
       refX="16"
       refY="9"
       orient="auto"
       markerUnits="userSpaceOnUse"
       viewBox="0 0 18 18">
      <path
         d="M0 0 L18 9 L0 18 Z"
         fill="#237faf"
         id="path1" />
    </marker>
    <marker
       id="arrowRed"
       markerWidth="41"
       markerHeight="41"
       refX="16"
       refY="9"
       orient="auto"
       markerUnits="userSpaceOnUse"
       viewBox="0 0 18 18">
      <path
         d="M0 0 L18 9 L0 18 Z"
         fill="#d93636"
         id="path2" />
    </marker>
    <marker
       id="arrowGray"
       markerWidth="18"
       markerHeight="18"
       refX="16"
       refY="9"
       orient="auto"
       markerUnits="userSpaceOnUse"
       viewBox="0 0 18 18">
      <path
         d="M0 0 L18 9 L0 18 Z"
         fill="#17202a"
         id="path3" />
    </marker>
    <linearGradient
       id="riskRise"
       x1="0"
       y1="1"
       x2="1"
       y2="0">
      <stop
         offset="0"
         stop-color="#79c889"
         id="stop3" />
      <stop
         offset="0.38"
         stop-color="#f6d654"
         id="stop4" />
      <stop
         offset="0.68"
         stop-color="#ef6b3d"
         id="stop5" />
      <stop
         offset="1"
         stop-color="#b10f09"
         id="stop6" />
    </linearGradient>
    <linearGradient
       id="engineBlue"
       x1="0"
       y1="0"
       x2="0"
       y2="1">
      <stop
         offset="0"
         stop-color="#237faf"
         id="stop7" />
      <stop
         offset="1"
         stop-color="#0f5f8c"
         id="stop8" />
    </linearGradient>
    <filter
       id="softShadow"
       x="-0.019736842"
       y="-0.019736842"
       width="1.0394737"
       height="1.0394737">
      <feDropShadow
         dx="0"
         dy="3"
         stdDeviation="3"
         flood-color="#0f172a"
         flood-opacity="0.22" />
    </filter>
  </defs>
  <style
     id="style8">
    .font { font-family: Arial, Helvetica, sans-serif; }
    .title { font-family: Arial, Helvetica, sans-serif; font-size: 46px; font-weight: 700; fill: #101418; }
    .axis { font-family: Arial, Helvetica, sans-serif; font-size: 23px; font-weight: 700; fill: #101418; }
    .label { font-family: Arial, Helvetica, sans-serif; font-size: 22px; font-weight: 700; fill: #17202a; }
    .small { font-family: Arial, Helvetica, sans-serif; font-size: 18px; fill: #17202a; }
    .tiny { font-family: Arial, Helvetica, sans-serif; font-size: 15px; fill: #374151; }
    .white { fill: #ffffff; }
    .muted { fill: #4b5563; }
  </style>
  <rect
     width="1600"
     height="900"
     fill="#ffffff"
     id="rect8"
     x="-7.3684206"
     y="4.2105265" />
  <text
     id="main-title"
     x="800"
     y="60"
     text-anchor="middle"
     class="title">Data Risk Assessment Matrix (Sensitivity x Action x Impact)</text>
  <!-- Matrix axes -->
  <g
     class="font"
     id="g10">
    <line
       x1="170"
       y1="610"
       x2="1065"
       y2="610"
       stroke="#101418"
       stroke-width="3"
       marker-end="url(#arrowGray)"
       id="line8" />
    <line
       x1="170"
       y1="610"
       x2="170"
       y2="122"
       stroke="#101418"
       stroke-width="3"
       marker-end="url(#arrowGray)"
       id="line9" />
    <text
       x="565"
       y="736"
       text-anchor="middle"
       class="axis"
       id="text9">Processing Action Intensity (Low -&gt; High)</text>
    <text
       x="47"
       y="382"
       text-anchor="middle"
       class="axis"
       transform="rotate(-90,47,382)"
       id="text10">Data Sensitivity Level (Low &gt; High)</text>
    <path
       d="M143 600 V145"
       stroke="#d93636"
       stroke-width="7"
       marker-end="url(#arrowRed)"
       id="path10" />
  </g>
  <!-- Risk heat matrix -->
  <g
     class="font"
     id="g44">
    <!-- row C3 -->
    <rect
       x="170"
       y="130"
       width="145"
       height="160"
       fill="#e9f5db"
       stroke="#ffffff"
       stroke-width="2"
       id="rect10" />
    <rect
       x="315"
       y="130"
       width="145"
       height="160"
       fill="#f6c366"
       stroke="#ffffff"
       stroke-width="2"
       id="rect11" />
    <rect
       x="460"
       y="130"
       width="145"
       height="160"
       fill="#f26b69"
       stroke="#ffffff"
       stroke-width="2"
       id="rect12" />
    <rect
       x="605"
       y="130"
       width="145"
       height="160"
       fill="#ef2724"
       stroke="#ffffff"
       stroke-width="2"
       id="rect13" />
    <rect
       x="750"
       y="130"
       width="145"
       height="160"
       fill="#b70d0a"
       stroke="#ffffff"
       stroke-width="2"
       id="rect14" />
    <rect
       x="895"
       y="130"
       width="145"
       height="160"
       fill="#8f0000"
       stroke="#ffffff"
       stroke-width="2"
       id="rect15" />
    <!-- row C2 -->
    <rect
       x="170"
       y="290"
       width="145"
       height="160"
       fill="#cce9b8"
       stroke="#ffffff"
       stroke-width="2"
       id="rect16" />
    <rect
       x="315"
       y="290"
       width="145"
       height="160"
       fill="#f4dfa0"
       stroke="#ffffff"
       stroke-width="2"
       id="rect17" />
    <rect
       x="460"
       y="290"
       width="145"
       height="160"
       fill="#f6d74e"
       stroke="#ffffff"
       stroke-width="2"
       id="rect18" />
    <rect
       x="605"
       y="290"
       width="145"
       height="160"
       fill="#f2ad45"
       stroke="#ffffff"
       stroke-width="2"
       id="rect19" />
    <rect
       x="750"
       y="290"
       width="145"
       height="160"
       fill="#f5625d"
       stroke="#ffffff"
       stroke-width="2"
       id="rect20" />
    <rect
       x="895"
       y="290"
       width="145"
       height="160"
       fill="#d90000"
       stroke="#ffffff"
       stroke-width="2"
       id="rect21" />
    <!-- row C1 -->
    <rect
       x="170"
       y="450"
       width="145"
       height="160"
       fill="#dff4e4"
       stroke="#ffffff"
       stroke-width="2"
       id="rect22" />
    <rect
       x="315"
       y="450"
       width="145"
       height="160"
       fill="#b8dfae"
       stroke="#ffffff"
       stroke-width="2"
       id="rect23" />
    <rect
       x="460"
       y="450"
       width="145"
       height="160"
       fill="#cfe6ac"
       stroke="#ffffff"
       stroke-width="2"
       id="rect24" />
    <rect
       x="605"
       y="450"
       width="145"
       height="160"
       fill="#f1db7a"
       stroke="#ffffff"
       stroke-width="2"
       id="rect25" />
    <rect
       x="750"
       y="450"
       width="145"
       height="160"
       fill="#f7bd62"
       stroke="#ffffff"
       stroke-width="2"
       id="rect26" />
    <rect
       x="895"
       y="450"
       width="145"
       height="160"
       fill="#f25254"
       stroke="#ffffff"
       stroke-width="2"
       id="rect27" />
    <rect
       x="170"
       y="130"
       width="870"
       height="480"
       fill="none"
       stroke="#17202a"
       stroke-width="3"
       id="rect28" />
    <!-- row labels -->
    <text
       x="102.48333"
       y="198.66251"
       text-anchor="middle"
       font-size="22.5065px"
       font-weight="700"
       fill="#101418"
       id="text30"
       transform="scale(0.95766743,1.0442038)"
       style="stroke-width:0.999998"><tspan
         x="102.48333"
         id="tspan28"
         style="stroke-width:0.999998">C3</tspan><tspan
         x="102.48333"
         dy="25.969147"
         font-size="16.447px"
         id="tspan29"
         style="stroke-width:1.15975">sensitive/</tspan><tspan
         x="102.48333"
         dy="20.775318"
         font-size="16.447px"
         id="tspan30"
         style="stroke-width:1.15975">personal</tspan></text>
    <text
       x="94.613663"
       y="382.73843"
       text-anchor="middle"
       font-size="19.2325px"
       font-weight="700"
       fill="#101418"
       id="text32"
       transform="scale(1.0251145,0.97550077)"
       style="stroke-width:1"><tspan
         x="94.613663"
         id="tspan31"
         style="stroke-width:1">C2</tspan><tspan
         x="94.613663"
         dy="22.191385"
         font-size="14.0546px"
         id="tspan32"
         style="stroke-width:1.22257">confidential</tspan></text>
    <text
       x="100.31245"
       y="521.84155"
       text-anchor="middle"
       font-size="21.264px"
       font-weight="700"
       fill="#101418"
       id="text35"
       transform="scale(0.98854336,1.0115894)"
       style="stroke-width:0.999992"><tspan
         x="100.31245"
         id="tspan33"
         style="stroke-width:0.999992">C1</tspan><tspan
         x="100.31245"
         dy="24.535334"
         font-size="15.5391px"
         id="tspan34"
         style="stroke-width:1.32103">public/</tspan><tspan
         x="100.31245"
         dy="19.628267"
         font-size="15.5391px"
         id="tspan35"
         style="stroke-width:1.32103">internal</tspan></text>
    <!-- impact scope legend -->
    <rect
       x="176"
       y="141"
       width="170"
       height="165"
       rx="9"
       fill="#f7faf0"
       stroke="#8f9aa3"
       stroke-width="2"
       opacity="0.94"
       id="rect35" />
    <text
       x="198"
       y="173"
       font-size="22"
       font-weight="700"
       fill="#17202a"
       id="text36">Impact Scope</text>
    <circle
       cx="218.21053"
       cy="196.10526"
       r="7"
       fill="#17202a"
       id="circle36" />
    <text
       x="242.21053"
       y="201.47368"
       font-size="19px"
       fill="#17202a"
       id="text37">Internal</text>
    <circle
       cx="210.52632"
       cy="235.6842"
       r="7"
       fill="#17202a"
       id="circle37" />
    <circle
       cx="226.52632"
       cy="235.6842"
       r="7"
       fill="#17202a"
       id="circle38" />
    <circle
       cx="218.52632"
       cy="221.6842"
       r="7"
       fill="#17202a"
       id="circle39" />
    <text
       x="242.73685"
       y="236.8421"
       font-size="19px"
       fill="#17202a"
       id="text39">Partners</text>
    <circle
       cx="202.21053"
       cy="278"
       r="7"
       fill="#17202a"
       id="circle40" />
    <circle
       cx="217.21053"
       cy="278"
       r="7"
       fill="#17202a"
       id="circle41" />
    <circle
       cx="232.21053"
       cy="278"
       r="7"
       fill="#17202a"
       id="circle42" />
    <circle
       cx="210.21053"
       cy="264"
       r="7"
       fill="#17202a"
       id="circle43" />
    <circle
       cx="224.21053"
       cy="264"
       r="7"
       fill="#17202a"
       id="circle44" />
    <text
       x="270.043"
       y="246.32707"
       font-size="17.0549px"
       fill="#17202a"
       id="text44"
       transform="scale(0.89762456,1.1140515)"
       style="stroke-width:0.999999">External users</text>
  </g>
  <!-- Action strip and icons -->
  <g
     class="font"
     text-anchor="middle"
     id="g64">
    <path
       d="M170 632 H315 L340 657 L315 682 H170 Z"
       fill="#dff4e4"
       id="path44" />
    <path
       d="M315 632 H460 L485 657 L460 682 H315 L340 657 Z"
       fill="#cbeab9"
       id="path45" />
    <path
       d="M460 632 H605 L630 657 L605 682 H460 L485 657 Z"
       fill="#f4df80"
       id="path46" />
    <path
       d="M605 632 H750 L775 657 L750 682 H605 L630 657 Z"
       fill="#f4be57"
       id="path47" />
    <path
       d="M750 632 H895 L920 657 L895 682 H750 L775 657 Z"
       fill="#ef6b3d"
       id="path48" />
    <path
       d="M895 632 H1040 L1065 657 L1040 682 H895 L920 657 Z"
       fill="#b10f09"
       id="path49" />
    <!-- query icon -->
    <circle
       cx="243"
       cy="642"
       r="15"
       fill="none"
       stroke="#101418"
       stroke-width="5"
       id="circle49" />
    <line
       x1="255"
       y1="654"
       x2="274"
       y2="673"
       stroke="#101418"
       stroke-width="5"
       id="line49" />
    <text
       x="244.05263"
       y="704.6842"
       font-size="20px"
       fill="#17202a"
       id="text49">Query</text>
    <!-- aggregation icon -->
    <rect
       x="377.73685"
       y="658.1579"
       width="24"
       height="17"
       fill="#101418"
       id="rect49" />
    <rect
       x="416.73685"
       y="657.89471"
       width="24"
       height="17"
       fill="#101418"
       id="rect50" />
    <rect
       x="397"
       y="633"
       width="24"
       height="17"
       fill="#101418"
       id="rect51" />
    <line
       x1="409"
       y1="650"
       x2="409"
       y2="655"
       stroke="#101418"
       stroke-width="4"
       id="line51" />
    <line
       x1="390"
       y1="655"
       x2="428"
       y2="655"
       stroke="#101418"
       stroke-width="4"
       id="line52" />
    <text
       x="410.05264"
       y="704.6842"
       font-size="20px"
       fill="#17202a"
       id="text52">Aggregation</text>
    <!-- export icon -->
    <path
       d="M537 632 H566 L580 646 V675 H537 Z"
       fill="none"
       stroke="#101418"
       stroke-width="4"
       id="path52" />
    <path
       d="M566 632 V647 H580"
       fill="none"
       stroke="#101418"
       stroke-width="4"
       id="path53" />
    <path
       d="M552 660 H584 V651 L601 666 L584 681 V672 H552 Z"
       fill="#101418"
       id="path54" />
    <text
       x="556.05261"
       y="704.6842"
       font-size="20px"
       fill="#17202a"
       id="text54">Export</text>
    <!-- training icon -->
    <rect
       x="666"
       y="636"
       width="54"
       height="39"
       rx="5"
       fill="none"
       stroke="#101418"
       stroke-width="4"
       id="rect54" />
    <text
       x="693"
       y="662"
       font-size="18"
       font-weight="700"
       fill="#101418"
       id="text55">AI</text>
    <circle
       cx="665"
       cy="635"
       r="4"
       fill="#101418"
       id="circle55" />
    <circle
       cx="720"
       cy="635"
       r="4"
       fill="#101418"
       id="circle56" />
    <circle
       cx="665"
       cy="675"
       r="4"
       fill="#101418"
       id="circle57" />
    <circle
       cx="720"
       cy="675"
       r="4"
       fill="#101418"
       id="circle58" />
    <text
       x="686.6842"
       y="704.6842"
       font-size="20px"
       fill="#17202a"
       id="text58">Training</text>
    <!-- automated decision icon -->
    <path
       d="m 828.86081,662.3751 -22,19 m 22,-19 18,19"
       stroke="#101418"
       stroke-width="5"
       id="path58" />
    <circle
       cx="829.23297"
       cy="648.93188"
       r="14"
       fill="none"
       stroke="#101418"
       stroke-width="4"
       id="circle59" />
    <path
       d="m 816.60513,652.53995 -9,-13 m 35,13 9,-13 m -22,9 v -14"
       stroke="#101418"
       stroke-width="4"
       id="path59" />
    <text
       x="888.08014"
       y="657.14722"
       font-size="18.6509px"
       fill="#17202a"
       id="text59"
       transform="scale(0.9325414,1.0723385)"
       style="stroke-width:0.999999">Automated Decision</text>
    <!-- sharing icon -->
    <circle
       cx="965"
       cy="642"
       r="10"
       fill="#101418"
       id="circle60" />
    <circle
       cx="930"
       cy="668"
       r="10"
       fill="#101418"
       id="circle61" />
    <circle
       cx="1000"
       cy="668"
       r="10"
       fill="#101418"
       id="circle62" />
    <line
       x1="958"
       y1="648"
       x2="938"
       y2="662"
       stroke="#101418"
       stroke-width="4"
       id="line62" />
    <line
       x1="972"
       y1="648"
       x2="992"
       y2="662"
       stroke="#101418"
       stroke-width="4"
       id="line63" />
    <line
       x1="940"
       y1="668"
       x2="990"
       y2="668"
       stroke="#101418"
       stroke-width="4"
       id="line64" />
    <text
       x="966.05261"
       y="704.6842"
       font-size="20px"
       fill="#17202a"
       id="text64">Sharing</text>
  </g>
  <!-- Matrix annotations -->
  <g
     class="font"
     id="g81">
    <path
       d="M235 560 C380 480 482 372 560 250"
       fill="none"
       stroke="#ffffff"
       stroke-width="9"
       opacity="0.72"
       id="path64" />
    <path
       d="M235 560 C380 480 482 372 560 250"
       fill="none"
       stroke="#ef6b3d"
       stroke-width="6"
       marker-end="url(#arrowRed)"
       id="path65" />
    <path
       d="M698 365 C790 343 860 285 905 198"
       fill="none"
       stroke="#ffffff"
       stroke-width="9"
       opacity="0.78"
       id="path66" />
    <path
       d="M698 365 C790 343 860 285 905 198"
       fill="none"
       stroke="#ef6b3d"
       stroke-width="6"
       marker-end="url(#arrowRed)"
       id="path67"
       style="stroke-miterlimit:4.8" />
    <circle
       cx="390"
       cy="532"
       r="38"
       fill="#74bd7d"
       stroke="#ffffff"
       stroke-width="3"
       filter="url(#softShadow)"
       id="circle67" />
    <ellipse
       cx="388"
       cy="514"
       rx="19"
       ry="7"
       fill="none"
       stroke="#ffffff"
       stroke-width="3"
       id="ellipse67" />
    <path
       d="M369 514 V540 C369 549 407 549 407 540 V514"
       fill="none"
       stroke="#ffffff"
       stroke-width="3"
       id="path68" />
    <path
       d="m 393.30109,543.76703 v -15.89339 m -7.82906,15.89339 v -8.74137 m 15.65812,8.74137 v -23.04542"
       stroke="#ffffff"
       stroke-width="4"
       id="path69" />
    <rect
       x="413.90329"
       y="510.83514"
       width="165"
       height="58"
       rx="8"
       fill="#eef7fc"
       stroke="#8eb1c6"
       stroke-width="2"
       id="rect69" />
    <text
       x="495.90329"
       y="534.83514"
       text-anchor="middle"
       font-size="19px"
       fill="#17202a"
       id="text70"><tspan
         x="495.90329"
         id="tspan69">C1 + Aggregation:</tspan><tspan
         x="495.90329"
         dy="24"
         id="tspan70">Low Risk</tspan></text>
    <circle
       cx="682"
       cy="365"
       r="44"
       fill="#f2ba45"
       stroke="#ffffff"
       stroke-width="3"
       filter="url(#softShadow)"
       id="circle70" />
    <rect
       x="638.9201"
       y="330.53552"
       width="51.237381"
       height="37.910637"
       rx="6.1484861"
       fill="#17202a"
       id="rect70"
       style="stroke-width:1" />
    <text
       x="668.39673"
       y="360.56815"
       text-anchor="middle"
       font-size="36.7331px"
       font-weight="700"
       fill="#ffffff"
       id="text71"
       transform="scale(0.99290784,1.0071428)"
       style="stroke-width:1">AI</text>
    <rect
       x="584.99915"
       y="379.68124"
       width="188"
       height="60"
       rx="8"
       fill="#fff3cd"
       stroke="#d49b43"
       stroke-width="2"
       id="rect72" />
    <text
       x="678.99915"
       y="403.68124"
       text-anchor="middle"
       font-size="19px"
       fill="#17202a"
       id="text73"><tspan
         x="678.99915"
         id="tspan72">C2 + Model Training:</tspan><tspan
         x="678.99915"
         dy="24"
         id="tspan73">Medium-High Risk</tspan></text>
    <circle
       cx="682"
       cy="225"
       r="54"
       fill="#d93636"
       stroke="#ffffff"
       stroke-width="3"
       filter="url(#softShadow)"
       id="circle73" />
    <rect
       x="450"
       y="196"
       width="172"
       height="60"
       rx="8"
       fill="#fde7e7"
       stroke="#b98b80"
       stroke-width="2"
       id="rect76" />
    <text
       x="536"
       y="220"
       text-anchor="middle"
       font-size="19"
       fill="#17202a"
       id="text77"><tspan
         x="536"
         id="tspan76">C3 + Automated</tspan><tspan
         x="536"
         dy="24"
         id="tspan77">Decision: High Risk</tspan></text>
    <circle
       cx="952"
       cy="195"
       r="76"
       fill="#a70b0b"
       stroke="#ffffff"
       stroke-width="4"
       filter="url(#softShadow)"
       id="circle77" />
    <circle
       cx="971.3158"
       cy="206"
       r="31"
       fill="none"
       stroke="#ffffff"
       stroke-width="4"
       id="circle78" />
    <path
       d="m 941.36842,206 h 61.99998 m -30.99998,-31 c -20,17 -20,45 0,62 m 0,-62 c 20,17 20,45 0,62 m 0,-62 v 62"
       stroke="#ffffff"
       stroke-width="3"
       id="path78" />
    <rect
       x="920"
       y="302"
       width="175"
       height="70"
       rx="8"
       fill="#fde7e7"
       stroke="#b98b80"
       stroke-width="2"
       id="rect79" />
    <text
       x="960.79285"
       y="337.79761"
       text-anchor="middle"
       font-size="18.4785px"
       fill="#17202a"
       id="text81"
       transform="scale(1.0506741,0.95176991)"
       style="stroke-width:0.999997"><tspan
         x="960.79285"
         id="tspan79"
         style="stroke-width:0.999997">C3 + Third-party</tspan><tspan
         x="960.79285"
         dy="22.368742"
         id="tspan80"
         style="stroke-width:0.999997">Sharing:</tspan><tspan
         x="960.79285"
         dy="22.368742"
         id="tspan81"
         style="stroke-width:0.999997">Critical Risk</tspan></text>
  </g>
  <!-- Risk formula and policy engine -->
  <g
     class="font"
     id="g100">
    <rect
       x="1100"
       y="130"
       width="460"
       height="510"
       fill="#f4fbff"
       stroke="#2c6f93"
       stroke-width="3"
       id="rect81" />
    <path
       d="M1100 165 V130 H1135 M1525 130 H1560 V165 M1100 605 V640 H1135 M1525 640 H1560 V605"
       fill="none"
       stroke="#2c6f93"
       stroke-width="5"
       id="path81" />
    <path
       d="M1120 178 H1540 M1120 288 H1540 M1120 513 H1540"
       stroke="#d6e3ea"
       stroke-width="2"
       id="path82" />
    <text
       x="1328.9474"
       y="182.63158"
       text-anchor="middle"
       font-size="26px"
       font-weight="700"
       fill="#17202a"
       id="text82">Risk Formula</text>
    <rect
       x="1125"
       y="212"
       width="410"
       height="102"
       fill="#ffffff"
       stroke="#8eb1c6"
       stroke-width="2"
       id="rect82" />
    <text
       x="1330"
       y="239.63158"
       text-anchor="middle"
       font-size="23px"
       fill="#17202a"
       id="text84"><tspan
         x="1330"
         font-weight="700"
         id="tspan82">Risk Level = Data Sensitivity</tspan><tspan
         x="1330"
         dy="29"
         id="tspan83">x Processing Intensity</tspan><tspan
         x="1330"
         dy="29"
         id="tspan84">x Impact Scope</tspan></text>
    <!-- data inputs -->
    <ellipse
       cx="1165"
       cy="352"
       rx="26"
       ry="10"
       fill="#dcecf3"
       stroke="#155f93"
       stroke-width="2"
       id="ellipse84" />
    <path
       d="M1139 352 V392 C1139 406 1191 406 1191 392 V352"
       fill="#dcecf3"
       stroke="#155f93"
       stroke-width="2"
       id="path84" />
    <text
       x="1165"
       y="381"
       text-anchor="middle"
       font-size="18"
       fill="#17202a"
       id="text85">Data</text>
    <ellipse
       cx="1165"
       cy="425"
       rx="26"
       ry="10"
       fill="#dcecf3"
       stroke="#155f93"
       stroke-width="2"
       id="ellipse85" />
    <path
       d="M1139 425 V465 C1139 479 1191 479 1191 465 V425"
       fill="#dcecf3"
       stroke="#155f93"
       stroke-width="2"
       id="path85" />
    <text
       x="1165"
       y="454"
       text-anchor="middle"
       font-size="18"
       fill="#17202a"
       id="text86">Data</text>
    <ellipse
       cx="1165"
       cy="498"
       rx="26"
       ry="10"
       fill="#dcecf3"
       stroke="#155f93"
       stroke-width="2"
       id="ellipse86" />
    <path
       d="M1139 498 V538 C1139 552 1191 552 1191 538 V498"
       fill="#dcecf3"
       stroke="#155f93"
       stroke-width="2"
       id="path86" />
    <text
       x="1165"
       y="527"
       text-anchor="middle"
       font-size="18"
       fill="#17202a"
       id="text87">Data</text>
    <path
       d="M1191 372 H1230 V425 H1270"
       fill="none"
       stroke="#2c6f93"
       stroke-width="3"
       marker-end="url(#arrowBlue)"
       id="path87" />
    <path
       d="M1191 445 H1270"
       fill="none"
       stroke="#2c6f93"
       stroke-width="3"
       marker-end="url(#arrowBlue)"
       id="path88" />
    <path
       d="M1191 518 H1230 V478 H1270"
       fill="none"
       stroke="#2c6f93"
       stroke-width="3"
       marker-end="url(#arrowBlue)"
       id="path89" />
    <!-- policy engine -->
    <rect
       x="1270"
       y="398"
       width="92"
       height="92"
       rx="12"
       fill="url(#engineBlue)"
       stroke="#0f5f8c"
       stroke-width="3"
       id="rect89" />
    <rect
       x="1287"
       y="415"
       width="58"
       height="58"
       rx="8"
       fill="none"
       stroke="#ffffff"
       stroke-width="4"
       id="rect90" />
    <circle
       cx="1316"
       cy="444"
       r="18"
       fill="none"
       stroke="#ffffff"
       stroke-width="5"
       id="circle90" />
    <path
       d="M1305 444 L1314 453 L1330 434"
       fill="none"
       stroke="#ffffff"
       stroke-width="5"
       id="path90" />
    <path
       d="M1316 385 V398 M1316 490 V503 M1257 444 H1270 M1362 444 H1375 M1281 393 L1289 404 M1351 393 L1343 404 M1281 495 L1289 484 M1351 495 L1343 484"
       stroke="#0f5f8c"
       stroke-width="5"
       id="path91" />
    <text
       x="1316"
       y="527"
       text-anchor="middle"
       font-size="22"
       fill="#17202a"
       id="text91">Policy Engine</text>
    <!-- outputs -->
    <path
       d="M1362 418 H1425"
       fill="none"
       stroke="#2ca56d"
       stroke-width="3"
       marker-end="url(#arrowBlue)"
       id="path92" />
    <path
       d="M1362 444 H1425"
       fill="none"
       stroke="#d49b43"
       stroke-width="3"
       marker-end="url(#arrowBlue)"
       id="path93" />
    <path
       d="M1362 470 H1425"
       fill="none"
       stroke="#d93636"
       stroke-width="3"
       marker-end="url(#arrowBlue)"
       id="path94" />
    <path
       d="m 1362,484.62701 h 28 v 36.44179 h 35"
       fill="none"
       stroke="#a70b0b"
       stroke-width="3"
       marker-end="url(#arrowBlue)"
       id="path95" />
    <ellipse
       cx="1468"
       cy="392"
       rx="48"
       ry="11"
       fill="#dff4e4"
       stroke="#2ca56d"
       stroke-width="2"
       id="ellipse95" />
    <path
       d="M1420 392 V431 C1420 444 1516 444 1516 431 V392"
       fill="#dff4e4"
       stroke="#2ca56d"
       stroke-width="2"
       id="path96" />
    <text
       x="1468"
       y="421"
       text-anchor="middle"
       font-size="22"
       fill="#17202a"
       id="text96">Low</text>
    <ellipse
       cx="1468"
       cy="431.1579"
       rx="48"
       ry="11"
       fill="#fff3cd"
       stroke="#d49b43"
       stroke-width="2"
       id="ellipse96" />
    <path
       d="m 1420,431.15789 v 39 c 0,13 96,13 96,0 v -39"
       fill="#fff3cd"
       stroke="#d49b43"
       stroke-width="2"
       id="path97" />
    <text
       x="1469.579"
       y="460.1579"
       text-anchor="middle"
       font-size="22px"
       fill="#17202a"
       id="text97">Medium</text>
    <ellipse
       cx="1468.5264"
       cy="470.8421"
       rx="48"
       ry="11"
       fill="#fde7e7"
       stroke="#d93636"
       stroke-width="2"
       id="ellipse97" />
    <path
       d="m 1420.5263,470.84211 v 39 c 0,13 96,13 96,0 v -39"
       fill="#fde7e7"
       stroke="#d93636"
       stroke-width="2"
       id="path98" />
    <text
       x="1468.5264"
       y="499.8421"
       text-anchor="middle"
       font-size="22px"
       fill="#17202a"
       id="text98">High</text>
    <ellipse
       cx="1468"
       cy="519.47369"
       rx="48"
       ry="11"
       fill="#9b0606"
       stroke="#7b0000"
       stroke-width="2"
       id="ellipse98" />
    <path
       d="m 1420,521.57895 v 19 c 0,12 96,12 96,0 v -19"
       fill="#9b0606"
       stroke="#7b0000"
       stroke-width="2"
       id="path99" />
    <text
       x="1468.5264"
       y="539.42108"
       text-anchor="middle"
       font-size="22px"
       fill="#ffffff"
       id="text99">Critical</text>
    <text
       x="1330"
       y="595.1579"
       text-anchor="middle"
       font-size="17px"
       fill="#17202a"
       id="text100"><tspan
         x="1330"
         id="tspan99">Risk is calculated by multiplying</tspan><tspan
         x="1330"
         dy="22"
         id="tspan100">sensitivity, action intensity, and impact scope.</tspan></text>
  </g>
  <!-- Control measures mapping -->
  <g
     class="font"
     id="g125">
    <rect
       x="27"
       y="742"
       width="1546"
       height="136"
       fill="#ffffff"
       stroke="#2c6f93"
       stroke-width="3"
       id="rect100" />
    <path
       d="M27 773 V742 H57 M1543 742 H1573 V773 M27 847 V878 H57 M1543 878 H1573 V847"
       fill="none"
       stroke="#2c6f93"
       stroke-width="5"
       id="path100" />
    <rect
       x="45"
       y="757"
       width="128"
       height="105"
       fill="#eef7fc"
       stroke="#8eb1c6"
       stroke-width="2"
       id="rect101" />
    <text
       x="106.08028"
       y="792.31836"
       text-anchor="middle"
       font-size="23.8494px"
       font-weight="700"
       fill="#17202a"
       id="text103"
       transform="scale(1.0065791,0.99346391)"
       style="stroke-width:1"><tspan
         x="106.08028"
         id="tspan101"
         style="stroke-width:1">Control</tspan><tspan
         x="106.08028"
         dy="29.573349"
         id="tspan102"
         style="stroke-width:1">Measures</tspan><tspan
         x="106.08028"
         dy="29.573349"
         id="tspan103"
         style="stroke-width:1">Mapping</tspan></text>
    <rect
       x="188"
       y="757"
       width="275"
       height="105"
       fill="#e8f6e8"
       id="rect103" />
    <rect
       x="188"
       y="757"
       width="275"
       height="38"
       fill="#9bd792"
       id="rect104" />
    <text
       x="325"
       y="783"
       text-anchor="middle"
       font-size="23"
       font-weight="700"
       fill="#17202a"
       id="text104">Low Risk</text>
    <text
       x="205"
       y="823"
       font-size="18"
       fill="#17202a"
       id="text105"><tspan
         x="205"
         id="tspan104">- Standard access control</tspan><tspan
         x="205"
         dy="25"
         id="tspan105">- Basic monitoring</tspan></text>
    <rect
       x="416"
       y="827"
       width="28"
       height="25"
       rx="3"
       fill="#101418"
       id="rect105" />
    <path
       d="M421 827 V815 Q430 800 439 815 V827"
       fill="none"
       stroke="#101418"
       stroke-width="5"
       id="path105" />
    <circle
       cx="430"
       cy="839"
       r="4"
       fill="#ffffff"
       id="circle105" />
    <rect
       x="475"
       y="757"
       width="275"
       height="105"
       fill="#fff8d6"
       id="rect106" />
    <rect
       x="475"
       y="757"
       width="275"
       height="38"
       fill="#f3d74e"
       id="rect107" />
    <text
       x="612"
       y="783"
       text-anchor="middle"
       font-size="23"
       font-weight="700"
       fill="#17202a"
       id="text107">Medium Risk</text>
    <text
       x="492"
       y="811.04541"
       font-size="18px"
       fill="#17202a"
       id="text109"
       style="stroke-width:0.999998"><tspan
         x="492"
         id="tspan107"
         style="stroke-width:0.999998">- Role-based access</tspan><tspan
         x="492"
         dy="23"
         id="tspan108"
         style="stroke-width:0.999998">- Partial masking</tspan><tspan
         x="492"
         dy="23"
         id="tspan109"
         style="stroke-width:0.999998">- Logging and auditing</tspan></text>
    <path
       d="M688 828 C705 815 722 815 739 828 C722 845 705 845 688 828 Z"
       fill="#101418"
       id="path109" />
    <circle
       cx="709"
       cy="827"
       r="4"
       fill="#ffffff"
       id="circle109" />
    <circle
       cx="724"
       cy="827"
       r="4"
       fill="#ffffff"
       id="circle110" />
    <rect
       x="762"
       y="757"
       width="275"
       height="105"
       fill="#fff0d4"
       id="rect110" />
    <rect
       x="762"
       y="757"
       width="275"
       height="38"
       fill="#efb24d"
       id="rect111" />
    <text
       x="899"
       y="783"
       text-anchor="middle"
       font-size="23"
       font-weight="700"
       fill="#17202a"
       id="text111">Medium-High Risk</text>
    <text
       x="778.99994"
       y="814.36835"
       font-size="18px"
       fill="#17202a"
       id="text113"
       style="stroke-width:1"><tspan
         x="778.99994"
         id="tspan111"
         style="stroke-width:1">- Feature whitelist</tspan><tspan
         x="778.99994"
         dy="23"
         id="tspan112"
         style="stroke-width:1">- Training approval</tspan><tspan
         x="778.99994"
         dy="23"
         id="tspan113"
         style="stroke-width:1">- Output validation</tspan></text>
    <path
       d="M983 840 C964 825 974 800 994 809 C1014 800 1027 825 1007 840 C1015 852 1004 862 994 856 C983 862 974 852 983 840 Z"
       fill="none"
       stroke="#101418"
       stroke-width="3"
       id="path113" />
    <circle
       cx="987.36841"
       cy="819.3158"
       r="5"
       fill="#101418"
       id="circle113" />
    <circle
       cx="1001.8421"
       cy="829.3158"
       r="5"
       fill="#101418"
       id="circle114" />
    <rect
       x="1049"
       y="757"
       width="275"
       height="105"
       fill="#fde7e7"
       id="rect115" />
    <rect
       x="1049"
       y="757"
       width="275"
       height="38"
       fill="#e92823"
       id="rect116" />
    <text
       x="1186"
       y="783"
       text-anchor="middle"
       font-size="23"
       font-weight="700"
       fill="#ffffff"
       id="text116">High Risk</text>
    <text
       x="1024.9242"
       y="845.99292"
       font-size="17.3064px"
       fill="#17202a"
       id="text118"
       transform="scale(1.0400769,0.96146738)"
       style="stroke-width:0.999996"><tspan
         x="1024.9242"
         id="tspan116"
         style="stroke-width:0.999996">- DPIA assessment</tspan><tspan
         x="1024.9242"
         dy="22.11375"
         id="tspan117"
         style="stroke-width:0.999996">- Legal approval</tspan><tspan
         x="1024.9242"
         dy="22.11375"
         id="tspan118"
         style="stroke-width:0.999996">- Strong auditing</tspan></text>
    <path
       d="m 1280.1579,837.31579 30,-26"
       stroke="#101418"
       stroke-width="8"
       id="path118" />
    <rect
       x="395.59906"
       y="1455.4287"
       width="34"
       height="13"
       transform="rotate(-42)"
       fill="#101418"
       id="rect118" />
    <rect
       x="1292"
       y="828"
       width="34"
       height="13"
       transform="rotate(-42 1309 834.5)"
       fill="#101418"
       id="rect119" />
    <rect
       x="1264"
       y="849"
       width="56"
       height="8"
       fill="#101418"
       id="rect120" />
    <rect
       x="1336"
       y="757"
       width="222"
       height="105"
       fill="#fee2e2"
       id="rect121" />
    <rect
       x="1336"
       y="757"
       width="222"
       height="38"
       fill="#930606"
       id="rect122" />
    <text
       x="1447"
       y="783"
       text-anchor="middle"
       font-size="23"
       font-weight="700"
       fill="#ffffff"
       id="text122">Critical Risk</text>
    <text
       x="1338.2843"
       y="815.21759"
       font-size="15.3856px"
       fill="#17202a"
       id="text124"
       transform="scale(1.0024992,0.99750705)"
       style="stroke-width:1"><tspan
         x="1338.2843"
         id="tspan122"
         style="stroke-width:1">- DPA agreements</tspan><tspan
         x="1338.2843"
         dy="19.910692"
         id="tspan123"
         style="stroke-width:1">- Data masking gateway</tspan><tspan
         x="1338.2843"
         dy="19.910692"
         id="tspan124"
         style="stroke-width:1">- Special review board</tspan></text>
    <rect
       x="1512"
       y="810"
       width="28"
       height="42"
       rx="3"
       fill="#101418"
       id="rect124" />
    <line
       x1="1518"
       y1="819"
       x2="1534"
       y2="819"
       stroke="#ffffff"
       stroke-width="3"
       id="line124" />
    <line
       x1="1518"
       y1="830"
       x2="1534"
       y2="830"
       stroke="#ffffff"
       stroke-width="3"
       id="line125" />
    <circle
       cx="1540"
       cy="844"
       r="17"
       fill="#101418"
       id="circle125" />
    <path
       d="M1531 844 L1538 851 L1551 835"
       fill="none"
       stroke="#ffffff"
       stroke-width="4"
       id="path125" />
  </g>
</svg>
