<?xml version="1.0" encoding="UTF-8" standalone="no"?>
<svg
   width="1600"
   height="900"
   viewBox="0 0 1600 900"
   role="img"
   aria-labelledby="title desc"
   version="1.1"
   id="svg104"
   sodipodi:docname="ch36_02_dpia_ropa_engineering_approval.svg"
   inkscape:version="1.4.4 (dcaf3e7, 2026-05-05)"
   xmlns:inkscape="http://www.inkscape.org/namespaces/inkscape"
   xmlns:sodipodi="http://sodipodi.sourceforge.net/DTD/sodipodi-0.dtd"
   xmlns="http://www.w3.org/2000/svg"
   xmlns:svg="http://www.w3.org/2000/svg">
  <sodipodi:namedview
     id="namedview104"
     pagecolor="#ffffff"
     bordercolor="#000000"
     borderopacity="0.25"
     inkscape:showpageshadow="2"
     inkscape:pageopacity="0.0"
     inkscape:pagecheckerboard="0"
     inkscape:deskcolor="#d1d1d1"
     inkscape:zoom="0.475"
     inkscape:cx="185.26316"
     inkscape:cy="243.1579"
     inkscape:window-width="1920"
     inkscape:window-height="1111"
     inkscape:window-x="-9"
     inkscape:window-y="-9"
     inkscape:window-maximized="1"
     inkscape:current-layer="svg104" />
  <title
     id="title">DPIA and RoPA Engineering Workflow</title>
  <desc
     id="desc">An eight-stage data compliance lifecycle from project initiation and compliance gates through deployment, monitoring, audit, and deletion.</desc>
  <defs
     id="defs3">
    <rect
       x="1509.4869"
       y="498.69636"
       width="2.2329688"
       height="12.65349"
       id="rect106" />
    <marker
       id="arrowBlue"
       markerWidth="10"
       markerHeight="10"
       refX="8"
       refY="5"
       orient="auto"
       markerUnits="strokeWidth">
      <path
         d="M0 0 L10 5 L0 10 Z"
         fill="#247da8"
         id="path1" />
    </marker>
    <marker
       id="arrowGreen"
       markerWidth="10"
       markerHeight="10"
       refX="8"
       refY="5"
       orient="auto"
       markerUnits="strokeWidth">
      <path
         d="M0 0 L10 5 L0 10 Z"
         fill="#2ca56d"
         id="path2" />
    </marker>
    <marker
       id="arrowRed"
       markerWidth="10"
       markerHeight="10"
       refX="8"
       refY="5"
       orient="auto"
       markerUnits="strokeWidth">
      <path
         d="M0 0 L10 5 L0 10 Z"
         fill="#d93636"
         id="path3" />
    </marker>
  </defs>
  <rect
     width="1600"
     height="900"
     fill="#ffffff"
     id="rect3" />
  <text
     x="800"
     y="54"
     text-anchor="middle"
     font-family="Arial, Helvetica, sans-serif"
     font-size="25"
     fill="#4b5563"
     id="text3">Enterprise Data Compliance Lifecycle</text>
  <text
     x="800"
     y="108"
     text-anchor="middle"
     font-family="Arial, Helvetica, sans-serif"
     font-size="45"
     font-weight="700"
     fill="#17202a"
     id="text4"><tspan
       fill="#1877b6"
       id="tspan3">DPIA &amp; RoPA</tspan><tspan
       dx="12"
       id="tspan4">Engineering Workflow</tspan></text>
  <!-- Main lifecycle -->
  <line
     x1="105"
     y1="319"
     x2="1510"
     y2="319"
     stroke="#b7c2ca"
     stroke-width="5"
     id="line4" />
  <g
     font-family="Arial, Helvetica, sans-serif"
     text-anchor="middle"
     id="g32">
    <!-- 1 Project initiation -->
    <text
       x="115"
       y="188"
       font-size="18"
       font-weight="700"
       fill="#17202a"
       id="text6"><tspan
         x="115"
         id="tspan5">PROJECT</tspan><tspan
         x="115"
         dy="22"
         id="tspan6">INITIATION</tspan></text>
    <rect
       x="50"
       y="225"
       width="130"
       height="130"
       rx="5"
       fill="#237fae"
       stroke="#115b88"
       stroke-width="3"
       id="rect6" />
    <circle
       cx="115"
       cy="290"
       r="31"
       fill="none"
       stroke="#ffffff"
       stroke-width="7"
       id="circle6" />
    <circle
       cx="115"
       cy="290"
       r="10"
       fill="#ffffff"
       id="circle7" />
    <path
       d="M115 248 V235 M115 345 V332 M73 290 H60 M170 290 H157 M85 260 L76 251 M154 329 L145 320 M145 260 L154 251 M76 329 L85 320"
       stroke="#ffffff"
       stroke-width="7"
       id="path7" />
    <!-- 2 Compliance gate -->
    <text
       x="310"
       y="188"
       font-size="18"
       font-weight="700"
       fill="#17202a"
       id="text8"><tspan
         x="310"
         id="tspan7">COMPLIANCE</tspan><tspan
         x="310"
         dy="22"
         id="tspan8">GATE</tspan></text>
    <path
       d="M310 220 L372 255 V326 L310 365 L248 326 V255 Z"
       fill="#237fae"
       stroke="#115b88"
       stroke-width="3"
       id="path8" />
    <path
       d="M310 241 L351 264 V313 C351 334 334 347 310 356 C286 347 269 334 269 313 V264 Z"
       fill="#2fa56c"
       stroke="#ffffff"
       stroke-width="4"
       id="path9" />
    <path
       d="M290 299 L305 314 L334 281"
       fill="none"
       stroke="#ffffff"
       stroke-width="8"
       stroke-linecap="square"
       id="path10" />
    <!-- 3 Architecture -->
    <text
       x="505"
       y="188"
       font-size="18"
       font-weight="700"
       fill="#17202a"
       id="text11"><tspan
         x="505"
         id="tspan10">ARCHITECTURE</tspan><tspan
         x="505"
         dy="22"
         id="tspan11">DESIGN</tspan></text>
    <rect
       x="440"
       y="225"
       width="130"
       height="130"
       rx="5"
       fill="#237fae"
       stroke="#115b88"
       stroke-width="3"
       id="rect11" />
    <rect
       x="468"
       y="248"
       width="74"
       height="24"
       fill="#e8f3f8"
       stroke="#ffffff"
       stroke-width="3"
       id="rect12" />
    <rect
       x="468"
       y="280"
       width="74"
       height="24"
       fill="#e8f3f8"
       stroke="#ffffff"
       stroke-width="3"
       id="rect13" />
    <rect
       x="468"
       y="312"
       width="74"
       height="24"
       fill="#e8f3f8"
       stroke="#ffffff"
       stroke-width="3"
       id="rect14" />
    <circle
       cx="528"
       cy="260"
       r="4"
       fill="#2ca56d"
       id="circle14" />
    <circle
       cx="528"
       cy="292"
       r="4"
       fill="#2ca56d"
       id="circle15" />
    <circle
       cx="528"
       cy="324"
       r="4"
       fill="#2ca56d"
       id="circle16" />
    <!-- 4 Development -->
    <text
       x="700"
       y="188"
       font-size="18"
       font-weight="700"
       fill="#17202a"
       id="text17"><tspan
         x="700"
         id="tspan16">DEVELOPMENT</tspan><tspan
         x="700"
         dy="22"
         id="tspan17">&amp; TRAINING</tspan></text>
    <rect
       x="635"
       y="225"
       width="130"
       height="130"
       rx="5"
       fill="#237fae"
       stroke="#115b88"
       stroke-width="3"
       id="rect17" />
    <path
       d="M675 264 L652 290 L675 316 M725 264 L748 290 L725 316 M710 252 L690 328"
       fill="none"
       stroke="#ffffff"
       stroke-width="7"
       id="path17" />
    <circle
       cx="659"
       cy="245"
       r="7"
       fill="#2ca56d"
       id="circle17" />
    <circle
       cx="742"
       cy="337"
       r="7"
       fill="#2ca56d"
       id="circle18" />
    <!-- 5 Pre-deployment -->
    <rect
       x="813"
       y="164"
       width="164"
       height="220"
       rx="6"
       fill="#e5f5f4"
       id="rect18" />
    <text
       x="895"
       y="188"
       font-size="18"
       font-weight="700"
       fill="#17202a"
       id="text19"><tspan
         x="895"
         id="tspan18">PRE-DEPLOYMENT</tspan><tspan
         x="895"
         dy="22"
         id="tspan19">CHECK</tspan></text>
    <rect
       x="830"
       y="225"
       width="130"
       height="130"
       rx="5"
       fill="#2b9b75"
       stroke="#18734f"
       stroke-width="3"
       id="rect19" />
    <rect
       x="869"
       y="253"
       width="54"
       height="76"
       fill="#ffffff"
       stroke="#155b72"
       stroke-width="3"
       id="rect20" />
    <path
       d="M880 272 L888 280 L902 265 M880 292 L888 300 L902 285 M880 312 L888 320 L902 305"
       fill="none"
       stroke="#2ca56d"
       stroke-width="4"
       id="path20" />
    <line
       x1="907"
       y1="276"
       x2="916"
       y2="276"
       stroke="#155b72"
       stroke-width="3"
       id="line20" />
    <line
       x1="907"
       y1="296"
       x2="916"
       y2="296"
       stroke="#155b72"
       stroke-width="3"
       id="line21" />
    <line
       x1="907"
       y1="316"
       x2="916"
       y2="316"
       stroke="#155b72"
       stroke-width="3"
       id="line22" />
    <circle
       cx="892.3949"
       cy="145.16043"
       r="23"
       fill="#2ca56d"
       stroke="#ffffff"
       stroke-width="4"
       id="circle22" />
    <path
       d="m 879.46447,145.96312 9,9 17,-19"
       fill="none"
       stroke="#ffffff"
       stroke-width="6"
       id="path22" />
    <!-- 6 Runtime -->
    <text
       x="1090"
       y="188"
       font-size="18"
       font-weight="700"
       fill="#17202a"
       id="text23"><tspan
         x="1090"
         id="tspan22">RUNTIME</tspan><tspan
         x="1090"
         dy="22"
         id="tspan23">MONITORING</tspan></text>
    <rect
       x="1025"
       y="225"
       width="130"
       height="130"
       rx="5"
       fill="#237fae"
       stroke="#115b88"
       stroke-width="3"
       id="rect23" />
    <rect
       x="1048"
       y="255"
       width="84"
       height="59"
       fill="#e8f3f8"
       stroke="#ffffff"
       stroke-width="3"
       id="rect24" />
    <line
       x1="1048"
       y1="270"
       x2="1132"
       y2="270"
       stroke="#ffffff"
       stroke-width="3"
       id="line24" />
    <circle
       cx="1059"
       cy="263"
       r="3"
       fill="#d93636"
       id="circle24" />
    <circle
       cx="1069"
       cy="263"
       r="3"
       fill="#f2ba45"
       id="circle25" />
    <circle
       cx="1079"
       cy="263"
       r="3"
       fill="#2ca56d"
       id="circle26" />
    <path
       d="M1060 299 L1074 288 L1086 302 L1102 282 L1120 292"
       fill="none"
       stroke="#2ca56d"
       stroke-width="5"
       id="path26" />
    <line
       x1="1076"
       y1="326"
       x2="1104"
       y2="326"
       stroke="#ffffff"
       stroke-width="5"
       id="line26" />
    <!-- 7 Audit -->
    <text
       x="1285"
       y="188"
       font-size="18"
       font-weight="700"
       fill="#17202a"
       id="text27"><tspan
         x="1285"
         id="tspan26">AUDIT &amp;</tspan><tspan
         x="1285"
         dy="22"
         id="tspan27">RESPONSE</tspan></text>
    <rect
       x="1220"
       y="225"
       width="130"
       height="130"
       rx="5"
       fill="#237fae"
       stroke="#115b88"
       stroke-width="3"
       id="rect27" />
    <path
       d="M1260 267 L1303 310 M1281 246 L1324 289"
       stroke="#ffffff"
       stroke-width="11"
       id="path27" />
    <rect
       x="1251"
       y="254"
       width="42"
       height="15"
       transform="rotate(-45 1272 261.5)"
       fill="#e8f3f8"
       stroke="#ffffff"
       stroke-width="2"
       id="rect28" />
    <rect
       x="1292"
       y="295"
       width="42"
       height="15"
       transform="rotate(-45 1313 302.5)"
       fill="#e8f3f8"
       stroke="#ffffff"
       stroke-width="2"
       id="rect29" />
    <rect
       x="1251"
       y="326"
       width="68"
       height="10"
       fill="#ffffff"
       id="rect30" />
    <!-- 8 Decommission -->
    <text
       x="1480"
       y="188"
       font-size="18"
       font-weight="700"
       fill="#17202a"
       id="text31"><tspan
         x="1480"
         id="tspan30">DATA</tspan><tspan
         x="1480"
         dy="22"
         id="tspan31">DECOMMISSION</tspan></text>
    <rect
       x="1415"
       y="225"
       width="130"
       height="130"
       rx="5"
       fill="#2b9b75"
       stroke="#18734f"
       stroke-width="3"
       id="rect31" />
    <path
       d="M1449 264 H1511 L1503 331 H1457 Z M1442 251 H1518 V264 H1442 Z M1465 242 H1495 V251 H1465 Z"
       fill="#e8f3f8"
       stroke="#ffffff"
       stroke-width="3"
       id="path31" />
    <path
       d="M1472 280 L1480 272 L1488 280 M1488 280 L1497 289 L1488 298 M1488 298 L1480 306 L1472 298"
       fill="none"
       stroke="#2ca56d"
       stroke-width="4"
       id="path32" />
  </g>
  <!-- Flow arrows -->
  <g
     fill="#2ca56d"
     id="g39">
    <path
       d="M180 302 H232 V287 L248 319 L232 351 V336 H180 Z"
       id="path33" />
    <path
       d="M372 302 H424 V287 L440 319 L424 351 V336 H372 Z"
       id="path34" />
    <path
       d="M570 302 H619 V287 L635 319 L619 351 V336 H570 Z"
       id="path35" />
    <path
       d="M765 302 H814 V287 L830 319 L814 351 V336 H765 Z"
       id="path36" />
    <path
       d="M960 302 H1009 V287 L1025 319 L1009 351 V336 H960 Z"
       id="path37" />
    <path
       d="M1155 302 H1204 V287 L1220 319 L1204 351 V336 H1155 Z"
       id="path38" />
    <path
       d="M1350 302 H1399 V287 L1415 319 L1399 351 V336 H1350 Z"
       id="path39" />
  </g>
  <path
     d="M1545 302 H1576 V287 L1595 319 L1576 351 V336 H1545 Z"
     fill="#d93636"
     id="path40" />
  <!-- Hard-stop gates -->
  <g
     font-family="Arial, Helvetica, sans-serif"
     text-anchor="middle"
     id="g43">
    <path
       d="m 187.65789,265.07895 13,-13 h 19 l 13,13 v 19 l -13,13 h -19 l -13,-13 z"
       fill="#d93636"
       stroke="#ffffff"
       stroke-width="3"
       id="path41" />
    <text
       x="210.1579"
       y="280.07895"
       font-size="11px"
       font-weight="700"
       fill="#ffffff"
       id="text41">STOP</text>
    <path
       d="m 772.4857,267.44029 13,-13 h 19 l 13,13 v 19 l -13,13 h -19 l -13,-13 z"
       fill="#d93636"
       stroke="#ffffff"
       stroke-width="3"
       id="path42" />
    <text
       x="794.98572"
       y="282.44028"
       font-size="11px"
       font-weight="700"
       fill="#ffffff"
       id="text42">STOP</text>
    <text
       x="1550"
       y="383"
       font-size="17"
       font-weight="700"
       fill="#d93636"
       id="text43">DELETED</text>
  </g>
  <!-- Stage controls and evidence -->
  <g
     font-family="Arial, Helvetica, sans-serif"
     id="g103">
    <!-- RoPA -->
    <line
       x1="115"
       y1="355"
       x2="115"
       y2="426"
       stroke="#247da8"
       stroke-width="3"
       id="line43" />
    <rect
       x="40"
       y="426"
       width="175"
       height="395"
       fill="#f4f7f8"
       stroke="#c6d2d9"
       stroke-width="2"
       id="rect43" />
    <rect
       x="90.609543"
       y="449.51135"
       width="70"
       height="88"
       fill="#ffffff"
       stroke="#247da8"
       stroke-width="3"
       id="rect44" />
    <rect
       x="108.60954"
       y="441.51135"
       width="34"
       height="14"
       fill="#dcecf3"
       stroke="#247da8"
       stroke-width="3"
       id="rect45" />
    <circle
       cx="108.60954"
       cy="475.51135"
       r="7"
       fill="none"
       stroke="#2ca56d"
       stroke-width="3"
       id="circle45" />
    <line
       x1="122.60954"
       y1="475.51135"
       x2="147.60954"
       y2="475.51135"
       stroke="#247da8"
       stroke-width="3"
       id="line45" />
    <line
       x1="101.60954"
       y1="495.51135"
       x2="149.60954"
       y2="495.51135"
       stroke="#9ab5c3"
       stroke-width="3"
       id="line46" />
    <line
       x1="101.60954"
       y1="512.51135"
       x2="149.60954"
       y2="512.51135"
       stroke="#9ab5c3"
       stroke-width="3"
       id="line47" />
    <text
       x="127.5"
       y="566"
       text-anchor="middle"
       font-size="17"
       font-weight="700"
       fill="#17202a"
       id="text48"><tspan
         x="127.5"
         id="tspan47">Mandatory RoPA</tspan><tspan
         x="127.5"
         dy="20"
         id="tspan48">form</tspan></text>
    <text
       x="53.170521"
       y="594.50049"
       font-size="15.3667px"
       fill="#374151"
       id="text53"
       transform="scale(0.96042078,1.0412103)"
       style="stroke-width:1"><tspan
         x="53.170521"
         id="tspan49"
         style="stroke-width:1">• Data type &amp; source</tspan><tspan
         x="53.170521"
         dy="25.93136"
         id="tspan50"
         style="stroke-width:1">• Purpose &amp; legal basis</tspan><tspan
         x="53.170521"
         dy="25.93136"
         id="tspan51"
         style="stroke-width:1">• Data subject &amp; owner</tspan><tspan
         x="53.170521"
         dy="25.93136"
         id="tspan52"
         style="stroke-width:1">• Retention period (TTL)</tspan><tspan
         x="53.170521"
         dy="25.93136"
         id="tspan53"
         style="stroke-width:1">• Deletion method</tspan></text>
    <rect
       x="55"
       y="758"
       width="145"
       height="42"
       fill="#dcecf3"
       stroke="#247da8"
       stroke-width="2"
       id="rect53" />
    <text
       x="127.5"
       y="785"
       text-anchor="middle"
       font-size="16"
       font-weight="700"
       fill="#155b72"
       id="text54">Required evidence</text>
    <!-- DPIA -->
    <line
       x1="310"
       y1="365"
       x2="310"
       y2="426"
       stroke="#247da8"
       stroke-width="3"
       id="line54" />
    <rect
       x="230"
       y="426"
       width="175"
       height="395"
       fill="#f4f7f8"
       stroke="#c6d2d9"
       stroke-width="2"
       id="rect54" />
    <path
       d="M317 451 L361 470 V516 C361 541 343 557 317 568 C291 557 273 541 273 516 V470 Z"
       fill="#237fae"
       stroke="#115b88"
       stroke-width="3"
       id="path54" />
    <text
       x="317"
       y="519"
       text-anchor="middle"
       font-size="23"
       font-weight="700"
       fill="#ffffff"
       id="text55">DPIA</text>
    <text
       x="317.5"
       y="596"
       text-anchor="middle"
       font-size="17"
       font-weight="700"
       fill="#17202a"
       id="text56"><tspan
         x="317.5"
         id="tspan55">Trigger DPIA</tspan><tspan
         x="317.5"
         dy="20"
         id="tspan56">automatically</tspan></text>
    <text
       x="257.29437"
       y="603.1402"
       font-size="15.055px"
       fill="#374151"
       id="text60"
       transform="scale(0.94093634,1.0627712)"
       style="stroke-width:0.999999"><tspan
         x="257.29437"
         id="tspan57"
         style="stroke-width:0.999999">• Sensitive data</tspan><tspan
         x="257.29437"
         dy="25.405281"
         id="tspan58"
         style="stroke-width:0.999999">• New algorithms/models</tspan><tspan
         x="257.29437"
         dy="25.405281"
         id="tspan59"
         style="stroke-width:0.999999">• Automated decisions</tspan><tspan
         x="257.29437"
         dy="25.405281"
         id="tspan60"
         style="stroke-width:0.999999">• High-impact processing</tspan></text>
    <rect
       x="245"
       y="758"
       width="145"
       height="42"
       fill="#fde7e7"
       stroke="#d93636"
       stroke-width="2"
       id="rect60" />
    <text
       x="317.5"
       y="776"
       text-anchor="middle"
       font-size="15"
       font-weight="700"
       fill="#b82020"
       id="text62"><tspan
         x="317.5"
         id="tspan61">Block progression</tspan><tspan
         x="317.5"
         dy="17"
         id="tspan62">if incomplete</tspan></text>
    <!-- Architecture controls -->
    <line
       x1="505"
       y1="355"
       x2="505"
       y2="426"
       stroke="#247da8"
       stroke-width="3"
       id="line62" />
    <rect
       x="420"
       y="426"
       width="180"
       height="395"
       fill="#f4f7f8"
       stroke="#c6d2d9"
       stroke-width="2"
       id="rect62" />
    <text
       x="435"
       y="466"
       font-size="18"
       font-weight="700"
       fill="#17202a"
       id="text63">Embed controls</text>
    <g
       fill="#dcecf3"
       stroke="#247da8"
       stroke-width="2"
       id="g65">
      <rect
         x="438"
         y="492"
         width="144"
         height="54"
         id="rect63" />
      <rect
         x="438"
         y="562"
         width="144"
         height="54"
         id="rect64" />
      <rect
         x="438"
         y="632"
         width="144"
         height="54"
         id="rect65" />
    </g>
    <path
       d="M455 519 H472 M455 589 H472 M455 659 H472"
       stroke="#2ca56d"
       stroke-width="5"
       id="path65" />
    <text
       x="476.78973"
       y="525"
       font-size="16px"
       fill="#17202a"
       id="text65">Data masking</text>
    <text
       x="508.41809"
       y="564.08026"
       font-size="15.1685px"
       fill="#17202a"
       id="text66"
       transform="scale(0.948034,1.0548145)"
       style="stroke-width:0.999996">Access control</text>
    <text
       x="482"
       y="665"
       font-size="16"
       fill="#17202a"
       id="text67">Audit logging</text>
    <text
       x="438.06482"
       y="725.89185"
       font-size="14.8952px"
       fill="#4b5563"
       id="text68"
       transform="scale(0.99301211,1.0070371)"
       style="stroke-width:1"><tspan
         x="438.06482"
         id="tspan67"
         style="stroke-width:1">Controls become part of</tspan><tspan
         x="438.06482"
         dy="20.853254"
         id="tspan68"
         style="stroke-width:1">the system architecture.</tspan></text>
    <!-- Automated validation -->
    <line
       x1="700"
       y1="355"
       x2="700"
       y2="426"
       stroke="#247da8"
       stroke-width="3"
       id="line68" />
    <rect
       x="615"
       y="426"
       width="180"
       height="395"
       fill="#f4f7f8"
       stroke="#c6d2d9"
       stroke-width="2"
       id="rect68" />
    <text
       x="630"
       y="466"
       font-size="18"
       font-weight="700"
       fill="#17202a"
       id="text69">Automated checks</text>
    <circle
       cx="646.60217"
       cy="517.51135"
       r="22"
       fill="#2ca56d"
       id="circle69" />
    <path
       d="m 635.60219,517.51135 9,9 16,-19"
       fill="none"
       stroke="#ffffff"
       stroke-width="5"
       id="path69" />
    <text
       x="678.60217"
       y="509.51135"
       font-size="16px"
       fill="#17202a"
       id="text70"><tspan
         x="678.60217"
         id="tspan69">Usage and</tspan><tspan
         x="678.60217"
         dy="20"
         id="tspan70">permission</tspan></text>
    <circle
       cx="646.60217"
       cy="588.51135"
       r="22"
       fill="#2ca56d"
       id="circle70" />
    <path
       d="m 635.60219,588.51135 9,9 16,-19"
       fill="none"
       stroke="#ffffff"
       stroke-width="5"
       id="path70" />
    <text
       x="678.60217"
       y="580.51135"
       font-size="16px"
       fill="#17202a"
       id="text72"><tspan
         x="678.60217"
         id="tspan71">Data scope and</tspan><tspan
         x="678.60217"
         dy="20"
         id="tspan72">purpose binding</tspan></text>
    <circle
       cx="646.60217"
       cy="659.51135"
       r="22"
       fill="#2ca56d"
       id="circle72" />
    <path
       d="m 635.60219,659.51135 9,9 16,-19"
       fill="none"
       stroke="#ffffff"
       stroke-width="5"
       id="path72" />
    <text
       x="725.14417"
       y="609.73718"
       font-size="14.9741px"
       fill="#17202a"
       id="text74"
       transform="scale(0.93588111,1.0685118)"
       style="stroke-width:0.999998"><tspan
         x="725.14417"
         id="tspan73"
         style="stroke-width:0.999998">Training and</tspan><tspan
         x="725.14417"
         dy="18.717623"
         id="tspan74"
         style="stroke-width:0.999998">release evidence</tspan></text>
    <text
       x="637.35602"
       y="735.43311"
       font-size="14.8273px"
       fill="#4b5563"
       id="text76"
       transform="scale(0.98848534,1.0116488)"
       style="stroke-width:1"><tspan
         x="637.35602"
         id="tspan75"
         style="stroke-width:1">Checks run continuously</tspan><tspan
         x="637.35602"
         dy="20.758192"
         id="tspan76"
         style="stroke-width:1">inside CI/CD.</tspan></text>
    <!-- Deployment gate -->
    <line
       x1="895"
       y1="384"
       x2="895"
       y2="426"
       stroke="#247da8"
       stroke-width="3"
       id="line76" />
    <rect
       x="810"
       y="426"
       width="180"
       height="395"
       fill="#edf8f4"
       stroke="#8fc9b0"
       stroke-width="2"
       id="rect76" />
    <text
       x="901.48865"
       y="449.53406"
       text-anchor="middle"
       font-size="16px"
       font-weight="700"
       fill="#b82020"
       id="text78"><tspan
         x="901.48865"
         id="tspan77">Block deployment</tspan><tspan
         x="901.48865"
         dy="19"
         id="tspan78">when checks fail</tspan></text>
    <path
       d="M879 490 L891 478 H909 L921 490 V508 L909 520 H891 L879 508 Z"
       fill="#d93636"
       id="path78" />
    <text
       x="900"
       y="504"
       text-anchor="middle"
       font-size="12"
       font-weight="700"
       fill="#ffffff"
       id="text79">STOP</text>
    <text
       x="915.66235"
       y="545.30725"
       text-anchor="middle"
       font-size="16.6954px"
       font-weight="700"
       fill="#17202a"
       id="text80"
       transform="scale(0.98208326,1.0182436)"
       style="stroke-width:0.999996">Mandatory validation</text>
    <g
       font-size="16"
       fill="#17202a"
       id="g84">
      <circle
         cx="842"
         cy="588"
         r="15"
         fill="#2ca56d"
         id="circle80" />
      <path
         d="M834 588 L840 594 L850 581"
         fill="none"
         stroke="#ffffff"
         stroke-width="3"
         id="path80" />
      <text
         x="868"
         y="594"
         id="text81">DPIA complete</text>
      <circle
         cx="842"
         cy="635"
         r="15"
         fill="#2ca56d"
         id="circle81" />
      <path
         d="M834 635 L840 641 L850 628"
         fill="none"
         stroke="#ffffff"
         stroke-width="3"
         id="path81" />
      <text
         x="868"
         y="641"
         id="text82">RoPA complete</text>
      <circle
         cx="842"
         cy="682"
         r="15"
         fill="#2ca56d"
         id="circle82" />
      <path
         d="M834 682 L840 688 L850 675"
         fill="none"
         stroke="#ffffff"
         stroke-width="3"
         id="path82" />
      <text
         x="904.8222"
         y="660.04974"
         id="text83"
         transform="scale(0.95937462,1.0423457)"
         style="font-size:15.35px;stroke-width:1">Controls enabled</text>
      <circle
         cx="842"
         cy="729"
         r="15"
         fill="#2ca56d"
         id="circle83" />
      <path
         d="M834 729 L840 735 L850 722"
         fill="none"
         stroke="#ffffff"
         stroke-width="3"
         id="path83" />
      <text
         x="918.48962"
         y="694.7049"
         id="text84"
         transform="scale(0.94517669,1.0580032)"
         style="font-size:15.1228px;stroke-width:0.999997">Evidence archived</text>
    </g>
    <!-- Runtime monitoring -->
    <line
       x1="1090"
       y1="355"
       x2="1090"
       y2="426"
       stroke="#247da8"
       stroke-width="3"
       id="line84" />
    <rect
       x="1005"
       y="426"
       width="180"
       height="395"
       fill="#f4f7f8"
       stroke="#c6d2d9"
       stroke-width="2"
       id="rect84" />
    <text
       x="1074.642"
       y="442.34201"
       font-size="17.0862px"
       font-weight="700"
       fill="#17202a"
       id="text85"
       transform="scale(0.94923178,1.0534835)"
       style="stroke-width:0.999997">Continuous tracking</text>
    <g
       font-size="16"
       fill="#17202a"
       id="g89">
      <circle
         cx="1040"
         cy="515"
         r="12"
         fill="#2ca56d"
         id="circle85" />
      <text
         x="1065"
         y="521"
         id="text86">User consent</text>
      <rect
         x="1028"
         y="557"
         width="24"
         height="30"
         fill="#dcecf3"
         stroke="#247da8"
         stroke-width="2"
         id="rect86" />
      <text
         x="1065"
         y="579"
         id="text87">Access logs</text>
      <path
         d="M1028 632 L1040 620 L1052 632 L1040 644 Z"
         fill="#2ca56d"
         id="path87" />
      <text
         x="1065"
         y="631"
         id="text88"><tspan
           x="1065"
           id="tspan87">Tamper-proof</tspan><tspan
           x="1065"
           dy="18"
           id="tspan88">storage</tspan></text>
      <rect
         x="1028"
         y="678"
         width="24"
         height="24"
         fill="#dcecf3"
         stroke="#247da8"
         stroke-width="2"
         id="rect88" />
      <text
         x="1139.119"
         y="651.763"
         id="text89"
         transform="scale(0.93509758,1.0694071)"
         style="font-size:14.9616px;stroke-width:1">Immutable records</text>
    </g>
    <text
       x="1044.6432"
       y="739.16064"
       font-size="14.6465px"
       fill="#4b5563"
       id="text90"
       transform="scale(0.97643416,1.0241346)"
       style="stroke-width:0.999996"><tspan
         x="1044.6432"
         id="tspan89"
         style="stroke-width:0.999996">Runtime evidence feeds</tspan><tspan
         x="1044.6432"
         dy="20.505117"
         id="tspan90"
         style="stroke-width:0.999996">audit and response.</tspan></text>
    <!-- Audit and trace -->
    <line
       x1="1285"
       y1="355"
       x2="1285"
       y2="426"
       stroke="#247da8"
       stroke-width="3"
       id="line90" />
    <rect
       x="1200"
       y="426"
       width="180"
       height="395"
       fill="#f4f7f8"
       stroke="#c6d2d9"
       stroke-width="2"
       id="rect90" />
    <text
       x="1215"
       y="466"
       font-size="18"
       font-weight="700"
       fill="#17202a"
       id="text91">Full data lineage</text>
    <circle
       cx="1289"
       cy="536"
       r="43"
       fill="#dcecf3"
       stroke="#247da8"
       stroke-width="3"
       id="circle91" />
    <circle
       cx="1289"
       cy="536"
       r="7"
       fill="#247da8"
       id="circle92" />
    <line
       x1="1289"
       y1="536"
       x2="1289"
       y2="508"
       stroke="#247da8"
       stroke-width="4"
       id="line92" />
    <line
       x1="1289"
       y1="536"
       x2="1310"
       y2="548"
       stroke="#247da8"
       stroke-width="4"
       id="line93" />
    <path
       d="m 1229.1085,630 h 39.704 v -20 h 48.7792 v 36 h 37.4352"
       fill="none"
       stroke="#2ca56d"
       stroke-width="4"
       marker-end="url(#arrowGreen)"
       id="path93" />
    <circle
       cx="1230"
       cy="630"
       r="9"
       fill="#237fae"
       id="circle93" />
    <circle
       cx="1265"
       cy="610"
       r="9"
       fill="#2ca56d"
       id="circle94" />
    <text
       x="1267.6801"
       y="674.77173"
       font-size="16.2942px"
       font-weight="700"
       fill="#17202a"
       id="text96"
       transform="scale(0.9584826,1.0433158)"
       style="stroke-width:1"><tspan
         x="1267.6801"
         id="tspan95"
         style="stroke-width:1">Retrieve evidence for</tspan><tspan
         x="1267.6801"
         dy="21.086617"
         id="tspan96"
         style="stroke-width:1">a specific use quickly</tspan></text>
    <text
       x="1215"
       y="765"
       font-size="15"
       fill="#4b5563"
       id="text98"><tspan
         x="1215"
         id="tspan97">Support investigation,</tspan><tspan
         x="1215"
         dy="21"
         id="tspan98">audit, and remediation.</tspan></text>
    <!-- Decommission -->
    <line
       x1="1480"
       y1="355"
       x2="1480"
       y2="426"
       stroke="#2ca56d"
       stroke-width="3"
       id="line98" />
    <rect
       x="1395"
       y="426"
       width="165"
       height="395"
       fill="#edf8f4"
       stroke="#8fc9b0"
       stroke-width="2"
       id="rect98" />
    <text
       x="1477.5"
       y="466"
       text-anchor="middle"
       font-size="17px"
       font-weight="700"
       fill="#17202a"
       id="text99">deletion</text>
    <path
       d="M1426 507 H1466 L1461 551 H1431 Z M1421 497 H1471 V507 H1421 Z"
       fill="#dcecf3"
       stroke="#247da8"
       stroke-width="2"
       id="path99" />
    <text
       x="1477.3949"
       y="509.3465"
       font-size="16px"
       fill="#17202a"
       id="text100"><tspan
         sodipodi:role="line"
         id="tspan104"
         x="1477.3949"
         y="509.3465"><tspan
           x="1477.3949"
           id="tspan99">Enforced</tspan></tspan><tspan
         sodipodi:role="line"
         id="tspan105"
         x="1477.3949"
         y="529.3465"><tspan
           x="1477.3949"
           id="tspan106">TTL-based</tspan><tspan
           x="1477.3949"
           dy="20"
           id="tspan100">deletion</tspan></tspan></text>
    <path
       d="M1424 601 H1466 V642 H1424 Z M1432 592 H1454 L1466 604"
       fill="#dcecf3"
       stroke="#247da8"
       stroke-width="2"
       id="path100" />
    <line
       x1="1433"
       y1="616"
       x2="1457"
       y2="616"
       stroke="#247da8"
       stroke-width="2"
       id="line100" />
    <line
       x1="1433"
       y1="627"
       x2="1457"
       y2="627"
       stroke="#247da8"
       stroke-width="2"
       id="line101" />
    <text
       x="1474.7898"
       y="615.74432"
       font-size="16px"
       fill="#17202a"
       id="text102"><tspan
         x="1474.7898"
         id="tspan101">Destruction</tspan><tspan
         x="1474.7898"
         dy="20"
         id="tspan102">records</tspan></text>
    <path
       d="M1477 682 V744"
       stroke="#d93636"
       stroke-width="4"
       marker-end="url(#arrowRed)"
       id="path102" />
    <rect
       x="1418"
       y="753"
       width="124"
       height="46"
       fill="#fde7e7"
       stroke="#d93636"
       stroke-width="2"
       id="rect102" />
    <text
       x="1480"
       y="783"
       text-anchor="middle"
       font-size="18"
       font-weight="700"
       fill="#b82020"
       id="text103">DELETED</text>
  </g>
  <text
     x="800"
     y="864"
     text-anchor="middle"
     font-family="Arial, Helvetica, sans-serif"
     font-size="18"
     fill="#4b5563"
     id="text104">Every stage produces auditable evidence; missing high-risk evidence blocks progression or deployment.</text>
  <text
     xml:space="preserve"
     id="text106"
     style="writing-mode:lr-tb;direction:ltr;white-space:pre;shape-inside:url(#rect106);display:inline;fill:#14181b" />
</svg>
